<?xml version="1.0" encoding="UTF-8" standalone="no"?>
<!DOCTYPE svg PUBLIC "-//W3C//DTD SVG 1.1//EN" "http://www.w3.org/Graphics/SVG/1.1/DTD/svg11.dtd">
<svg xmlns="http://www.w3.org/2000/svg" fill-rule="evenodd" clip-rule="evenodd" viewBox="0 0 139 117" width="139" height="117">
  <path fill="none" stroke="#e3a500" stroke-width=".5px" d="M39.156 4.401a2.2 2.2 0 00-2.001.217L14.14 19.827l-8.198 2.198c-3.513.942-5.629 4.607-4.687 8.12l2.29 8.542c.942 3.513 4.608 5.628 8.121 4.686l2.135-.572 2.29 8.54c.942 3.513 4.608 5.629 8.121 4.687l4.27-1.145a2.222 2.222 0 001.563-2.708l-2.782-10.376 20.184 1.132c.236.014.472-.01.7-.071a2.219 2.219 0 001.529-2.814L40.518 5.889a2.211 2.211 0 00-1.362-1.488zM7.814 37.54l-2.289-8.539a2.222 2.222 0 011.562-2.708l6.405-1.717 3.434 12.809-6.404 1.718a2.223 2.223 0 01-2.708-1.563zm17.388 13.645l-2.135.572a2.222 2.222 0 01-2.708-1.562l-2.289-8.54 1.729-.463 2.804.301 2.599 9.692zm19.419-12.918L24.58 37.256l-3.207-.353-3.772-14.069 19.443-12.832 7.577 28.265zm1.302-30.394a2.222 2.222 0 01-.01-3.126l.011-.01 3.125-3.125a2.21 2.21 0 01.922-.506 2.22 2.22 0 012.707 1.562 2.214 2.214 0 01-.504 2.065l-3.121 3.125a2.223 2.223 0 01-3.126.009l-.011-.019.007.025zm15.971 30.041a2.209 2.209 0 01-2.698 1.577l-.014-.003-4.267-1.144a2.212 2.212 0 01-1.679-1.59 2.22 2.22 0 011.562-2.707 2.214 2.214 0 011.261.032l4.266 1.145a2.22 2.22 0 011.59 2.685l-.021.005zm-3.99-18.38a2.222 2.222 0 01-1.562 2.708l-4.27 1.144a2.22 2.22 0 01-2.707-1.562 2.22 2.22 0 011.562-2.707l4.27-1.145a2.222 2.222 0 012.707 1.562zm72.422 10.22l-.689-2.766-6.913 1.724h-.001a1.43 1.43 0 00-1.037 1.726v.001l-4.958 1.236-5.897-3.543-2.271-9.106v-.001a1.431 1.431 0 00-1.726-1.038c-4.548 1.139-7.357 5.814-6.227 10.364l1.723 6.912-10.369 2.585-.007.002c-2.651.661-4.288 3.386-3.627 6.037a4.979 4.979 0 002.325 3.098 4.956 4.956 0 002.721 7.348 4.949 4.949 0 00-.214 3.048 4.947 4.947 0 003.32 3.52 4.97 4.97 0 00-.212 3.057c.66 2.646 3.38 4.28 6.025 3.62l.016-.004 26.961-6.722v.001a1.43 1.43 0 001.726 1.037h.001l6.913-1.724-.688-2.759-5.531 1.379-6.895-27.653 5.531-1.379zM101.62 64.81a2.148 2.148 0 01-2.591-1.556 2.15 2.15 0 011.557-2.592l2.074-.517-.69-2.765-3.456.862a2.148 2.148 0 01-2.591-1.557 2.147 2.147 0 011.557-2.591l2.073-.517-.689-2.766-3.456.862a2.148 2.148 0 01-2.592-1.557 2.15 2.15 0 011.557-2.591l2.074-.517-.689-2.761-2.073.517a2.148 2.148 0 01-2.591-1.557 2.147 2.147 0 011.557-2.591l11.753-2.931a1.43 1.43 0 001.037-1.726v-.001l-2.069-8.297a5.722 5.722 0 012.814-6.388l2.025 8.12c.091.366.324.682.648.876l6.91 4.152c.323.194.711.252 1.078.161l5.53-1.379 6.205 24.885-26.962 6.722zm-1.916 24.709a4.966 4.966 0 00-2.325-3.091 4.961 4.961 0 00.602-3.819 4.962 4.962 0 00-3.323-3.529 4.94 4.94 0 00-3.106-6.569 4.966 4.966 0 00.212-3.058c-.659-2.645-3.378-4.279-6.023-3.62l-.017.005-26.961 6.722v-.001a1.43 1.43 0 00-1.726-1.037h-.001l-6.913 1.723.69 2.766 5.53-1.379 6.895 27.653-5.531 1.379.69 2.765 6.912-1.723h.001a1.433 1.433 0 001.038-1.727l-.001-.001 4.958-1.236 5.898 3.544 2.27 9.105v.001a1.431 1.431 0 001.727 1.037h.001c4.548-1.138 7.358-5.813 6.228-10.364l-1.724-6.916 10.367-2.585c2.652-.664 4.29-3.391 3.632-6.045zm-4.322 3.28l-11.751 2.93h-.001a1.43 1.43 0 00-1.037 1.726v.001l2.069 8.299a5.722 5.722 0 01-2.813 6.39l-2.025-8.124a1.43 1.43 0 00-.648-.876l-6.91-4.152a1.429 1.429 0 00-1.078-.161l-5.531 1.379-6.205-24.886 26.961-6.722a2.147 2.147 0 012.591 1.557 2.147 2.147 0 01-1.557 2.591l-2.071.517.689 2.765 3.456-.862a2.148 2.148 0 012.592 1.557 2.149 2.149 0 01-1.557 2.591l-2.077.518.69 2.765 3.456-.861a2.147 2.147 0 012.591 1.556 2.148 2.148 0 01-1.557 2.592l-2.073.517.689 2.765 2.074-.517a2.148 2.148 0 012.591 1.557 2.148 2.148 0 01-1.557 2.591l-.001-.003zm-8.605-55.126c.443-.11.888-.21 1.329-.3l-.566-2.793c-.484.098-.968.207-1.452.328C70.809 38.706 60.323 53.01 61.3 68.724l2.842-.179c-.892-14.347 8.684-27.407 22.635-30.872zm14.479 58.067c-.442.111-.887.21-1.329.301l.568 2.795a34.72 34.72 0 001.451-.327c15.28-3.799 25.765-18.106 24.787-33.82l-2.844.179c.891 14.347-8.683 27.406-22.633 30.872z"/>
</svg>
