<svg xmlns="http://www.w3.org/2000/svg" width="73.756" height="73.756" viewBox="0 0 73.756 73.756">
  <path fill="#007ac2" d="M36.878 15.527a11.438 11.438 0 0 0-11.646 11.646 11.438 11.438 0 0 0 11.646 11.646 11.438 11.438 0 0 0 11.645-11.646 11.438 11.438 0 0 0-11.645-11.646Zm0 19.409a7.764 7.764 0 1 1 7.764-7.764 7.787 7.787 0 0 1-7.764 7.765Zm0-19.409a11.438 11.438 0 0 0-11.646 11.646 11.438 11.438 0 0 0 11.646 11.646 11.438 11.438 0 0 0 11.645-11.646 11.438 11.438 0 0 0-11.645-11.646Zm0 19.409a7.764 7.764 0 1 1 7.764-7.764 7.787 7.787 0 0 1-7.764 7.765Zm0-19.409a11.438 11.438 0 0 0-11.646 11.646 11.438 11.438 0 0 0 11.646 11.646 11.438 11.438 0 0 0 11.645-11.646 11.438 11.438 0 0 0-11.645-11.646Zm0 19.409a7.764 7.764 0 1 1 7.764-7.764 7.787 7.787 0 0 1-7.764 7.765Zm0-19.409a11.438 11.438 0 0 0-11.646 11.646 11.438 11.438 0 0 0 11.646 11.646 11.438 11.438 0 0 0 11.645-11.646 11.438 11.438 0 0 0-11.645-11.646Zm0 19.409a7.764 7.764 0 1 1 7.764-7.764 7.787 7.787 0 0 1-7.764 7.765Zm0-19.409a11.438 11.438 0 0 0-11.646 11.646 11.438 11.438 0 0 0 11.646 11.646 11.438 11.438 0 0 0 11.645-11.646 11.438 11.438 0 0 0-11.645-11.646Zm0 19.409a7.764 7.764 0 1 1 7.764-7.764 7.787 7.787 0 0 1-7.764 7.765Zm0-19.409a11.438 11.438 0 0 0-11.646 11.646 11.438 11.438 0 0 0 11.646 11.646 11.438 11.438 0 0 0 11.645-11.646 11.438 11.438 0 0 0-11.645-11.646Zm0 19.409a7.764 7.764 0 1 1 7.764-7.764 7.787 7.787 0 0 1-7.764 7.765Zm0-19.409a11.438 11.438 0 0 0-11.646 11.646 11.438 11.438 0 0 0 11.646 11.646 11.438 11.438 0 0 0 11.645-11.646 11.438 11.438 0 0 0-11.645-11.646Zm0 19.409a7.764 7.764 0 1 1 7.764-7.764 7.787 7.787 0 0 1-7.764 7.765Zm0-19.409a11.438 11.438 0 0 0-11.646 11.646 11.438 11.438 0 0 0 11.646 11.646 11.438 11.438 0 0 0 11.645-11.646 11.438 11.438 0 0 0-11.645-11.646Zm0 19.409a7.764 7.764 0 1 1 7.764-7.764 7.787 7.787 0 0 1-7.764 7.765Zm0-19.409a11.438 11.438 0 0 0-11.646 11.646 11.438 11.438 0 0 0 11.646 11.646 11.438 11.438 0 0 0 11.645-11.646 11.438 11.438 0 0 0-11.645-11.646Zm0 19.409a7.764 7.764 0 1 1 7.764-7.764 7.787 7.787 0 0 1-7.764 7.765Zm0-19.409a11.438 11.438 0 0 0-11.646 11.646 11.438 11.438 0 0 0 11.646 11.646 11.438 11.438 0 0 0 11.645-11.646 11.438 11.438 0 0 0-11.645-11.646Zm0 19.409a7.764 7.764 0 1 1 7.764-7.764 7.787 7.787 0 0 1-7.764 7.765Zm0-34.937A37.112 37.112 0 0 0 0 36.878a37.112 37.112 0 0 0 36.878 36.878 37.112 37.112 0 0 0 36.878-36.878A37.112 37.112 0 0 0 36.878 0Zm20.185 62.887a31.9 31.9 0 0 1-20.186 6.987 31.9 31.9 0 0 1-20.186-6.987l-1.165-.776.776-1.553c1.941-5.046 13.587-8.152 20.574-8.152s18.633 3.105 20.962 8.152l.776 1.553Zm4.658-4.27-1.553-1.553c-5.046-6.211-17.857-8.54-23.291-8.54s-18.245 1.941-23.291 8.54L12.034 59l-1.553-1.941a33.675 33.675 0 0 1-6.6-19.8 33 33 0 1 1 59.393 19.8ZM36.878 15.527a11.438 11.438 0 0 0-11.646 11.646 11.438 11.438 0 0 0 11.646 11.646 11.438 11.438 0 0 0 11.645-11.646 11.438 11.438 0 0 0-11.645-11.646Zm0 19.409a7.764 7.764 0 1 1 7.764-7.764 7.787 7.787 0 0 1-7.764 7.765Zm0-19.409a11.438 11.438 0 0 0-11.646 11.646 11.438 11.438 0 0 0 11.646 11.646 11.438 11.438 0 0 0 11.645-11.646 11.438 11.438 0 0 0-11.645-11.646Zm0 19.409a7.764 7.764 0 1 1 7.764-7.764 7.787 7.787 0 0 1-7.764 7.765Zm0-19.409a11.438 11.438 0 0 0-11.646 11.646 11.438 11.438 0 0 0 11.646 11.646 11.438 11.438 0 0 0 11.645-11.646 11.438 11.438 0 0 0-11.645-11.646Zm0 19.409a7.764 7.764 0 1 1 7.764-7.764 7.787 7.787 0 0 1-7.764 7.765Zm0-19.409a11.438 11.438 0 0 0-11.646 11.646 11.438 11.438 0 0 0 11.646 11.646 11.438 11.438 0 0 0 11.645-11.646 11.438 11.438 0 0 0-11.645-11.646Zm0 19.409a7.764 7.764 0 1 1 7.764-7.764 7.787 7.787 0 0 1-7.764 7.765Zm0-19.409a11.438 11.438 0 0 0-11.646 11.646 11.438 11.438 0 0 0 11.646 11.646 11.438 11.438 0 0 0 11.645-11.646 11.438 11.438 0 0 0-11.645-11.646Zm0 19.409a7.764 7.764 0 1 1 7.764-7.764 7.787 7.787 0 0 1-7.764 7.765Zm0-19.409a11.438 11.438 0 0 0-11.646 11.646 11.438 11.438 0 0 0 11.646 11.646 11.438 11.438 0 0 0 11.645-11.646 11.438 11.438 0 0 0-11.645-11.646Zm0 19.409a7.764 7.764 0 1 1 7.764-7.764 7.787 7.787 0 0 1-7.764 7.765Zm0-19.409a11.438 11.438 0 0 0-11.646 11.646 11.438 11.438 0 0 0 11.646 11.646 11.438 11.438 0 0 0 11.645-11.646 11.438 11.438 0 0 0-11.645-11.646Zm0 19.409a7.764 7.764 0 1 1 7.764-7.764 7.787 7.787 0 0 1-7.764 7.765Zm0-19.409a11.438 11.438 0 0 0-11.646 11.646 11.438 11.438 0 0 0 11.646 11.646 11.438 11.438 0 0 0 11.645-11.646 11.438 11.438 0 0 0-11.645-11.646Zm0 19.409a7.764 7.764 0 1 1 7.764-7.764 7.787 7.787 0 0 1-7.764 7.765Zm0-19.409a11.438 11.438 0 0 0-11.646 11.646 11.438 11.438 0 0 0 11.646 11.646 11.438 11.438 0 0 0 11.645-11.646 11.438 11.438 0 0 0-11.645-11.646Zm0 19.409a7.764 7.764 0 1 1 7.764-7.764 7.787 7.787 0 0 1-7.764 7.765Z"/>
</svg>
