<svg width="18" height="20" viewBox="0 0 18 20" fill="none" xmlns="http://www.w3.org/2000/svg">
<path d="M16 2H11.82C11.4 0.84 10.3 0 9 0C7.7 0 6.6 0.84 6.18 2H2C0.9 2 0 2.9 0 4V18C0 19.1 0.9 20 2 20H16C17.1 20 18 19.1 18 18V4C18 2.9 17.1 2 16 2ZM9 2C9.55 2 10 2.45 10 3C10 3.55 9.55 4 9 4C8.45 4 8 3.55 8 3C8 2.45 8.45 2 9 2ZM10 16H5C4.45 16 4 15.55 4 15C4 14.45 4.45 14 5 14H10C10.55 14 11 14.45 11 15C11 15.55 10.55 16 10 16ZM13 12H5C4.45 12 4 11.55 4 11C4 10.45 4.45 10 5 10H13C13.55 10 14 10.45 14 11C14 11.55 13.55 12 13 12ZM13 8H5C4.45 8 4 7.55 4 7C4 6.45 4.45 6 5 6H13C13.55 6 14 6.45 14 7C14 7.55 13.55 8 13 8Z" fill="#231F20"/>
</svg>
