<svg width="18" height="16" viewBox="0 0 18 16" fill="none" xmlns="http://www.w3.org/2000/svg">
<path d="M15.92 1.01C15.72 0.42 15.16 0 14.5 0H3.5C2.84 0 2.29 0.42 2.08 1.01L0 7V14.5C0 15.33 0.67 16 1.5 16C2.33 16 3 15.33 3 14.5V14H15V14.5C15 15.32 15.67 16 16.5 16C17.32 16 18 15.33 18 14.5V7L15.92 1.01ZM4.5 11C3.67 11 3 10.33 3 9.5C3 8.67 3.67 8 4.5 8C5.33 8 6 8.67 6 9.5C6 10.33 5.33 11 4.5 11ZM13.5 11C12.67 11 12 10.33 12 9.5C12 8.67 12.67 8 13.5 8C14.33 8 15 8.67 15 9.5C15 10.33 14.33 11 13.5 11ZM2.81 5L3.85 2H14.14L15.18 5H2.81Z" fill="#231F20"/>
</svg>
