<svg width="21" height="22" viewBox="0 0 21 22" fill="none" xmlns="http://www.w3.org/2000/svg">
<path d="M1 19.9999H11C11.55 19.9999 12 20.4499 12 20.9999C12 21.5499 11.55 21.9999 11 21.9999H1C0.45 21.9999 0 21.5499 0 20.9999C0 20.4499 0.45 19.9999 1 19.9999ZM4.24 7.06993L7.07 4.23993L19.8 16.9699C20.58 17.7499 20.58 19.0199 19.8 19.7999C19.02 20.5799 17.75 20.5799 16.97 19.7999L4.24 7.06993ZM12.73 1.40993L15.56 4.23993C16.34 5.01993 16.34 6.28993 15.56 7.06993L14.14 8.48993L8.49 2.82993L9.9 1.41993C10.68 0.629928 11.95 0.629928 12.73 1.40993ZM2.83 8.47993L8.49 14.1399L7.08 15.5499C6.3 16.3299 5.03 16.3299 4.25 15.5499L1.42 12.7199C0.64 11.9399 0.64 10.6699 1.42 9.88993L2.83 8.47993Z" fill="#007BBD"/>
</svg>
