<svg width="18" height="20" viewBox="0 0 18 20" fill="none" xmlns="http://www.w3.org/2000/svg">
<path d="M16.3137 1.5L14.8638 0L13.414 1.5L11.9641 0L10.5143 1.5L9.0644 0L7.61454 1.5L6.16468 0L4.71482 1.5L3.26496 0V14H1.33181C0.800193 14 0.365234 14.45 0.365234 15V17C0.365234 18.66 1.66044 20 3.26496 20H14.8638C16.4684 20 17.7636 18.66 17.7636 17V0L16.3137 1.5ZM11.9641 18H3.26496C2.73334 18 2.29838 17.55 2.29838 17V16H5.1981H9.0644H11.9641V18ZM15.8304 17C15.8304 17.55 15.3955 18 14.8638 18C14.3322 18 13.8973 17.55 13.8973 17V15C13.8973 14.45 13.4623 14 12.9307 14H10.9975H9.0644H5.1981V3H15.8304V17Z" fill="#70A126"/>
</svg>
