<?xml version="1.0" encoding="UTF-8" standalone="no"?><!DOCTYPE svg PUBLIC "-//W3C//DTD SVG 1.1//EN" "http://www.w3.org/Graphics/SVG/1.1/DTD/svg11.dtd"><svg viewBox="0 0 21 21" width="21" height="21" xmlns="http://www.w3.org/2000/svg" fill-rule="evenodd" clip-rule="evenodd" stroke-linejoin="round" stroke-miterlimit="2"><path d="M7.225 15.977v-.005c0-.384.316-.7.7-.7H9.439v-.138H6.386a.703.703 0 01-.7-.7v-.005a.696.696 0 01.692-.678h3.061v-.14H5.711a.703.703 0 01-.7-.7v-.006a.696.696 0 01.692-.678h3.736v-.138H6.406a.703.703 0 01-.7-.7v-.005a.696.696 0 01.692-.678h4.079l-.753-.549a.692.692 0 11.814-1.119l2.987 2.173a.83.83 0 01.342.671V15.3c0 .384-.266.72-.64.808l-1.949.458a3.304 3.304 0 01-.761.088h-2.6a.695.695 0 01-.692-.677zm1.774-5.466h.882l-.271-.2a.886.886 0 01-.077-1.369l-.315-.4a.7.7 0 00-.99-.123.696.696 0 00-.11.963l.881 1.129zm6.86-.051l-.121-3.692a.695.695 0 00-.691-.656.695.695 0 00-.692.692v.009l.031.93-2.508-3.219a.695.695 0 00-.96-.129.7.7 0 00-.123.99l1.861 2.391-.109.081-2.295-2.944a.695.695 0 00-.961-.129.7.7 0 00-.123.99l2.287 2.937-.109.085L9.465 6.38a.695.695 0 00-.96-.129.7.7 0 00-.123.99l1.26 1.616a.887.887 0 011.01.022l2.987 2.178c.264.193.421.501.422.828v.412l1.479-1.151a.831.831 0 00.32-.682l-.001-.004z" fill="#1d1d1b" fill-rule="nonzero"/></svg>
