<svg width="20" height="18" viewBox="0 0 20 18" xmlns="http://www.w3.org/2000/svg">
    <path d="M2.47 17.9997H17.53C19.07 17.9997 20.03 16.3297 19.26 14.9997L11.73 1.98969C10.96 0.659688 9.04 0.659688 8.27 1.98969L0.739999 14.9997C-0.0300008 16.3297 0.929999 17.9997 2.47 17.9997ZM10 10.9997C9.45 10.9997 9 10.5497 9 9.99969V7.99969C9 7.44969 9.45 6.99969 10 6.99969C10.55 6.99969 11 7.44969 11 7.99969V9.99969C11 10.5497 10.55 10.9997 10 10.9997ZM11 14.9997H9V12.9997H11V14.9997Z" fill="#007BBD" />
</svg>
