<?xml version="1.0" encoding="UTF-8" standalone="no"?>
<svg xmlns="http://www.w3.org/2000/svg" width="48" height="48" viewBox="0 0 48 48">
  <path d="M30.005 16.689a1.333 1.333 0 1 0 1.333 1.333 1.333 1.333 0 0 0-1.333-1.333ZM24.077 18.399a5.6 5.6 0 1 0 5.6 5.6 5.607 5.607 0 0 0-5.6-5.6Zm0 9.188a3.588 3.588 0 1 1 3.587-3.588 3.591 3.591 0 0 1-3.587 3.588Z"/>
  <path d="M28.524 35.37h-9.08a6.839 6.839 0 0 1-6.831-6.831v-9.08a6.839 6.839 0 0 1 6.831-6.831h9.08a6.839 6.839 0 0 1 6.831 6.831v9.08a6.839 6.839 0 0 1-6.831 6.831Zm-9.08-20.6a4.7 4.7 0 0 0-4.691 4.691v9.08a4.7 4.7 0 0 0 4.691 4.691h9.08a4.7 4.7 0 0 0 4.692-4.691v-9.08a4.7 4.7 0 0 0-4.692-4.691Z"/>
  <path fill="none" d="M0 0h48v48H0z"/>
</svg>
