<svg xmlns="http://www.w3.org/2000/svg" width="22.83" height="22.829" viewBox="0 0 22.83 22.829"><defs><style>.a{fill:#1d1d1b;}</style></defs><g transform="translate(0 0)"><path class="a" d="M772.254,157.011a1.338,1.338,0,1,0,1.338,1.338A1.338,1.338,0,0,0,772.254,157.011Z" transform="translate(-754.795 -152.935)"/><path class="a" d="M760.677,159.671a5.622,5.622,0,1,0,5.623,5.622A5.629,5.629,0,0,0,760.677,159.671Zm0,9.224a3.6,3.6,0,1,1,3.6-3.6A3.605,3.605,0,0,1,760.677,168.895Z" transform="translate(-749.168 -153.879)"/><path class="a" d="M761.9,173.523H752.79a6.865,6.865,0,0,1-6.858-6.857v-9.115a6.865,6.865,0,0,1,6.858-6.857H761.9a6.865,6.865,0,0,1,6.858,6.857v9.115A6.865,6.865,0,0,1,761.9,173.523Zm-9.115-20.682a4.715,4.715,0,0,0-4.71,4.71v9.115a4.715,4.715,0,0,0,4.71,4.71H761.9a4.716,4.716,0,0,0,4.71-4.71v-9.115a4.715,4.715,0,0,0-4.71-4.71Z" transform="translate(-745.932 -150.694)"/></g></svg>