<svg xmlns="http://www.w3.org/2000/svg" fill-rule="evenodd" stroke-linejoin="round" stroke-miterlimit="2" clip-rule="evenodd" viewBox="0 0 24 24">
  <path fill="#231f20" fill-rule="nonzero" d="M12 0C5.374 0 0 5.374 0 12s5.374 12 12 12 12-5.374 12-12S18.626 0 12 0zm6.849 14.841c-.033.733-.15 1.234-.32 1.673a3.526 3.526 0 01-2.015 2.015c-.439.17-.94.287-1.673.32-.735.034-.97.042-2.841.042-1.871 0-2.106-.008-2.841-.042-.733-.033-1.234-.15-1.672-.32a3.37 3.37 0 01-1.221-.795 3.388 3.388 0 01-.795-1.22c-.17-.439-.287-.94-.32-1.673-.034-.735-.042-.97-.042-2.841 0-1.871.008-2.106.042-2.841.033-.733.15-1.234.32-1.673.173-.459.444-.876.795-1.22a3.375 3.375 0 011.22-.795c.439-.17.94-.287 1.673-.32.735-.034.97-.042 2.841-.042 1.871 0 2.106.008 2.841.042.733.033 1.234.15 1.673.32.459.173.876.444 1.22.795.351.344.622.761.795 1.22.17.439.287.94.32 1.673.034.735.042.97.042 2.841 0 1.871-.008 2.106-.042 2.841z"/>
  <path fill="#231f20" fill-rule="nonzero" d="M17.372 7.936a2.152 2.152 0 00-.516-.793 2.13 2.13 0 00-.792-.515c-.243-.094-.607-.207-1.279-.237-.727-.033-.945-.04-2.785-.04-1.84 0-2.058.007-2.784.04-.672.03-1.037.143-1.28.237-.299.11-.57.287-.792.515a2.144 2.144 0 00-.516.793c-.094.243-.206.607-.237 1.279-.033.727-.04.945-.04 2.785 0 1.84.007 2.057.04 2.784.031.672.143 1.037.237 1.28.111.299.287.57.516.792.222.229.493.405.792.515.243.095.608.207 1.28.238.726.033.944.04 2.784.04 1.84 0 2.058-.007 2.785-.04.671-.031 1.036-.143 1.279-.238a2.279 2.279 0 001.308-1.307c.094-.243.206-.608.237-1.28.033-.727.04-.944.04-2.784 0-1.84-.007-2.058-.04-2.785-.03-.672-.143-1.036-.237-1.279zM12 15.538a3.538 3.538 0 110-7.076 3.538 3.538 0 010 7.076zm3.678-6.39a.826.826 0 110-1.653.826.826 0 010 1.653z"/>
  <path fill="#231f20" fill-rule="nonzero" d="M14.297 12a2.296 2.296 0 11-4.593.001A2.296 2.296 0 0114.297 12z"/>
</svg>
