<svg xmlns="http://www.w3.org/2000/svg" xml:space="preserve" fill-rule="evenodd" stroke-linejoin="round" stroke-miterlimit="2" clip-rule="evenodd" width="48" height="48" viewBox="0 0 48 48">
  <path fill="none" d="M0 0h48v48H0z"/>
  <path fill-rule="nonzero" d="M19.448 27.447c-.09.184-.09.365-.09.547.09.582.593 1.009 1.183 1.002h1.455v5.373a1.012 1.012 0 0 1-1 1.001h-3.097a1.019 1.019 0 0 1-1-1.003v-5.37h-5.283c-.819 0-1.366-.821-1.001-1.55l7.83-14.205a1.2 1.2 0 0 1 2.096 0l3.277 6.283-4.37 7.922Zm17.938 0-7.83-14.205a1.2 1.2 0 0 0-2.095 0l-3.369 6.285 4.37 7.919c.091.185.091.367.091.548a1.185 1.185 0 0 1-1.184 1.002h-1.457v5.373c.004.548.454.997 1.001 1.001h3.279a1.022 1.022 0 0 0 1.003-1.001v-5.372h5.189c.821 0 1.366-.821 1.001-1.55h.001Z"/>
</svg>
