<svg xmlns="http://www.w3.org/2000/svg" width="22.787" height="22.831" viewBox="0 0 22.787 22.831"><defs><style>.a{fill:#1d1d1b;fill-rule:evenodd;}</style></defs><path class="a" d="M22.305,2.408c-.9.408-11.009,5.138-19.245,8.97A1.875,1.875,0,0,0,2,13.01a1.235,1.235,0,0,0,1.06,1.223c.489.082,5.382.815,5.382.815L9.829,23.2h0l.734-3.588L9.5,14.233l9.949-7.339L11.3,15.864l2.854,3.262h0c.163.163,3.67,4.241,3.914,4.485.408.408,1.06,1.223,1.386,1.223.571,0,1.142-.815,1.386-2.039.245-1.142,1.876-9.052,3.914-19.572C25,2.082,23.936,1.593,22.305,2.408Z" transform="translate(-2 -2.003)"/></svg>