<svg xmlns="http://www.w3.org/2000/svg" width="48" height="48" viewBox="0 0 48 48">
  <path fill="#fff" fill-rule="evenodd" d="M31.116 14.361c-.8.363-9.812 4.579-17.152 7.995a1.671 1.671 0 0 0-.948 1.454 1.1 1.1 0 0 0 .945 1.09c.436.073 4.8.727 4.8.727l1.232 7.27.654-3.2-.945-4.8 8.867-6.541-7.268 7.995 2.544 2.907c.145.145 3.271 3.779 3.489 4 .363.363.945 1.09 1.236 1.09.509 0 1.018-.727 1.236-1.817.218-1.018 1.672-8.067 3.489-17.443.221-1.017-.728-1.453-2.179-.727Z"/>
  <path fill="none" d="M0 0h48v48H0z"/>
</svg>
