<?xml version="1.0" encoding="UTF-8" standalone="no"?>
<svg xmlns="http://www.w3.org/2000/svg" width="48" height="48" viewBox="0 0 48 48">
  <path d="M36.547 16.419a10.553 10.553 0 0 1-2.585.737c.416-.07 1.026-.823 1.271-1.127a4.747 4.747 0 0 0 .858-1.565c.023-.045.039-.1-.005-.134a.148.148 0 0 0-.137.011 13.171 13.171 0 0 1-3.066 1.173.2.2 0 0 1-.211-.056 2.488 2.488 0 0 0-.268-.274 5.434 5.434 0 0 0-1.485-.911 5.178 5.178 0 0 0-2.278-.366 5.444 5.444 0 0 0-2.161.61 5.575 5.575 0 0 0-1.743 1.424 5.362 5.362 0 0 0-1.041 2.085 5.65 5.65 0 0 0-.055 2.2c.017.124.006.14-.105.124a16.376 16.376 0 0 1-10.534-5.361c-.123-.14-.189-.14-.29.011a5.34 5.34 0 0 0 .911 6.311c.206.2.419.391.647.57a5.366 5.366 0 0 1-2.032-.57c-.123-.078-.185-.033-.2.106a3.24 3.24 0 0 0 .033.6 5.4 5.4 0 0 0 3.329 4.306 3.168 3.168 0 0 0 .675.207 6.02 6.02 0 0 1-1.994.061c-.145-.028-.2.045-.145.184a5.608 5.608 0 0 0 4.188 3.508c.19.033.38.033.57.077-.011.018-.023.018-.034.034-.47.717-2.1 1.251-2.86 1.516a10.24 10.24 0 0 1-4.344.556c-.234-.034-.283-.032-.346 0s-.008.1.067.156c.3.2.6.369.9.536a14.345 14.345 0 0 0 2.9 1.162c5.219 1.441 11.1.382 15.016-3.511 3.077-3.057 4.156-7.274 4.156-11.5 0-.165.2-.256.31-.344a10.148 10.148 0 0 0 2.044-2.126.648.648 0 0 0 .136-.407v-.022c.013-.059.011-.038-.092.009Z"/>
  <path fill="none" d="M0 0h48v48H0z"/>
</svg>
