<?xml version="1.0" encoding="UTF-8" standalone="no"?>
<svg xmlns="http://www.w3.org/2000/svg" xml:space="preserve" stroke-linejoin="round" stroke-miterlimit="2" width="48" height="48" viewBox="0 0 48 48">
  <path fill="none" d="M0 0h48v47.939H0z"/>
  <path d="M20.339 23.998a4.709 4.709 0 0 1-1.029-2.559c-.02-.779.297-1.53.87-2.058a.995.995 0 0 1 .66-.317c.158 0 .343.026.475.026.158 0 .343-.078.554.423.211.501.712 1.715.765 1.846a.474.474 0 0 1 .027.423 3.432 3.432 0 0 1-.238.422c-.132.132-.264.316-.369.422-.132.132-.264.264-.106.503.389.631.86 1.207 1.399 1.715a7.308 7.308 0 0 0 2.005 1.239c.238.132.396.105.528-.053.289-.304.554-.63.792-.976.158-.238.343-.211.554-.132.237.078 1.451.686 1.714.818.238.132.423.184.475.29.088.38.051.778-.105 1.135a2.606 2.606 0 0 1-1.689 1.187c-.448.052-.448.369-3.008-.607-2.533-1.003-4.142-3.562-4.274-3.747Z"/>
  <path d="M24.216 12.686h-.08c-6.036 0-11.003 4.966-11.003 11.002 0 2.001.546 3.965 1.579 5.679l-2.009 5.886 6.144-1.952a11.022 11.022 0 0 0 5.428 1.429c6.047 0 11.022-4.976 11.022-11.022 0-6.047-4.975-11.022-11.022-11.022h-.059Zm.029 20.241a9.245 9.245 0 0 1-5.14-1.521l-3.589 1.148 1.175-3.445a9.174 9.174 0 0 1-1.781-5.427v-.087c0-5.119 4.213-9.332 9.332-9.332 5.119 0 9.332 4.213 9.332 9.332 0 5.119-4.213 9.332-9.332 9.332h.003Zm-.029-20.241h-.08c-6.036 0-11.003 4.966-11.003 11.002 0 2.001.546 3.965 1.579 5.679l-2.009 5.886 6.144-1.952a11.022 11.022 0 0 0 5.428 1.429c6.047 0 11.022-4.976 11.022-11.022 0-6.047-4.975-11.022-11.022-11.022h-.059Zm.029 20.241a9.245 9.245 0 0 1-5.14-1.521l-3.589 1.148 1.175-3.445a9.174 9.174 0 0 1-1.781-5.427v-.087c0-5.119 4.213-9.332 9.332-9.332 5.119 0 9.332 4.213 9.332 9.332 0 5.119-4.213 9.332-9.332 9.332h.003Z"/>
</svg>
