<svg xmlns="http://www.w3.org/2000/svg" width="40.386" height="40.335" viewBox="0 0 40.386 40.335"><defs><style>.a{fill:#69a62f;}</style></defs><g transform="translate(-1843.684 -691.868)"><g transform="translate(1848.561 696.738)"><g transform="translate(-4.876 -4.87)"><path class="a" d="M181.039,187.418a8.418,8.418,0,0,1-1.839-4.574,4.833,4.833,0,0,1,1.556-3.678,1.781,1.781,0,0,1,1.179-.566c.283,0,.613.047.849.047.283,0,.613-.141.99.755s1.273,3.065,1.368,3.3a.844.844,0,0,1,.047.755,6.084,6.084,0,0,1-.424.754c-.236.236-.472.566-.66.755-.236.236-.472.472-.189.9a15.119,15.119,0,0,0,2.5,3.065A13.024,13.024,0,0,0,190,191.144c.424.236.707.189.943-.094a14.147,14.147,0,0,0,1.415-1.745c.283-.424.613-.377.99-.236.424.141,2.594,1.226,3.065,1.462.424.236.755.33.849.519a3.236,3.236,0,0,1-.189,2.028,4.652,4.652,0,0,1-3.018,2.122c-.8.094-.8.66-5.376-1.085C184.152,192.323,181.275,187.749,181.039,187.418Z" transform="translate(-167.391 -167.2)"/><path class="a" d="M114.978,95a19.665,19.665,0,0,0-16.986,29.815L94.4,135.335l10.982-3.49A19.7,19.7,0,1,0,114.978,95Zm.051,36.178a16.522,16.522,0,0,1-9.186-2.72l-6.415,2.053,2.1-6.158a16.382,16.382,0,0,1-3.182-9.7,16.679,16.679,0,1,1,16.678,16.524ZM114.978,95a19.665,19.665,0,0,0-16.986,29.815L94.4,135.335l10.982-3.49A19.7,19.7,0,1,0,114.978,95Zm.051,36.178a16.522,16.522,0,0,1-9.186-2.72l-6.415,2.053,2.1-6.158a16.382,16.382,0,0,1-3.182-9.7,16.679,16.679,0,1,1,16.678,16.524Z" transform="translate(-94.4 -95)"/></g></g></g></svg>