<svg xmlns="http://www.w3.org/2000/svg" fill-rule="evenodd" stroke-linejoin="round" stroke-miterlimit="2" clip-rule="evenodd" viewBox="0 0 24 24">
  <path fill="#231f20" fill-rule="nonzero" d="M12 0C5.374 0 0 5.374 0 12s5.374 12 12 12 12-5.374 12-12S18.626 0 12 0zm7.498 12.012s0 2.434-.308 3.607a1.881 1.881 0 01-1.322 1.322c-1.174.309-5.868.309-5.868.309s-4.682 0-5.868-.321a1.88 1.88 0 01-1.321-1.322C4.502 14.446 4.502 12 4.502 12s0-2.433.309-3.607a1.915 1.915 0 011.321-1.334C7.306 6.75 12 6.75 12 6.75s4.694 0 5.868.321c.642.173 1.148.68 1.322 1.322.321 1.174.308 3.619.308 3.619z"/>
  <path fill="#231f20" fill-rule="nonzero" d="M10.048 14.248L13.952 12l-3.904-2.248v4.496z"/>
</svg>
