<svg xmlns="http://www.w3.org/2000/svg" width="29.237" height="20.465" viewBox="0 0 29.237 20.465"><defs><style>.a{fill:#1d1d1b;}</style></defs><path class="a" d="M774.884,435.187a6.415,6.415,0,0,0-6.415-6.415H752.062a6.415,6.415,0,0,0-6.415,6.415v7.634a6.415,6.415,0,0,0,6.415,6.415h16.406a6.415,6.415,0,0,0,6.415-6.415Zm-9.648,4.389-7.356,3.64c-.289.156-1.269-.053-1.269-.381v-7.471c0-.333.988-.541,1.277-.376l7.042,3.831C765.224,438.988,765.534,439.415,765.236,439.576Z" transform="translate(-745.647 -428.772)"/></svg>