<svg xmlns="http://www.w3.org/2000/svg" fill="none" viewBox="0 0 122 64">
  <path fill="#231F20" d="M9.528 49.835V30.842H7.156l-2.373 5.697-2.375-5.697H.042v18.993h2.366V36.539l2.375 5.6 2.373-5.6v13.296h2.372zM19.026 49.838v-15.77c0-.512 0-3.223-3.055-3.223h-1.003c-3.056 0-3.056 2.711-3.056 3.222v15.77h2.372v-7.711h2.376v7.712h2.366zm-4.747-9.504v-6.756a.805.805 0 01.336-.653 1.23 1.23 0 01.856-.297c.299-.007.59.1.814.297a.79.79 0 01.372.653v6.756h-2.378zM30.888 49.838h2.375v-7.712h2.373v7.712h2.372v-15.77c0-.512 0-3.223-3.056-3.223h-.997c-3.056 0-3.056 2.711-3.056 3.222l-.01 15.77zm2.375-16.26a.803.803 0 01.334-.653c.236-.203.54-.309.852-.297.3-.008.59.099.814.297a.789.789 0 01.373.653v6.756h-2.373v-6.756zM66.487 49.838v-15.77c0-.512 0-3.223-3.055-3.223h-1.014c-3.056 0-3.056 2.711-3.056 3.222v15.77h2.372v-7.711h2.372v7.712h2.381zm-4.747-9.504v-6.756a.812.812 0 01.333-.653c.237-.203.541-.309.853-.297.3-.008.592.099.817.297a.787.787 0 01.37.653v6.756H61.74zM45.13 42.243l-2.372-11.398h-2.372V49.84h2.372V38.442l.778 3.8 1.594 7.598h2.373V30.845H45.13v11.398zM56.998 49.838V30.845h-2.375v9.492H52.25v-9.492h-2.372v18.993h2.372v-7.706h2.373v7.706h2.375zM4.236 27.458a3.665 3.665 0 002.706-1.186v1.036h1.111v-4.364H4.595v1.058h2.358v.687c-.278.663-1.167 1.514-2.658 1.514-1.667 0-2.937-1.19-2.937-2.981 0-1.792 1.203-2.967 2.878-2.967a2.81 2.81 0 012.37 1.222l1.306-.35a4.192 4.192 0 00-3.676-2.142 4.236 4.236 0 100 8.473zM21.746 27.294l3.333-8.145H23.69l-2.152 5.39c-.264.686-.45 1.314-.462 1.314 0 0-.208-.628-.463-1.314l-2.148-5.39h-1.389l3.334 8.145h1.336zM31.527 26.086h-4.27v-2.092h3.409v-1.142h-3.409v-2.491h4.275v-1.212h-5.558v8.145h5.553v-1.208zM33.71 24h1.364c.085.005.17.005.253 0l1.712 3.305h1.444l-1.92-3.539c1.031-.383 1.62-1.083 1.62-2.222 0-1.606-1.167-2.38-3.108-2.38h-2.659v8.144h1.283L33.711 24zm0-3.64h1.514c1.053 0 1.628.334 1.628 1.17 0 .836-.53 1.33-1.627 1.33H33.71v-2.5zM40.355 23.839c0-1.453-.036-2.548-.022-2.548 0 0 .706 1.011 1.422 2.003l2.948 4h1.2V19.15h-1.264v3.47c0 1.278.033 2.478.022 2.478 0 0-.833-1.142-1.389-1.945l-2.997-4.003h-1.192v8.145h1.283l-.01-3.455zM66.624 23.258c0-2.445-1.884-4.109-4.198-4.109h-3.445v8.145h3.503c2.278 0 4.14-1.616 4.14-4.036zm-6.356-2.897h2.15a2.777 2.777 0 012.867 2.897 2.719 2.719 0 01-2.809 2.828h-2.222l.014-5.725zM71.746 27.458a4.236 4.236 0 10-4.23-4.236 4.167 4.167 0 004.23 4.236zm0-7.203c1.667 0 2.9 1.186 2.9 2.967 0 1.78-1.236 2.967-2.9 2.967s-2.903-1.209-2.903-2.967c0-1.759 1.222-2.967 2.903-2.967zM51.028 27.458a4.236 4.236 0 10-4.23-4.236 4.166 4.166 0 004.23 4.236zm0-7.203c1.667 0 2.903 1.186 2.903 2.967 0 1.78-1.236 2.967-2.903 2.967-1.666 0-2.9-1.209-2.9-2.967 0-1.759 1.222-2.967 2.9-2.967zM13.167 27.458a4.236 4.236 0 10-4.23-4.236 4.167 4.167 0 004.23 4.236zm0-7.203c1.667 0 2.9 1.186 2.9 2.967 0 1.78-1.236 2.967-2.9 2.967s-2.902-1.209-2.902-2.967c0-1.759 1.222-2.967 2.902-2.967zM21.398 49.838h2.376v-7.712h1.186c.3-.007.591.1.816.297a.792.792 0 01.37.653v6.759h2.38v-6.112c0-.516 0-2.5-2.372-2.5 2.37 0 2.373-1.492 2.373-2.025v-5.136c0-.514 0-3.217-3.056-3.217h-4.073v18.993zm2.376-17.207h1.186c.3-.007.591.1.816.297a.79.79 0 01.37.653v5.809a.813.813 0 01-.37.683c-.231.184-.52.283-.816.278h-1.186v-7.72zM71.927 30.845c-3.056 0-3.056 2.697-3.056 3.211v12.568c0 .513 0 3.21 3.056 3.21h.994c3.056 0 3.056-2.697 3.056-3.21V34.056c0-.514 0-3.211-3.056-3.211h-.994zm1.683 2.739v13.512a.784.784 0 01-.372.653c-.223.2-.514.306-.814.297a1.222 1.222 0 01-.853-.297.811.811 0 01-.333-.653V33.584a.814.814 0 01.333-.653c.237-.202.542-.308.853-.294.299-.01.59.096.814.294a.786.786 0 01.372.653zM61.048 30.019c.179-.117.39-.177.603-.17.19 0 .378.035.555.1l1.09.434c.292.114.602.172.916.172.407.006.807-.112 1.145-.339a2.147 2.147 0 00.833-1.439h-1.03a.97.97 0 01-.348.54c-.18.114-.39.173-.603.166-.189 0-.377-.033-.555-.097l-1.09-.442a2.555 2.555 0 00-.913-.172 1.983 1.983 0 00-1.142.341c-.456.35-.756.867-.833 1.437h1.03a.937.937 0 01.345-.537"/>
  <path fill="#88B940" d="M85.008 52.329c.033-.117-.083-.214-.183-.242a1.006 1.006 0 00-.645.047.141.141 0 00-.044.261c.134.111.293.186.464.22.178-.045.355-.103.408-.278M85.705 57.896s-.094-.08-.13 0c-.037.08.072.278.186.236.114-.041 0-.21-.056-.236z"/>
  <path fill="#88B940" d="M95.02 52.86a7.798 7.798 0 01-.875-.398 1.206 1.206 0 00-.611-.211c.026-.064.048-.13.066-.197.077.03.152.064.225.102.05.026.106.073.136 0a.217.217 0 000-.155c-.036-.078-.12-.072-.191-.089l-.678-.142c-.617-.186.555-.18.575-.516 0-.153 0-.217-.359-.245-.66-.053-1.286-.305-1.944-.308-.233 0-.467-.017-.7-.03l-.034-.034a.438.438 0 00-.033-.053c-.039-.06-.02-.128.242-.067.261.062.35-.122.328-.169-.023-.047-.42 0-.603.047a.26.26 0 00-.206.134.016.016 0 00-.001.007l.001.006a.346.346 0 010 .109 10.314 10.314 0 00-1.68-.059c.944-.16 1.883-.255 2.814-.388a1.778 1.778 0 00-.43-.048c-.204-.016-.487.131-.526-.247 0-.05-.055-.017-.089-.014-.898.04-1.793.15-2.675.325-.13.025-.278.086-.225-.147 0-.067-.02-.108-.092-.089-.11.018-.217.046-.322.084-.055 0-.12.075-.189.091-.07.017-.044.072.025.092.07.02.128-.056.192-.084a.057.057 0 01.028 0h.072c.03.009.06.022.086.04.033.019-.078.066-.183.105-.197.052-.39.114-.58.186h-.056c-.084 0-.126.044-.076.08.085.039.174.069.264.09a.385.385 0 01.148-.045c.072 0 .177-.017.16 0-.335.092-1.158.278-1.51.361.047.253 1.239-.16 1.55-.136a.061.061 0 010 .056.922.922 0 00-.167.133.39.39 0 01-.239.056c-.21.017-.417.06-.617.127-.114.028-.22.084-.225.212-.016.336-.278.538-.439.783-.247.358-.433.722-.277 1.178.06.17.052.364.108.539a.34.34 0 01.022.163 3.885 3.885 0 00-.386-.083c-.07 0-.12.103 0 .117.12.002.24.013.358.033a.328.328 0 01-.175.092c-.358.1-.463.294-.425.672a.528.528 0 01-.191.517c-.09.07-.234.175-.156.278.136.191.247.439.475.53.367.139.7.352.98.625.148.2.338.364.556.48a5.768 5.768 0 01-.778.056c-.169-.025-.2.114-.13.203.07.09.136.236.17.247.033.011.083-.036 0-.139-.084-.102-.153-.175-.076-.169.078.006.314.061.278.086a.15.15 0 00-.036.036h-.014v.017c0 .033.053.044.086.053h.034c.097.025.191.044.278.075l.16.044c.223.168.418.37.578.597a1.3 1.3 0 00.723.6l-.445.037c.056.05.153.022.161.127l-.236.056c-.144.03-.166.12-.122.244a.278.278 0 01-.256.378c-.097 0-.2-.041-.31.025.2.06.388.153.555.278.266.22.488.489.653.792.278.536.394 1.11.616 1.666.065.212.175.408.323.573a.74.74 0 00.494.228c.047 0 .12.033.192.058.244.13.37 0 .228.114-.42.228-.587.044-.992-.059a1.078 1.078 0 01-.811-.864 2.086 2.086 0 00-.167-.466c-.053-.103-.108-.153-.108-.19 0-.035-.07-.093-.045-.046.017.071.037.142.061.21.064.337.167.654.225.976.059.322.161.644.53.742.33.092.681.076 1.001-.048.653-.241 1.411.128 2.317-.316.044-.023.103-.036.153-.059.425-.205.52-.405.383-.855-.047-.153-.028-.245.125-.306a.342.342 0 00.228-.464c-.07-.183 0-.241.155-.3a.258.258 0 00.186-.303c-.039-.247-.1-.49-.18-.727a.727.727 0 01.3-.042c.222 0 .278-.156.253-.222-.025-.067-.23.036-.278.083a.203.203 0 01-.147.017c-.092-.034-.17-.084-.25-.114-.109-.217-.067-.278.208-.314.097 0 .217.017.261-.103.044-.12-.039-.208-.114-.292-.278-.313-.336-.71-.494-1.077a.19.19 0 00-.03-.048c.063-.044.132-.102.11-.188-.039-.14-.136 0-.203-.02h-.075c0-.014.014-.025.042-.033.228-.072.49-.145.483-.395 0-.055.081-.153.023-.197-.214-.172-.248-.5-.54-.606-.138-.05-.244-.2-.166-.277.23-.278.34-.725.834-.662.055 0 .141.04.177-.114.036-.152-.033-.163-.094-.191-.239-.111-.278-.258-.117-.467.146.005.292.02.436.045.103.02.209.036.278-.086.03-.023.095.077.217.097.122.02.094-.086.028-.097a8.419 8.419 0 00-.353-.042c-.178-.03-.359-.036-.536-.056 0-.027.022-.055.03-.083.028-.1.045-.13.175-.13s.397 0 .278-.306c-.015-.024-.02-.052-.015-.08a.11.11 0 01.043-.067c.348.048.691.129 1.025.241.105.036.186.017.22-.083.033-.1-.042-.086-.103-.097-.45-.07-.878-.256-1.331-.314 0-.095.086-.1.144-.128l.042-.02c.05.003.1-.01.142-.036.039-.044.025-.027.06-.033.037-.006.076.039.11 0 .032-.039 0-.047-.165-.08a7.636 7.636 0 00-.53-.087c-.037 0-.075-.019-.045-.089.078-.175.086-.391.256-.519a.888.888 0 01.36.136c.145.1.395 0 .556.142.023.02.098 0 .128-.028a.958.958 0 01.628-.244.565.565 0 00.089.027c.075.017.072-.014 0-.052-.072-.04-.208-.098-.278-.128a2.023 2.023 0 00-.222-.122c-.217-.1-.439-.19-.661-.278-.14-.053-.14-.078-.103-.195.036-.116.342-.025.42 0 .48.095.644.278 1.11.434.081.028.176.136.278-.017l-.277-.125-.05.058zm-4.95-2.72c.063-.148.155-.19.252-.18.097.008.058.1.036.138-.066.114-.339.111-.278.042h-.01zm-1.473.055c.318-.087.646-.128.975-.122.128 0 .353-.089.478.094a2.518 2.518 0 01-.745.081c-.228-.02-.459.011-.675.089-.041.02-.102.07-.13-.017-.028-.086.02-.105.097-.125z"/>
  <path fill="#88B940" d="M87.677 61.966c.078.153.144.312.198.475.059.12.1.248.125.38 0 .056 0 .092.047.128a.03.03 0 00.017.005.03.03 0 00.03-.036.18.18 0 00-.03-.091c0-.044 0-.094-.017-.114a1.33 1.33 0 00-.097-.258 5.23 5.23 0 00-.353-.967s-.061-.17-.078-.167c-.017.003.017.1.039.156.022.055 0 .07.022.106v.019c.006.018.01.037.014.056 0 0-.028 0-.016.03.01.03.033.097.058.158.01.043.024.085.041.125M88.075 63.06v.045a.094.094 0 00.039.07h.016a.03.03 0 00.014 0 .03.03 0 00.022-.016.03.03 0 00.003-.013.1.1 0 00-.027-.075.036.036 0 010-.016c0-.034 0-.048-.036-.064-.037-.017-.048.03-.042.058M94.548 54.432c-.025 0-.07-.023-.05-.02.02.003-.025-.075-.084-.094-.058-.02-.102-.042-.158-.067a1.697 1.697 0 00-.556-.16l-.116-.015c-.053 0-.05 0-.059.042-.008.041.087.064.136.072h.034l.556.158.097.025c.04.019.079.042.114.07.06.053.102.047.122.028.02-.02-.017-.042-.045-.045M89.2 49.867c.17 0 .436-.036.33-.116-.105-.081-.277.03-.447.055a2.89 2.89 0 01-.317.022 1.817 1.817 0 00-1.11.264l1.094-.178c.166-.019.364-.041.453-.047M90.82 49.89c.027-.053-.087-.087-.187-.078-.1.008-.058.092-.058.092s.217.036.245 0"/>
  <path fill="#68AC45" d="M95.017 52.86a7.494 7.494 0 01-.873-.398 1.162 1.162 0 00-.639-.211c-.058 0-.26 0-.144-.089.117-.089.117-.242-.075-.036-.097.108-.18-.078-.23.133-.556-.025-.278-.139-.475-.166-.373-.056-.75-.098-1.126-.12a.189.189 0 01-.197-.178c-.014-.066.045-.1.106-.086.291.072.591-.053.875.014a6.424 6.424 0 011.586.434c.05.025.106.072.136 0a.216.216 0 000-.156c-.036-.078-.12-.072-.192-.089-.522-.105-1.038-.228-1.564-.32-.15-.024-.15-.077-.108-.147l.047-.033c.092-.047.425.114.587.092.16-.023.15-.18-.206-.15-.206.02-.461 0-.572.014h-.514c-.03-.103.241-.117.339-.156.097-.039.427.022.316-.097-.11-.12-.291 0-.344-.125-.133-.311-.359-.24-.6-.186a.54.54 0 01-.528-.167l-.033-.053c-.04-.06-.02-.128.239-.067.258.062.352-.122.33-.169-.022-.047-.42 0-.603.047a.26.26 0 00-.205.134v.013c.03.278-.184.22-.325.234-.817.046-1.63.15-2.43.314-.037 0-.09.025-.115-.05.186-.13.433-.061.622-.172-.13-.156-.277.055-.452-.075 1.289-.298 2.564-.406 3.83-.59a1.778 1.778 0 00-.43-.047c-.203-.016-.486.131-.525-.247 0-.05-.056-.017-.09-.014-.898.04-1.792.15-2.674.325-.13.025-.278.086-.225-.147 0-.067-.02-.108-.095-.089a1.815 1.815 0 00-.32.084c-.055 0-.119.075-.188.091-.07.017-.045.072.025.092.07.02.128-.056.192-.084a.05.05 0 01.027 0h.073c.03.009.06.022.086.04.033.019-.078.066-.184.105-.196.052-.39.114-.58.186h-.056c-.083 0-.128.044-.075.08.085.039.174.069.264.09a.366.366 0 01.147-.045c.073 0 .178-.017.161 0-.338.092-1.16.278-1.51.361.046.253 1.238-.16 1.55-.136.016.092-.109.078-.09.153.076.039.181-.028.262.086-.238.126-.501.194-.77.2-.278-.033-.33.058-.333.345 0 .183.15.441-.245.538l.75.178c.15.026.295.072.43.14a.337.337 0 01-.13.024h-.216c-.09 0-.198-.028-.17 0 .079.037.16.066.245.086a.279.279 0 01.166 0c.08.025.106.047.084.064a.539.539 0 01-.106.017c-.1 0-.194-.03-.22.022-.11.239-.277.186-.466.172-.253-.02-.633.395-.517.606a.381.381 0 01-.078.555c-.027.023-.041.042-.025.062.017.019.064-.023.095-.045.075.022.142.056.208.078l.05.028c.084.036.125.02.053.05a.461.461 0 01-.153 0h-.152a.14.14 0 00-.059 0l-.436-.084a3.746 3.746 0 00-.397-.089c-.07 0-.12.103 0 .117.12.002.24.012.358.03.136.054.28.087.425.098l.967.128c-.372.025-.742.025-1.125.036a.496.496 0 01-.14-.022c-.071-.031 0-.078-.04-.1a.119.119 0 00-.084-.035.117.117 0 00-.083.035c-.098.066-.278.069-.306.105-.028.036-.058.084-.033.117s.014.15.064.178c.05.027 0-.045.022-.086.022-.042.028-.017.044 0 .186.344.217.783.703.883a.159.159 0 01-.03.044l-.048.023a.555.555 0 01-.541-.364c-.081-.32-.145-.278-.153-.217-.009.061-.092.706.375.697.466-.008.664-.066.82 0 .155.067.296.125.191.175a.671.671 0 01-.12.042.492.492 0 01-.35-.033c-.038-.026-.119-.034-.138.036-.02.07.06.08.102.102a.71.71 0 00.134.031c.302.072.6.164.889.278.047.028.08.058.072.089a.594.594 0 01-.195.222c-.104.06-.216.107-.333.139a.338.338 0 01-.178-.02c-.07-.05-.183-.097-.133-.02.034.04.077.071.125.09l.044.017c.047.019.088.05.12.088 0 .034-.014.075-.08.13-.031 0-.095-.032-.084 0 .011.034.15.165.175.118.025-.048.108-.114.128-.092.02.022-.036.033-.028.072.008.04.053.13.067.186.033.12.141.106.23.13.014 0 .022.023.017.034a.083.083 0 01-.017.03.52.52 0 00-.078.045.19.19 0 01-.06 0c-.095 0-.654 0-.615.114.04.114.345.047.909.806.16.285.422.5.733.602l-.455.037c.055.05.152.022.16.127l-.235.056c-.145.03-.167.12-.123.244a.278.278 0 01-.255.378c-.097 0-.2-.041-.311.025.2.06.388.153.555.278.266.22.488.489.653.792.278.536.395 1.11.617 1.666.067.28.238.524.478.684.247.11.527.126.786.044a8.076 8.076 0 001.666-.62.623.623 0 00.342-.363c.108-.278.22-.595.622-.517a.072.072 0 00.059 0c.028 0 .02-.047.044-.03.025.016.061.041.075.028.014-.014.02-.09-.028-.081a.585.585 0 01-.097 0c-.078-.072-.225.028-.278-.092.025-.114.181.017.2-.125.067-.014.167.028.298 0 .13-.028.177-.12.16-.147-.016-.028-.227.047-.327.078l-.203.053c-.926.043-1.853.032-2.778-.031a1.141 1.141 0 01-.333-.097c-.025 0-.047-.061-.047-.092 0-.03.053-.053.083-.036.136.075.278.022.414.022.992-.017 1.992.278 2.975-.086.167-.061.239-.178.111-.317-.127-.139.078-.119.034-.208l-.278-.036.233-.117.045-.014c.104-.05.22-.07.336-.058.222 0 .278-.156.252-.222-.024-.067-.23.039-.277.083a.205.205 0 01-.147.017c-.103-.054-.21-.1-.32-.136-.294-.053-.6-.036-.9-.064-.095 0-.22.089-.292-.059.07-.105.22 0 .3-.116a.93.93 0 00-.108-.022c-.078 0-.189.055-.23-.028-.042-.084.088-.14.15-.195a.678.678 0 00.194-.725c.111-.066.278-.028.347-.178-.067-.036-.15.034-.23-.063.234-.06.451-.174.633-.334.064-.047.175-.11.147-.216-.028-.106-.136 0-.205-.02h-.159c.161-.139.05-.383.222-.528.109-.03.3 0 .331-.036.03-.036 0-.078-.039-.103-.039-.025-.141.034-.186.073a.15.15 0 01-.047.027h.014c-.237.086-.348-.06-.478-.172a.278.278 0 00-.278-.044c-.167.05-.406.058-.48-.086-.076-.145-.156-.07-.248-.061-.186.016-.344.186-.555.1l.11-.14c-.177-.033-.19.226-.277.173-.203-.111-.447-.033-.647-.128a.053.053 0 01-.025-.042c0-.052-.017-.088.072-.125l.086-.038a.64.64 0 00.317-.173 2.598 2.598 0 00-.509.178h-.016a3.337 3.337 0 00-.242.13l-.039.014c-.075.026-.13.056-.083.081.094.016.19.004.278-.033a.036.036 0 01.039 0 .063.063 0 01-.042.036 3.093 3.093 0 01-1.025.036c.278-.08.53-.203.791-.278.623-.158 1.15-.536 1.781-.691.414-.103.603-.659 1.092-.734.097-.014-.133 0-.022-.1a.872.872 0 01.605-.32c.23.002.46.021.686.056.103.02.206.036.278-.086.03-.022.095.078.217.097.122.02.094-.086.028-.097a8.794 8.794 0 00-.353-.042 6.228 6.228 0 01-.917-.13c0-.059.07-.075.1-.114.03-.039.025-.078 0-.1-.025-.022-.117.017-.155.033a1.262 1.262 0 00-.175.028l-.106.014c-.033 0-.039-.017-.036-.047a.514.514 0 01.075-.125.336.336 0 01.186-.014c.097.017.147-.025.136-.07-.011-.044-.067-.02-.128 0a.42.42 0 01-.189-.044c-.047-.025-.044-.025 0-.092a.556.556 0 01.19-.144.628.628 0 01.369-.014c.555.076 1.104.193 1.642.35.105.039.186.017.219-.083s-.042-.087-.103-.095c-.572-.094-1.11-.37-1.711-.33-.156 0-.278-.203-.278-.237.025-.094.08-.089.142-.069 0 0 .144.07.189.053.044-.017.139.022.144 0 .006-.023-.097-.073-.17-.095a1.11 1.11 0 00-.947-.155c-.119.044-.23.205-.352.116a.398.398 0 00-.306-.055 2.22 2.22 0 01-.814-.125 8.697 8.697 0 011.034-.084c.555-.016.591-.072.364-.555 0 0 0-.028.013-.047.137.008.274-.006.406-.042.075-.036.2-.036.183.125 0 .108.028.133.153.15.328.047.672-.03.986.18.145.1.392 0 .556.142.022.02.097 0 .125-.028a.972.972 0 01.63-.244.565.565 0 00.09.028c.074.017.072-.014 0-.053l-.278-.128a2.033 2.033 0 00-.223-.122c-.216-.1-.439-.189-.664-.278-.136-.053-.136-.078-.1-.194.037-.117.34-.025.42 0 .48.091.644.278 1.111.43.078.028.175.136.278-.016l-.278-.125-.058.041zm-4.664-2.884c.064 0 .058.1.036.139-.067.114-.34.11-.278.044.064-.15.155-.191.253-.183h-.011zm-1.728.236c.318-.088.647-.128.978-.12.127 0 .352-.091.477.092-.242.064-.493.091-.744.08-.229-.019-.46.012-.675.09-.042.02-.103.07-.13-.017-.029-.086.019-.106.094-.125zm-1.431 3.908c.053 0 .094.045.12.117a6.203 6.203 0 01-.909 0h-.053a.189.189 0 01-.094-.092c-.025-.06.128-.066.205-.069.242 0 .487.028.731.047v-.002zm2.392 7.751c.339.039.675.07 1.011.128.142.022.189-.159.33-.114.105.025.21.04.317.047-.88.59-1.536.653-2.067.122h.04l.247.025c.086.023.222 0 .18-.022a.515.515 0 00-.242-.033c-.15-.047-.352 0-.369-.247.188.011.374.043.556.094"/>
  <path fill="#68AC45" d="M88.094 62.919a.18.18 0 00-.03-.092c0-.044 0-.094-.017-.114a1.33 1.33 0 00-.097-.258 5.23 5.23 0 00-.353-.967s-.061-.17-.078-.167c-.017.003.017.1.039.156.022.055 0 .07.022.106v.019c.006.018.01.037.014.056 0 0-.028 0-.014.03s.03.097.056.158c.01.043.024.085.041.125.078.153.143.312.195.475.061.12.104.248.128.381 0 .056 0 .092.047.128a.031.031 0 00.034 0 .03.03 0 00.013-.03M88.153 63.063c0-.034 0-.045-.037-.062-.036-.016-.044.031-.041.059v.044a.103.103 0 00.039.07h.016a.03.03 0 00.035-.015.03.03 0 00.004-.013.1.1 0 00-.028-.075v-.02M94.548 54.432c-.025 0-.07-.023-.05-.02.02.003-.025-.075-.084-.094-.058-.02-.102-.042-.158-.067a1.697 1.697 0 00-.556-.16l-.116-.015c-.053 0-.05 0-.059.042-.008.041.087.064.136.072h.034l.556.158.097.025c.04.019.079.042.114.07.06.053.102.047.122.028.02-.02-.017-.042-.045-.045M92.889 54.046c-.03.017.033.039.05.053.017.014.095.033.114 0 .02-.034-.022-.053-.053-.05-.03.002-.078-.025-.111 0M92.089 55.707c-.053.025-.192.044-.206.056-.013.01.045.052.081.027.036-.025.153.028.214 0 .061-.027-.036-.105-.089-.083zM89.878 56.946c-.067.016-.078.047-.078.047s.11 0 .133-.014c.022-.014 0-.05-.055-.033zM89.2 49.867c.17 0 .436-.036.33-.116-.105-.081-.277.03-.447.055a2.89 2.89 0 01-.317.022 1.817 1.817 0 00-1.11.264l1.094-.178c.166-.019.364-.041.453-.047M90.82 49.89c.027-.053-.087-.087-.187-.078-.1.008-.058.092-.058.092s.217.036.245 0M85.78 52.182c-.02 0-.122-.056-.127-.02-.006.037.205.059.127.02z"/>
  <path fill="#FFD200" fill-rule="evenodd" d="M113.624 38.528l-.12-.06a2.9 2.9 0 00-1.175-.467 4.759 4.759 0 011.517.208 5.137 5.137 0 00-1.111-.367 3.646 3.646 0 01-.556-.17c-.147-.069-.264-.205-.439-.066 0 0-.047-.025-.075-.028-.278-.033-.603-.35-.819-.039-.072.1-.292 0-.339-.019-.12-.056-.161-.23-.222-.292.422.042.95.142 1.189.164.3.03.416-.058.352-.158s-.644-.042-1.036-.056l-1.564-.044c-.636-.047-1.267-.02-1.897-.056a37.716 37.716 0 00-6.992.303c-.464.058-.93.22-1.409.045a.834.834 0 00.72-.278l-1.57.139c.181.05.368.08.556.086.111.153-.495 0-1.15.083-.097 0-.242-.042-.028-.1.036 0 .122 0 .1-.072-1.047.061-2.089.13-3.136.114a4.427 4.427 0 00-.956.094c-.111.022-.255.056-.344-.03-.09-.086-.234-.067-.359-.056a1.422 1.422 0 01-1.016.125.262.262 0 00-.137 0c-.427.161-.855.025-1.28 0a.814.814 0 00-.184 0 .459.459 0 00-.11 0c-.176.02-.353.006-.523-.039 0-.041.025-.086.145-.08H89.878c.202.011.405.002.605-.028-1.55-.111-3.13-.114-4.625-.517.95.372 1.945.459 2.961.556.309.047.65.094.787.11.187.002.373.026.555.07.053.04-.122.07-.197.08h-.956c0 .184.364.029.82.076.455.047.358.103-.03.117-.39.014-.834-.028-1.284-.028.12-.09.278-.056.333-.156-.98-.108-1.97.103-2.914.261-.522-.091-.506 0-.378.036.311 0 .75.02 1.167.034h.447c.172 0 .325.028.328.058.003.03-.197.075-.456.07-.1-.004-.2.01-.297.038a.635.635 0 00-.166.05c.61.07 1.225.076 1.83.162h-.833c-.672 0-1.342-.084-2.014-.042-.22.017-.445-.014-.389.108.367.05.739.02 1.111.08l.03.018c-.84.053-1.682.032-2.519-.062-.647-.06-1.297-.175-1.944.081a.231.231 0 01-.162 0c-.277-.175-.555-.025-.894 0 .261.064.153.2.136.333a8.29 8.29 0 00-.05.742.972.972 0 01-.111.45 2.266 2.266 0 00-.3 1.353c.025.208-.056.278-.236.278h-.634c-.136 0-.277 0-.341.125a.897.897 0 00-.114.816 1.355 1.355 0 00.85.873c.22.07.436.139.661.186.278.06.336.15.203.408-.042.083-.072.142.041.158.256.037.331.234.4.437.095.277.195.533.278.805a.225.225 0 00.159.17.533.533 0 01.397.583c0 .161.086.436.278.386.82-.22.083.184.122.278.073.192.198.36.361.486 0 0 .161.136.167.197.005.061.1.114.21.109a.278.278 0 01.245.07c.05.058.184.157.556.1.158-.026.314-.045.442-.062h.052c.398-.025.787-.15 1.181-.211h.092c.058 0 .122.017.122.08 0 .064-.064.073-.122.073a.555.555 0 00-.278.047l-.125.044c-.106.042.028.05.1.034h.039a.95.95 0 01.278.047.06.06 0 010 .044.088.088 0 01-.04.04 2.966 2.966 0 00-.758.119 1.12 1.12 0 01-.197.044c-.072 0-.058.209.072.278.13.07.509-.02.372-.136-.069-.056-.088-.095-.077-.111a.642.642 0 01.422.4c.03.067.063.132.1.194a.555.555 0 01.072.242c0 .186-.08.122-.12.117-.038-.006-.035-.209-.083-.278a.228.228 0 01-.077-.195c0-.144-.025-.158-.153-.166a.131.131 0 00-.147.12.13.13 0 00.013.069c.05.075.328.62.353.641a.54.54 0 00.278.08h.03c.112-.011.221-.034.329-.066a5.15 5.15 0 01.905-.08c.097 0 .17.05.158.183a.135.135 0 01-.014.064 2.868 2.868 0 00-.666-.034c-.386.123.305.384-.086.49a.856.856 0 00-.228.108 1.475 1.475 0 01-.925.555c-.21.047-.406.142-.572.278-.07.045-.134.092-.178.114-.045.022 0-.117-.067-.153-.067-.036-.128.067-.12.134.009.066.076.083.167.064l.248-.045c.208-.028.413-.067.62-.106.371-.1 1.14-.26 1.463-.35.017-.027-.089-.013-.161 0a.387.387 0 00-.147.045 1.453 1.453 0 01-.264-.089c-.05-.036 0-.072.078-.08h.052c.19-.072.384-.134.581-.187.047-.016.094-.036.139-.058l.025-.014h.014a.301.301 0 00-.086-.039h-.073a.05.05 0 00-.027 0c-.064.028-.123.1-.192.084-.07-.017-.094-.078-.025-.092.07-.014.133-.084.189-.092.104-.038.212-.066.322-.083.072-.02.103.022.092.089-.042.233.094.172.225.147.13-.025.278-.058.433-.083l.092-.017.425-.064c.572-.08 1.147-.13 1.725-.161.033 0 .083-.036.089.014.039.378.322.23.525.247.145-.002.29.014.43.047-.93.134-1.87.228-2.814.39.125 0 .248-.017.373-.02h.12c.413 0 .832.05 1.244.078a.447.447 0 000-.123.26.26 0 01.205-.133c.183-.036.578-.097.603-.047.025.05-.067.23-.328.17-.26-.062-.278 0-.242.066l.034.053c.01.011.021.023.033.033.234.014.467.028.7.03.667 0 1.292.256 1.945.309.36.028.366.092.355.244-.022.337-1.189.331-.572.517l.678.142c.072.016.155 0 .192.089.019.05.019.105 0 .155-.031.075-.087.028-.134 0a2.411 2.411 0 00-.227-.103 1.67 1.67 0 01-.067.198c.123.002.245.03.358.08.095-.055.156-.122.139-.21-.12-.665.206-.218.392-.362a.278.278 0 00.05-.414 2.782 2.782 0 00-.186-.217c.055-.075.11 0 .172-.038a1.017 1.017 0 01.911-.181.892.892 0 00.594.03c.106-.036.184-.11.128-.227-.055-.117-.11-.19-.227-.09-.076.065-.117 0-.173-.019-.36-.055-.647-.277-1.014-.425.278-.039.528.07.767 0s-.447-.241-.467-.183c-.105.18-.328-.058-.464.139-.044.061-.347-.036-.372-.225-.02-.13.136-.214.278-.23a.394.394 0 01.242.016c.241.136.536.089.78.23.096.038.2.045.3.02.145-.025.172-.153.164-.278-.008-.125-.058-.18-.18-.144-.356.102-.678-.056-1.045-.09.228-.127.425-.2.503-.133.172.156.292.084.45-.024a.63.63 0 01.658.172c.05.083.128.197.2.144.172-.125.445 0 .556-.236a.198.198 0 00.017-.106.787.787 0 00-.512-.347c-.333.072-.67-.016-1.005.04a.862.862 0 01-.211-.023c-.092-.022-.056-.039-.04-.047h.015c.264.007.53-.01.791-.05a4.11 4.11 0 01-.908-.156s-.014 0-.014-.017c0-.016 0-.041.042-.072.414-.133.82 0 1.255 0 .103.003.206.017.306.042.042.025.106-.022.039-.036-.067-.014-.217 0-.306-.036l-.094-.042c-.022-.017-.017-.033.036-.044l.103-.025c.133-.02.255-.05.15-.278a.036.036 0 01.016-.02c.317-.155.162-.383.075-.583.103-.07.24.056.309-.075-.045-.111-.175-.075-.248-.142.131-.13.278-.053.398-.033.278.039.278.039.217-.228v-.053c.205-.139.03-.277-.056-.297-.178-.042-.064-.278-.25-.294-.133 0-.161-.078-.147-.203.014-.125 0-.322.23-.353a.148.148 0 00.119-.087.148.148 0 00-.016-.146c-.064-.09-.15-.025-.211.033s-.072.114-.153.095a5.356 5.356 0 00-.811-.078.277.277 0 01.222-.109c.528-.12 1.034-.347 1.59-.305.135 0 .305-.022.396.12.092.14.206.127.328.052a.217.217 0 00.117-.255c-.056-.153-.175-.173-.311-.092-.084.047-.111-.014-.142-.075-.03-.061-.055-.128.036-.153.136-.033.214-.414.32-.456.408-.16.244-.452.683-.514.278-.041.389.178.353-.277 0-.167.186-.309.114-.47-.072-.16.025-.22.147-.278.57-.252 1.161-.453 1.767-.6.094-.019.241-.033.222-.152a.273.273 0 010-.114l.758-.078c.303-.025.62-.153.898-.089.277.064.366-.492.683-.197a.307.307 0 00.058-.05.953.953 0 01.725-.278c1.087.014 2.17-.114 3.256-.061.106 0 .225.025.32-.122h-.37c-1.355 0-2.708.033-4.061.089l-.211-.02c-.136 0-1.492.084-1.525.075a.157.157 0 01-.048-.025.313.313 0 00-.211-.103c-.03-.086.128-.083.184-.094.222-.05.336-.03.555-.08.22-.05.075 0 .278-.062l.328-.07.197-.033c.119-.022.464-.11.475-.116.011-.006.017-.03-.047-.028-.064.003-.045 0-.034-.028.203-.097.429-.136.653-.114.074.005.147.013.22.025a.15.15 0 01.044.017c.042.022.017.042-.019.053-.25.044-.511 0-.759.06.345.055.697.055 1.042 0 .233 0 .414.087.47.05.055-.035-.023-.08-.053-.088-.031-.008-.32-.039-.397-.047l-.078-.02c.219-.064.372-.08.514.042.027.025.058.097.086 0 .047-.153.166-.089.255-.086 1.239.039 2.484.055 3.72.175a.314.314 0 00.336-.111c.033-.042-.169-.036-.239-.04-1.111-.046-2.236-.188-3.358-.133a2.258 2.258 0 01-.356-.044c-.067 0-.139-.028-.136-.108.003-.08.094-.061.15-.064h.483c-.086-.086-.186-.067-.277-.078l-.134-.017a4.29 4.29 0 01.711-.22c.578-.121 1.142-.18 1.667.184a.26.26 0 00.189 0c.228-.025.456-.055.686-.066.231-.011.434-.075.636.086.095.072.211 0 .306-.061.342-.186.629-.458.833-.79a.746.746 0 01.873-.308c.083.025 0-.027.083-.108.217-.197.161-.133.103-.303.216-.025.434-.025.65 0 .197.04.608.125.73.145.123.02.292.025.245 0a1.348 1.348 0 01-.514-.153l.053-.045zm-25.819-.566c-.133 0-.386.05-.247-.086.058-.064.386-.04.247.086zm1.342 11.945c-.089 0-.278.028-.453.047l-1.094.175.128-.07.047-.022.078-.036.06-.022.068-.025.069-.022h.058a.365.365 0 01.075-.017h.531c.106-.001.212-.009.317-.022.16-.025.341-.133.447-.056.105.078-.159.109-.33.117v-.047zm.95-11.656c-.636.175-1.37-.02-2.008-.067.636-.078 2.17-.044 2.008.067zm.67 11.723c-.028.052-.253.052-.245.016.009-.036-.041-.083.059-.092.1-.008.21.025.186.075zm2.339-11.465c-.722.103-2.364.225-2.164 0 .064-.114 2.425-.15 2.164 0zm.447 11.223a.183.183 0 01-.183-.209c0-.113.041-.216.18-.194.14.022.136.139.148.245.01.105-.034.172-.145.158zm1.211-11.667a9.998 9.998 0 01-1.706.036l-.522-.014h-.502a1.357 1.357 0 01-.409-.05c.241-.075.492-.113.745-.111.42-.025.555 0 .886-.017h.086c1.706-.103 3.389-.192 5.1-.194-1.21.252-2.442.372-3.678.358v-.008zm9.873.425c-.73-.028-1.46-.028-2.192 0v-.017c0-.147.103-.075.145-.075h2.614a6.206 6.206 0 01-.556.103l-.011-.011zm1.614-.1c-.331 0-.656.033-.997 0-.67-.067-1.342-.22-2.028-.114-.158.019-.317.019-.475 0a68.81 68.81 0 012.267-.153c.555 0 1.111 0 1.68.014a.461.461 0 01-.447.247v.005zm2.861-.964c-.111.08-.202 0-.355-.048.153-.066.247-.127.344-.028a.098.098 0 01.008.038.097.097 0 01-.008.038h.011zm.139.08a.234.234 0 01.361-.078c.134.19-.402.159-.361.078z" clip-rule="evenodd"/>
  <path fill="#FFD200" fill-rule="evenodd" d="M100.106 43.876a.278.278 0 00-.278.297.22.22 0 00.253.228.323.323 0 00.317-.278.246.246 0 00-.177-.226.244.244 0 00-.101-.007M97.59 49.179c-.092.033-.26 0-.342.158.088.128.203.236.336.317a.342.342 0 00.21-.322c0-.109-.038-.178-.205-.153zM97.728 50.362a.555.555 0 01-.45 0c-.06-.036-.17-.019-.175.026-.005.044-.136.027-.086.05.25.052.5.108.753.152.072.014.156.106.22.014a.202.202 0 00-.017-.233c-.078-.114-.167-.028-.245 0M96.672 50.312c-.41-.055-1.002-.216-.972-.15.03.067-.189.084-.08.109.402.114.897.033 1.3.15.089 0-.056-.106-.248-.109zM97.464 50.085c.017.072.078.2.173.183.094-.017.136-.139.152-.236.017-.097-.014-.144-.094-.139-.125 0-.167.172-.23.192zM91.6 37.456c.125.014.342.044.525.075.253.039.403-.05.392-.125-.011-.075-.278-.02-.347-.014l-.67.017h-.502c.197.048.4.065.602.05M97.172 48.528a.167.167 0 00-.194.1.19.19 0 00.136.103c.072.014.161.02.186-.061.025-.08-.058-.125-.127-.142zM99.031 45.27c-.07.023-.147.04-.15.134-.003.094.025.13.111.12a.155.155 0 00.153-.162c0-.06-.05-.092-.114-.092zM98.034 46.187a.166.166 0 00-.13.136c0 .092.069.095.133.09a.133.133 0 00.136-.145c0-.064-.056-.09-.14-.08zM92.975 52.692c-.072 0-.177 0-.203.1-.025.1.075.08.131.092a.14.14 0 00.189-.108c.017-.078-.056-.075-.117-.084zM96.403 49.712c-.105-.078-.183 0-.278.078.112.055.184.158.278.066a.092.092 0 000-.144zM96.736 49.923a.11.11 0 00.04-.084.11.11 0 00-.04-.085c-.06-.058-.116-.03-.222.067 0 0 0 .052.059.108a.1.1 0 00.163 0M107.143 40.176a.163.163 0 01-.12 0c-.039 0-.177-.03-.18 0a.034.034 0 00.002.02.032.032 0 00.012.016 1.8 1.8 0 00.336.036c.064-.014 0-.092-.05-.07M113.187 39.142a.405.405 0 01-.122-.028.703.703 0 00-.228-.113.602.602 0 00-.333.013c.225.067.389.17.555.203a.851.851 0 00.189.061c.114.023.073-.125-.061-.136zM114.126 38.242h-.197s.486.336.536.195c.05-.142-.255-.206-.339-.2M90.32 50.157c.022-.04.027-.131-.034-.14-.061-.008-.192.034-.255.184-.05.067.222.07.277-.044M90 50.226c-.125-.183-.35-.089-.478-.094-.33-.006-.66.035-.978.122-.075.02-.12.047-.094.125.025.078.089.036.13.017.216-.078.447-.109.675-.09.251.011.502-.016.745-.08zM83.708 38.414c.225-.019.449-.052.67-.1-.34-.036-.542-.184-.692-.061-.045.033-.042.17.022.16z" clip-rule="evenodd"/>
  <path fill="#0082C9" fill-rule="evenodd" d="M113.979 30.889a.101.101 0 00-.058.136.167.167 0 00.197.028.085.085 0 00.034-.021.09.09 0 00.02-.035.09.09 0 000-.04.079.079 0 00-.018-.035.147.147 0 00-.175-.033zM93.308 37.797c-.325.02-.466 0-.886.017a2.306 2.306 0 00-.744.114c.133.034.27.05.408.047h.503l.522.014c.569.037 1.14.025 1.706-.036a17.031 17.031 0 003.678-.358c-1.711 0-3.395.091-5.1.194h-.087M87.61 37.834c-.138.136.115.086.248.086.139-.125-.189-.15-.247-.086zM108.81 37.278c.152.039.244.128.355.047a.097.097 0 00.008-.038.097.097 0 00-.008-.037c-.097-.1-.192-.039-.344.028M109.304 37.395c-.042.08.494.11.361-.078a.233.233 0 00-.361.078zM93.142 33.361c.16-.241.555-.833.433-.855-.175.233-.683.936-.433.855zM112.121 24.952c-.081 0-.384.153-.264.166a.97.97 0 00.258-.044c.136-.039.261-.197.194-.258-.066-.061-.108.13-.188.136zM112.374 24.646c.083-.041.083.034.119.064.036.03.075-.03.131-.07.055-.038.03.04 0 .081-.031.042 0 .09.086.07.086-.02.355-.037.43-.142a.294.294 0 00-.055-.383c-.122-.092-.556.125-.611.155-.298.15-.148.25-.095.225M112.173 24.302c.136.031.136-.108.073-.133-.064-.025-.042-.03-.142.03-.1.062.069.103.069.103zM87.174 38.042H86.377a44.974 44.974 0 00-5.536.161.373.373 0 00.336.112c.19-.028.381-.034.572-.017.631.09 1.27.11 1.906.055a.097.097 0 01.03-.072c.148-.12.359 0 .687.05.739-.016 1.478-.08 2.222-.044a.64.64 0 01.167-.05c.096-.028.196-.04.297-.04.258 0 .461-.013.455-.069-.005-.055-.155-.05-.327-.058" clip-rule="evenodd"/>
  <path fill="#FCB813" fill-rule="evenodd" d="M92.614 38.667c.247.167.5.047.75 0h-.753l.036.022-.033-.02M91.786 49.99a.278.278 0 00-.214.184c-.022.047.072.086.14.125.08-.034.113-.123.152-.195.039-.072-.042-.116-.078-.114zM83.708 38.415a5.25 5.25 0 00.68-.109c-.338-.036-.555-.175-.702-.053-.045.034-.042.17.022.162z" clip-rule="evenodd"/>
  <path fill="#FCB813" fill-rule="evenodd" d="M107.948 38.817a.36.36 0 00-.117-.05.302.302 0 01-.086 0l-.172-.025h-.022l-.381-.047.403.05c.087.001.173.01.258.025a.154.154 0 00.112-.067.393.393 0 00-.353-.17c-.745-.035-1.486-.077-2.223-.116a26.611 26.611 0 00-4.703.108 3.17 3.17 0 01-1.086.075c-.086-.097-.225-.08-.325-.189 2.617-.097 5.212-.494 7.837-.422-.464-.089-.936-.014-1.389-.102-.092-.181-.253-.1-.392-.103h-1.417c.156-.075.278-.023.375-.109-2.455.017-4.875.317-7.3.54 2.206-.373 4.445-.556 6.667-.779a9.336 9.336 0 00-1.214-.03 59.25 59.25 0 00-7.04.761 3.242 3.242 0 00-1.569.583c-.135.123-.298.21-.475.253a4.297 4.297 0 01-.908-.072c0-.158.208-.114.208-.256a2.869 2.869 0 01-1.22 0 2.893 2.893 0 00-.766-.052c-.255.04-.517.01-.756-.09.196-.037.395-.053.595-.047.205.02.41-.038.575-.16-1.159.038-2.306.105-3.456.088-.672 0-1.342-.083-2.014-.041-.22.016-.444-.014-.389.108.367.05.739.02 1.111.083.064.023.053.047.022.059-.062.009-.125.015-.188.016h-1.064a3.68 3.68 0 00-1.112.18c-.064.023-.175.023-.18.104 0 .194-.139.158-.253.152-.47.01-.938.06-1.4.148-.078 0-.195 0-.242.11-.278-.069-.172-.15-.302-.188-.131-.039-.114.116-.114.116l.416.092.834.195c-.392 0-.556.297-.8.508a.128.128 0 01-.084 0c-.05 0-.083-.025-.091 0-.009.025.177.033.244.039l.417.08c.13.022.259.055.383.1.033.034-.089 0-.255-.024l-.514-.067c-.048 0 .013.053.07.103.055.05.146 0 .277 0a.963.963 0 01.417.055s-.059.03-.106.045c-.11.014-.22.022-.33.022a.537.537 0 01-.206-.02c-.056-.022-.147 0-.103.067s.114.094.147.03c.034-.063 0 .031.19.056a3.546 3.546 0 001.233.061c.32-.012.64.002.958.042.489 0 .936.214 1.433.208.862 0 1.723-.07 2.59-.03a7.57 7.57 0 001.455-.09l-.489-.052a.576.576 0 010-.07c1.623-.11 3.253-.063 4.887-.205-.04.07-.09.056-.13.061-1.448.209-2.893.434-4.354.497-.465 0-.929.032-1.389.095-.033-.114-.128-.103-.22-.114-.936-.114-1.869.025-2.808.02-.209.017-.416.05-.62.097h2.206a.695.695 0 01.403.05c-.93.083-1.861.183-2.808.316a7.59 7.59 0 01-.556.048c-.161 0-.556-.04-.456.1.1.139.053-.031.236-.031a.88.88 0 01.176.017l.669.18c-.122.092-.278.134-.308.306a.114.114 0 000 .12c.047.066.158.188.16.24.004.054.118.065.118-.03 0-.094 0-.194-.09-.21-.088-.017-.202 0-.166-.053.033-.043.07-.083.108-.12.07-.05.14-.058.225.103.064.117.147.164 0 .264s-.108.141 0 .23c.225.172.22.18-.053.278l-.122.047a.29.29 0 00.097.028c.103 0 .212-.02.264.094.078.156-.11.098-.141.17-.014.03-.047.067-.042.092.058.16-.058.158-.156.17l-1.666.19a.555.555 0 00-.384.123 1.615 1.615 0 01-.605.372.336.336 0 00-.23.356c.146-.253.24-.217.352-.047a.474.474 0 00.506.191.467.467 0 01.441.072c-.2.07-.403.048-.575.223l1.687-.12c-.43.116-.87.19-1.314.223-.47.058-1.17.172-1.178.186-.009.014-.05.214.06.127a.78.78 0 01.348-.033.57.57 0 01.447.183c.075.09.203.059.314.034a6.89 6.89 0 011.008-.147c.992-.067 1.984-.137 2.976-.198a12.104 12.104 0 011.522-.033c.049.01.096.026.142.047.033.017 0 .03-.05.045h-.036l-2.642.194c-.484.033-.975.017-1.436.356 2.758-.347 5.517-.25 8.22-.756.147 0 .319-.025.522-.036.466-.03 1.325-.15 1.272-.22-.053-.069-.833.081-1.211.14-.378.058-.675.08-.967.1-.208 0-1.058.055-1.542.077-.7.028-1.303.022-1.483-.114-.089-.102 1.442-.153 2.256-.23.6-.059 1.21-.04 1.814-.092.833-.075 1.653-.139 2.464-.278.55-.105 1.107-.166 1.666-.18h1.07c-.633-.211-1.278-.075-1.917-.09-.65-.022-1.3.01-1.944.098-.625.092-1.259.128-1.89.189.61-.14 1.23-.234 1.854-.278.352-.053.689-.172 1.036-.225.538-.066 1.08-.09 1.622-.07.38.015.87.034.933.031.064-.002.056-.025 0-.055-.055-.03-.258-.053-.222-.072.036-.02.425.069.556.052.13-.016 0-.083-.236-.094h-.184l-1.31-.086c.797-.068 1.6-.043 2.39.075.147.023.29.057.431.1.148.058.117-.109 0-.111a4.645 4.645 0 01-.383-.031c-.122-.014-.153-.028-.205-.092l.019-.014c.02-.013.608.07.62.056.01-.014 0-.217-.109-.247-.097-.086-.244-.078-.364-.125-.177-.07-.7-.103-.6-.236.261.083.236.044.278-.07-.078-.058-.203-.07-.225-.194-.022-.125.278.105.37-.025.091-.13-.087-.18-.081-.278.1-.02.197-.03.297-.044a67.493 67.493 0 013.584-.442c.302-.025.619-.15.897-.09.278.062.367-.488.683-.196a.32.32 0 00.059-.05.939.939 0 01.725-.278c1.086.014 2.169-.114 3.255-.061.106 0 .223.025.32-.123h-.37c-1.877 0-3.753.067-5.628.164a38.02 38.02 0 00-5.278.503c-.486.095-.436-.033-.475-.153a18.105 18.105 0 013.153-.466c.981-.061 1.959-.17 2.939-.259a.464.464 0 00.431-.247.2.2 0 01.194-.13c.475.047.95-.075 1.425 0a.146.146 0 01.045.016c.042.025.017.042-.02.053-.25.044-.511 0-.758.061.345.054.697.054 1.042 0 .23 0 .414.086.469.05.056-.036-.022-.08-.053-.089-.03-.008-.319-.039-.397-.047l-.078-.02c.22-.063.373-.08.514.042.028.025.059.1.086 0 .048-.153.164-.089.253-.086 1.242.04 2.486.056 3.723.175a.308.308 0 00.333-.11c.036-.043-.167-.037-.236-.04-1.111-.047-2.236-.189-3.359-.133a2.26 2.26 0 01-.355-.045c-.067 0-.139-.027-.136-.108.002-.08.094-.061.15-.064h.483c-.089-.086-.186-.066-.278-.078-.669-.086-1.344-.202-1.992.111a.118.118 0 01-.078.017.121.121 0 01-.072-.036.247.247 0 00-.277-.02.95.95 0 01-.542.048 6.398 6.398 0 00-1.597 0c-.908.044-1.812.137-2.709.278-.041-.1-.014-.192.161-.22.725-.117 1.448-.258 2.184-.311.869-.064 1.742-.117 2.614-.175.05 0 .119.025.122-.061.003-.086-.047-.097-.108-.1h-.325c.383-.22.833-.078 1.23-.203.059-.02.236-.042.298.067.094.166.233.136.38.139.506.016 1.02-.086 1.514.027.495.114.953-.036 1.414.128a.165.165 0 00.106-.022 4.35 4.35 0 01.536-.22c.114-.013.241-.019.336-.022a.712.712 0 01.414.123c.053.058.103.177.161.155.058-.022-.033-.225-.07-.225-.036 0-.541-.094-.772-.144h-.058c-.514-.114-1.036-.159-1.553-.234a.881.881 0 01-.458-.127c-.153-.114-.203-.045-.278-.142 1.194.025 2.364.278 3.547.336-.908-.194-1.839-.225-2.736-.458l.011-.03zm-10.012-.078c-.777.1-1.555.192-2.333.303-.462.04-.926.049-1.39.028-.2-.089-.421 0-.624-.084 1.792 0 3.553-.366 5.367-.505-.306.308-.697.13-1.014.258h-.006zm3.923-.014c-.542.048-1.084.025-1.525.064.278-.047.633-.028.997-.055a11.82 11.82 0 011.536-.075h.236c-.416 0-.833.025-1.244.06v.006zm4.839-.022c-.229.043-.463.05-.694.02-.19-.04-.382-.061-.575-.064h-2.223c.217 0 .436-.023.653-.036a11.37 11.37 0 011.628 0c.469.033.939.041 1.408.07a1.495 1.495 0 00-.194 0M83.388 47.476c-.16.089-.088.13-.047.147.042.017.959-.339.959-.339a3.129 3.129 0 00-.912.192z" clip-rule="evenodd"/>
  <path fill="#FCB813" fill-rule="evenodd" d="M82.01 44.873c.187-.07-.05-.45-.2-.22 0 0 0 .278.2.22zM98.767 44.17c-.097 0-.291 0-.114.066a.215.215 0 00.195.026c.094-.048.016-.1-.08-.092zM110.773 39.283s.395.112.462.07c.136-.083-.198-.075-.462-.07zM84.641 42.95s-.144-.125-.205-.075-.13.222.025.23c.155.009.18-.155.18-.155zM84.83 41.095c-.408-.187-.592-.078-.555.022.036.1.555-.022.555-.022zM97.053 44.5c-.253.079-.51.144-.77.195-.3.078-.6-.014-.886.036-.555.097-1.11.23-1.666.311-.984.139-1.964.308-2.95.403-1.776.17-3.567.133-5.337.408-.242.036-.52-.036-.72.13a2.778 2.778 0 01-.702.426.205.205 0 00-.15.25c0 .061.314-.13.341-.072.231.491.142.339.514.305.084 0 .114-.058.198-.064.083-.005.172.036.17.109-.004.072-.056.064-.106.064a.68.68 0 00-.278.069 1.542 1.542 0 00-.3.158c-.07.048.141 0 .247-.033h.172c.042 0 .075.02.078.036-.228.114-.489.128-.745.247-.336.084-.413.161-.255.14.112-.018.223-.045.33-.081a.279.279 0 01.248.066c.18.214.394.164.608.114.254-.046.513-.056.77-.03.058 0 .122.014.122.078 0 .063-.064.075-.122.072a.555.555 0 00-.278.047l-.125.044c-.106.042.025.05.1.037h.039a.95.95 0 01.278.047.053.053 0 010 .041.072.072 0 01-.04.042 2.967 2.967 0 00-.758.12c-.064.02-.13.035-.197.044-.072 0-.058.208.07.278.127.07.51-.02.374-.133-.069-.059-.088-.098-.077-.114a.647.647 0 01.422.4c.029.067.062.132.1.194a.555.555 0 01.072.242c0 .186-.08.122-.12.116-.038-.005-.038-.205-.083-.277a.227.227 0 01-.077-.195c0-.144-.025-.158-.153-.167a.13.13 0 00-.133.19c.05.074.327.619.352.641a.54.54 0 00.278.08h.03c.111-.014.221-.038.328-.069a5.16 5.16 0 01.906-.08c.097 0 .167.052.158.183-.008.13-.122.108-.191.094-.184-.036-.611 0-.536.075.308.245.133.225.277.362-.277.208.023.277.048.25.21-.134.316-.117.322-.078.039-.02.06-.036.044-.047a.303.303 0 00-.086-.04h-.072a.05.05 0 00-.028 0c-.064.029-.122.1-.192.084-.069-.017-.094-.078-.025-.092.07-.014.134-.083.19-.091a1.57 1.57 0 01.322-.08c.072-.023.102.019.091.085-.041.234.095.172.225.148.317-.064.634-.12.953-.164l.103-.04c-.017-.074-.097-.063-.142-.085l-1.005.16c.296-.186.64-.283.991-.277.034-.078.12-.092.203-.095.13 0 .258 0 .386-.022.478-.033.956-.06 1.43-.105.395-.04.487-.24.279-.584-.05-.086-.1-.172-.18-.305l.624.039c.047 0 .122-.017.108.075-.022.166.026.297.2.336a.358.358 0 00.409-.17c.12-.297.355-.236.578-.253a8.027 8.027 0 001.07-.108c.363-.083.819.092 1.077-.339.022-.036.1-.039.153-.053.1-.025.2-.041.297-.066.097-.025.18 0 .164-.097-.017-.098-.122-.037-.18-.028a7.27 7.27 0 01-1.098.116c-.105 0-.22.062-.37-.03.278-.042.481-.072.695-.117.103-.022.242 0 .292-.117.05-.116.197-.191.341-.238a6.29 6.29 0 001.342-.556c.1-.061.186-.155.145-.278-.042-.122-.153 0-.228 0a2.872 2.872 0 01-1.086.045 1.156 1.156 0 00-.4-.04c-.58.078-1.166.107-1.75.087.68-.161 1.302-.308 1.925-.461.055 0 .172 0 .16-.059-.058-.277.192-.227.32-.297.11-.046.222-.084.336-.114.053-.022.15-.022.125-.108-.025-.086-.1-.033-.158-.017-.197.053-.389.114-.586.153a5.88 5.88 0 01-1.111.175c.278-.1.555-.178.833-.255.086-.026.189-.037.222-.14.05-.166.186-.202.325-.263a8.019 8.019 0 001.473-.74c.058-.04.128-.066.16-.144.034-.077.067-.125.029-.18-.04-.056-.114 0-.173.014" clip-rule="evenodd"/>
  <path fill="#231F20" d="M106.96 25.206l-.017-.02.017.02zM114.963 19.882c.58-.277 1.189-.527 1.783-.791.219-.073.43-.166.631-.278.05-.108-.609.072-.859.058-.186 0-.372-.091-.555.02-.534.31-1.173.352-1.698.689 0-.037.017-.07.023-.106.03-.278.277-.517.175-.811l.419-.114c.795-.233 1.52-.647 2.322-.834.092-.022.203-.038.242-.166a.423.423 0 00-.355.03c-.262.109-.525.217-.792.317s-.556.189-.834.278l-.805.278-.211.072c.022-.089.103-.125.228-.142.085-.022.169-.051.25-.089.594-.247.291-.13.277-.316 0-.087.084-.142.228-.184.053-.016.114-.06.17-.086.108-.214-.178.042-.278 0 .03-.02.039-.047.061-.075.022-.028.236-.047.278-.103.141-.127-.173 0-.203 0 .053-.086.103-.172.225-.183 0 0 .022-.044.019-.07a.508.508 0 00-.03-.138.407.407 0 00-.078.086c-.022.033-.125.036-.183.022a.957.957 0 00-.742.15c-.222.13-.474.2-.731.203v.02a.233.233 0 01-.341.122.742.742 0 00-.584-.081c-.105 0-.158.186-.322.058-.039-.03-.719.053-.931.056-.477 0-.95.1-1.444 0-.389-.084-.803.116-1.217.142-.418.045-.838.068-1.258.066.45-.091 1.333-.25 1.944-.386h-.489c-.577.089-1.222.214-1.608.242.331-.103.669-.172 1.006-.245H107.282c-.031 0-.139.056-.134 0h-1.439c-.083.036-.125.084-.097.15.167 0 1.22-.039.672.128-.358.153-.619.022-1.111-.133-.105-.034-.128.022-.097.116.031.095-.022.117-.097.114-.075-.003-.097-.097-.089-.139.008-.041 0-.058-.084-.091a.74.74 0 00-.452.027c-.439.106-.542-.063-.314-.133a1.1 1.1 0 00.183-.067h-.083l-.242.037c-.862.116-1.73.186-2.6.21.114.278.075.412-.15.476-.278.078-.411 0-.458-.306-.02-.12-.087-.064-.137-.075-.533-.114-1.041.075-1.558.136-.22.028-.461 0-.645.184a.278.278 0 01-.213.025c-.745-.162-1.478.044-2.223.08-.464.02-.925.05-1.389.08.095.25-1.536.145-1.647.142-.061 0-.158.023-.183-.047h-.373c.183-.1.381-.168.587-.203a3.366 3.366 0 01-.556-.075c.197-.081.409-.122.622-.119l1.63-.097a.685.685 0 00-.3-.061c-.19-.02-.374.075-.569.044-.597-.094-1.183.056-1.775.092-.18 0-.105.114-.03.194.078.086-.172.111-.472.13-.167 0-.476.02-.753.026-.648.051-1.298.051-1.945 0-.339-.02-.761 0-1.111-.028-.05-.12.32-.025.255-.128-.955-.025-.922 0-1.541 0-.14-.1.41-.12.277-.203-.266.024-.534 0-.791-.072-.056.034 0 .092.092.147.019.017.113.064.11.087-.002.022-.15.219-.316-.064-.033-.056-.15-.203-.22-.123-.027.031 0 .075.05.12a.606.606 0 00-.213-.08c-.314-.045-.59.31-.8.45a.449.449 0 00-.178.627c-.175.042-.378.022-.442.233a.978.978 0 01-.35.481.383.383 0 00-.142.278.585.585 0 01-.297.555 1.11 1.11 0 00-.506.403c-.13.19-.318.335-.536.414-.039.017-.064.064-.097.097-.183.175-.367.356-.555.531-.237.22-.506.417-.445.8a.142.142 0 01-.039.1 2.335 2.335 0 01-.797.647c-.442.19-.911.242-1.217.72-.192.3-.608.339-.978.236-.036.108.186.142.045.258-.061.053-.134.142-.073.214a.292.292 0 00.278.12.313.313 0 01.33.052c-.066.12-.277-.047-.377.059.614.16 1.236-.047 1.803.066.244.042-.128-.372 0-.277.266.222.606.337.953.322.38 0 .76.041 1.133.122.32 0 .642.014.959.039.974.117 1.956.155 2.936.114.132-.023.266-.034.4-.03.228 0-.156-.142.664-.131.82.01 1.703-.1 2.558-.14H90.531c.983-.021 1.972-.071 2.96-.11.556-.023 1.112-.061 1.668-.092.21 0 .339-.092.389-.233a.524.524 0 000-.064.207.207 0 000-.042.332.332 0 000-.053v-.083a.618.618 0 000-.1 2.901 2.901 0 01-.025-.217.83.83 0 01.016-.22 8.807 8.807 0 01.509-1.819c.03-.066.083-.105.147-.086.064.02.058.095.028.136a.278.278 0 00-.014.278c.07-.183.133-.341.191-.503 0-.033.02-.091 0-.102-.322-.228-.041-.442.014-.659 0-.03.042-.078.067-.078.328-.019.32-.314.425-.514.036-.072.08-.144.117-.219a.278.278 0 01.278-.139c.13 0 .077.142.097.222.014.1.035.2.06.298.429 1.139.762 2.32 1.462 3.333.042.068.078.14.108.214.023.053.045.106.064.158.02.053.036.086.056.128.02.042.025.053.039.078l.028.053v.016l.033.053.033.045v.016h.12c.46 0 .925 0 1.389-.022.18-.022.363-.058.555-.083.247-.045.5-.045.747 0l.134.039c.128.044.194-.073.3-.09.233-.038.511.09.711-.124.075.097.278-.095.297.13 0 .092.064.092.134 0 .069-.091.052-.108.133-.227a.498.498 0 01.255-.031c.073.086 0 .278.034.372h.555a.487.487 0 00.231-.23c.069-.142.194-.15.311-.181.117-.03.306-.03.356.12.05.15-.12.227-.25.252a.46.46 0 00-.1.025c.33-.003.66.012.989.047h.141l.031.037a.443.443 0 01-.07-.1c.131-.07.259-.15.389 0a.068.068 0 01.022.058l.203-.028c0-.153.156-.147.278-.16a.074.074 0 01.031 0c.069 0 .127.035.155.016.209-.14.457-.211.709-.203.304.096.627.116.941.058a8.1 8.1 0 01.309-.075c.394-.089.158-.122.386-.177h.022c.006 0 0 0 0 0 .217-.031.433-.059.65-.081.45-.047.958-.07 1.342-.417.064-.058.236-.141.294-.083.015.02.034.035.056.047a.32.32 0 00.417-.105c.116-.117.219-.248.325-.375a.317.317 0 01.219-.14c.239-.03.556-.58.411-.752-.222-.256.053-.222.131-.297.077-.075.258-.045.264-.2a5.154 5.154 0 00-.017-.834c-.014-.11-.075-.222-.089-.33.492-.175.983-.35 1.478-.52.133-.047.278-.103.297-.278-.08-.039-.136 0-.192.03a22.8 22.8 0 01-1.58.654.275.275 0 01.153-.18.06.06 0 000-.054.546.546 0 01-.02-.175c.172.13.278.159.439 0a.508.508 0 01.178-.089 4.802 4.802 0 001.094-.338c.834-.45 1.739-.781 2.603-1.178.075-.034.181-.034.228-.18-1.314.494-2.531 1.144-3.861 1.552.044-.253.278-.278.414-.358v-.009zm-29.93-.039a.134.134 0 01-.147-.1c-.017-.06.044-.122.108-.136.064-.014.109.047.13.114.023.067-.03.108-.09.122zm.203-.955a.323.323 0 01.044-.645.32.32 0 01.259.33.314.314 0 01-.303.315zm10.514-.25c-.091 0-.208-.017-.222-.117-.014-.1.097-.133.195-.155.077.024.2 0 .216.122.017.122-.097.142-.189.15zm.742-.03c-.1 0-.197-.015-.186-.14.011-.125.12-.144.228-.144.108 0 .23.022.22.147-.012.125-.154.134-.262.136zm1.217-.198c-.075 0-.164 0-.178-.086-.014-.086.075-.117.147-.117.073 0 .145 0 .164.097.02.098-.07.103-.133.106zm12.409-.439c-.145.03-.294.03-.439 0 .139-.153.65-.097.439 0zm-6.7.889c.088-.025 1.608-.278 1.591-.083a6.935 6.935 0 01-1.591.083zm2.733-.717a5.6 5.6 0 01-1.614-.055l2.6-.209c.185-.02.371-.02.556 0-.298.059-.6.095-.903.109a1.075 1.075 0 00-.639.147v.008zm3.289.859c.753-.159 1.181-.42 1.309-.336.319.139-.923.305-1.309.336zm.358-.392c.184-.139.278-.111.398 0h-.398zm2.556-.589c-.597 0-1.189.056-1.783.089 0 .044-.031.08-.045.117a.28.28 0 01-.027.047.345.345 0 01-.087.1H109.526l-.25.017h-.094c-.636.047-1.273.127-1.909.158-.45.092-1.111.189-1.022.103.235-.091.487-.135.739-.128a.186.186 0 010-.047c0-.14.064-.19.183-.192.144-.004.288-.016.431-.036l.2-.028.147-.025h.089l.2-.03.192-.02h.258c.065-.004.13-.004.195 0 .056.004.113.004.169 0H109.265l.108-.02h.059l.125-.027c.193-.052.39-.09.589-.114a.149.149 0 01.102-.03c.392 0 .778-.109 1.17-.081.392.028.772-.161 1.181-.083-.048.138-.117.202-.248.2l.003.03zm1.325-.058c.153-.025.756-.178.692-.036-.225.358-.556.139-.692.036z"/>
  <path fill="#231F20" d="M95.931 23.927c.149-.322.232-.67.245-1.025-.092.278-.423 1.111-.245 1.025zM94.558 17.457a.175.175 0 01.097-.072h-.174c-.487.194-1.009.17-1.52.214a4.167 4.167 0 00-.75.15c.661-.045 1.33-.072 1.997-.142.128-.014.25 0 .35-.147M94.897 17.508c-.036 0-.078 0-.08.058-.003.058.033.053.072.044.313-.041.63-.05.945-.024.119 0 .369.033.497-.128.058-.072.1 0 .136 0 .078.05.139.066.21-.017.073-.083.17-.089.212 0 .042.089-.053.122-.13.145-.078.022-.103.036-.195.069.675.178 1.289-.156 1.922-.07.025.04-.255.1 0 .137.123.02.242.1.356-.023a.104.104 0 01.1-.025c.4.22.803 0 1.2.017.17 0 .556-.058.481-.139 0-.091-.067-.12-.181-.12h-.189a.096.096 0 01-.047 0c-1.017.05-2.03.1-3.006.117h-.178c-.066-.041 0-.227-.102-.225-.278 0-.556-.033-.85 0-.43.042-.86.061-1.292.056a.228.228 0 01.116.122M77.513 25.45c.161.033.278-.053.475-.076-.214-.094-.36-.141-.475.075zM118.33 17.082c-.073-.083-.153.028-.206 0-.025-.07.083-.066.036-.155-.125.039-.364.1-.317.18.098.167-.047.123-.086.159a.868.868 0 01-.177.086.48.48 0 00.447.058.49.49 0 00.303-.336M115.477 18.468c-.176.056-.192.183.038.084a8.017 8.017 0 001.701-.723c.025-.078-1.198.434-1.739.64zM119.03 16.208c-.156-.042-.148.077-.406.216 0 .117.531-.147.406-.216zM118.001 18.002a.277.277 0 00.331-.144c.072-.18-.25.022-.331.144zM114.971 18.643c0 .08.291.03.18-.044 0 0-.172-.039-.18.044zM118.81 18.469s-.339.02-.311.177c.027.159.555-.097.311-.177zM117.841 18.018s-.2-.02-.164.136c.036.156.322-.03.164-.136z"/>
  <path fill="#D62229" d="M120.916 11.682c-.159-.208-.445.075-.453.128a.374.374 0 00.157.367.376.376 0 00.399.022c.102-.128.05-.312-.103-.517zM119.607 11.254c0-.17-.155-.22-.339-.17-.183.05 0 .298 0 .298.039.053.351.039.351-.128M100.198 2.875c.044.092.114.15.217.106.102-.044.166-.108.169-.164-.017-.294-.231-.342-.378-.447-.053-.042-.103 0-.139.039-.105.153.042.25.078.372a.671.671 0 00.053.094zM100.692 1.192a.148.148 0 00.143-.1c.007-.019.009-.04.007-.06a.193.193 0 00-.189-.194c-.091.024-.18.068-.169.177a.2.2 0 00.208.178zM98.737.809c.083-.02.158-.042.15-.153A.152.152 0 0098.734.5a.147.147 0 00-.167.14c0 .108.073.152.17.169zM93.856.226c.094 0 .133-.04.125-.106-.009-.066-.067-.11-.156-.12-.089-.008-.133.056-.13.115.002.058.063.108.16.11zM116.46 9.776l.628-.075c.239-.389-.434-.103-.628.075zM98.72 1.795c0 .073.028.148.128.142a.127.127 0 00.097-.167c0-.075-.047-.138-.142-.122-.094.017-.094.078-.083.147zM99.24.831c.072 0 .116-.039.13-.128.014-.089-.056-.144-.156-.144a.111.111 0 00-.116.116.135.135 0 00.032.113.132.132 0 00.11.043zM98.461 14.343c.167 0 .526.097.5 0a.876.876 0 00-.5 0z"/>
  <path fill="#D62229" d="M119.963 12c-.133.066-.486-.029-.603 0-1.161.185-.405-.21-.314-.423a.395.395 0 00-.077-.478c-.073-.083-.098-.306-.298-.17-.297.203-.655.278-.958.467a3.14 3.14 0 01-1.139.445l1.681-.992c.139-.1.069-.139-.056-.092-.653.24-1.291.52-1.911.834.458-.436 1.667-1.197 1.45-1.214-1.031.75-2.075 1.464-3.32 1.808.489-.236.995-.444 1.464-.722.598-.353 1.575-1.033 1.267-1.047-.394.202-.717.539-1.214.614.121-.115.26-.209.411-.278.122-.042.128 0 .139-.067.011-.067.078-.097.192-.144.114-.048.225.02.278-.106a1.033 1.033 0 00-1.045.14c.583-.587.339-.804.339-.804-.897.08-2.778.047-2.8.14.022.082.172 0 .158.107-.019.167-.183.048-.2.067-.072.097-.153.056-.217.028a.095.095 0 01-.048.013.102.102 0 01-.049-.013c.022-.03.056-.02.097 0 .081-.044.139-.183.256-.203-.05-.055-.108-.036-.167-.025a2.15 2.15 0 00-.372.092c-.08.028-.217-.103-.364-.18a4.886 4.886 0 011.289-.165c.386.02.768-.085 1.089-.3.108-.08.261-.17.2-.322-.061-.153-.214-.122-.344-.12a3.613 3.613 0 00-1.184.331.47.47 0 01-.316.067 2.179 2.179 0 00-1.595.208.805.805 0 01-.811 0c-.314-.214-.359-.222-.634.025a2.53 2.53 0 00-.247.261.398.398 0 01-.372.159.557.557 0 00-.569.12c-.139.113-.248.071-.378.085 0-.07.119 0 .111-.078-.239-.102-.361.112-.536.184-.317.13-.645.344-.964 0-.059-.064-.172-.075-.259-.111a.421.421 0 01.145-.209.516.516 0 00.228-.658c-.089-.261-.228-.342-.459-.192a1.278 1.278 0 00-.428.53c-.225.465-.555.679-1.072.556-.189-.038-.278-.069-.205-.258.072-.189-.045-.297-.209-.372-.205-.097-.347.05-.508.122-.278.12-.472.353-.789.372a.835.835 0 00-.878.748 1.62 1.62 0 01-.494.833.399.399 0 01-.531.025c-.169-.13-.033-.278.031-.42.016-.036.072-.058.066-.066a1.386 1.386 0 00-.622-.239c.128-.142.291-.248.472-.308.456-.234.536-.47.211-.859-.236-.278-.091-.694-.375-.941.134-.34-.08-.278-.277-.253-.198.025-.248-.067-.234-.217.056-.603-.197-1.15-.311-1.722a1.283 1.283 0 00-.103-.48c-.177-.256.356-.587.556-.631.064 0-.117-.109-.133-.153-.059-.159 0-.186.038-.34a.44.44 0 00-.216-.555c-.381-.205-.375-.216-.261-.641 0-.017.019-.034.025-.05.075-.187-.02-.278-.186-.237-.167.042-.209-.025-.173-.158a.287.287 0 00.022-.126.282.282 0 00-.033-.124.286.286 0 00-.197-.153.407.407 0 01-.245-.278.669.669 0 00-.674-.45.941.941 0 01-.578-.119c-.253-.111-.475-.311-.792-.278-.017-.15.18-.339-.047-.414-.184-.058-.134-.133-.08-.247.15.095.316.139.46.247a.425.425 0 00.556 0 .278.278 0 00.075-.35.458.458 0 00-.506-.303c-.126.02-.25.05-.372.092a.555.555 0 01-.717-.225.205.205 0 00-.255-.111l-.414.139c-.1-.32-.128-.325-.403-.053a.7.7 0 00-.428-.211c-.314-.075-.658-.053-.933-.278-.08-.064-.253-.122-.297.042-.045.164-.09.32.158.358a.503.503 0 01.364.192c-.428-.175-.8-.247-1.156.014-.047.036-.11-.014-.158 0-.322.06-.678-.134-.967.144-.1.092-.125.017-.158-.078-.07-.205-.364-.2-.414-.433a.106.106 0 00-.053 0c-.128.025-.405.428-.364.556.028.114.038.232.03.35.1 0 .12-.203.21-.109.088.095.177.203.088.356-.12.206-.15.489-.483.489-.048 0-.092.08-.142.122-.106.095-.18.225-.32.292.025-.222-.13-.356-.23-.509-.061-.091-.175-.086-.278-.06a.502.502 0 00-.344.358 16.358 16.358 0 01-.712 1.666c-.066.128-.26.312.081.364v.12c.095-.017.12-.145.23-.128.026.183-.188.278-.2.492l.69-.73c-.142.49-.614.783-.734 1.277.33.014.367.308.492.503a.225.225 0 010 .278.317.317 0 00-.053.277.455.455 0 01-.133.4l-.797.92c-.078.086-.126.161-.023.278a.534.534 0 01-.12.736.745.745 0 00-.344.508.345.345 0 01-.447.328c-.375-.033-.344-.025-.37.358-.016.264.062.517.042.784-.014.216.028.22-.125.336l-.31.23c-.431.334-.626.35-.173.912.208.258.247.402.144.588 0 0-.019.028-.027.045a2.175 2.175 0 01-.159.208.311.311 0 00-.083.375l.086.164c.028.1.073.194.133.278a.225.225 0 01.028.278c-.211.18-.441.34-.686.472-.22.132-.4.325-.514.556a1.789 1.789 0 01-1.186.944c-.48.08-.952.196-1.414.347-.256.103-.3.217-.145.437a.753.753 0 01.159.533.517.517 0 00.622.48c.265-.073.534-.134.806-.18.12-.02.241-.033.364-.044.028.05.062.097.102.138.028.031.098.067.059.095-.161.111-.023.128.044.136.461.05.556.155 1.04.108.144.084-.406.103-.279.203.62 0 .587-.02 1.542 0 .064.103-.305 0-.255.128.347.02.769 0 1.11.028.648.051 1.298.051 1.945 0 .278 0 .586-.017.753-.025.3-.02.556-.045.472-.13-.072-.081-.144-.181.034-.195.591-.037 1.178-.186 1.772-.092.197.03.38-.064.572-.044a.683.683 0 01.3.06l-1.614.1a1.566 1.566 0 00-.589.07c.183.04.369.066.556.075a1.892 1.892 0 00-.586.203c1.228-.017 2.411-.13 3.595-.183.738-.037 1.472-.242 2.222-.081a.278.278 0 00.214-.025c.183-.192.425-.156.644-.183.517-.062 1.025-.25 1.559-.137.05 0 .116-.044.136.075.047.298.191.384.458.306.225-.064.264-.192.15-.475.87-.024 1.738-.095 2.6-.211l.242-.036h.083a1.1 1.1 0 01-.183.067c-.228.069-.125.238.314.133a.742.742 0 01.453-.028c.094.033.097.033.083.092-.014.058.047.139.086.139.039 0 .131-.028.1-.114-.03-.086 0-.15.097-.114.481.153.742.278 1.112.13.555-.166-.506-.133-.673-.127-.027-.067.014-.114.098-.15H107.185c0 .058.102 0 .133 0H107.735c1.961 0 3.436 0 5.739.02a2.15 2.15 0 001.208-.21.955.955 0 01.742-.15c.058 0 .161 0 .183-.022.147-.224.359-.155.517-.083.217.1.261 0 .217-.039-.228-.108-.512-.055-.739-.205.261-.016.523.014.775.089.155.03.336.205.458.066.122-.139-.103-.277-.147-.433.172-.072.292-.233.522-.2.247.036.498.03.742-.02a.441.441 0 00.405-.444.248.248 0 01.109-.208c.241-.184.489-.359.716-.556.556-.47 1.059-1.13 1.112-1.836a.301.301 0 00-.034-.186.406.406 0 01-.078-.312.401.401 0 01.176-.269.3.3 0 00.016-.405.281.281 0 00-.375-.144l-.036.01zM95.281 1.553c.18.022.114-.114.128-.211.108.1.058.358.255.303.198-.056.48 0 .464-.35a.328.328 0 01.047-.128c.14-.303.37-.328.556-.053.046.067.1.128.158.184.178.175.317.155.406-.092.05.072.158.12.122.203-.036.083-.147.052-.222.052-.261 0-.5.117-.758.125-.025 0-.067 0-.075.028-.134.375-.498.306-.773.384-.222.063-.383-.117-.37-.35 0-.042-.019-.103.054-.095h.008zM94.148.915c.136.117.38-.036.447.192.02.061 0 .258-.145.2-.144-.058-.37-.089-.43-.295-.033-.116.078-.06.128-.097zM92.07 2.026c-.034 0-.064-.044-.106-.075a.818.818 0 01.192-.127c.036 0 .066.047.047.1-.02.052-.056.119-.133.102zm2.48 15.43c-.1.157-.22.132-.35.146-.666.07-1.336.098-1.997.142.245-.073.496-.123.75-.15.511-.045 1.034-.02 1.52-.214h.175a.175.175 0 00-.098.072v.003zm5.587.232c-.397-.027-.8.203-1.2-.016a.106.106 0 00-.1.025c-.114.122-.234.041-.356.022-.258-.036.022-.097 0-.136-.633-.086-1.247.247-1.922.07.091-.034.142-.056.194-.07.053-.014.192-.036.13-.145-.06-.108-.152-.06-.21 0-.059.062-.134.067-.211.017-.037-.022-.078-.083-.136 0-.128.164-.381.133-.498.128a4.479 4.479 0 00-.944.025c-.04 0-.078 0-.073-.045.006-.044.045-.05.081-.058a.219.219 0 00-.117-.122c.432.005.863-.014 1.292-.056.297-.03.556 0 .85 0 .106 0 .036.184.103.225h.178c.972-.016 1.989-.066 3.006-.116a.096.096 0 00.047 0h.189c.114 0 .183.027.18.116.07.084-.311.153-.48.142l-.003-.006zm-2.12-2.827l1.687-.178c-.231.277-1.403.402-1.687.178zm4.014-1.52a.226.226 0 01-.17.098.227.227 0 01-.182-.073c-.123-.1-.192-.072-.231.075 0 .025-.028.061-.047.064-.484.125-.781.625-1.322.636-.34 0-.675.07-1.064.114.177.186.302 0 .427 0l.44.022c.155 0 .277-.194.444-.067a.437.437 0 01-.367.178c-.63.061-1.261.114-1.9.172 0-.208.244-.086.294-.216-.18-.02-.362-.01-.538.033-.02-.117.51-.514.602-.417.228.198.428-.277.723-.155.116.047.277-.08.336-.2.191-.325.522-.411.833-.53a.7.7 0 00.375-.206c-.067-.084-.155-.067-.233-.073-.078-.005-.175-.047-.161-.141.014-.095.052-.206.18-.197.128.008.253.086.106.163-.095.053-.089.059.164.123.402-.084.341.097.436.166.13.13.525.075.722.048.197-.028.203.019.231.127.027.109-.05.184-.1.25l.002.006zm.803-.692a.403.403 0 01-.361.259h-.197c-.072-.025-.083-.087-.131-.1a.275.275 0 00-.094 0 .597.597 0 01-.3-.056c.539-.056.478-.514.603-.861.15.105.083.316.144.436.031.067.158 0 .158.136 0 .083.25 0 .178.172v.014zm.834-.06c-.095.08-.231.157-.331 0-.1-.16-.083-.26.1-.318a.087.087 0 00.047-.027c.125-.203.125-.206.386-.261.109-.023.214-.04.323-.056.025 0 .164-.061.147.017-.25.238-.453.441-.672.633v.011zm2.416-1.832a.094.094 0 01-.011.04.095.095 0 01-.026.033.105.105 0 01-.079.022c-.25-.017-.481.103-.784.114.057-.052.119-.1.184-.142.172-.092.369-.161.153-.405-.059-.067 0-.137.08-.167a.188.188 0 01.053 0c.144-.014.344-.084.419 0 .075.083.028.333 0 .503l.011.002zm5.423-.586c-.119-.022-.278 0-.308-.166 0-.062.061-.073.127-.084.067.098.223-.039.278.106-.08.017 0 .16-.103.144"/>
  <path fill="#D62229" d="M108.865 9.951c.058-.02.097 0 .178-.05.08-.05.158-.277 0-.308-.158-.03-.339.278-.339.278-.05.11.089.1.15.08M85.28 18.235a.323.323 0 10-.044.645.314.314 0 00.303-.314.32.32 0 00-.259-.33zM111.421 17.913c-.392-.028-.778.075-1.17.08a.151.151 0 00-.103.03c-.433.04-.852.234-1.283.192-.575-.052-1.139.142-1.711.153-.12 0-.192.053-.184.192a.186.186 0 000 .047 1.968 1.968 0 00-.739.128c-.077.086.573 0 1.023-.103.989-.047 1.972-.214 2.964-.192.175 0 .278-.1.344-.322.595-.033 1.186-.1 1.784-.089.133 0 .2-.06.247-.2-.408-.078-.786.114-1.181.084M107.698 17.89a2.212 2.212 0 00-.555 0l-2.601.209a5.597 5.597 0 001.614.055c.193-.114.416-.166.639-.147.303-.014.605-.05.903-.105M96.534 18.315c-.109 0-.214.017-.228.145-.014.128.083.142.186.139.103-.003.25 0 .261-.136.011-.137-.114-.145-.22-.148zM95.722 18.357c-.094.023-.208.045-.194.156.014.111.13.122.222.117.092-.006.206-.025.19-.15-.017-.125-.137-.098-.218-.123zM103.417 18.86a6.984 6.984 0 001.595-.083c.014-.203-1.506.058-1.595.083zM110.754 18.665c-.128-.083-.556.178-1.309.337.386-.031 1.628-.198 1.309-.337zM113.682 18.002c.136.103.467.322.692-.036.064-.142-.539 0-.692.036zM97.678 18.2c-.072 0-.166.024-.147.116.02.092.103.092.178.086.075-.005.13 0 .133-.105.003-.106-.097-.1-.164-.098zM84.994 19.6c-.067 0-.125.074-.108.136a.133.133 0 00.147.1c.061 0 .083-.064.092-.123.008-.058-.056-.127-.131-.114zM109.798 18.619h.4c-.111-.112-.214-.14-.397 0M109.679 17.971c.144.03.294.03.439 0 .211-.088-.3-.144-.439 0z"/>
  <path fill="#B22227" d="M98.679 16.835c.075-.056.177 0 .213-.133-.202-.03-.405-.15-.591-.03a1.164 1.164 0 01-.972.146c-.328-.116-.498.153-.745.134.833.064 2.17.094 2.972.144-.138-.02-.777-.247-.877-.26zM99.417 17.293c-.72.092-1.728-.078-2.397.278.378.041 3.503-.261 2.397-.278zM101.153 14.151c-.055.025-.119.072-.105.14.014.066.094.08.158.069a.728.728 0 00.42-.186.468.468 0 00-.473-.023zM101.309 9.499a.6.6 0 00.414-.342l-.475.18c-.05.02-.12.029-.1.098.019.07.097.083.161.064zM104.337 13.665l.536-.089a.379.379 0 00-.536.09zM97.42 17.205c.133-.189-.611-.114-.85-.05.272.1.568.117.85.05zM94.986 16.33c-.197.16.703.08.673.025-.24-.073-.506-.159-.673-.026zM95.686 13.84l.462-.08c-.114-.161-.225-.147-.462.08zM95.964 17.16s0 .073.025.095c.125.142.189-.092.303-.056.014 0 .039-.02.066-.036a.208.208 0 00-.06-.02c-.115 0-.229-.058-.334.017zM107.676 17.568a.573.573 0 01.25-.06c.108 0 .081-.062.025-.117-.119.016-.278-.02-.278.177M100.198 14.793c.124.017.25.01.372-.019a.241.241 0 00-.191-.076.243.243 0 00-.181.095z"/>
  <path fill="#B22227" d="M118.335 12.277c.083-.05.141-.278.225-.347.077-.056.159-.105.244-.147a.393.393 0 00.281-.29.394.394 0 00-.117-.386c-.072-.083-.097-.308-.297-.169-.297.203-.656.278-.959.467a3.13 3.13 0 01-1.138.444l1.68-1c.139-.1.07-.139-.053-.092a17.77 17.77 0 00-1.914.834c.459-.436 1.667-1.197 1.45-1.214-1.03.75-2.075 1.464-3.319 1.808.489-.236.994-.444 1.464-.722.597-.353 1.575-1.033 1.267-1.047-.403.205-.725.555-1.234.616.204-.123.379-.29.511-.489-.277-.036-.397.259-.697.278.156-.139-.078-.372-.297-.294a4.088 4.088 0 01-1.264.53c-1.097.278-2.198.556-3.284.895-.141.044-.355-.02-.38.233 0 .022-.123.067-.145.047-.172-.141-.341 0-.511 0a.558.558 0 00-.519.245c-.131.2-.414.064-.606.167-.178.02-.351.07-.511.15-.695.252-1.459.23-2.145.514a2.717 2.717 0 00-.714.13c.206.08.414-.061.589.072-1.091.162-2.194.256-3.253.62a24.611 24.611 0 003.364-.572 8.262 8.262 0 001.006-.259c1.554-.329 3.086-.76 4.584-1.289-.134.25-.373.278-.575.334-1.425.42-2.814.944-4.262 1.266-.614.14-1.219.312-1.836.445-.947.203-1.906.247-2.861.364a9.23 9.23 0 00-1.325.18c-.092.025-.214.03-.214.173 1.275-.106 2.539-.317 3.819-.362a7.223 7.223 0 001.112-.186c.522-.097 1.016-.314 1.547-.364 0-.12.106-.094.172-.114.147-.047.297-.086.447-.127.145-.046.293-.083.442-.109-.316.19-.669.31-1.036.35h-.042c-.097.13-.278.109-.419.234.386-.08.753-.128 1.111-.236.936-.278 1.864-.598 2.797-.898.059-.02.123-.083.181 0-.075.034-.028.142-.136.175-.481.153-.956.32-1.431.49a32.226 32.226 0 01-9.214 1.797 1.763 1.763 0 00-.817.191c.772-.05 1.542-.12 2.308-.191a32.124 32.124 0 006.237-1.153c.294-.09.614-.028.911-.123.164-.052.336-.08.503-.116a35.108 35.108 0 01-6.214 1.58 76.058 76.058 0 01-3.459.367l-.52.025-.372.022c-.652.028-1.427 0-1.98 0a.022.022 0 01-.014-.014c-.08-.172-.228-.11-.359-.116-.083 0-.191.022-.241-.02-.164-.13-.3-.047-.417.04a1.003 1.003 0 01-.1.063h-.939c-.08 0-.155-.017-.228-.02a1.058 1.058 0 00-.23 0 1.068 1.068 0 01-.834-.252c-.13-.092-.202-.114-.322 0-.033-.17.017-.442-.094-.447-.19 0-.214-.167-.33-.225-.118-.059-.165-.2-.037-.34a.955.955 0 01.195-.152 3.24 3.24 0 01.819-.078c.972 0 .983.209 2.867-.278 1.883-.486 2.292-.864 1.906-.725-.317.114-1.645.5-2.595.709.042-.048-.075-.08-.645-.05.173-.135.373-.23.587-.278-.098-.161-.225 0-.337-.025-.066 0-.144.064-.2-.014-.141-.203-.21-.242-.427-.167a.298.298 0 01-.278 0 .19.19 0 01.211-.114c.208.067.306-.083.406-.197.1-.114.152-.13.25 0a.325.325 0 00.425.067 1.49 1.49 0 011.272-.02c-.114.031-.247.023-.292.167.111.05.203 0 .278-.05.277-.125.577-.191.88-.194a.435.435 0 00.178-.036c.384-.187.764-.384 1.145-.573.056-.027.142-.078.147.028 0 .178.114.064.128.036.108-.21.328-.247.511-.33a7.683 7.683 0 001.111-.52c.061-.039.178-.08.125-.18-.053-.1-.139-.056-.222-.017a6.186 6.186 0 01-.856.261c-.047.014-.102.022-.122-.025a.155.155 0 010-.13c.056-.098.186-.2.256-.164.15.077.214-.037.314-.075.389-.15.525-.587.88-.784.07-.036.2-.06.195-.2l-.078.017a1.154 1.154 0 01-.717.022c-.094-.044-.344-.047-.186-.3.095-.153.161-.292.367-.328.154-.042.304-.1.447-.172a1.27 1.27 0 00-.578.1c-.25.128-.341-.17-.555-.13.277-.278.633-.326.889-.556-.256.028-.498.092-.728.092-.114-.092.147-.175-.017-.237a.869.869 0 00-.53-.075c-.448.131-.892.262-1.34.378a.967.967 0 01-.602.08l.778-.277c-.353 0-.69.106-1.092 0l.397-.186c.056-.025.05-.075.033-.114-.016-.039-.075-.036-.108 0-.067.08-.133.147-.25.02l.703-.367s-.014-.028-.02-.045l-1.141.436c0-.019-.017-.041-.028-.063l1.297-.584c-.322-.033-.525.161-.78.2.102-.278.364-.278.555-.378.192-.1.459-.105.584-.297a.728.728 0 01.375-.294c.163-.067.327-.123.325-.345 0-.014.036-.028.064-.047 0 .072.019.133.027.197a.278.278 0 00.25-.244c.028-.15.106-.278.3-.222.073.027.142.088.167-.02.014-.058-.042-.278-.111-.292-.142 0-.314.167-.411.167-.053-.236.475-.344.336-.4-.111 0-.392.228-.278.025.331-.403.833-.597 1.27-.9-.387-.122-.634.203-.956.22.105-.071.216-.133.331-.187.158-.075.094-.239-.092-.139-.517.262-.834.056-1.47.39.503-.262 1.142-.556 1.687-.85a.785.785 0 00-.489.083c-.156.07-.175.072-.18 0 0-.109-.098-.242.063-.317.092-.045.183-.083.278-.133.033-.017.105-.042.066-.098-.091-.125-.025-.15.092-.108.072.03.117 0 .133-.039a.088.088 0 00.011-.042.095.095 0 00-.035-.076.1.1 0 00-.039-.018h-.164c.044-.089.18-.064.191-.186-.205-.014-.352.186-.575.117.086-.067.198-.103.314-.19-.225.023-.394.162-.608.153l.361-.241c.206-.095.217-.17-.02-.042l-1.913.792-.034-.07c.809-.516 2.436-1.202 2.223-1.241-1.145.425-1.778.72-2.864 1.06-.134-.11.955-.51 1.433-.777-.296.044-.597.04-.892-.014a1.292 1.292 0 00-.514.122 1.111 1.111 0 01-.397.123c.239-.209.53-.292.764-.464.292-.2.602-.372.925-.514.05-.017.114-.04.094-.109-.019-.07-.069-.033-.113-.016-.617.239-1.073.43-1.787.728-.297.125-.672.23-.975.36a.6.6 0 01-.453.065c.24-.12.503-.198.753-.32-.15-.014-.294.056-.42-.017l.834-.486c-.758.423-2.022.69-2.778.925-.555.167-1.094.311-1.636.473-.055.016-.214 0-.136.136.078.136 0 .23-.078.333a.278.278 0 00-.047.278c.061.128.17.078.278.08.144 0 .278-.086.475-.038-.264.11-.547.17-.834.175-.07 0-.16-.02-.194.063-.033.084 0 .142.089.175.089.034.055.084.041.156-.08.375-.022.436.362.422h.027c.323.025.645.045.975.059-.444.3-1.027.255-1.466.633.236 0 .277.139.336.306.133.41.033.555-.403.508a.811.811 0 00-.328 0 .792.792 0 01-.764-.195.672.672 0 00-.739.062 2.224 2.224 0 00-.477 1.164c-.026.2.175.372.255.555.022.05.047.1.075.147a.139.139 0 010 .178c-.206.192-.436.372-.175.68a.033.033 0 010 .028c-.178.24-.067.662-.486.759-.094.022-.225.094-.208.222.016.128.138.208.277.245.09.025.181.041.278.072.097.03.195.055.214.155.042.22.214.278.386.348.326.124.66.225 1 .302l1.045.24a.372.372 0 01.278.413c-.02.164-.214.22-.403.161-.114-.033-.236-.025-.353-.047-.456-.089-.933-.047-1.372-.225a1.159 1.159 0 00-.37-.086c-.172-.014-.4.072-.508-.033-.225-.225-.478-.156-.72-.14a.725.725 0 01-.505-.14.422.422 0 00-.556.069c-.244.369-.422.752-.125 1.18a.22.22 0 01-.053.353.19.19 0 00-.083.258.595.595 0 01-.222.642c-.08.053-.214.08-.197.203.016.122.15.167.277.194.128.028.228.047.264.17.036.122.153.17.261.216.413.158.837.28 1.27.367a.331.331 0 01.298.228c.014.042.02.086.016.13-.245-.1-.556.173-.742-.177-.086.058-.089.2-.222.186-.406-.042-.78.158-1.183.158-.459 0-.917.039-1.417.067.075.06.16.058.183.125-.244.089-.539.033-.728.278.017.06.203.069.078.197.133.094.18.258.278.37.028.03.097.066.058.094-.16.11-.022.128.045.136.46.05.555.155 1.039.108.144.084-.406.103-.278.203.62 0 .586-.02 1.542 0 .064.103-.306 0-.256.128.347.02.77 0 1.111.028.647.051 1.298.051 1.945 0 .278 0 .586-.017.752-.025.3-.02.556-.045.473-.131-.072-.08-.145-.18.033-.194.592-.037 1.178-.187 1.775-.092.195.03.378-.064.57-.045a.683.683 0 01.3.062l-1.603.11c-.2-.014-.4.01-.592.07.183.04.369.066.556.075a1.891 1.891 0 00-.586.203c1.228-.017 2.41-.13 3.594-.183.74-.037 1.473-.242 2.223-.081a.28.28 0 00.213-.025c.184-.192.426-.156.645-.183.517-.062 1.025-.25 1.558-.137.05 0 .117-.044.137.075.047.298.191.384.458.306.225-.064.264-.192.15-.475a25.4 25.4 0 002.6-.211c.053 0 .62-.108.142.039-.228.07-.125.239.314.133a.739.739 0 01.452-.028c.095.034.098.034.084.092-.014.058.047.139.089.139.041 0 .127-.028.097-.114-.031-.086 0-.15.097-.114.481.153.742.278 1.111.13.556-.166-.505-.133-.672-.127-.111-.278.942-.228 1.484-.322.058 0 .136.036.1.091-.139.2.069.092.091.092.094-.005.186-.017.278-.036-.061-.142-.208 0-.331-.144l.856-.056a.637.637 0 01.192 0l.216-.042c-.664-.389-1.43-.139-2.189-.108a10 10 0 011.003-.195c.328-.044.659-.058.986-.086 2.098-.177 6.265-.539 6.326-.625.061-.086-.717-.03-1.639.061l-4.62.453a29.268 29.268 0 014.192-.639l4.578-.408a.311.311 0 010-.456c.141-.098.304-.162.475-.186.433-.072.883-.105 1.247-.428.114-.188-.516.04-.769.075a6.812 6.812 0 00-.939.203c-.178.05-.253 0-.303-.158a.336.336 0 00-.43-.242 6.243 6.243 0 01-1.82.056c.414-.125.833-.236 1.244-.336.412-.1.801-.09 1.206-.209 1.434-.422 1.611-.422.997-.53-.497.075-.764-.125-.858-.348.253-.069.881-.516.981-.438 0 .063-.114.066-.07.147.278-.017.186-.12.122-.278-.063-.158.02-.395-.058-.589 0 0 .056-.072.111-.047.056.025-.05.255.014.322l.017-.011zm-12.279 1.122l.556-.06c-.181.038-.35.163-.556.06zm2.123.117a.853.853 0 01.427-.15.703.703 0 01-.427.15zm-9.757-3.74a.417.417 0 01.392.115.572.572 0 01-.644.172c0-.183.386.047.252-.278v-.008zm-.966 2.565c-.036 0-.084.108-.111 0-.028-.108.038-.136.119-.15a.153.153 0 01.156.078c0 .122-.109.058-.164.075v-.003zm.133-.89c.058.023.061.084.033.137-.072.122-.163.064-.277.014.083-.08.125-.194.25-.15h-.006zm-.597 1.037c.06-.12.06-.3.305-.278-.02.053-.025.103-.05.111-.105.045-.07.245-.233.22-.03 0-.036-.028-.022-.059v.006zm-.461-3.436c.125-.042.233-.14.375-.125 0 0 .027.06.025.064a.703.703 0 01-.478.127c.039-.033.055-.058.078-.066zm-.156 3.078a.26.26 0 01.261-.095c.092 0 .172.114.253.18v.07c-.278 0-.278.384-.556.409-.019-.192-.088-.375.053-.556l-.01-.008zm-.317.039c.053 0 .086 0 .086.07 0 .16-.147.221-.227.327 0 .016-.17.114-.222-.039a.05.05 0 00-.087-.025c-.077.103.073.125.084.225a4.42 4.42 0 01-1.33-.078c.221-.108 1.477-.425 1.696-.48zm-3.039 3.83c.65.109-.416.236-.4.15.017-.277.109-.277.4-.15zm0 .775a.396.396 0 01-.347-.022l.339-.058v.08h.008zm.38-2.478c-.207.026.279-.202.44-.063-.067.188-.136 0-.44.063zm-.2-.322a2.955 2.955 0 011.134-.122c-.216.061-.875.128-1.091.192-.112.039-.17 0-.042-.07zm-.202.14c-.453.131-.918.218-1.389.26-.236-.122 1.061-.26 1.39-.26zm-1.239.752v.1c-.111.092-.217 0-.35 0 .1-.153.556-.278.35-.108v.008zm.122 1.208c-.055.092-.147.086-.233.109-.025.133-.136.105-.22.1-.227 0-.452-.03-.697-.05a1.02 1.02 0 01.917-.05c.02-.142-.261-.128-.192-.206.106-.028.209-.058.317-.08.064 0 .144-.095.194 0 .05.094-.047.125-.086.186v-.009zm.25.153c-.075-.03-.066-.158-.047-.239.02-.08.061-.216.278-.2a.219.219 0 01.128.117c.041.12-.086.061-.13.097a.28.28 0 00-.048.061c-.053.07-.089.198-.186.164h.005zm8.004 1.467c-.398-.028-.8.203-1.2-.017a.107.107 0 00-.1.025c-.114.122-.234.042-.356.022-.258-.036.022-.097 0-.136-.633-.086-1.247.248-1.922.07.091-.034.141-.056.194-.07.053-.014.192-.036.13-.144-.06-.108-.15-.061-.21 0-.062.061-.134.067-.212.017-.036-.023-.077-.084-.136 0-.127.16-.377.133-.497.127a4.667 4.667 0 00-.945.025c-.038 0-.077 0-.072-.044.006-.044.045-.05.08-.058a.189.189 0 00-.338-.05c-.1.158-.22.133-.35.147-.667.07-1.336.097-1.997.142.245-.073.496-.124.75-.15.57-.05 1.153-.014 1.683-.278a.053.053 0 01.053 0c.214.116.378-.047.556-.114-.04.15 0 .155.208.122.144-.025.278-.297.578-.242.12.023.613.034.497-.105-.297.05-.556 0-1.22.114a6.213 6.213 0 01-1.147-.092l.533-.111c-.03-.053-.058-.136-.08-.136-.434.03-.861-.061-1.295 0 0-.08.03-.12.067-.136.667-.025 2.161-.08 2.156-.12a14.68 14.68 0 00-1.484 0 .322.322 0 00.08-.07c.086-.1.185-.186.295-.258h.509-.056c.275.05.556.06.834.025.186 0 .322.2.519.092.061-.03.155-.067.18.036a.144.144 0 01-.066.18.143.143 0 01-.067.017c-.064 0-.128.017-.23.031a.509.509 0 00.702-.278l.017-.03c.147 0 .278.016.4.02-.036.082-.2 0-.172.096.028.098.147.086.225.03a.575.575 0 01.392-.088.834.834 0 00.458-.044h-.042 1.111c.082.037.157.086.225.144a7.776 7.776 0 00-1.11 0c-.31.053-.526.078.088.117.35.002.698.024 1.045.064.117.072.224.158.32.258.102.105-.195.211-.056.278.213-.03.422.37.594.344.225-.03.372-.03.37.1.066.084-.312.153-.481.142l-.008-.014zm8.325-3.686l1.131-.361.028.033c-.367.169-.758.28-1.159.328zm1.014-.084a.904.904 0 01.556-.155c-.153.216-.364.136-.556.155z"/>
  <path fill="#404041" fill-rule="evenodd" d="M112.04 18.157h-.03a2.936 2.936 0 00-.314 0 .661.661 0 00.128.09c.091.03.158-.026.216-.09zM106.648 22.555c.291.053.59.02.862-.097a2.116 2.116 0 00-.862.097zM97.362 19.888l-.776-.03c.237.197.52.108.778.166.036 0 .106 0 .092-.036-.014-.036 0-.097-.103-.1M111.287 19.81h-.052c-.348.295-.814.18-1.203.378-.778.392-1.667.453-2.5.672-.953.256-1.926.395-2.895.556-.203.033-.214.036-.353.225.436-.064.834-.133 1.245-.183a52.632 52.632 0 005.556-1.126c.05 0 .108-.055.138.017.031.072 0 .103-.066.13-.067.028-.414.12-.506.167-.111.142.453-.039.503-.05.42-.091.833-.191 1.258-.277h.05a.928.928 0 01.487-.375v-.042a.571.571 0 01.066-.278c.032-.051.058-.105.081-.161-.195.078-.389.15-.586.222a3.029 3.029 0 01-1.237.159M112.348 21.39a.592.592 0 01-.094-.216c-.711.233-1.431.447-2.161.625a2.399 2.399 0 00-.673.239c-.247.147-.533.033-.794.144-.284.098-.574.18-.867.248.236.05.481.05.717 0 1.303-.303 2.6-.628 3.872-1.031M113.051 18.255l-.111.03c-.064.087-.047.22-.133.306a2.083 2.083 0 00-.247-.197c-4.903 1.389-9.859 2.5-15.026 2.733.175.117.175.128.366.12.717-.036 1.437-.07 2.151-.125.852-.067 1.705-.098 2.558-.19a40.127 40.127 0 004.409-.813c.814-.183 1.633-.345 2.453-.517a.495.495 0 01.466.103.306.306 0 00.353.058c.361-.126.733-.22 1.111-.278.2-.038.736-.152.556-.247-.359 0-.672.195-1.028.2.45-.25.972-.277 1.472-.464a.174.174 0 01-.133.136c-.05.02-.097.045-.17.078a.217.217 0 00.239 0 1.42 1.42 0 01.675-.22c.062 0 .12-.021.181-.035a.33.33 0 01.178-.064h.033c.095-.03.208-.075.3-.108-.255-.12-.603-.134-.647-.5l-.006-.006zm-2.217.775c.3-.122.613-.205.934-.247-.28.172-.605.258-.934.247zM87.975 22.703c.16 0 .336.097.5-.064a.908.908 0 00-.5.064zM84.81 24.936h.442a.258.258 0 01.026-.14 5.524 5.524 0 00-.57.104c.035.005.07.014.103.025M91.647 18.785c-.095.01-.189.034-.278.07-.108.186.587.052.72.05.133-.003-.48-.164-.03-.192.397-.028 1.163-.05 1.11-.117a2.74 2.74 0 01-.747-.06H92.4l-.495.038c-.138.034-.28.056-.422.064-.291.025-.9.025-1.192.047.384.18 1.04.084 1.373.103M87 22.71c-.486-.05-1.536 0-2.022.025-.103 0-.245.064-.306-.036s.067-.194.108-.278c0-.027.028-.05.05-.097-.203.025-.414.089-.47-.203 0-.044-.14-.089-.219-.089h-.852c-.062 0-.103.103-.17.04a.1.1 0 010-.098c.064-.053.128-.155.22-.094.091.06.116 0 .175 0 .489 0 .677-.361.833-.72.136-.314.33-.62.297-.989a.197.197 0 00.211-.136c.134-.372-.764-.467 1.15-.605.231-.017.573.024.853 0a3.808 3.808 0 001.575-.442c.064-.034.12-.125.178-.17.058-.044 1.503.053 1.358-.11-.13 0-1.433.035-1.541.035-.278 0-.2-.066-.197-.075.002-.008-1.128.017-1.178 0-.075-.08 1.358-.039 1.41-.06.198-.026.193-.104.05-.112-.474-.097-1.916 0-2.388-.111h-.042c.034 0 .13 0 .078-.13-.053-.131-.256-.187-.239-.114 0 0 .117.066.114.094-.003.028-.15.217-.317-.067-.033-.055-.15-.203-.22-.122-.069.08.095.153.179.242a.592.592 0 01.086.322c-.054.146-.14.277-.253.383-.225.148-.586-.12-.834-.094-.075 0-.075-.042.059-.092.058-.02 0-.139-.103-.103-.103.037-.17.028-.167.145.003.116 0 .222 0 .333a.59.59 0 01-.66.659.66.66 0 00-.156.036c-.073.044-.148.241-.017.314.3.17.044.21-.044.314a.71.71 0 01-.323.241.191.191 0 00-.139.209.278.278 0 01-.263.319.127.127 0 00-.119.08.129.129 0 00.03.14c.277.15-.028.252-.05.26-.256.11-.485.271-.673.476a.556.556 0 00-.166.58v.028c.06.244-.017.378-.278.353a.298.298 0 00-.067 0c.064.06.161 0 .217.06-.083.134-.239.037-.333.118.063.072.183.027.23.116-.125.336-.472.184-.7.33.136.026.328-.046.3.198 0 .05.053.058.103.058.244 0 .186.095.083.22a.23.23 0 00-.078.189c.162.033.295-.142.448-.067.163.11.347.183.541.214.264.02.534.047.8.086a.507.507 0 00.1-.214c.134-.41.24-.858.74-1.003.091-.025.163-.038.074-.18-.038-.056.092-.214.253-.256.613-.162 1.24-.268 1.873-.314.08 0 .727 0 .808-.025v-.01zm-3.211-2.683c.108-.175.51-.045.463-.02-.141.034-.516.075-.463.02zm-.834 1.51a1.042 1.042 0 01.803-.66c.12 0 .133.064.125.155a1.072 1.072 0 01-.792.675c-.122 0-.158-.052-.136-.17zM85.07 25.091c.044.034.088.07.136 0 .047-.07.06-.047.052-.097l-.277.025c.03.02.059.042.086.067" clip-rule="evenodd"/>
  <path fill="#404041" fill-rule="evenodd" d="M88.617 18.9c.389.125.808.125 1.197 0h-1.197zM89.689 19.358a7.984 7.984 0 00-1.278-.025c.205.106 1.341.147 1.278.025zM88.584 22.71c.291.056 1.188.081.924-.022a2.596 2.596 0 00-.924.023zM92.42 18.904a16.03 16.03 0 002.805 0c.6-.047 1.195-.133 1.803-.127 1.242 0 2.483-.02 3.722-.034.155.018.312.005.462-.039.991.04 1.98-.058 2.969-.091a30.513 30.513 0 003.256-.306.309.309 0 01.144.02 5.904 5.904 0 011.284-.117c.234.013.469-.014.694-.078a11.845 11.845 0 00-1.405 0 32.46 32.46 0 01-1.637.025c-.222.03-.444.061-.666.086a48.633 48.633 0 01-5.164.423c-2.778.097-5.57-.045-8.334.15-.111.052.025.094.07.097M108.915 18.505a4.614 4.614 0 01-.972.277c-.95.173-2.325.43-3.286.556-.834.103-1.281-.372-2.12-.297l-.325.025-3.367.064-.761.016a2.388 2.388 0 00-.689 0c-.614.014-1.203.025-1.272.03a.555.555 0 00-.295.131c-.094.014-.192.03-.278.053a3.312 3.312 0 01-.775.084c-.602.033-1.205.055-1.805.083.447.139.891.311 1.358.172a3.55 3.55 0 01.77-.161c.555-.033 1.11-.02 1.686-.036.064 0 .278.091.153-.133H96.9c.073-.034.173-.084.25-.034.031.02.04.036.034.047l-.025.023c-.028.016-.07.03-.059.052.012.023.034.075.062.073.194 0 .41.091.578-.056a.536.536 0 01.608-.125c.308.447-1.409.189-1.345.353.297.044 1.209-.034 1.49.044-.245.253-.59.106-.865.136a.217.217 0 00.209.148c.35 0 .705-.017 1.055-.017.195 0 .064-.111.09-.103.65.18 1.274-.03 1.91-.053.414 0 .834-.091 1.239-.088a14.795 14.795 0 002.159-.242c1.894-.264 3.761-.675 5.639-1.011.142-.028.297-.092.339.139a.067.067 0 00.128.02c.105-.173.189-.184.394-.096a.972.972 0 00.642 0c.325-.1.65-.188.981-.277-.042-.023-.084-.098-.278-.023-.295.098-.6.16-.909.187l.3-.09c.034 0 .078-.019.095-.044a.19.19 0 000-.191 6.008 6.008 0 00-.922.077l-.15.017a.297.297 0 01-.3.208c-.464-.006-.928.015-1.389.061a.321.321 0 00.072 0h-.017zm2.106-.228a.58.58 0 01-.495.133.647.647 0 01.495-.133zM95.522 24.455h-1.439c-.669 0-1.341.19-2.005.084-.611-.098-1.225 0-1.828-.109-.094-.094-.211-.036-.314-.047a3.61 3.61 0 01-.847-.044c.47-.078.947-.025 1.416-.111h-3.133c-.103-.059-.108.141-.197.077-.178-.125-.39-.047-.556-.041a6.18 6.18 0 00-1.644.277c.179.02.36.02.538 0 .859-.2 1.731-.122 2.6-.138.048 0 .112-.025.142.044a15.39 15.39 0 01-2.11.278c.68.047 1.36.075 2.04.108 1.596.08 3.195.175 4.796.175.853 0 1.705 0 2.558-.033a.6.6 0 000-.295c0-.072-.02-.144-.025-.22M112.301 22.554c.178-.138.161-.316.134-.522-.028-.205-.278-.353-.028-.555-1.347.485-2.727.87-4.131 1.15l-.031.041a9.417 9.417 0 002.062-.25c-.056.109-.278.156-.336.24h1.111c.503-.415-.486-.045-.556-.126-.069-.08-.086-.147.081-.17l.197-.03c.315-.039.626-.098.933-.178.136-.025-.302.203-.361.295a.577.577 0 01-.233.211c.044 0 .889-.08.93-.08 0 .133-.872.25-.991.277-.392.045-.778.114-1.17.175-.05 0-1.503.117-1.55.184.12.072 1.667-.148 1.775-.056-.039.1-.183.078-.211.18h.606c0-.072.044-.136.161-.188.05-.025.111-.053.15 0 .011.019.019.04.022.062a.181.181 0 01-.005.065c-.056.14-.056.312-.25.412a.51.51 0 00-.023-.086 1.771 1.771 0 01-.319.069 2.453 2.453 0 00-.909.278 2.325 2.325 0 01-.861.152c-.703.078-1.411.12-2.111.226-.783.119-1.578.086-2.364.147-.344.027-.694-.061-1.045-.045a1.28 1.28 0 00-.436.04c-.15.055-.277-.106-.402-.07-.595.189-1.206.025-1.803.1-.225.027-.43-.056-.656-.03a1.465 1.465 0 00-.636.105c.039.097.078.194.12.277.045.1.103.193.172.278h.088c.3-.08.606-.134.914-.158l.892.039c.051-.003.102-.003.153 0 .247-.045.5-.045.747 0a.81.81 0 00.234-.089c.088-.05.222-.2.344-.139.233.082.487.082.72 0 .127-.017.277-.033.411-.044a.498.498 0 01.255-.03c.431-.023.859-.071 1.284-.145.319-.12-.442 0-.556-.025l.083-.034c.375-.15.745 0 1.112 0 .661.008 1.321.07 1.972.19.341.108.702.136 1.056.08.102-.028.222-.056.308-.075.394-.09.158-.123.386-.178a.415.415 0 00.27-.172.398.398 0 00.063-.314c-.047-.2.045-.308.278-.317.234-.008.356-.025.317.256-.02.139-.195.16-.083.253.111.091.702-.142.877-.278.556-.453.556-.084.781-.259.225-.175-.225-.297-.445-.383a.602.602 0 01.467-.336.163.163 0 00.167-.156.138.138 0 00.007-.053.134.134 0 00-.099-.116c-.086-.034-.089-.072-.016-.13" clip-rule="evenodd"/>
  <path fill="#fff" fill-rule="evenodd" d="M84.919 37.7c-.075 0-.153.045-.161.131-.008.086.08.111.147.133.195.048.4.02.575-.077a.556.556 0 00-.556-.187" clip-rule="evenodd"/>
  <path fill="#0099D7" d="M111.896 26.197c-.1.066-.025.105.119.041.431-.17.852-.364 1.261-.58.089-.04.092-.234-.15-.1-.391.189-.833.453-1.23.639zM109.751 31.425a.078.078 0 00-.029.107.077.077 0 00.029.029.312.312 0 00.414 0c-.114-.111-.222-.242-.408-.136M111.729 26.291c-.278.095-.542.214-.819.308.311-.02 1.125-.202.819-.308zM110.496 31.6c.122.074.18 0 .186-.148h-.359c-.077 0-.169-.02-.158.106a.466.466 0 01.331.041zM112.935 26.824c-.112.103-.298.017-.403.175.164.056.278-.05.428-.066a.052.052 0 00.049-.055.048.048 0 00-.008-.026c0-.017-.058-.036-.066-.028zM108.562 29.174c.164.023.556.075.506-.02-.164-.144-.203-.14-.506.02zM113.979 30.889a.101.101 0 00-.058.136.167.167 0 00.197.028.085.085 0 00.034-.021.09.09 0 00.02-.035.09.09 0 000-.04.079.079 0 00-.018-.035.147.147 0 00-.175-.033zM111.229 26.167a.553.553 0 00-.489.141c.164 0 .611-.06.489-.141zM111.071 31.133c-.033-.039-.067 0-.136.053a.232.232 0 01-.167.022c-.047.033.403.089.453.036.05-.053-.022-.042-.039-.053-.017-.01-.081-.022-.111-.058zM111.31 31.247c.027.016.116.025.122 0 .005-.025-.02-.045-.067-.05-.047-.006-.055.058-.055.058M93.142 33.361c.16-.241.555-.833.433-.855-.175.233-.683.936-.433.855z"/>
  <path fill="#0099D7" d="M112.182 28.186c.311-.055.625-.089.936-.147.177-.015.352-.043.525-.084.139-.05.233-.127 0-.094a6.437 6.437 0 00-.486.103 56.5 56.5 0 01-2.272.186c-.075 0-.125 0-.092-.036.193-.11.407-.178.628-.2.093-.003.186-.014.278-.034h.025c.106-.024.213-.04.322-.05.153 0 .441.028.45-.066.008-.095-.197-.09-.461-.02a6.67 6.67 0 01-1.003.07c-1.084-.034-2.186.228-3.317.125.21-.134.456-.2.706-.192.222 0 .219 0 .336-.2 0-.017.047-.022.075-.03a.53.53 0 01.35-.034c.394.156 1.408-.364 1.003-.394-.406-.03-.978.205-1.112.11-.23-.138.939-.213 1.278-.346-.205-.07-.678.16-.833 0a.789.789 0 00-.761-.184c-.164.026-.33.033-.495.023-.055 0-.15.036-.158-.056-.008-.092.042-.114.142-.147.725-.24 1.494-.278 2.222-.556.631-.23 1.286-.358 1.878-.678.167-.054.326-.13.472-.227.05-.056.206-.034.278-.075.072-.042.025-.173-.022-.173-.048 0-.198.142-.223.172-.025.031-.091 0-.161 0a.472.472 0 00-.15.103 3.374 3.374 0 01-.889.278c-.111 0 .161-.158.028-.183-.5.071-.99.204-1.458.394-.714.32-1.484.38-2.237.53a.454.454 0 01-.463-.177c-.034-.042-.056-.056-.092-.05-.5.103-1.009.017-1.511.072a1.37 1.37 0 01-.539-.078c-.145-.041-.295-.086-.445-.113-.161.177-.328.352-.497.525h.019l-.041.027a16.56 16.56 0 01-1.806 1.575c.02 0 .028.017.02.034.675-.047.416-.556.883-.097.047.047-1.006.277-2.311 1.077a.246.246 0 00-.045.123c1.634-.037 3.264-.134 4.892-.236 2.045-.128 4.089-.217 6.112-.587l.022.017zm-7.098-1.742c.053 0 .125 0 .128.061.003.062-.639.278-.783 0a2.88 2.88 0 01.655-.052v-.009zm-.589.303c-.216.033-.227.278-.536.108.203-.194.328-.314.536-.108zm.709 1.814c-.36.056-.724.07-1.086.039.35-.095 1.266-.228 1.086-.039zm-.328-.517c-.122.128-.872 0-1.003-.114-.336-.48 2.653-.169 3.511-.041.278.08-1.111 0-1.666.041-.278.02-.575-.15-.834.114"/>
  <path fill="#0099D7" d="M105.09 25.552c.071.042.149.07.23.08.739.105 1.49.087 2.223-.055.141-.239-.634 0-.461-.256.519-.108.961 0 1.48-.05.429-.065.84-.216 1.209-.444.472-.325 1.111-.245 1.666-.453.235-.059.445-.191.6-.378-.058-.058-.23.025-.294.084-.383.347-.892.37-1.342.416-.216.023-.433.05-.65.081a.04.04 0 01.017.012.046.046 0 01.011.019c.003.006.003.014.003.02a.07.07 0 01-.006.021c-.055.153-.258.114-.383.17a.583.583 0 01-.259.086c-.277-.022-.45-.117-.675.128a.555.555 0 01-.752.13c-.1-.05-.395.05-.495.067-.1.017-.278.05-.278-.114l-.205.028c0 .03-.039.053-.07.07a.213.213 0 01-.163.035.218.218 0 01-.139-.091h-.139a8.502 8.502 0 00-.992-.048c-.142.053-.195.148-.136.334a.251.251 0 010 .133v-.025zm.478-.408c.147.036-.142.305-.356.336 0-.25.186-.278.356-.336zM114.899 29.61c-.047-.069-.108-.125-.206-.086-.097.04-.066.148-.172.095a.143.143 0 00-.183-.08.43.43 0 01-.472-.073.138.138 0 00-.155.004.13.13 0 00-.037.04.17.17 0 00-.026.057.164.164 0 00.021.12.16.16 0 00.044.046.311.311 0 00.235.121.32.32 0 00.245-.1 2.14 2.14 0 00-.055.25c-.025.279-.103.323-.364.21a.355.355 0 00-.342-.028c-.164.108-.211.033-.278-.112a.621.621 0 00-.622-.405c-.278 0-.555.153-.85.016a.052.052 0 00-.054-.004.052.052 0 00-.029.046c0 .203-.145.117-.236.114-.092-.003-.162-.044-.234.025-.172.164-.344.086-.528.02.109-.148.453-.031.414-.131-.039-.1-.302-.045-.211-.23.042-.09.336-.062.217-.209-.222-.17-.442 0-.664 0-.508-.02-1.017.033-1.525.02-.508-.014-.992.074-1.489.013-.058 0-.192.03-.156-.08.036-.111.048-.164-.077-.197a.156.156 0 00-.132-.003.153.153 0 00-.085.1c-.022.047-.067.105-.125.066-.058-.038-.031-.091.019-.127.05-.037.031-.13 0-.123-.316.064-.636-.047-.95.034-.089.025.081.191-.103.153-.255-.053-.555.102-.772-.14a.189.189 0 00-.158-.022 3.455 3.455 0 01-1 .05c-.709 0-1.42.025-2.125 0-.136 0-.198.178-.278.1a.283.283 0 00-.208-.091.294.294 0 00.025.091.2.2 0 01-.02.187.2.2 0 01-.164.091c-.228.028-.211.134-.15.306.197.555.372 1.13.572 1.692.109.39.298.752.556 1.063.135.185.253.381.353.587.322.505.514 1.11 1.061 1.444.064.04.153.128.103.203-.05.075-.156 0-.214-.039a.406.406 0 00-.408-.025.69.69 0 01-.628-.067 4.353 4.353 0 01-.8-.625 4.097 4.097 0 00-1.125-.777c-.278-.131-.475-.398-.773-.531-.494-.225-.97-.494-1.444-.758a.681.681 0 00-.74.058c-.755.467-1.388 1.111-2.222 1.461a.72.72 0 00-.313.261c-.306.484-.787.742-1.262 1.009a.329.329 0 00-.088.063c-.117.128-.223.278-.348.39-.125.11-.522.277-.475.163a.242.242 0 010-.241c.184-.34.278-.662-.12-.92-.03-.02-.08-.03-.038-.066.158-.14.12-.367.278-.526.264-.277.36-.675.555-1.014.403-.719.732-1.477.98-2.264.018-.052.037-.105.048-.158.109-.458.072-.522-.336-.775l-.278-.178h-1.556c-.047 0-.105.023-.144-.06.245-.131.595 0 .872-.081-.12-.017-.277-.053-.425-.075l.609-.04c0-.03-.225-.063-.225-.094h-.787c-.91 0-1.922.098-2.739-.072-.424-.089-.033-.133-.469-.155-.436-.023-.375-.117-.378-.145.467-.028 1.748 0 2.223-.022.227-.161-.964-.036-.953-.24.33-.024.833.029 1.155-.03.245-.044.114.017.373.042.275.012.55-.018.816-.092a38.138 38.138 0 01-1.455-1.058 6.158 6.158 0 00-1.361-.158c.06-.098.155-.059.224-.086.148-.062.103-.087-.038-.145.08-.036.277.044.322-.075-.3-.058-.606-.022-.897-.064 0-.025-.128-.091.336-.158-.03.036.136.18.458.072a1.925 1.925 0 00-1.133-.192c-.34.109 0 .112-1.209.075.206-.091.426-.15.65-.175-.322-.02-.641 0-.96 0-.513.032-1.026.032-1.537 0-.597-.058-1.197.037-1.8-.1a11.532 11.532 0 00-1.586-.114 21.275 21.275 0 00-1.828-.055 8.335 8.335 0 00-2.717.417c-.414.147-.75.419-1.153.555-.05.02-.103.064-.078.128.025.064.072.03.117.022a.95.95 0 01.639.234c.066.041.141.075.211.119.231.097.484.131.733.1-.1.12-.236.1-.31.225-.118.183.277.033.402.117.203.133.43.297.706.133a.106.106 0 01.147.025c-.225.242-.209.361.089.583-.25.042-.49.08-.728.125-.033 0-.1-.03-.092.048a.234.234 0 00.045.12c.047.06.15 0 .197.094-.067.019-.125.044-.186.058-.186.047-.203.13-.111.3.07.193.209.355.389.455-.203.278-.17.25.077.434.248.183.49.18.712.333.222.153.427.05.647.04.22-.012.225-.04.425-.262.097-.106.205-.256.408-.236a.66.66 0 00.464-.09l-.625.029a.148.148 0 01.097-.045c1.003-.127 2.017-.125 3.026-.203.166 0 .369-.088.277.245-.025.086 0 .172-.097.244a.154.154 0 00-.066.17c.006.022.016.041.03.058.117.192.078.108-.167.106-.555 0-1.144.139-1.7.044-.197-.033-.808-.041-.661.09.556.135 1.8-.034 1.833.152-.183 0-.86-.034-.744.033-.025.08.08.056.15.059h.456c.222-.02.88-.028.808.13-.32.025-.63 0-.867.022l-.205.017c.036.08.16.02.194.114-.047.078-.136.016-.192.064.04.072.167 0 .203.094-.236 0-.4 0-.716.014-.556 0-.712.033-1.273.033-.036.134 2.564.106 2.548.409h-1.925c-.184 0-.392-.02-.576-.022-.044 0-.255-.028-.247.036.008.064.125.094.2.075.175-.042.453 0 .63-.04.223-.016.423.04.384.092a6.925 6.925 0 00-.867 0c-.06.023-.06.05.031.078.864 0 1.733.023 2.6.023.095 0 .075.069 0 .066-.892.039-1.783.072-2.675.12-.089 0-.211-.081-.3.102-.042.09-.295.08-.18.303-.24.167-.123.334.013.484-.078.08-.197-.017-.258.119.165-.01.331-.001.494.025 0 .225-.622.142-.933.122a.65.65 0 00.114.361c.097.12.217.221.353.295.177.133.244.278.091.486.717 0 .992-.028 1.476 0 0 .103-.556.211-.834.278-.278.066-.306.072-.172.364 0 .02-.022.039-.03.058-.106.2.044.136.133.128.236-.031.475-.049.714-.053-.228.036-.159.036-.317.058-.061 0-.117.03-.125.087a.144.144 0 00.061.113c.256.12.458.38.806.278.19-.05.389-.059.583-.025.772.08 1.62-.094 2.414.067.136.158-.833-.045-.786.125.125.03.597.033.478.13l-.817-.058c0 .042-.014.097.278.136.46.064.928.09 1.389.133.139 0 .086.098 0 .064-.417 0-.809-.069-1.223-.069.042.13.834.078 1.209.15.089 0 .155.044.242.064.086.02.06.064 0 .092-.07.116-.028.091-.295.075-.014-.07.072-.028.08-.078.009-.05 0-.067-.038-.045a.614.614 0 01-.364.04c-.409-.17-.78.08-1.186-.045a.313.313 0 00-.32.086c-.197.072.408.303.77.25.29-.078.587-.137.886-.175.447 0 1.158.222 1.603.278 1.152.11 2.308.014 3.464.139.891.097 1.797.069 2.697.091.459 0 .914-.041 1.375-.025.834.028 1.653-.022 2.478-.039.536.01 1.073-.014 1.606-.072.059.001.118-.007.175-.022.88-.042 1.761-.078 2.642-.128a.83.83 0 01.555.164 36.503 36.503 0 014.339-.136l2.542.036c.031-.153-1.389.036-1.297-.12.117-.069.414.053.406-.077h-1.153c.061-.356 1.691-.025 2.483-.022.036-.14-.278-.02-.261-.128h2.164c.358.03.381-.1.031-.092-.803-.039-1.567-.108-2.392-.117-.134-.402 2.561.028 2.464-.25-.653-.03-2.2-.077-2.298-.308 1.089-.025 2.101.044 3.187.047.361 0 1.08-.028 1.066-.191-1.197-.045-2.011 0-3.205-.125-.172-.023-.145-.064-.145-.09h2.384c.119 0 .069-.05 0-.038-.131 0-.417 0-.392-.078h.606c.191.033.164-.03 0-.03-.261 0-.278-.078-.264-.092h.808l-.2-.114c.047-.053.156-.022.161-.128-.08 0-.172-.061-.222.036-.05.097-.092.061-.133 0a.558.558 0 00-.503-.164c-.186 0-.35 0-.433-.244.211 0 .358.12.638.03.209-.075.087-.11-.025-.102-.769-.034-1.072.027-1.844 0-.539-.028-.467-.114-.467-.123.522 0 1.095.023 1.634.023-.061-.098-.228-.03-.278-.15h.872c-.042-.203-.375-.03-.519-.05-.056 0-.15.033-.15-.064s.086-.111.164-.109c.155 0 .308.017.463.02.156.003.364-.059.539-.059a.245.245 0 00.078-.016c.064-.036.017-.056-.017-.061a2.578 2.578 0 00-.325-.036c-.555 0-1.791 0-1.733-.153h.025a.966.966 0 01.278 0c.094.03.53.06.555-.053.025-.114-.094-.12-.461-.108h-.178c-.113 0-.23 0-.344-.02-.024 0-.024-.008 0-.025.05-.028.278-.083.422-.139a.114.114 0 00.061-.03.083.083 0 00.025-.02c.061-.07.05-.133.017-.144-.033-.011-.05-.03-.175.058a.4.4 0 01-.067.045c-.219.102-.411 0-.614-.15-.075-.05-.277-.092-.294.025-.017.116-.033.139-.097.072-.17-.178-.378-.12-.575-.133a15.864 15.864 0 00-1.703-.142.967.967 0 01-.689-.092h.847c.192 0 .428 0 .572.02.278.014.928.105.998.038a.098.098 0 00.024-.039.09.09 0 00-.058-.113c-.03 0-.969.025-1.052.02-.084-.006-1.112-.037-1.345-.045-.031-.014-.047-.034-.036-.053-.097-.103 1.533 0 1.836-.078-.092 0-1.111 0-1.183-.014a6.953 6.953 0 01-.956-.053c.139-.208.353 0 .5-.11-.133-.103-.308 0-.45-.081.12-.136.278-.034.42-.106-.1-.08-.264.034-.348-.12.106-.083.231-.046.345-.05.114-.002.144 0 .169-.096.025-.098-.083-.067-.119-.106-.036-.039-.05-.05-.034-.086.07-.047.164.02.278-.092h-1.705c-.056 0-.17.056-.167-.06a.142.142 0 01.017-.061.144.144 0 01.163-.068c.381.098 1.112-.027 1.503.08.223.062.114.054.295-.121a.183.183 0 01.197-.067c.222.092.85.142.736.036a.993.993 0 00-.833-.128c-.209.025-.15-.258.622-.139.067 0 .133-.03.197.048.103.125.12.12.167 0 .019-.053.058-.037.089-.042.333-.064.67-.103 1.008-.117h.817a.28.28 0 01-.153-.244c.539.014 1.067.116 1.589.02.047-.167-.125-.07-.13-.17a.41.41 0 01.297-.02c.108.031.23.09.292-.044.061-.133.144-.233-.045-.342-.144-.083.053-.136.053-.216 0-.081.028-.09.105-.053.198.094.353.278.595.278.047 0 .092.086.072.133-.069.153-.167.311.05.211.217-.1.156.264.361.214.098-.028.042-.122 0-.18-.041-.059-.072-.034 0-.078a.904.904 0 01.684-.209c.141.03.189-.025.15-.189-.05-.208-.195-.68-.039-.647.04.043.085.082.133.117a.19.19 0 00.228-.04c.058-.052 0-.102-.031-.14l-.019-.029zm-23.546-1.777c.278.244-.453.052-.594.025.197-.025.395-.034.594-.025zm-8.334 1.78l-1.844.156c0-.017 0 0 0 0a5.426 5.426 0 011.841-.225c.07 0 .09.058 0 .07h.003zm.18-.089c.198-.053.981-.044.945.056a2.35 2.35 0 01-.944-.056zm6.007 7.176a11.474 11.474 0 01-1.781-.225c-.144-.128 1.856.066 1.78.225zm-.603-1.192c-.133.061-.164-.03-.239.036.053.084.192 0 .361.125-.555-.05-1.883-.016-1.503-.205.442-.09 1.62-.178 1.39.044h-.01zm-1.17-.278c-.089.125-.65.064-.703-.014 0-.102.887-.205.703.014zm-.23-.41c.028.069-.314.11-.467 0-.083-.07.328-.14.467 0zm-2.084.946c-.183 0 0 .08-.491 0-.034-.072.575-.158.491 0zm.092.048c.111-.111.789.016 1.008.077-.555-.063-1.127.092-1.008-.077zm.5-6.537a1.25 1.25 0 01.833-.103c.073.175-.425.136-.833.103zm1.156 7.576c-.22.066-.525-.02-.509-.073.097-.278.648.05.509.073zm.186-.862c-.164 0-.522-.08-.734-.091.22-.309.834 0 .734.091zm.247.892c.02-.111-.164-.078-.164-.105-.244-.253 1.667.188 2.317.238-.656 0-2.042 0-2.153-.133zm2.306-3.495c1.63.081 3.511-.441 2.92.023-.295.158-2.337.105-2.92-.023zm6.806-.13c.039.194-.484.064-.65.094.158-.122.625-.183.65-.094zm-.167 3.889c-.12.014-.241.014-.361 0h-1.406c.578-.067.97.03 1.542-.13.258-.053.222.119.225.144v-.014zm.392-.064c-.03 0-.025.042-.047.067a.45.45 0 01-.278-.145h1.422s.278.145-1.094.078h-.003zm.408-.305c-.542-.325 2.236-.064 3.12-.187-1.03.176-2.076.238-3.12.187zm3.025-3.292c-.672.091-1.344-.025-2.014-.03-.455 0-.91-.045-1.367-.068-.044 0-.077-.027-.144-.13.195 0 .328.036.497.036-.02-.142-.189-.036-.278-.142-.077-.244.376.023.556.059.265.055.535.084.806.089h1.705c.064 0 .323-.04.461.105.139.145-.172.067-.238.075l.016.006zm6.481-.92c.067.158-.361.095-.533.042.158-.036.278-.147.533-.042zm-1.667.4l.709-.066c-.139.25-.859.183-.709.066zm-.461-1.522a4.633 4.633 0 011.425-.072c.159.139-1.214.086-1.425.072zm3.273-.278c-.178-.094.555-.172.833-.094a.226.226 0 00.233-.048c.189-.21.237 0 .295.131-.456.05-.916.05-1.372 0l.011.011zm2.033-.028h-.533v-.041c.18-.062.358-.13.541-.178.073-.017.189 0 .189.103 0 .102-.1.116-.186.116h-.011zm.436-.689c-.03.05-.23.042-.322-.05.095-.055.25-.141.328-.041.01.013.015.029.015.046a.075.075 0 01-.015.045h-.006zm.723.08c-.095 0-.217.07-.278-.03-.061-.1-.114-.17.028-.277.132-.074.277-.122.427-.142.092.236-.208.261-.18.447"/>
  <path fill="#fff" d="M105.595 25.133h-.022l-.075.022H105.44l-.031.014-.042.02h-.022l-.025.019h-.019l-.02.022a.178.178 0 00-.027.036v.047a.47.47 0 000 .094h.044l.044-.016.084-.041.05-.017a.75.75 0 00.064-.061l.016-.02.014-.016v-.028M107.201 24.955c-.117 0-.278 0-.278.161a.156.156 0 000 .053l.017.028.017.02h.416l.092-.02h.172a.179.179 0 01.061 0 .558.558 0 00.753-.13.372.372 0 01.05-.048l.045-.036a.528.528 0 01.427-.056H109.123a.581.581 0 00.259-.086c.125-.055.328-.016.383-.17a.07.07 0 00.006-.02.074.074 0 00-.003-.02.046.046 0 00-.011-.019.05.05 0 00-.017-.012h-.022c-.228.055 0 .088-.386.18a4.76 4.76 0 00-.309.072c-.043.011-.086.02-.13.025h-.553c-.086 0-.172-.033-.258-.052-.252-.009-.5.062-.709.202-.028.02-.086 0-.155-.016a.085.085 0 00-.031 0M106.401 25.191a.088.088 0 00.027.017.06.06 0 00.031 0 .209.209 0 00.058 0 .23.23 0 00.073 0l.041-.017c.031-.017.064-.039.07-.07a.073.073 0 00-.023-.058c-.13-.141-.258-.06-.388 0 .016.037.039.07.066.1h.02"/>
  <path fill="#fff" d="M106.382 25.178l-.028-.034a.123.123 0 00.028.03"/>
</svg>
