<svg xmlns="http://www.w3.org/2000/svg" fill-rule="evenodd" stroke-linejoin="round" stroke-miterlimit="2" clip-rule="evenodd" viewBox="0 0 151 28">
  <path fill="#231f20" fill-rule="nonzero" d="M34.202 21.68v5.118c-11.379-4.157-22.815 4.161-34.202 0V21.68c11.372 4.154 22.823-4.157 34.202 0zM0 11.455v5.103c11.387 4.161 22.823-4.157 34.202 0v-5.103C22.815 7.279 11.38 15.597 0 11.455zM0 1.2v5.118c11.387 4.161 22.823-4.157 34.202 0V1.2C22.815-2.957 11.38 5.357 0 1.2zM54.266 9.404a.527.527 0 00-.489-.333h-2.285a.52.52 0 00-.492.344l-4.6 12.498a.34.34 0 00.16.412.335.335 0 00.155.038h1.874a.472.472 0 00.44-.31l.826-2.358h5.74l.84 2.351a.46.46 0 00.442.306h1.992a.343.343 0 00.279-.146.339.339 0 00.036-.312l-4.918-12.49zm.422 7.99a.17.17 0 01-.062.053.166.166 0 01-.08.02h-3.702a.168.168 0 01-.08-.02.188.188 0 01-.061-.054.199.199 0 01-.022-.155l1.818-5.174a.16.16 0 01.056-.075.157.157 0 01.178 0 .156.156 0 01.059.072l1.896 5.173a.168.168 0 010 .159zm44.227-10.14v-.788a.337.337 0 01.27-.333l3.626-.706a.467.467 0 01.315.052.46.46 0 01.21.24l.54 1.412a.333.333 0 01-.037.31.328.328 0 01-.121.106.35.35 0 01-.156.04h-4.31a.337.337 0 01-.337-.334zM65.779 9.07h-4.6a.4.4 0 00-.368.247.415.415 0 00-.028.152v12.498a.393.393 0 00.397.395h1.833a.396.396 0 00.396-.395v-3.326h2.37a4.824 4.824 0 003.645-1.26 4.803 4.803 0 001.143-5.454 4.803 4.803 0 00-2.833-2.614 4.824 4.824 0 00-1.955-.25v.007zm-.53 7.428h-1.673a.17.17 0 01-.171-.17v-4.937a.17.17 0 01.171-.17h1.673c.702 0 1.374.278 1.87.773a2.633 2.633 0 010 3.731 2.646 2.646 0 01-1.87.773zm78.385-7.609a6.87 6.87 0 00-3.81 1.154 6.845 6.845 0 00-2.916 7.026 6.845 6.845 0 005.39 5.377 6.863 6.863 0 007.039-2.913 6.827 6.827 0 00.633-6.422 6.84 6.84 0 00-3.712-3.702 6.864 6.864 0 00-2.624-.52zm0 11.16a4.333 4.333 0 01-4-2.667 4.309 4.309 0 01.939-4.707 4.332 4.332 0 017.065 4.712 4.326 4.326 0 01-4.004 2.677v-.015zM116.09 9.526l-4.792 12.501a.525.525 0 01-.492.336h-2.307a.522.522 0 01-.493-.336l-4.792-12.5c-.02-.052-.025-.107-.02-.16a.352.352 0 01.058-.15.343.343 0 01.277-.146h2.059a.47.47 0 01.44.314l3.374 9.675a.195.195 0 00.068.09.184.184 0 00.106.035h.152a.187.187 0 00.174-.125l3.374-9.675a.463.463 0 01.44-.314h2.056a.34.34 0 01.318.455zm-14.55-.056v12.498a.393.393 0 01-.396.395H99.31a.396.396 0 01-.396-.395V9.47a.393.393 0 01.396-.399h1.833a.4.4 0 01.367.247c.02.048.03.1.029.152zm23.17 6.26a4.327 4.327 0 003.231 4.166 4.328 4.328 0 004.864-2.048.471.471 0 01.412-.24h1.852a.411.411 0 01.333.173.404.404 0 01.045.37 6.863 6.863 0 01-11.677 1.962 6.835 6.835 0 010-8.762 6.865 6.865 0 018.637-1.574 6.845 6.845 0 013.04 3.536.418.418 0 01-.047.366.403.403 0 01-.324.178h-1.851a.47.47 0 01-.411-.24 4.329 4.329 0 00-8.103 2.11v.003zm-4.495-6.26v12.498a.396.396 0 01-.4.395h-1.822a.377.377 0 01-.152-.029.402.402 0 01-.247-.366V9.47a.398.398 0 01.399-.399h1.83a.398.398 0 01.392.4zM77.55 9.071h-4.603a.4.4 0 00-.367.247.395.395 0 00-.03.152v12.498a.397.397 0 00.397.395h1.833a.397.397 0 00.397-.395v-3.326h2.373a4.824 4.824 0 003.646-1.26 4.814 4.814 0 001.546-3.529 4.795 4.795 0 00-1.546-3.528 4.826 4.826 0 00-3.646-1.26v.006zm-.53 7.428h-1.673a.169.169 0 01-.17-.17v-4.937c0-.045.017-.089.049-.12a.172.172 0 01.12-.05h1.675a2.644 2.644 0 012.644 2.638 2.644 2.644 0 01-2.644 2.639zm9.04-.769a4.318 4.318 0 003.232 4.173 4.334 4.334 0 004.867-2.055.471.471 0 01.41-.24h1.853a.399.399 0 01.37.543 6.862 6.862 0 01-11.676 1.962 6.83 6.83 0 010-8.762 6.86 6.86 0 018.636-1.574 6.841 6.841 0 013.04 3.536.405.405 0 01-.37.544H94.57a.471.471 0 01-.411-.241 4.324 4.324 0 00-4.87-2.073 4.32 4.32 0 00-3.232 4.184l.003.003z"/>
</svg>
