<?xml version="1.0" encoding="UTF-8" standalone="no"?>
<svg xmlns="http://www.w3.org/2000/svg" width="15" height="25" viewBox="0 0 15 25" fill-rule="evenodd" stroke-linejoin="round" stroke-miterlimit="2" clip-rule="evenodd">
  <path fill="#1d1d1b" d="M7.5 16.103c2.204 0 4.017-1.814 4.017-4.017V4.017C11.517 1.813 9.704 0 7.5 0 5.296 0 3.483 1.813 3.483 4.017v8.07c0 2.203 1.813 4.016 4.016 4.016H7.5z" />
  <path fill="#1d1d1b" d="M13.39 10.45v1.636c-.049 3.197-2.692 5.8-5.889 5.8-3.198 0-5.841-2.603-5.89-5.8V10.45H0v1.636c.004 3.809 2.907 7.042 6.694 7.456v2.983H2.266v1.609h10.468v-1.605H8.306v-2.982c3.787-.416 6.687-3.652 6.689-7.461V10.45H13.39z" />
</svg>
