<svg xmlns="http://www.w3.org/2000/svg" width="11.004" height="17.709" viewBox="0 0 11.004 17.709"><defs><style>.a{fill:rgba(29,29,27,0.8);}</style></defs><path class="a" d="M16.511,11.813a2.947,2.947,0,0,0,2.947-2.947V2.947a2.947,2.947,0,0,0-5.894,0V8.866A2.946,2.946,0,0,0,16.511,11.813Z" transform="translate(-11.009)"/><path class="a" d="M9.823,40.7v1.2a4.321,4.321,0,0,1-8.641,0V40.7H0v1.2a5.509,5.509,0,0,0,4.911,5.47v2.188H1.662v1.181H9.342V49.561H6.093V47.374A5.509,5.509,0,0,0,11,41.9V40.7Z" transform="translate(0 -33.034)"/></svg>