<svg height="279" width="313" xmlns="http://www.w3.org/2000/svg" xmlns:xlink="http://www.w3.org/1999/xlink"><defs><path id="a" d="M310.34 153.5l-62.43 108.131a30 30 0 0 1-25.98 15H97.07a30 30 0 0 1-25.98-15L8.66 153.5a30 30 0 0 1 0-30L71.09 15.369a30 30 0 0 1 25.98-15h124.86a30 30 0 0 1 25.98 15L310.34 123.5a30 30 0 0 1 0 30z"/><linearGradient id="c" x1="50%" x2="50%" y1="3.125%" y2="97.125%"><stop offset="0" stop-color="red"/><stop offset="1" stop-color="#e0f"/></linearGradient><linearGradient id="d" x1="50%" x2="50%" y1="3.125%" y2="97.125%"><stop offset="0" stop-color="#ff0019"/><stop offset="1" stop-color="#ce00f3"/></linearGradient><linearGradient id="e" x1="50%" x2="50%" y1="3.125%" y2="97.125%"><stop offset="0" stop-color="#ff0031"/><stop offset="1" stop-color="#b000e6"/></linearGradient><linearGradient id="f" x1="50%" x2="50%" y1="3.125%" y2="97.125%"><stop offset="0" stop-color="#ff004a"/><stop offset="1" stop-color="#9400da"/></linearGradient><linearGradient id="g" x1="50%" x2="50%" y1="3.125%" y2="97.125%"><stop offset="0" stop-color="#ff0063"/><stop offset="1" stop-color="#7a00ce"/></linearGradient><linearGradient id="h" x1="50%" x2="50%" y1="3.125%" y2="97.125%"><stop offset="0" stop-color="#ff007c"/><stop offset="1" stop-color="#6200c1"/></linearGradient><linearGradient id="i" x1="50%" x2="50%" y1="3.125%" y2="97.125%"><stop offset="0" stop-color="#ff0094"/><stop offset="1" stop-color="#4d00b5"/></linearGradient><linearGradient id="j" x1="50%" x2="50%" y1="3.125%" y2="97.125%"><stop offset="0" stop-color="#ff00ad"/><stop offset="1" stop-color="#3900a8"/></linearGradient><linearGradient id="k" x1="50%" x2="50%" y1="3.125%" y2="97.125%"><stop offset="0" stop-color="#ff00c6"/><stop offset="1" stop-color="#28009c"/></linearGradient><linearGradient id="l" x1="50%" x2="50%" y1="3.125%" y2="97.125%"><stop offset="0" stop-color="#ff00df"/><stop offset="1" stop-color="#180090"/></linearGradient><mask id="b" fill="#fff"><use fill-rule="evenodd" xlink:href="#a"/></mask></defs><g fill="none" fill-rule="evenodd"><g transform="translate(-3 1)"><use stroke="#fff" stroke-width="2" xlink:href="#a"/><path d="M.5-20.5h332v312H.5z" fill="#ee9c3f" mask="url(#b)" stroke="#979797"/><g fill-rule="nonzero" mask="url(#b)"><path d="M-57.5-13h455v303h-455z" fill="red"/><g><path d="M0 0h455v303H0z" fill="url(#c)" transform="translate(-57.5 -13)"/><path d="M37.917 0H455v303H37.917z" fill="url(#d)" transform="translate(-57.5 -13)"/><path d="M75.833 0H455v303H75.833z" fill="url(#e)" transform="translate(-57.5 -13)"/><path d="M113.75 0H455v303H113.75z" fill="url(#f)" transform="translate(-57.5 -13)"/><path d="M151.667 0H455v303H151.667z" fill="url(#g)" transform="translate(-57.5 -13)"/><path d="M189.583 0H455v303H189.583z" fill="url(#h)" transform="translate(-57.5 -13)"/><path d="M227.5 0H455v303H227.5z" fill="url(#i)" transform="translate(-57.5 -13)"/><path d="M265.417 0H455v303H265.417z" fill="url(#j)" transform="translate(-57.5 -13)"/><path d="M303.333 0H455v303H303.333z" fill="url(#k)" transform="translate(-57.5 -13)"/><path d="M341.25 0H455v303H341.25z" fill="url(#l)" transform="translate(-57.5 -13)"/></g></g></g><g fill="#fff" fill-rule="nonzero"><path d="M249.451 131.767a3.714 3.714 0 0 0-.199-.99c-.04-.12-.07-.236-.123-.352a3.59 3.59 0 0 0-.724-1.069l-.004-.004L227 107.947V87c0-.083-.041-.154-.049-.236a3.854 3.854 0 0 0-.191-.964c-.041-.12-.071-.236-.128-.353-.183-.397-.412-.776-.735-1.098l-33.75-33.75a3.637 3.637 0 0 0-1.102-.735c-.113-.053-.225-.083-.341-.12a3.515 3.515 0 0 0-.987-.195c-.07-.012-.138-.049-.217-.049H95.75c-2.07 0-3.75 1.68-3.75 3.75v54.697L70.599 129.35l-.008.007c-.315.315-.54.683-.72 1.069-.052.116-.082.232-.124.352-.112.323-.18.65-.198.99-.008.083-.049.15-.049.233v71.25c0 2.07 1.68 3.75 3.75 3.75H92v18.75c0 2.07 1.68 3.75 3.75 3.75h127.5c2.07 0 3.75-1.68 3.75-3.75V207h18.75c2.07 0 3.75-1.68 3.75-3.75V132c0-.083-.041-.15-.049-.233zm-12.754-3.517H227v-9.698zm-22.5-45H193.25V62.302zM99.5 57h86.25v30c0 2.07 1.68 3.75 3.75 3.75h30v37.5h-120V109.5zM92 118.552v9.698h-9.698zM219.5 222h-120v-15h120zm22.5-22.5H77v-63.75h165z"/><path d="M123.538 153.237h14.4l-15.438 31.97v6.293h24v-6.864h-15.373l15.373-31.97V146.5h-22.962zM152.5 146.5h8v45h-8zm38.87 2.827a10.449 10.449 0 0 0-4.075-2.191c-1.515-.423-2.99-.636-4.42-.636H170.5v45h7.45v-18.05h5.304c1.557 0 3.072-.278 4.547-.827a10.767 10.767 0 0 0 3.914-2.542c1.137-1.145 2.054-2.573 2.745-4.293.695-1.716 1.04-3.716 1.04-6.004 0-2.542-.39-4.662-1.166-6.356-.773-1.694-1.76-3.062-2.964-4.101zm-4.765 16.02c-1.137 1.249-2.59 1.873-4.357 1.873h-4.294v-14.3h4.294c1.768 0 3.22.55 4.357 1.652 1.136 1.103 1.704 2.86 1.704 5.275 0 2.416-.568 4.248-1.704 5.5z"/></g></g></svg>