<?xml version="1.0" encoding="UTF-8"?>
<svg width="318px" height="279px" viewBox="0 0 318 279" version="1.1" xmlns="http://www.w3.org/2000/svg" xmlns:xlink="http://www.w3.org/1999/xlink">
    <!-- Generator: Sketch 55.2 (78181) - https://sketchapp.com -->
    <title>Artboard</title>
    <desc>Created with Sketch.</desc>
    <defs>
        <path d="M310.339746,153.5 L247.910254,261.631052 C242.55127,270.913084 232.64746,276.631052 221.929492,276.631052 L97.0705081,276.631052 C86.3525404,276.631052 76.4487298,270.913084 71.089746,261.631052 L8.66025404,153.5 C3.30127019,144.217968 3.30127019,132.782032 8.66025404,123.5 L71.089746,15.3689481 C76.4487298,6.08691579 86.3525404,0.368948096 97.0705081,0.368948096 L221.929492,0.368948096 C232.64746,0.368948096 242.55127,6.08691579 247.910254,15.3689481 L310.339746,123.5 C315.69873,132.782032 315.69873,144.217968 310.339746,153.5 Z" id="path-1"></path>
    </defs>
    <g id="Artboard" stroke="none" stroke-width="1" fill="none" fill-rule="evenodd">
        <g id="ee-yellow" transform="translate(-1.000000, 1.000000)">
            <mask id="mask-2" fill="white">
                <use xlink:href="#path-1"></use>
            </mask>
            <g id="Mask"></g>
            <g id="SVG-Layer-Copy" mask="url(#mask-2)" fill="#FFE01C" fill-rule="nonzero">
                <g transform="translate(-58.000000, -13.000000)" id="Rectangle">
                    <rect x="0.5" y="0" width="455" height="303"></rect>
                </g>
            </g>
        </g>
        <g id="ZIP" transform="translate(71.000000, 49.000000)" fill="#000000" fill-rule="nonzero">
            <path d="M180.45125,82.7675 C180.42875,82.42625 180.365,82.1 180.2525,81.7775 C180.21125,81.6575 180.18125,81.54125 180.12875,81.425 C179.94875,81.035 179.72,80.6675 179.405,80.35625 C179.40125,80.3525 179.40125,80.3525 179.40125,80.3525 L158,58.9475 L158,38 C158,37.9175 157.95875,37.84625 157.95125,37.76375 C157.92875,37.43375 157.865,37.115 157.76,36.8 C157.71875,36.68 157.68875,36.56375 157.6325,36.4475 C157.44875,36.05 157.22,35.67125 156.8975,35.34875 L123.1475,1.59875 C122.825,1.27625 122.44625,1.04375 122.045,0.86375 C121.9325,0.81125 121.82,0.78125 121.70375,0.74375 C121.385,0.63125 121.05875,0.5675 120.7175,0.54875 C120.64625,0.5375 120.57875,0.5 120.5,0.5 L26.75,0.5 C24.68,0.5 23,2.18 23,4.25 L23,58.9475 L1.59875,80.34875 C1.59875,80.34875 1.595,80.3525 1.59125,80.35625 C1.27625,80.67125 1.05125,81.03875 0.87125,81.425 C0.81875,81.54125 0.78875,81.6575 0.7475,81.7775 C0.635,82.1 0.5675,82.42625 0.54875,82.7675 C0.54125,82.85 0.5,82.9175 0.5,83 L0.5,154.25 C0.5,156.32 2.18,158 4.25,158 L23,158 L23,176.75 C23,178.82 24.68,180.5 26.75,180.5 L154.25,180.5 C156.32,180.5 158,178.82 158,176.75 L158,158 L176.75,158 C178.82,158 180.5,156.32 180.5,154.25 L180.5,83 C180.5,82.9175 180.45875,82.85 180.45125,82.7675 Z M167.6975,79.25 L158,79.25 L158,69.5525 L167.6975,79.25 Z M145.1975,34.25 L124.25,34.25 L124.25,13.3025 L145.1975,34.25 Z M30.5,8 L116.75,8 L116.75,38 C116.75,40.07 118.43,41.75 120.5,41.75 L150.5,41.75 L150.5,60.5 L150.5,79.25 L30.5,79.25 L30.5,60.5 L30.5,8 Z M23,69.5525 L23,79.25 L13.3025,79.25 L23,69.5525 Z M150.5,173 L30.5,173 L30.5,158 L150.5,158 L150.5,173 Z M173,150.5 L8,150.5 L8,86.75 L26.75,86.75 L154.25,86.75 L173,86.75 L173,150.5 Z" id="Shape"></path>
            <polygon id="Path" points="54.5378378 104.237288 68.9378378 104.237288 53.5 136.207627 53.5 142.5 77.5 142.5 77.5 135.635593 62.127027 135.635593 77.5 103.665254 77.5 97.5 54.5378378 97.5"></polygon>
            <rect id="Rectangle" x="83.5" y="97.5" width="8" height="45"></rect>
            <path d="M122.369856,100.32652 C121.170183,99.2908774 119.814515,98.5580758 118.295424,98.1355932 C116.780048,97.7131107 115.305527,97.5 113.875576,97.5 L101.5,97.5 L101.5,142.5 L108.950602,142.5 L108.950602,124.449153 L114.25442,124.449153 C115.810652,124.449153 117.326029,124.172483 118.80055,123.622881 C120.275071,123.07328 121.57874,122.224576 122.715273,121.080508 C123.851805,119.936441 124.769202,118.508225 125.460036,116.788385 C126.154583,115.072283 126.5,113.072034 126.5,110.783898 C126.5,108.241525 126.110013,106.121635 125.333754,104.427966 C124.561209,102.734297 123.573243,101.365902 122.369856,100.32652 Z M117.604591,116.347208 C116.468058,117.595962 115.015822,118.220339 113.247883,118.220339 L108.954316,118.220339 L108.954316,103.919492 L113.247883,103.919492 C115.015822,103.919492 116.468058,104.469093 117.604591,105.572034 C118.741123,106.674975 119.309389,108.432203 119.309389,110.847458 C119.309389,113.262712 118.741123,115.094716 117.604591,116.347208 Z" id="Shape"></path>
        </g>
    </g>
</svg>