<?xml version="1.0" encoding="utf-8"?>
<!-- Generator: Adobe Illustrator 25.2.3, SVG Export Plug-In . SVG Version: 6.00 Build 0)  -->
<svg version="1.1" id="Layer_1" xmlns="http://www.w3.org/2000/svg" xmlns:xlink="http://www.w3.org/1999/xlink" x="0px" y="0px"
	 viewBox="0 0 32 32" style="enable-background:new 0 0 32 32;" xml:space="preserve">
<style type="text/css">
	.st0{fill:#88B940;}
	.st1{fill:#68AC45;}
	.st2{fill-rule:evenodd;clip-rule:evenodd;fill:#FFD200;}
	.st3{fill-rule:evenodd;clip-rule:evenodd;fill:#0082C9;}
	.st4{fill-rule:evenodd;clip-rule:evenodd;fill:#FCB813;}
	.st5{fill:#231F20;}
	.st6{fill:#D62229;}
	.st7{fill:#B22227;}
	.st8{fill-rule:evenodd;clip-rule:evenodd;fill:#404041;}
	.st9{fill-rule:evenodd;clip-rule:evenodd;fill:#FFFFFF;}
	.st10{fill:#0099D7;}
	.st11{fill:#FFFFFF;}
</style>
<g>
	<path class="st0" d="M10.6,24.9c0-0.1,0-0.1-0.1-0.1c-0.1,0-0.2,0-0.3,0c-0.1,0-0.1,0.1,0,0.1c0.1,0.1,0.1,0.1,0.2,0.1
		C10.5,25,10.6,25,10.6,24.9"/>
	<path class="st0" d="M10.9,27.4C10.9,27.4,10.9,27.3,10.9,27.4c-0.1,0,0,0.1,0,0.1C11,27.4,11,27.4,10.9,27.4"/>
	<path class="st0" d="M15,25.1c-0.1-0.1-0.3-0.1-0.4-0.2c-0.1-0.1-0.2-0.1-0.3-0.1c0,0,0-0.1,0-0.1c0,0,0.1,0,0.1,0c0,0,0,0,0.1,0
		c0,0,0,0,0-0.1c0,0-0.1,0-0.1,0c-0.1,0-0.2,0-0.3-0.1c-0.3-0.1,0.2-0.1,0.3-0.2c0-0.1,0-0.1-0.2-0.1c-0.3,0-0.6-0.1-0.9-0.1
		c-0.1,0-0.2,0-0.3,0c0,0,0,0,0,0c0,0,0,0,0,0c0,0,0-0.1,0.1,0c0.1,0,0.2-0.1,0.1-0.1c0,0-0.2,0-0.3,0c-0.1,0-0.1,0-0.1,0.1
		c0,0,0,0,0,0c0,0,0,0,0,0c-0.2,0-0.5,0-0.7,0c0.4-0.1,0.8-0.1,1.2-0.2c-0.1,0-0.1,0-0.2,0c-0.1,0-0.2,0.1-0.2-0.1c0,0,0,0,0,0
		c-0.4,0-0.8,0.1-1.2,0.1c-0.1,0-0.1,0-0.1-0.1c0,0,0,0,0,0c0,0-0.1,0-0.1,0c0,0,0,0,0,0c0,0-0.1,0-0.1,0c0,0,0,0,0,0
		c0,0,0.1,0,0.1,0c0,0,0,0,0,0c0,0,0,0,0,0c0,0,0,0,0,0c0,0,0,0-0.1,0c-0.1,0-0.2,0-0.3,0.1c0,0,0,0,0,0c0,0-0.1,0,0,0
		c0,0,0.1,0,0.1,0s0,0,0.1,0c0,0,0.1,0,0.1,0c0,0,0,0,0,0c-0.1,0-0.5,0.1-0.7,0.2c0,0.1,0.5-0.1,0.7-0.1c0,0,0,0,0,0
		c0,0-0.1,0-0.1,0.1c0,0-0.1,0-0.1,0c-0.1,0-0.2,0-0.3,0.1c0,0-0.1,0-0.1,0.1c0,0.1-0.1,0.2-0.2,0.3c-0.1,0.2-0.2,0.3-0.1,0.5
		c0,0.1,0,0.2,0,0.2c0,0,0,0.1,0,0.1c0,0-0.1,0-0.2,0c0,0-0.1,0,0,0.1c0,0,0.1,0,0.2,0c0,0,0,0-0.1,0c-0.2,0-0.2,0.1-0.2,0.3
		c0,0.1,0,0.2-0.1,0.2c0,0-0.1,0.1-0.1,0.1c0.1,0.1,0.1,0.2,0.2,0.2c0.2,0.1,0.3,0.2,0.4,0.3c0.1,0.1,0.1,0.2,0.2,0.2
		c0,0-0.3,0-0.3,0c-0.1,0-0.1,0.1-0.1,0.1c0,0,0.1,0.1,0.1,0.1c0,0,0,0,0-0.1c0,0-0.1-0.1,0-0.1c0,0,0.1,0,0.1,0c0,0,0,0,0,0
		c0,0,0,0,0,0h0c0,0,0,0,0,0c0,0,0,0,0,0c0,0,0,0,0,0c0,0,0,0,0,0c0,0,0,0,0,0c0,0,0.1,0,0.1,0c0,0,0,0,0.1,0c0.1,0,0.1,0.1,0.3,0.3
		c0.1,0.1,0.2,0.2,0.3,0.3c0,0,0,0,0,0c-0.1,0-0.1,0-0.2,0c0,0,0.1,0,0.1,0.1c0,0-0.1,0-0.1,0c-0.1,0-0.1,0.1-0.1,0.1
		c0,0.1,0,0.2-0.1,0.2c0,0-0.1,0-0.1,0c0.1,0,0.2,0,0.2,0.1c0.1,0.1,0.2,0.2,0.3,0.3c0.1,0.2,0.2,0.5,0.3,0.7c0,0.1,0.1,0.2,0.1,0.3
		c0.1,0.1,0.2,0.1,0.2,0.1c0,0,0.1,0,0.1,0c0.1,0.1,0.2,0,0.1,0c-0.2,0.1-0.3,0-0.4,0c-0.2-0.1-0.3-0.2-0.4-0.4c0-0.1,0-0.1-0.1-0.2
		c0,0,0,0,0,0c0,0,0-0.1,0-0.1c0,0,0,0,0,0c0,0,0,0.1,0,0.1c0,0,0,0,0,0c0,0.1,0.1,0.3,0.1,0.4c0,0.1,0.1,0.3,0.2,0.3
		c0.1,0,0.3,0,0.4,0c0.3-0.1,0.6,0.1,1-0.1c0,0,0,0,0.1,0c0.2-0.1,0.2-0.2,0.2-0.4c0-0.1,0-0.1,0.1-0.1c0.1,0,0.1-0.1,0.1-0.2
		c0-0.1,0-0.1,0.1-0.1c0.1,0,0.1-0.1,0.1-0.1c0-0.1,0-0.2-0.1-0.3c0,0,0.1,0,0.1,0c0.1,0,0.1-0.1,0.1-0.1c0,0-0.1,0-0.1,0
		c0,0,0,0-0.1,0c0,0-0.1,0-0.1-0.1c0-0.1,0-0.1,0.1-0.1c0,0,0.1,0,0.1,0c0-0.1,0-0.1-0.1-0.1c-0.1-0.1-0.1-0.3-0.2-0.5c0,0,0,0,0,0
		c0,0,0.1,0,0-0.1c0-0.1-0.1,0-0.1,0c0,0,0,0,0,0c0,0,0,0,0,0c0.1,0,0.2-0.1,0.2-0.2c0,0,0-0.1,0-0.1c-0.1-0.1-0.1-0.2-0.2-0.3
		c-0.1,0-0.1-0.1-0.1-0.1c0.1-0.1,0.1-0.3,0.4-0.3c0,0,0.1,0,0.1,0c0-0.1,0-0.1,0-0.1c-0.1,0-0.1-0.1-0.1-0.2c0,0,0,0,0,0
		c0.1,0,0.1,0,0.2,0c0,0,0.1,0,0.1,0c0,0,0,0,0.1,0c0.1,0,0,0,0,0c0,0-0.1,0-0.2,0c-0.1,0-0.2,0-0.2,0c0,0,0,0,0,0
		c0,0,0-0.1,0.1-0.1c0,0,0.2,0,0.1-0.1c0,0,0-0.1,0-0.1c0.2,0,0.3,0.1,0.5,0.1c0,0,0.1,0,0.1,0c0,0,0,0,0,0c-0.2,0-0.4-0.1-0.6-0.1
		c0,0,0,0,0.1-0.1c0,0,0,0,0,0c0,0,0.1,0,0.1,0c0,0,0,0,0,0c0,0,0,0,0,0c0,0,0,0-0.1,0c-0.1,0-0.2,0-0.2,0h0c0,0,0,0,0,0
		c0-0.1,0-0.2,0.1-0.2c0.1,0,0.1,0,0.2,0.1c0.1,0,0.2,0,0.2,0.1c0,0,0,0,0.1,0c0.1-0.1,0.2-0.1,0.3-0.1c0,0,0,0,0,0c0,0,0,0,0,0
		c0,0-0.1,0-0.1-0.1c0,0-0.1,0-0.1-0.1c-0.1,0-0.2-0.1-0.3-0.1c-0.1,0-0.1,0,0-0.1c0-0.1,0.1,0,0.2,0C14.8,25.1,14.8,25.1,15,25.1
		c0,0.1,0.1,0.1,0.1,0.1C15.1,25.2,15.1,25.2,15,25.1 M12.8,24c0-0.1,0.1-0.1,0.1-0.1c0,0,0,0,0,0.1C12.9,24,12.8,24,12.8,24
		 M12.2,24c0.1,0,0.3-0.1,0.4-0.1c0.1,0,0.2,0,0.2,0c-0.1,0-0.2,0-0.3,0C12.4,24,12.3,24,12.2,24C12.2,24.1,12.2,24.1,12.2,24
		C12.1,24,12.2,24,12.2,24"/>
	<path class="st0" d="M11.8,29.2c0,0.1,0.1,0.1,0.1,0.2c0,0.1,0.1,0.1,0.1,0.2c0,0,0,0,0,0.1c0,0,0,0,0,0c0,0,0,0,0,0c0,0,0,0,0,0
		c0,0,0,0,0-0.1c0,0,0-0.1,0-0.1c0-0.1-0.1-0.3-0.2-0.4l0,0c0,0,0-0.1,0-0.1c0,0,0,0,0,0.1c0,0,0,0,0,0v0c0,0,0,0,0,0c0,0,0,0,0,0
		c0,0,0,0,0,0C11.8,29,11.8,29.1,11.8,29.2C11.8,29.1,11.8,29.1,11.8,29.2"/>
	<path class="st0" d="M12,29.6C12,29.6,12,29.6,12,29.6C12,29.7,12,29.7,12,29.6C12,29.7,12,29.7,12,29.6C12,29.7,12,29.7,12,29.6
		C12,29.7,12,29.7,12,29.6C12,29.7,12,29.7,12,29.6C12,29.6,12,29.6,12,29.6C12,29.6,12,29.6,12,29.6C12,29.6,12,29.6,12,29.6"/>
	<path class="st0" d="M14.8,25.8C14.8,25.8,14.8,25.8,14.8,25.8C14.8,25.8,14.8,25.8,14.8,25.8c-0.1-0.1-0.1-0.1-0.1-0.1
		c-0.1,0-0.2-0.1-0.2-0.1c0,0,0,0-0.1,0c0,0,0,0,0,0c0,0,0,0,0.1,0c0,0,0,0,0,0c0.1,0,0.2,0,0.2,0.1C14.7,25.8,14.7,25.8,14.8,25.8
		C14.8,25.8,14.8,25.8,14.8,25.8C14.8,25.9,14.8,25.9,14.8,25.8C14.9,25.9,14.8,25.8,14.8,25.8"/>
	<path class="st0" d="M12.5,23.8c0.1,0,0.2,0,0.1-0.1C12.6,23.7,12.5,23.8,12.5,23.8c-0.1,0-0.1,0-0.2,0c-0.2,0-0.3,0-0.5,0.1
		c0.2,0,0.3-0.1,0.5-0.1C12.3,23.8,12.4,23.8,12.5,23.8"/>
	<path class="st0" d="M13.2,23.8C13.2,23.8,13.1,23.8,13.2,23.8c-0.1,0-0.1,0-0.1,0C13.1,23.9,13.2,23.9,13.2,23.8"/>
	<path class="st1" d="M15,25.1c-0.1-0.1-0.3-0.1-0.4-0.2c-0.1-0.1-0.2-0.1-0.3-0.1c0,0-0.1,0-0.1,0c0.1,0,0.1-0.1,0,0
		c0,0-0.1,0-0.1,0.1c-0.2,0-0.1-0.1-0.2-0.1c-0.2,0-0.3,0-0.5-0.1c-0.1,0-0.1,0-0.1-0.1c0,0,0,0,0,0c0.1,0,0.3,0,0.4,0
		c0.2,0.1,0.5,0.1,0.7,0.2c0,0,0,0,0.1,0c0,0,0,0,0-0.1c0,0-0.1,0-0.1,0c-0.2,0-0.5-0.1-0.7-0.1c-0.1,0-0.1,0,0-0.1c0,0,0,0,0,0
		c0,0,0.2,0.1,0.3,0c0.1,0,0.1-0.1-0.1-0.1c-0.1,0-0.2,0-0.3,0h-0.1h-0.2c0,0,0.1-0.1,0.1-0.1c0,0,0.2,0,0.1,0c-0.1,0-0.1,0-0.2-0.1
		c-0.1-0.1-0.2-0.1-0.3-0.1c-0.1,0-0.2,0-0.2-0.1c0,0,0,0,0,0c0,0,0-0.1,0.1,0c0.1,0,0.2-0.1,0.1-0.1c0,0-0.2,0-0.3,0
		c-0.1,0-0.1,0-0.1,0.1c0,0,0,0,0,0c0,0.1-0.1,0.1-0.1,0.1c-0.4,0-0.7,0.1-1.1,0.1c0,0,0,0-0.1,0c0.1-0.1,0.2,0,0.3-0.1
		c-0.1-0.1-0.1,0-0.2,0c0.6-0.1,1.1-0.2,1.7-0.3c-0.1,0-0.1,0-0.2,0c-0.1,0-0.2,0.1-0.2-0.1c0,0,0,0,0,0c-0.4,0-0.8,0.1-1.2,0.1
		c-0.1,0-0.1,0-0.1-0.1c0,0,0,0,0,0c0,0-0.1,0-0.1,0h0c0,0-0.1,0-0.1,0c0,0,0,0,0,0c0,0,0.1,0,0.1,0c0,0,0,0,0,0c0,0,0,0,0,0
		c0,0,0,0,0,0c0,0,0,0-0.1,0c-0.1,0-0.2,0-0.3,0.1c0,0,0,0,0,0c0,0-0.1,0,0,0c0,0,0.1,0,0.1,0s0,0,0.1,0c0,0,0.1,0,0.1,0
		c0,0,0,0,0,0c-0.1,0-0.5,0.1-0.7,0.2c0,0.1,0.5-0.1,0.7-0.1c0,0,0,0,0,0.1c0,0,0.1,0,0.1,0c-0.1,0-0.2,0.1-0.3,0.1
		c-0.1,0-0.1,0-0.1,0.2c0,0.1,0.1,0.2-0.1,0.2c0.1,0,0.2,0.1,0.3,0.1c0.1,0,0.2,0.1,0.2,0.1c0,0,0,0-0.1,0h-0.1h0c0,0-0.1,0-0.1,0
		c0,0,0.1,0,0.1,0s0,0,0.1,0c0,0,0,0,0,0c0,0,0,0,0,0c0,0-0.1,0-0.1,0c0,0.1-0.1,0.1-0.2,0.1c-0.1,0-0.3,0.2-0.2,0.3
		c0.1,0.1,0.1,0.2,0,0.2h0c0,0,0,0,0,0c0,0,0,0,0,0c0,0,0.1,0,0.1,0c0,0,0,0,0,0c0,0,0.1,0,0,0c0,0,0,0-0.1,0c0,0,0,0,0,0
		c0,0,0,0,0,0c0,0,0,0,0,0c-0.1,0-0.1,0-0.2,0c0,0-0.1,0-0.2,0c0,0-0.1,0,0,0.1c0,0,0.1,0,0.2,0c0.1,0,0.1,0,0.2,0
		c0.1,0,0.3,0,0.4,0.1c-0.2,0-0.3,0-0.5,0c0,0-0.1,0-0.1,0c0,0,0,0,0,0c0,0,0,0-0.1,0c0,0-0.1,0-0.1,0c0,0,0,0,0,0.1
		c0,0,0,0.1,0,0.1c0,0,0,0,0,0c0,0,0,0,0,0c0.1,0.2,0.1,0.3,0.3,0.4c0,0,0,0,0,0c0,0,0,0,0,0c0,0-0.2,0-0.2-0.2
		c0-0.1-0.1-0.1-0.1-0.1c0,0,0,0.3,0.2,0.3c0.2,0,0.3,0,0.4,0c0.1,0,0.1,0.1,0.1,0.1c0,0,0,0-0.1,0c-0.1,0-0.1,0-0.2,0
		c0,0-0.1,0-0.1,0c0,0,0,0,0,0c0,0,0,0,0.1,0c0.1,0,0.3,0.1,0.4,0.1c0,0,0,0,0,0c0,0,0,0.1-0.1,0.1c0,0-0.1,0-0.1,0.1
		c0,0-0.1,0-0.1,0c0,0-0.1,0-0.1,0c0,0,0,0,0.1,0c0,0,0,0,0,0c0,0,0,0,0,0c0,0,0,0,0.1,0c0,0,0,0,0,0.1c0,0,0,0,0,0
		c0,0,0.1,0.1,0.1,0.1c0,0,0-0.1,0.1,0c0,0,0,0,0,0c0,0,0,0.1,0,0.1c0,0.1,0.1,0,0.1,0.1c0,0,0,0,0,0c0,0,0,0,0,0c0,0,0,0,0,0
		c0,0,0,0,0,0c0,0-0.3,0-0.3,0.1c0,0,0.2,0,0.4,0.4c0.1,0.1,0.2,0.2,0.3,0.3c-0.1,0-0.1,0-0.2,0c0,0,0.1,0,0.1,0.1c0,0-0.1,0-0.1,0
		c-0.1,0-0.1,0.1-0.1,0.1c0,0.1,0,0.2-0.1,0.2c0,0-0.1,0-0.1,0c0.1,0,0.2,0,0.2,0.1c0.1,0.1,0.2,0.2,0.3,0.3
		c0.1,0.2,0.2,0.5,0.3,0.7c0,0.1,0.1,0.2,0.2,0.3c0.1,0.1,0.2,0,0.3,0c0.3-0.1,0.5-0.2,0.7-0.3c0.1,0,0.1-0.1,0.2-0.2
		c0-0.1,0.1-0.3,0.3-0.2c0,0,0,0,0,0c0,0,0,0,0,0c0,0,0,0,0,0c0,0,0,0,0,0c0,0,0,0,0,0c0,0-0.1,0-0.1,0c0,0,0.1,0,0.1-0.1
		c0,0,0.1,0,0.1,0c0.1,0,0.1-0.1,0.1-0.1c0,0-0.1,0-0.1,0c0,0-0.1,0-0.1,0c-0.4,0-0.8,0-1.2,0c0,0-0.1,0-0.1,0c0,0,0,0,0,0
		c0,0,0,0,0,0c0.1,0,0.1,0,0.2,0c0.4,0,0.9,0.1,1.3,0c0.1,0,0.1-0.1,0-0.1c0-0.1,0-0.1,0-0.1c0,0-0.1,0-0.1,0c0,0,0.1,0,0.1-0.1
		c0,0,0,0,0,0c0,0,0.1,0,0.1,0c0.1,0,0.1-0.1,0.1-0.1c0,0-0.1,0-0.1,0c0,0,0,0-0.1,0c-0.1,0-0.1-0.1-0.1-0.1c-0.1,0-0.3,0-0.4,0
		c0,0-0.1,0-0.1,0c0,0,0.1,0,0.1-0.1c0,0,0,0,0,0c0,0-0.1,0-0.1,0c0-0.1,0-0.1,0.1-0.1c0.1-0.1,0.1-0.2,0.1-0.3c0,0,0.1,0,0.2-0.1
		c0,0-0.1,0-0.1,0c0.1,0,0.2-0.1,0.3-0.1c0,0,0.1,0,0.1-0.1c0-0.1-0.1,0-0.1,0c0,0,0,0-0.1,0c0.1-0.1,0-0.2,0.1-0.2c0,0,0.1,0,0.1,0
		c0,0,0,0,0,0c0,0-0.1,0-0.1,0c0,0,0,0,0,0c0,0,0,0,0,0c-0.1,0-0.2,0-0.2-0.1c0,0-0.1,0-0.1,0c-0.1,0-0.2,0-0.2,0c0-0.1-0.1,0-0.1,0
		c-0.1,0-0.2,0.1-0.2,0c0,0,0,0,0-0.1c-0.1,0-0.1,0.1-0.1,0.1c-0.1,0-0.2,0-0.3-0.1c0,0,0,0,0,0c0,0,0,0,0-0.1c0,0,0,0,0,0
		c0,0,0.1,0,0.1-0.1c-0.1,0-0.2,0-0.2,0.1c0,0,0,0,0,0s0,0,0,0c0,0-0.1,0-0.1,0.1c0,0,0,0,0,0c0,0-0.1,0,0,0c0,0,0.1,0,0.1,0
		c0,0,0,0,0,0c0,0,0,0,0,0c-0.1,0-0.3,0-0.5,0c0.1,0,0.2-0.1,0.3-0.1c0.3-0.1,0.5-0.2,0.8-0.3c0.2,0,0.3-0.3,0.5-0.3c0,0-0.1,0,0,0
		c0.1-0.1,0.1-0.1,0.3-0.1c0.1,0,0.2,0,0.3,0c0,0,0.1,0,0.1,0c0,0,0,0,0.1,0c0.1,0,0,0,0,0c0,0-0.1,0-0.2,0c-0.1,0-0.3,0-0.4-0.1
		c0,0,0,0,0-0.1c0,0,0,0,0,0c0,0-0.1,0-0.1,0c0,0-0.1,0-0.1,0c0,0,0,0,0,0c0,0,0,0,0,0c0,0,0,0,0-0.1c0,0,0.1,0,0.1,0
		c0,0,0.1,0,0.1,0c0,0,0,0-0.1,0c0,0-0.1,0-0.1,0c0,0,0,0,0,0c0,0,0.1,0,0.1-0.1c0,0,0.1,0,0.2,0c0.2,0,0.5,0.1,0.7,0.2
		c0,0,0.1,0,0.1,0c0,0,0,0,0,0c-0.3,0-0.5-0.2-0.8-0.1c-0.1,0-0.1-0.1-0.1-0.1c0,0,0,0,0.1,0c0,0,0,0,0,0s0.1,0,0.1,0
		c0,0,0.1,0,0.1,0c0,0,0,0-0.1,0c-0.1-0.1-0.3-0.1-0.4-0.1c-0.1,0-0.1,0.1-0.2,0.1c0,0-0.1,0-0.1,0c-0.1,0-0.2,0-0.4-0.1
		c0.2,0,0.3,0,0.5,0c0.2,0,0.3,0,0.2-0.2c0,0,0,0,0,0c0.1,0,0.1,0,0.2,0c0,0,0.1,0,0.1,0.1c0,0,0,0.1,0.1,0.1c0.1,0,0.3,0,0.4,0.1
		c0.1,0,0.2,0,0.2,0.1c0,0,0,0,0.1,0c0.1-0.1,0.2-0.1,0.3-0.1c0,0,0,0,0,0c0,0,0,0,0,0c0,0-0.1,0-0.1-0.1c0,0-0.1,0-0.1-0.1
		c-0.1,0-0.2-0.1-0.3-0.1c-0.1,0-0.1,0,0-0.1c0-0.1,0.1,0,0.2,0C14.8,25.1,14.8,25.1,15,25.1c0,0.1,0.1,0.1,0.1,0.1
		C15.1,25.2,15.1,25.2,15,25.1 M13,23.9C13,23.9,13,23.9,13,23.9c0,0.1-0.1,0.1-0.1,0.1C12.9,23.9,12.9,23.9,13,23.9 M12.2,24
		c0.1,0,0.3-0.1,0.4-0.1c0.1,0,0.2,0,0.2,0c-0.1,0-0.2,0-0.3,0C12.4,24,12.3,24,12.2,24C12.2,24.1,12.2,24.1,12.2,24
		C12.1,24,12.2,24,12.2,24 M11.6,25.7C11.6,25.7,11.6,25.7,11.6,25.7c-0.1,0.1-0.2,0.1-0.3,0.1c0,0,0,0,0,0c0,0,0,0,0,0
		c0,0,0.1,0,0.1,0C11.3,25.7,11.4,25.7,11.6,25.7 M12.6,29.1c0.1,0,0.3,0,0.4,0.1c0.1,0,0.1-0.1,0.1,0c0,0,0.1,0,0.1,0
		c-0.4,0.3-0.7,0.3-0.9,0.1c0,0,0,0,0,0C12.5,29.2,12.5,29.2,12.6,29.1C12.6,29.2,12.7,29.2,12.6,29.1
		C12.6,29.2,12.6,29.2,12.6,29.1c-0.1,0-0.2,0.1-0.2,0C12.4,29.1,12.5,29.1,12.6,29.1"/>
	<path class="st1" d="M12,29.6C12,29.5,12,29.6,12,29.6C12,29.5,12,29.5,12,29.6C12,29.5,12,29.5,12,29.6c0-0.1-0.1-0.2-0.1-0.2
		c0-0.1-0.1-0.3-0.2-0.4l0,0c0,0,0-0.1,0-0.1c0,0,0,0,0,0.1c0,0,0,0,0,0v0c0,0,0,0,0,0c0,0,0,0,0,0c0,0,0,0,0,0c0,0,0,0,0,0.1
		c0,0,0,0,0,0.1c0,0.1,0.1,0.1,0.1,0.2C11.9,29.4,11.9,29.5,12,29.6C11.9,29.6,11.9,29.6,12,29.6C12,29.6,12,29.6,12,29.6"/>
	<path class="st1" d="M12,29.6C12,29.6,12,29.6,12,29.6C12,29.6,12,29.6,12,29.6C12,29.6,12,29.6,12,29.6C12,29.7,12,29.7,12,29.6
		C12,29.7,12,29.7,12,29.6C12,29.7,12,29.7,12,29.6C12,29.7,12,29.7,12,29.6C12,29.7,12,29.7,12,29.6C12,29.6,12,29.6,12,29.6"/>
	<path class="st1" d="M14.8,25.8C14.8,25.8,14.8,25.8,14.8,25.8C14.8,25.8,14.8,25.8,14.8,25.8c-0.1-0.1-0.1-0.1-0.1-0.1
		c-0.1,0-0.2-0.1-0.2-0.1c0,0,0,0-0.1,0c0,0,0,0,0,0c0,0,0,0,0.1,0c0,0,0,0,0,0c0.1,0,0.2,0,0.2,0.1C14.7,25.8,14.7,25.8,14.8,25.8
		C14.8,25.8,14.8,25.8,14.8,25.8C14.8,25.9,14.8,25.9,14.8,25.8C14.9,25.9,14.8,25.8,14.8,25.8"/>
	<path class="st1" d="M14.1,25.7C14.1,25.7,14.1,25.7,14.1,25.7C14.1,25.7,14.2,25.7,14.1,25.7C14.2,25.7,14.2,25.7,14.1,25.7
		C14.1,25.7,14.1,25.7,14.1,25.7"/>
	<path class="st1" d="M13.7,26.4C13.7,26.4,13.7,26.4,13.7,26.4C13.6,26.4,13.7,26.4,13.7,26.4C13.7,26.4,13.8,26.5,13.7,26.4
		C13.8,26.4,13.8,26.4,13.7,26.4"/>
	<path class="st1" d="M12.8,26.9C12.7,27,12.7,27,12.8,26.9C12.7,27,12.8,27,12.8,26.9C12.8,27,12.8,26.9,12.8,26.9"/>
	<path class="st1" d="M12.5,23.8c0.1,0,0.2,0,0.1-0.1C12.6,23.7,12.5,23.8,12.5,23.8c-0.1,0-0.1,0-0.2,0c-0.2,0-0.3,0-0.5,0.1
		c0.2,0,0.3-0.1,0.5-0.1C12.3,23.8,12.4,23.8,12.5,23.8"/>
	<path class="st1" d="M13.2,23.8C13.2,23.8,13.1,23.8,13.2,23.8c-0.1,0-0.1,0-0.1,0C13.1,23.9,13.2,23.9,13.2,23.8"/>
	<path class="st1" d="M11,24.9C11,24.8,10.9,24.8,11,24.9C10.9,24.9,11,24.9,11,24.9"/>
	<path class="st2" d="M23.2,18.9C23.2,18.8,23.2,18.8,23.2,18.9c-0.2-0.1-0.4-0.2-0.6-0.2c0.2,0,0.4,0,0.7,0.1
		c-0.2-0.1-0.3-0.1-0.5-0.2c-0.1,0-0.2,0-0.2-0.1c-0.1,0-0.1-0.1-0.2,0c0,0,0,0,0,0c-0.1,0-0.3-0.2-0.4,0c0,0-0.1,0-0.1,0
		c-0.1,0-0.1-0.1-0.1-0.1c0.2,0,0.4,0.1,0.5,0.1c0.1,0,0.2,0,0.2-0.1c0,0-0.3,0-0.5,0c-0.1,0-0.6,0-0.7,0c-0.3,0-0.6,0-0.8,0
		c-1-0.1-2.1,0-3.1,0.1c-0.2,0-0.4,0.1-0.6,0c0.1,0,0.2,0,0.3-0.1c-0.2,0-0.5,0-0.7,0.1c0.1,0,0.2,0,0.2,0c0,0.1-0.2,0-0.5,0
		c0,0-0.1,0,0,0c0,0,0.1,0,0,0c-0.5,0-0.9,0.1-1.4,0.1c-0.1,0-0.3,0-0.4,0c0,0-0.1,0-0.2,0c-0.1,0-0.1,0-0.2,0
		c-0.1,0.1-0.3,0.1-0.4,0.1c0,0,0,0-0.1,0c-0.2,0.1-0.4,0-0.6,0c0,0-0.1,0-0.1,0c0,0,0,0,0,0c0,0-0.2,0-0.2,0c0,0,0,0,0.1,0
		c0,0,0,0,0.1,0c0,0,0,0,0,0c0.1,0,0.2,0,0.3,0c-0.7,0-1.4-0.1-2-0.2c0.4,0.2,0.9,0.2,1.3,0.2c0.1,0,0.3,0,0.3,0c0.1,0,0.2,0,0.2,0
		c0,0-0.1,0-0.1,0c-0.2,0-0.4,0-0.4,0c0,0.1,0.2,0,0.4,0c0.2,0,0.2,0,0,0.1c-0.2,0-0.4,0-0.6,0c0.1,0,0.1,0,0.1-0.1
		c-0.4,0-0.9,0-1.3,0.1c-0.2,0-0.2,0-0.2,0c0.1,0,0.3,0,0.5,0c0,0,0,0,0,0h0c0.1,0,0.1,0,0.2,0c0.1,0,0.1,0,0.1,0c0,0-0.1,0-0.2,0
		c-0.1,0-0.1,0-0.1,0c0,0,0,0-0.1,0c0.3,0,0.5,0,0.8,0.1c-0.1,0-0.2,0-0.4,0c-0.3,0-0.6,0-0.9,0c-0.1,0-0.2,0-0.2,0
		c0.2,0,0.3,0,0.5,0c0,0,0,0,0,0c-0.4,0-0.7,0-1.1,0c-0.3,0-0.6-0.1-0.9,0c0,0-0.1,0-0.1,0c-0.1-0.1-0.2,0-0.4,0
		c0.1,0,0.1,0.1,0.1,0.1c0,0.1,0,0.2,0,0.3c0,0.1,0,0.1,0,0.2c-0.1,0.2-0.2,0.4-0.1,0.6c0,0.1,0,0.1-0.1,0.1c-0.1,0-0.2,0-0.3,0
		c-0.1,0-0.1,0-0.2,0.1C8,20.4,8,20.5,8.1,20.7c0.1,0.2,0.2,0.3,0.4,0.4c0.1,0,0.2,0.1,0.3,0.1c0.1,0,0.1,0.1,0.1,0.2
		c0,0,0,0.1,0,0.1c0.1,0,0.1,0.1,0.2,0.2c0,0.1,0.1,0.2,0.1,0.4c0,0,0,0.1,0.1,0.1c0.1,0,0.2,0.1,0.2,0.3c0,0.1,0,0.2,0.1,0.2
		c0.4-0.1,0,0.1,0.1,0.1c0,0.1,0.1,0.2,0.2,0.2c0,0,0,0,0,0c0,0,0.1,0.1,0.1,0.1c0,0,0,0.1,0.1,0c0,0,0.1,0,0.1,0c0,0,0.1,0.1,0.2,0
		c0.1,0,0.1,0,0.2,0c0,0,0,0,0,0c0.2,0,0.3-0.1,0.5-0.1c0,0,0,0,0,0c0,0,0.1,0,0.1,0c0,0,0,0-0.1,0c0,0-0.1,0-0.1,0c0,0,0,0-0.1,0
		c0,0,0,0,0,0c0,0,0,0,0,0c0,0,0.1,0,0.1,0c0,0,0,0,0,0c0,0,0,0,0,0c-0.1,0-0.2,0-0.3,0.1c0,0-0.1,0-0.1,0c0,0,0,0.1,0,0.1
		c0.1,0,0.2,0,0.2-0.1c0,0,0,0,0-0.1c0.1,0,0.2,0.1,0.2,0.2c0,0,0,0.1,0,0.1c0,0,0,0.1,0,0.1c0,0.1,0,0.1-0.1,0.1c0,0,0-0.1,0-0.1
		c0,0,0,0,0-0.1c0-0.1,0-0.1-0.1-0.1c-0.1,0-0.1,0.1-0.1,0.1c0,0,0.1,0.3,0.2,0.3c0,0,0.1,0,0.1,0c0,0,0,0,0,0c0,0,0.1,0,0.1,0
		c0.1,0,0.3,0,0.4,0c0,0,0.1,0,0.1,0.1c0,0,0,0,0,0c-0.1,0-0.2,0-0.3,0c-0.2,0.1,0.1,0.2,0,0.2c0,0-0.1,0-0.1,0
		c-0.1,0.1-0.2,0.2-0.4,0.2c-0.1,0-0.2,0.1-0.3,0.1c0,0-0.1,0-0.1,0.1c0,0,0-0.1,0-0.1c0,0-0.1,0-0.1,0.1c0,0,0,0,0.1,0
		c0,0,0.1,0,0.1,0c0.1,0,0.2,0,0.3,0c0.2,0,0.5-0.1,0.6-0.2c0,0,0,0,0,0c0,0,0,0-0.1,0c0,0-0.1,0-0.1,0s-0.1,0-0.1,0c0,0,0,0,0,0
		c0,0,0,0,0,0c0.1,0,0.2-0.1,0.3-0.1c0,0,0,0,0.1,0h0c0,0,0,0,0,0c0,0,0,0,0,0c0,0,0,0,0,0c0,0,0,0,0,0c0,0,0,0,0,0c0,0,0,0,0,0
		c0,0,0,0,0,0c0,0,0,0,0,0c0,0,0,0,0,0c0,0,0,0,0,0c0,0-0.1,0-0.1,0c0,0,0,0,0,0c0,0,0.1,0,0.1,0c0,0,0,0,0,0c0,0,0.1,0,0.1,0
		c0,0,0,0,0,0c0,0.1,0,0.1,0.1,0.1c0.1,0,0.1,0,0.2,0c0,0,0,0,0,0c0.1,0,0.1,0,0.2,0c0.3,0,0.5-0.1,0.8-0.1c0,0,0,0,0,0
		c0,0.2,0.1,0.1,0.2,0.1c0.1,0,0.1,0,0.2,0c-0.4,0.1-0.8,0.1-1.2,0.2c0.1,0,0.1,0,0.2,0c0,0,0,0,0,0c0.2,0,0.4,0,0.5,0c0,0,0,0,0,0
		c0,0,0,0,0,0c0,0,0,0,0.1-0.1c0.1,0,0.3,0,0.3,0c0,0,0,0.1-0.1,0.1c-0.1,0-0.1,0-0.1,0c0,0,0,0,0,0c0,0,0,0,0,0c0.1,0,0.2,0,0.3,0
		c0.3,0,0.6,0.1,0.9,0.1c0.2,0,0.2,0,0.2,0.1c0,0.1-0.5,0.1-0.3,0.2c0.1,0,0.2,0,0.3,0.1c0,0,0.1,0,0.1,0c0,0,0,0.1,0,0.1
		c0,0,0,0-0.1,0c0,0-0.1,0-0.1,0c0,0,0,0.1,0,0.1c0.1,0,0.1,0,0.2,0c0,0,0.1-0.1,0.1-0.1c-0.1-0.3,0.1-0.1,0.2-0.2
		c0.1-0.1,0.1-0.1,0-0.2c0,0-0.1-0.1-0.1-0.1c0,0,0,0,0.1,0c0.1-0.1,0.2-0.1,0.4-0.1c0.1,0,0.2,0,0.3,0c0,0,0.1,0,0.1-0.1
		c0,0,0-0.1-0.1,0c0,0-0.1,0-0.1,0c-0.2,0-0.3-0.1-0.4-0.2c0.1,0,0.2,0,0.3,0c0.1,0-0.2-0.1-0.2-0.1c0,0.1-0.1,0-0.2,0.1
		c0,0-0.2,0-0.2-0.1c0-0.1,0.1-0.1,0.1-0.1c0,0,0.1,0,0.1,0c0.1,0.1,0.2,0,0.3,0.1c0,0,0.1,0,0.1,0c0.1,0,0.1-0.1,0.1-0.1
		c0,0,0-0.1-0.1-0.1c-0.2,0-0.3,0-0.5,0c0.1-0.1,0.2-0.1,0.2-0.1c0.1,0.1,0.1,0,0.2,0c0.1,0,0.2,0,0.3,0.1c0,0,0.1,0.1,0.1,0.1
		c0.1-0.1,0.2,0,0.2-0.1c0,0,0,0,0,0c0,0-0.2-0.2-0.2-0.2c-0.1,0-0.3,0-0.4,0c0,0,0,0,0,0c0,0-0.1,0-0.1,0c0,0,0,0,0,0c0,0,0,0,0,0
		c0.1,0,0.2,0,0.3,0c-0.1,0-0.3,0-0.4-0.1c0,0,0,0,0,0c0,0,0,0,0,0c0.2-0.1,0.4,0,0.6,0c0,0,0.1,0,0.1,0c0,0,0,0,0,0
		c0,0-0.1,0-0.1,0c0,0,0,0,0,0c0,0,0,0,0,0c0,0,0,0,0,0c0.1,0,0.1,0,0.1-0.1c0,0,0,0,0,0c0.1-0.1,0.1-0.2,0-0.3c0,0,0.1,0,0.1,0
		c0,0-0.1,0-0.1-0.1c0.1-0.1,0.1,0,0.2,0c0.1,0,0.1,0,0.1-0.1c0,0,0,0,0,0c0.1-0.1,0-0.1,0-0.1c-0.1,0,0-0.1-0.1-0.1
		c-0.1,0-0.1,0-0.1-0.1c0-0.1,0-0.1,0.1-0.2c0,0,0.1-0.1,0-0.1c0,0-0.1,0-0.1,0c0,0,0,0.1-0.1,0c-0.1,0-0.2,0-0.4,0c0,0,0.1,0,0.1,0
		c0.2-0.1,0.5-0.2,0.7-0.1c0.1,0,0.1,0,0.2,0.1c0,0.1,0.1,0.1,0.1,0c0,0,0.1-0.1,0.1-0.1c0-0.1-0.1-0.1-0.1,0c0,0,0,0-0.1,0
		c0,0,0-0.1,0-0.1c0.1,0,0.1-0.2,0.1-0.2c0.2-0.1,0.1-0.2,0.3-0.2c0.1,0,0.2,0.1,0.2-0.1c0-0.1,0.1-0.1,0.1-0.2c0-0.1,0-0.1,0.1-0.1
		c0.3-0.1,0.5-0.2,0.8-0.3c0,0,0.1,0,0.1-0.1c0,0,0,0,0,0c0.1,0,0.2,0,0.3,0c0.1,0,0.3-0.1,0.4,0c0.1,0,0.2-0.2,0.3-0.1c0,0,0,0,0,0
		c0.1-0.1,0.2-0.1,0.3-0.1c0.5,0,1-0.1,1.4,0c0,0,0.1,0,0.1-0.1h-0.2c-0.6,0-1.2,0-1.8,0c0,0-0.1,0-0.1,0c-0.1,0-0.7,0-0.7,0
		c0,0,0,0,0,0c0,0-0.1,0-0.1,0c0,0,0.1,0,0.1,0c0.1,0,0.1,0,0.2,0c0.1,0,0,0,0.1,0c0,0,0.1,0,0.1,0c0,0,0.1,0,0.1,0
		c0.1,0,0.2,0,0.2-0.1c0,0,0,0,0,0c0,0,0,0,0,0c0.1-0.1,0.2,0,0.3-0.1c0,0,0.1,0,0.1,0c0,0,0,0,0,0c0,0,0,0,0,0c-0.1,0-0.2,0-0.3,0
		c0.2,0,0.3,0,0.5,0c0.1,0,0.2,0,0.2,0c0,0,0,0,0,0c0,0-0.1,0-0.2,0c0,0,0,0,0,0c0.1,0,0.2,0,0.2,0c0,0,0,0,0,0c0-0.1,0.1,0,0.1,0
		c0.5,0,1.1,0,1.6,0.1c0,0,0.1,0,0.1,0c0,0-0.1,0-0.1,0c-0.5,0-1-0.1-1.5-0.1c-0.1,0-0.1,0-0.2,0c0,0-0.1,0-0.1,0c0,0,0,0,0.1,0
		c0.1,0,0.1,0,0.2,0c0,0-0.1,0-0.1,0c0,0,0,0-0.1,0c0.1,0,0.2-0.1,0.3-0.1c0.3-0.1,0.5-0.1,0.7,0.1c0,0,0.1,0,0.1,0
		c0.1,0,0.2,0,0.3,0c0.1,0,0.2,0,0.3,0c0,0,0.1,0,0.1,0c0.1-0.1,0.3-0.2,0.4-0.3c0.1-0.1,0.2-0.2,0.4-0.1c0,0,0,0,0,0
		c0.1-0.1,0.1-0.1,0-0.1c0.1,0,0.2,0,0.3,0c0,0,0,0,0,0c0.1,0,0.3,0.1,0.3,0.1c0.1,0,0.1,0,0.1,0C23.4,18.9,23.3,18.9,23.2,18.9
		 M11.9,18.6c-0.1,0-0.2,0-0.1,0C11.8,18.5,11.9,18.5,11.9,18.6 M12.5,23.8c0,0-0.1,0-0.2,0c-0.2,0-0.3,0.1-0.5,0.1c0,0,0,0,0.1,0
		c0,0,0,0,0,0c0,0,0,0,0,0c0,0,0,0,0,0c0,0,0,0,0,0c0,0,0,0,0,0c0,0,0,0,0,0c0,0,0,0,0,0c0,0,0,0,0,0c0,0,0,0,0,0c0,0,0,0,0,0
		c0,0,0,0,0,0c0,0,0,0,0,0c0,0,0,0,0,0c0,0,0,0,0.1,0C12.3,23.8,12.4,23.8,12.5,23.8c0,0,0.1-0.1,0.1-0.1
		C12.7,23.8,12.5,23.8,12.5,23.8 M12.9,18.7c-0.3,0.1-0.6,0-0.9,0C12.3,18.6,13,18.6,12.9,18.7 M13.2,23.8c0,0-0.1,0-0.1,0
		C13.1,23.9,13.1,23.8,13.2,23.8C13.1,23.8,13.2,23.8,13.2,23.8 M14.2,18.8c-0.3,0-1,0.1-1,0C13.3,18.8,14.3,18.7,14.2,18.8
		 M14.4,23.7C14.4,23.7,14.3,23.7,14.4,23.7c-0.1-0.1-0.1-0.2,0-0.2C14.5,23.6,14.5,23.6,14.4,23.7C14.5,23.7,14.5,23.7,14.4,23.7
		 M14.9,18.6c-0.2,0-0.5,0-0.7,0c-0.1,0-0.2,0-0.2,0c0,0,0,0-0.1,0c-0.1,0-0.1,0-0.2,0c-0.1,0-0.2,0-0.2,0c0,0,0.1,0,0.3,0
		c0.2,0,0.2,0,0.4,0c0,0,0,0,0,0c0.7,0,1.5-0.1,2.2-0.1C16,18.5,15.5,18.6,14.9,18.6 M19.3,18.8c-0.3,0-0.6,0-1,0c0,0,0,0,0,0
		c0-0.1,0,0,0.1,0c0.4,0,0.8,0,1.1,0C19.4,18.8,19.4,18.8,19.3,18.8 M20,18.7c-0.1,0-0.3,0-0.4,0c-0.3,0-0.6-0.1-0.9,0
		c-0.1,0-0.1,0-0.2,0c0.3,0,0.7-0.1,1-0.1c0.2,0,0.5,0,0.7,0C20.1,18.7,20.1,18.7,20,18.7 M21.2,18.3c0,0-0.1,0-0.2,0
		C21.2,18.3,21.2,18.2,21.2,18.3C21.2,18.3,21.2,18.3,21.2,18.3 M21.3,18.4c0-0.1,0.1-0.1,0.2,0C21.5,18.4,21.3,18.4,21.3,18.4"/>
	<path class="st2" d="M17.3,21.2c-0.1,0-0.1,0-0.1,0.1c0,0.1,0,0.1,0.1,0.1c0.1,0,0.1,0,0.1-0.1C17.4,21.2,17.3,21.2,17.3,21.2"/>
	<path class="st2" d="M16.2,23.5c0,0-0.1,0-0.1,0.1c0,0,0.1,0.1,0.1,0.1C16.2,23.7,16.2,23.7,16.2,23.5
		C16.3,23.6,16.2,23.5,16.2,23.5"/>
	<path class="st2" d="M16.2,24.1c-0.1,0-0.1,0-0.2,0c0,0-0.1,0-0.1,0c0,0-0.1,0,0,0C16,24.1,16.1,24.1,16.2,24.1
		c0.1,0.1,0.1,0.1,0.1,0.1c0,0,0-0.1,0-0.1C16.3,24,16.3,24,16.2,24.1"/>
	<path class="st2" d="M15.8,24c-0.2,0-0.4-0.1-0.4-0.1c0,0-0.1,0,0,0c0.2,0,0.4,0,0.6,0.1C15.9,24.1,15.8,24,15.8,24"/>
	<path class="st2" d="M16.1,23.9C16.1,24,16.1,24,16.1,23.9c0.1,0.1,0.1,0,0.1,0c0,0,0-0.1,0-0.1C16.2,23.8,16.1,23.9,16.1,23.9"/>
	<path class="st2" d="M13.5,18.4c0.1,0,0.1,0,0.2,0c0.1,0,0.2,0,0.2-0.1c0,0-0.1,0-0.2,0C13.8,18.4,13.6,18.4,13.5,18.4
		c-0.1,0-0.2,0-0.3,0C13.4,18.4,13.4,18.4,13.5,18.4"/>
	<path class="st2" d="M16,23.2C15.9,23.2,15.9,23.3,16,23.2C15.9,23.3,15.9,23.3,16,23.2C16,23.3,16,23.3,16,23.2
		C16,23.3,16,23.3,16,23.2"/>
	<path class="st2" d="M16.8,21.8C16.8,21.8,16.7,21.8,16.8,21.8c-0.1,0.1-0.1,0.1,0,0.1C16.8,21.9,16.8,21.9,16.8,21.8
		C16.8,21.8,16.8,21.8,16.8,21.8"/>
	<path class="st2" d="M16.4,22.2C16.3,22.2,16.3,22.2,16.4,22.2C16.3,22.3,16.3,22.3,16.4,22.2C16.4,22.3,16.4,22.3,16.4,22.2
		C16.4,22.2,16.4,22.2,16.4,22.2"/>
	<path class="st2" d="M14.1,25.1C14.1,25.1,14.1,25.1,14.1,25.1C14,25.2,14.1,25.2,14.1,25.1C14.1,25.2,14.2,25.2,14.1,25.1
		C14.2,25.1,14.2,25.1,14.1,25.1"/>
	<path class="st2" d="M15.6,23.8c0,0-0.1,0-0.1,0C15.6,23.8,15.6,23.9,15.6,23.8C15.7,23.8,15.7,23.8,15.6,23.8"/>
	<path class="st2" d="M15.8,23.9C15.8,23.8,15.8,23.8,15.8,23.9C15.8,23.8,15.7,23.8,15.8,23.9C15.7,23.8,15.7,23.8,15.8,23.9
		C15.7,23.9,15.8,23.9,15.8,23.9"/>
	<path class="st2" d="M20.4,19.6C20.3,19.6,20.3,19.6,20.4,19.6c-0.1,0-0.1,0-0.1,0c0,0,0,0,0,0S20.4,19.6,20.4,19.6
		C20.4,19.6,20.4,19.6,20.4,19.6"/>
	<path class="st2" d="M23,19.1C23,19.1,23,19.1,23,19.1c-0.1,0-0.1-0.1-0.2-0.1c0,0-0.1,0-0.1,0C22.8,19.1,22.9,19.1,23,19.1
		C23,19.2,23,19.2,23,19.1C23.1,19.2,23.1,19.1,23,19.1"/>
	<path class="st2" d="M23.4,18.7C23.4,18.7,23.3,18.7,23.4,18.7c-0.1,0,0.1,0.2,0.1,0.1C23.6,18.8,23.5,18.7,23.4,18.7"/>
	<path class="st2" d="M13,24C13,23.9,13,23.9,13,24c-0.1-0.1-0.1,0-0.1,0C12.8,24,12.9,24,13,24"/>
	<path class="st2" d="M12.8,24c-0.1-0.1-0.2,0-0.2,0c-0.1,0-0.3,0-0.4,0.1c0,0-0.1,0,0,0.1c0,0,0,0,0.1,0c0.1,0,0.2,0,0.3,0
		C12.6,24,12.7,24,12.8,24"/>
	<path class="st2" d="M10.1,18.8c0.1,0,0.2,0,0.3,0C10.2,18.7,10.1,18.7,10.1,18.8C10,18.7,10,18.8,10.1,18.8"/>
	<path class="st3" d="M23.4,15.5C23.3,15.5,23.3,15.5,23.4,15.5C23.4,15.6,23.4,15.6,23.4,15.5C23.4,15.5,23.5,15.5,23.4,15.5
		C23.4,15.5,23.4,15.5,23.4,15.5"/>
	<path class="st3" d="M14.3,18.5c-0.1,0-0.2,0-0.4,0c-0.2,0-0.3,0-0.3,0.1c0,0,0.1,0,0.2,0c0.1,0,0.1,0,0.2,0c0,0,0,0,0.1,0
		C14,18.6,14.1,18.6,14.3,18.5c0.2,0.1,0.4,0.1,0.7,0.1c0.5,0,1.1-0.1,1.6-0.2C15.8,18.4,15.1,18.5,14.3,18.5
		C14.3,18.5,14.3,18.5,14.3,18.5"/>
	<path class="st3" d="M11.8,18.5c-0.1,0.1,0.1,0,0.1,0C11.9,18.5,11.8,18.5,11.8,18.5"/>
	<path class="st3" d="M21.1,18.3c0.1,0,0.1,0.1,0.2,0c0,0,0,0,0,0C21.2,18.2,21.2,18.3,21.1,18.3"/>
	<path class="st3" d="M21.3,18.4c0,0,0.2,0,0.2,0C21.4,18.3,21.3,18.3,21.3,18.4"/>
	<path class="st3" d="M14.2,16.6c0.1-0.1,0.2-0.4,0.2-0.4C14.3,16.3,14.1,16.6,14.2,16.6"/>
	<path class="st3" d="M22.5,12.9c0,0-0.2,0.1-0.1,0.1C22.4,13,22.5,13,22.5,12.9C22.6,12.9,22.7,12.9,22.5,12.9
		C22.6,12.8,22.6,12.9,22.5,12.9"/>
	<path class="st3" d="M22.7,12.8C22.7,12.7,22.7,12.8,22.7,12.8c0.1,0,0.1,0,0.1,0c0,0,0,0,0,0c0,0,0,0,0,0c0,0,0.2,0,0.2-0.1
		c0,0,0-0.1,0-0.2C22.9,12.5,22.7,12.6,22.7,12.8C22.6,12.7,22.6,12.8,22.7,12.8"/>
	<path class="st3" d="M22.6,12.6C22.6,12.6,22.6,12.6,22.6,12.6C22.6,12.5,22.6,12.5,22.6,12.6C22.5,12.6,22.6,12.6,22.6,12.6"/>
	<path class="st3" d="M23.8,14.9C23.7,14.9,23.7,14.9,23.8,14.9c-0.1,0-0.1,0-0.2,0c0,0-0.1,0-0.1,0c-0.1,0-0.1,0-0.2,0
		c0,0-0.1,0-0.1,0c0,0,0,0.1,0,0.1c0.1,0.1,0.1,0.1,0.2,0c0,0,0,0.1,0,0.1c0,0.1,0,0.1-0.2,0.1c0,0,0,0-0.1,0c0,0-0.1,0-0.1,0
		c0,0,0-0.1,0-0.1c0,0,0,0,0,0c0.1,0,0.1-0.1,0.1-0.2c0,0,0,0,0,0c0.1-0.1,0-0.2-0.1-0.3c0,0,0-0.1,0-0.1c0.1-0.1,0-0.2,0-0.2
		c0,0,0,0,0,0c0.1,0,0.1,0,0.1,0c0.1,0,0.1-0.1,0,0c0,0-0.1,0-0.2,0c0-0.1,0-0.1-0.1-0.2c0,0,0-0.1,0-0.1c0.1-0.1,0.1-0.2,0-0.2
		c0,0,0,0,0-0.1c0.1,0,0.1,0,0.1,0c0,0,0-0.1,0-0.1C23,13.5,23,13.4,23,13.3c0,0,0-0.1,0-0.1c0,0,0,0-0.1,0.1c0,0.1-0.1,0.1-0.1,0.1
		c0,0,0,0-0.1,0c0.1,0,0.2-0.1,0.3-0.2c0,0,0-0.1-0.1,0c-0.1,0-0.2,0.1-0.3,0.2c0,0-0.1-0.1-0.1-0.1c0,0-0.1-0.1-0.1-0.1
		c0.1,0,0.1-0.1,0.2-0.1c0,0,0.2-0.1,0.2-0.1c0,0,0.1,0,0.1,0c0,0,0-0.1,0-0.1c0,0-0.1,0.1-0.1,0.1c0,0,0,0-0.1,0c0,0,0,0-0.1,0
		c-0.1,0-0.2,0.1-0.4,0.1c0,0,0.1-0.1,0-0.1c0,0-0.2,0-0.4,0.1c-0.1,0-0.2,0-0.2,0c0,0-0.1,0,0,0c0.1,0,0.3-0.1,0.3,0
		c0.1,0,0.1,0,0.1,0c0,0-0.1-0.1,0-0.1c0,0,0.2,0,0.2-0.1c0-0.1,0-0.1,0-0.1c-0.1,0-0.2,0.1-0.3,0.1c0,0-0.2,0-0.2,0
		c0,0-0.1,0-0.2,0.1c0.2-0.1,0.5-0.1,0.7-0.2c0.1,0,0.2-0.1,0.3-0.2c0,0-0.1,0-0.1,0c-0.2,0.2-0.4,0.2-0.6,0.2c-0.1,0-0.2,0-0.3,0
		c0,0,0,0,0,0c0,0.1-0.1,0.1-0.2,0.1c0,0-0.1,0-0.1,0c-0.1,0-0.2,0-0.3,0c0,0,0,0,0,0c0,0,0,0,0,0c0,0,0,0,0,0
		C20.8,13,20.7,13,20.6,13c0,0,0,0,0,0c0,0,0,0,0,0c0,0-0.1,0-0.2,0c0,0,0,0,0,0c0,0,0,0,0,0c0,0,0,0,0,0c0,0,0,0,0,0c0,0,0,0,0,0
		c0,0,0,0,0,0c0,0,0,0,0,0h0c0,0,0,0,0,0c0,0,0,0,0,0c0,0,0,0,0,0c0,0,0,0,0,0c0,0,0,0,0,0c0,0,0,0,0,0c0,0,0,0,0,0c0,0,0,0,0,0
		c0,0-0.1,0-0.1,0c0,0,0,0,0,0c0,0,0,0,0,0c0,0,0,0,0,0c0,0,0,0,0,0c0,0,0,0,0,0c0,0,0,0-0.1,0c0,0,0,0-0.1,0c-0.1,0-0.3,0-0.4,0
		c0,0-0.1,0-0.1,0.1c0,0,0,0,0,0c0,0,0,0,0,0c0,0,0,0,0,0c0,0,0,0,0,0c0,0,0,0,0,0c0,0,0,0,0,0c0,0,0,0.1-0.1,0.1
		c0,0-0.1,0.1-0.1,0.1c0,0-0.1,0.1-0.1,0.1c0,0,0,0,0,0c-0.2,0.2-0.5,0.5-0.8,0.7c-0.1,0.1-0.2,0.2-0.3,0.2c-0.1,0-0.1,0.1-0.2,0.1
		c0,0-0.1,0-0.1,0.1c0,0,0,0,0,0c0,0,0,0,0,0c0,0,0,0,0,0c0,0,0,0,0,0c0,0,0,0,0,0c0,0,0,0,0,0h0c0,0,0,0,0,0c0,0,0,0,0,0
		c0,0,0,0,0,0c0,0.1,0,0.1-0.1,0.1c-0.1,0-0.1,0.1-0.1,0.1c0.1,0.2,0.2,0.5,0.3,0.7c0.1,0.2,0.1,0.3,0.2,0.5
		c0.1,0.1,0.1,0.2,0.2,0.3c0.1,0.2,0.2,0.5,0.5,0.6c0,0,0.1,0.1,0,0.1c0,0-0.1,0-0.1,0c-0.1,0-0.1,0-0.2,0c-0.1,0-0.2,0-0.3,0
		c-0.1-0.1-0.2-0.2-0.4-0.3c-0.1-0.1-0.3-0.3-0.5-0.3c-0.1-0.1-0.2-0.2-0.3-0.2c-0.2-0.1-0.4-0.2-0.6-0.3c-0.1-0.1-0.2,0-0.3,0
		c-0.3,0.2-0.6,0.5-1,0.6c-0.1,0-0.1,0.1-0.1,0.1c-0.1,0.2-0.3,0.3-0.6,0.4c0,0,0,0,0,0c-0.1,0.1-0.1,0.1-0.2,0.2
		c-0.1,0.1-0.2,0.1-0.2,0.1c0,0,0-0.1,0-0.1c0.1-0.1,0.1-0.3-0.1-0.4c0,0,0,0,0,0c0.1-0.1,0.1-0.2,0.1-0.2c0.1-0.1,0.2-0.3,0.2-0.4
		c0.2-0.3,0.3-0.6,0.4-1c0,0,0,0,0-0.1c0-0.2,0-0.2-0.1-0.3c0,0-0.1-0.1-0.1-0.1c-0.2-0.2-0.5-0.3-0.7-0.5c-0.2-0.1-0.4-0.3-0.6-0.5
		c0,0-0.1,0-0.1-0.1c-0.2-0.1-0.4-0.3-0.6-0.4c0.2-0.1,0-0.1,0-0.1c0,0,0.1,0,0.1-0.1c0,0,0,0,0,0c-0.1,0-0.2,0-0.3,0c0,0,0,0,0,0
		c0,0,0.1,0,0.1,0c0.1,0,0,0.1,0,0.1c0,0-0.2-0.1-0.2-0.1c-0.1,0-0.1,0-0.2,0c0,0-0.1,0-0.2,0c0,0,0.3,0,0.3,0c-0.4,0-0.7,0-1.1,0
		c0,0,0,0,0.1,0c-0.4,0-0.9,0-1.3,0c-0.6-0.1-1.2,0-1.8,0c-0.1,0-0.3,0-0.4-0.1c0,0,0,0-0.1,0c-0.2,0.1-0.3,0-0.5,0.2
		c-0.1,0.1-0.3,0.2-0.4,0.3c-0.1,0-0.2,0.2-0.2,0.2c0,0.1,0,0.1-0.1,0.2c0,0,0,0,0,0c-0.1,0.2-0.3,0.3-0.5,0.4
		c-0.2,0-0.2,0.2-0.2,0.3c0,0.1,0,0.1,0.1,0c0.1-0.1,0.3-0.1,0.5-0.3c0,0,0.1,0,0.1-0.1c0.1-0.1,0.2-0.1,0.4-0.2
		c0.1-0.1,0.2-0.1,0.3,0c0.1,0,0.2,0.1,0.3,0c0,0,0,0,0,0c0,0.1,0.1,0.1,0.1,0.1c0.1,0.3,0.3,0.4,0.5,0.5c0,0,0,0,0,0c0,0,0,0,0,0
		c0,0,0,0,0,0.1v0c0,0,0,0,0,0c0,0,0,0,0,0c0,0,0,0,0,0c0,0,0,0,0,0c0,0,0,0,0,0c0.1,0.1,0.2,0.1,0.3,0.1c0.1,0.1,0.2,0,0.3,0
		c0.1,0,0.1,0,0.2-0.1c0,0,0,0,0,0c0,0,0,0,0,0c0,0,0,0,0,0c0,0,0.1,0,0.1,0c0,0,0.1,0,0.2,0.1c0,0.1,0,0.2,0,0.3c0,0,0,0-0.1,0
		c-0.1,0-0.2,0-0.3,0c0,0,0.1,0,0.1,0.1c0,0.1-0.1,0-0.1,0c0,0,0,0,0.1,0.1c0.1,0,0.2,0,0.3,0.1c0,0,0.1,0,0.1,0.1c0,0-0.1,0,0,0
		c0,0,0.1,0,0.1,0c0,0,0,0,0,0c0,0-0.1,0-0.1,0c0,0,0.1,0,0.1,0c0,0,0,0,0,0c0,0-0.1,0-0.1,0c-0.1,0-0.1,0-0.2,0c-0.1,0-0.2,0-0.2,0
		c0,0-0.1,0-0.1,0c0,0,0,0.1,0,0.1c0.1,0,0.2,0.1,0.3,0.1c0.1,0,0.2-0.1,0.1,0c0,0-0.1,0-0.1,0.1c0,0,0,0,0,0v0c0,0,0,0,0,0
		c0,0,0,0,0,0c0,0,0,0,0,0c0,0,0,0,0,0c0,0,0,0,0,0c-0.1,0.1-0.1,0.1,0,0.2c0,0-0.1,0-0.1,0.1c0.1,0,0.1,0,0.2,0
		c0,0.1-0.3,0.1-0.4,0.1c0,0,0,0.1,0,0.2c0,0.1,0.1,0.1,0.2,0.1c0.1,0.1,0.1,0.1,0,0.2c0.3,0,0.4,0,0.6,0c0,0-0.2,0.1-0.4,0.1
		c-0.1,0-0.1,0-0.1,0.2c0,0,0,0,0,0c0,0.1,0,0.1,0.1,0.1c0.1,0,0.1,0,0.3,0c-0.1,0-0.1,0-0.1,0c0,0-0.1,0-0.1,0c0,0,0,0,0,0
		c0,0,0,0,0,0c0,0,0,0,0,0c0,0,0,0,0,0h0c0,0,0,0,0,0c-0.1,0.1,0,0.2,0,0.3c0,0.1,0.1,0,0.1,0.1c0,0,0,0-0.1,0c-0.1,0-0.1,0-0.1,0.1
		c0,0.1,0.1,0.1,0.1,0.1c0.1,0,0.2,0,0.2,0.1c-0.1,0.1-0.3,0-0.4,0c0,0-0.1,0-0.1,0c0,0,0,0.1,0,0.1c0,0,0.1,0.1,0.1,0.1
		c0.3,0,0.6,0,0.9,0c0.4,0,0.7,0,1,0c0.1,0,0.2,0,0.3,0.1c0.3-0.1,0.6-0.1,1-0.1c0,0-0.1,0-0.1,0.1c0.2,0,0.4,0,0.6,0
		c0.2,0,0.2,0,0-0.1c-0.2,0-0.4,0-0.4,0c0,0,0.2,0,0.4,0c0,0,0.1,0,0.1,0c0,0-0.1,0-0.2,0c-0.1,0-0.2,0-0.3,0
		c-0.4,0-0.9-0.1-1.3-0.2c0.7,0.2,1.4,0.2,2,0.2c-0.1,0-0.2,0-0.3,0c0,0,0,0,0,0c0,0,0,0-0.1,0c-0.1,0-0.1,0-0.1,0c0,0,0.2,0,0.2,0
		c0,0,0,0,0,0c0,0,0.1,0,0.1,0c0.2,0,0.4,0.1,0.6,0c0,0,0,0,0.1,0c0.2,0,0.3,0,0.4-0.1c0.1,0,0.1,0,0.2,0c0,0,0.1,0,0.2,0
		c0.1,0,0.3,0,0.4,0c0.5,0,0.9,0,1.4-0.1c0,0,0,0,0,0c-0.1,0,0,0,0,0c0.3,0,0.6,0,0.5,0c0,0-0.2,0-0.2,0c0.2,0,0.5,0,0.7-0.1
		c-0.1,0.1-0.2,0.1-0.3,0.1c0.2,0.1,0.4,0,0.6,0c0.3,0,0.6-0.1,0.8-0.1c0,0,0.1,0,0.1,0c0,0,0.1,0,0.1,0c0,0,0,0,0,0
		c0.1,0,0.2,0,0.3,0c0,0,0.1,0,0.1,0c0.1,0,0.2,0,0.3,0h0c0.1,0,0.1,0,0.2,0c0,0,0,0,0,0c0,0,0,0,0,0h0c0.1,0,0.2,0,0.3,0
		c0,0,0,0,0.1,0c0.1,0,0.2,0,0.3,0h0c0.1,0,0.2,0,0.3,0c0.3,0,0.6,0,0.8,0c0.1,0,0.5,0,0.7,0c0.2,0,0.4,0,0.5,0c0,0,0,0.1-0.2,0.1
		c-0.1,0-0.3-0.1-0.5-0.1c0,0,0,0.1,0.1,0.1c0,0,0.1,0.1,0.1,0c0.1-0.1,0.2,0,0.4,0c0,0,0,0,0,0c0.1-0.1,0.1,0,0.2,0
		c0.1,0,0.1,0,0.2,0.1c0-0.2,0-0.4-0.1-0.6c0,0,0,0,0-0.1c0-0.1,0-0.1-0.1-0.2c0,0,0.1,0,0.1,0c0.2,0,0.5,0,0.5-0.1
		c-0.5,0-0.9,0-1.4-0.1c-0.1,0-0.1,0-0.1,0c0.4,0,0.7,0,1,0c0.1,0,0,0,0,0c-0.1,0-0.2,0-0.2,0h0.3c0.1,0,0.1,0,0,0
		c-0.1,0-0.1,0-0.1,0h0.4c0,0-0.1,0-0.1-0.1c0,0,0.1,0,0.1-0.1c0,0-0.1,0-0.1,0c0,0,0,0-0.1,0c-0.1-0.1-0.1-0.1-0.2-0.1
		c-0.1,0-0.2,0-0.2-0.1c0.1,0,0.2,0.1,0.3,0c0.1,0,0,0,0,0c-0.3,0-0.5,0-0.8,0c-0.2,0-0.2-0.1-0.2-0.1c0.2,0,0.5,0,0.7,0
		c0,0-0.1,0-0.1-0.1c0.1,0,0.3,0,0.4,0c0-0.1-0.2,0-0.2,0c0,0-0.1,0-0.1,0c0,0,0,0,0.1,0c0.1,0,0.1,0,0.2,0c0.1,0,0.2,0,0.2,0
		c0,0,0,0,0,0c0,0,0,0,0,0c0,0-0.1,0-0.1,0c-0.2,0-0.8,0-0.8-0.1c0,0,0,0,0,0c0,0,0.1,0,0.1,0c0,0,0.2,0,0.2,0c0-0.1,0-0.1-0.2,0
		c0,0,0,0-0.1,0c0,0,0,0,0,0c0,0,0,0,0,0c0,0-0.1,0-0.1,0c0,0,0,0-0.1,0c0,0,0,0,0,0c0,0,0.1,0,0.2-0.1c0,0,0,0,0,0c0,0,0,0,0,0
		c0,0,0,0,0,0c0,0,0,0,0,0c0,0,0,0,0,0c0,0,0-0.1,0-0.1c0,0,0,0-0.1,0c0,0,0,0,0,0c0,0-0.1,0-0.1,0h0c0,0-0.1,0-0.1,0c0,0,0,0,0,0
		c0,0,0,0,0,0c0,0,0,0,0,0c0,0,0,0,0,0c0,0,0,0,0,0c0,0,0,0,0,0c0,0,0,0,0,0c0,0,0,0,0,0c0,0,0,0,0,0c0,0-0.1,0-0.1,0
		c0,0,0-0.1,0-0.1c0-0.1,0.1,0,0.1,0c0,0,0.1,0,0.1,0c0.1,0,0.1-0.1,0.1-0.1c0-0.1,0.1-0.2,0.1-0.3c0.1,0,0.2-0.2,0.2-0.2
		c0-0.2,0-0.2,0.2-0.2c0.1,0,0.2,0,0.3,0c0,0,0.1,0,0.1,0c0-0.1,0.2,0,0.2-0.1c0,0,0,0,0.1,0c0,0,0,0,0,0c0,0,0,0,0,0c0,0,0,0,0,0
		c0,0,0,0,0,0c0,0,0,0,0,0c0,0,0,0,0,0c0,0,0,0,0,0c0,0,0,0,0,0c0,0,0,0,0,0c0,0,0,0,0,0c0,0,0-0.1,0-0.1c0,0,0,0,0,0
		c0.1-0.1,0.2-0.1,0.3-0.1c0.1,0,0.1,0,0.1-0.1c0-0.1-0.1-0.3,0-0.3C23.6,15,23.7,15,23.8,14.9C23.7,15,23.8,15,23.8,14.9
		C23.8,15,23.8,14.9,23.8,14.9 M10.4,18.4c0,0-0.1,0-0.1,0c-0.1,0-0.2,0-0.2,0c0,0,0.2-0.1,0.4-0.1C10.4,18.3,10.5,18.3,10.4,18.4
		C10.5,18.4,10.4,18.4,10.4,18.4 M13.8,18.4c-0.1,0-0.2,0-0.2,0c-0.1,0-0.2,0-0.3,0c0.1,0,0.1,0,0.2,0
		C13.6,18.4,13.8,18.4,13.8,18.4c0.1-0.1,0.2-0.1,0.2-0.1C13.9,18.4,13.9,18.4,13.8,18.4 M19.7,13C19.7,13,19.6,13,19.7,13
		C19.6,13.1,19.6,13.1,19.7,13C19.6,13.1,19.6,13.1,19.7,13C19.6,13.1,19.6,13.1,19.7,13c-0.1,0.1-0.1,0.1-0.1,0.1c0,0,0,0,0,0
		c0,0,0,0,0,0c0,0,0,0,0,0c0,0,0,0,0,0c0,0,0,0,0,0c0,0,0,0,0,0C19.6,13,19.6,13,19.7,13C19.7,13,19.7,13,19.7,13 M22.1,13.3
		C22.1,13.3,22.1,13.3,22.1,13.3c0-0.1,0.2-0.1,0.2-0.1c0,0,0.1-0.1,0.1,0C22.4,13.4,22.2,13.4,22.1,13.3 M22.9,13.5
		C22.9,13.5,22.9,13.6,22.9,13.5c-0.1,0.1-0.1,0.1-0.1,0C22.8,13.5,22.8,13.4,22.9,13.5C22.9,13.5,22.9,13.5,22.9,13.5"/>
	<path class="st3" d="M11.6,18.6c-0.1,0-0.1,0-0.2,0h0c0,0,0,0,0,0c-0.1,0-0.1,0-0.2,0c-0.8,0-1.6,0-2.4,0.1c0,0,0.1,0.1,0.1,0
		c0.1,0,0.2,0,0.3,0c0.3,0.1,0.6,0,0.8,0c0,0,0,0,0,0c0.1-0.1,0.2,0,0.3,0c0.3,0,0.6,0,1,0c0,0,0,0,0,0c0,0,0,0,0.1,0
		C11.4,18.7,11.5,18.7,11.6,18.6c0.1,0.1,0.1,0.1,0.1,0C11.7,18.6,11.7,18.6,11.6,18.6"/>
	<path class="st4" d="M14,18.9c0.1,0.1,0.2,0,0.3,0L14,18.9C14,18.9,14,18.9,14,18.9L14,18.9C14,18.9,14,18.9,14,18.9
		C14,18.9,14,18.9,14,18.9"/>
	<path class="st4" d="M13.6,23.9C13.6,23.9,13.5,23.9,13.6,23.9c-0.1,0.1-0.1,0.1,0,0.1C13.6,24,13.6,24,13.6,23.9
		C13.7,23.9,13.6,23.9,13.6,23.9"/>
	<path class="st4" d="M10.1,18.8c0.1,0,0.2,0,0.3,0C10.2,18.7,10.1,18.7,10.1,18.8C10,18.7,10,18.8,10.1,18.8"/>
	<path class="st4" d="M20.7,19C20.7,19,20.7,19,20.7,19C20.7,19,20.6,19,20.7,19c-0.1,0-0.1,0-0.2,0c0,0,0,0,0,0c-0.1,0-0.1,0-0.2,0
		c0.1,0,0.1,0,0.2,0C20.6,18.9,20.6,18.9,20.7,19C20.7,19,20.7,18.9,20.7,19c0-0.1-0.1-0.1-0.2-0.1c-0.3,0-0.7,0-1-0.1
		c-0.7,0-1.4,0-2.1,0c-0.2,0-0.3,0.1-0.5,0c0,0-0.1,0-0.1-0.1c1.2,0,2.3-0.2,3.4-0.2c-0.2,0-0.4,0-0.6,0c0-0.1-0.1,0-0.2,0h-0.6
		c0.1,0,0.1,0,0.2,0c-1.1,0-2.1,0.1-3.2,0.2c1-0.2,1.9-0.2,2.9-0.3c-0.2,0-0.4,0-0.5,0c-1,0.1-2.1,0.2-3.1,0.3
		c-0.2,0-0.5,0.1-0.7,0.3c-0.1,0-0.1,0.1-0.2,0.1c-0.1,0-0.3,0-0.4,0c0-0.1,0.1-0.1,0.1-0.1c-0.2,0-0.4,0-0.5,0c-0.1,0-0.2,0-0.3,0
		c-0.1,0-0.2,0-0.3,0c0.1,0,0.2,0,0.3,0c0.1,0,0.2,0,0.3-0.1c-0.5,0-1,0-1.5,0c-0.3,0-0.6,0-0.9,0c-0.1,0-0.2,0-0.2,0
		c0.2,0,0.3,0,0.5,0c0,0,0,0,0,0c0,0,0,0-0.1,0c-0.2,0-0.3,0-0.5,0c-0.2,0-0.3,0-0.5,0.1c0,0-0.1,0-0.1,0c0,0.1-0.1,0.1-0.1,0.1
		c-0.2,0-0.4,0-0.6,0.1c0,0-0.1,0-0.1,0c0,0,0,0,0,0c-0.1,0-0.1-0.1-0.1-0.1c-0.1,0-0.1,0.1-0.1,0.1l0.2,0c0.1,0,0.2,0.1,0.4,0.1
		c-0.2,0-0.2,0.1-0.4,0.2c0,0,0,0,0,0c0,0,0,0,0,0c0,0,0.1,0,0.1,0c0.1,0,0.1,0,0.2,0c0.1,0,0.2,0,0.2,0c0,0,0,0-0.1,0
		c-0.1,0-0.2,0-0.2,0c0,0,0,0,0,0c0,0,0.1,0,0.1,0c0.1,0,0.2,0,0.2,0c0,0,0,0,0,0c0,0-0.1,0-0.1,0c0,0-0.1,0-0.1,0c0,0-0.1,0,0,0
		c0,0,0.1,0,0.1,0c0,0,0,0,0.1,0c0,0,0,0,0.1,0c0.2,0,0.3,0,0.5,0c0.1,0,0.3,0,0.4,0c0.2,0,0.4,0.1,0.6,0.1c0.4,0,0.8,0,1.1,0
		c0.2,0,0.4,0,0.6,0c-0.1,0-0.1,0-0.2,0c0,0,0,0,0,0c0.7,0,1.4,0,2.1-0.1c0,0,0,0-0.1,0c-0.6,0.1-1.3,0.2-1.9,0.2
		c-0.2,0-0.4,0-0.6,0c0-0.1-0.1,0-0.1,0c-0.4-0.1-0.8,0-1.2,0c-0.1,0-0.2,0-0.3,0c0.3,0,0.7,0,1,0c0.1,0,0.1,0,0.2,0
		c-0.4,0-0.8,0.1-1.2,0.1c-0.1,0-0.2,0-0.2,0c-0.1,0-0.2,0-0.2,0c0,0.1,0,0,0.1,0c0,0,0.1,0,0.1,0c0.1,0,0.2,0.1,0.3,0.1
		c-0.1,0-0.1,0.1-0.1,0.1c0,0,0,0,0,0.1c0,0,0.1,0.1,0.1,0.1c0,0,0.1,0,0.1,0c0,0,0-0.1,0-0.1c0,0-0.1,0-0.1,0c0,0,0,0,0-0.1
		c0,0,0.1,0,0.1,0c0,0.1,0.1,0.1,0,0.1c0,0,0,0.1,0,0.1c0.1,0.1,0.1,0.1,0,0.1c0,0,0,0-0.1,0c0,0,0,0,0,0c0,0,0.1,0,0.1,0
		c0,0.1,0,0-0.1,0.1c0,0,0,0,0,0c0,0.1,0,0.1-0.1,0.1c-0.2,0-0.5,0.1-0.7,0.1c-0.1,0-0.1,0-0.2,0.1c-0.1,0.1-0.2,0.1-0.3,0.2
		c-0.1,0-0.1,0.1-0.1,0.2c0.1-0.1,0.1-0.1,0.2,0c0.1,0.1,0.1,0.1,0.2,0.1c0.1,0,0.1,0,0.2,0c-0.1,0-0.2,0-0.3,0.1
		c0.3,0,0.5,0,0.7-0.1c-0.2,0.1-0.4,0.1-0.6,0.1c-0.2,0-0.5,0.1-0.5,0.1c0,0,0,0.1,0,0.1c0,0,0.1,0,0.2,0c0.1,0,0.1,0,0.2,0.1
		c0,0,0.1,0,0.1,0c0.1,0,0.3-0.1,0.4-0.1c0.4,0,0.9-0.1,1.3-0.1c0.2,0,0.4,0,0.7,0c0,0,0,0,0.1,0c0,0,0,0,0,0c0,0,0,0,0,0
		c-0.4,0-0.8,0.1-1.2,0.1c-0.2,0-0.4,0-0.6,0.2c1.2-0.2,2.4-0.1,3.6-0.3c0.1,0,0.1,0,0.2,0c0.2,0,0.6-0.1,0.6-0.1c0,0-0.4,0-0.5,0.1
		c-0.2,0-0.3,0-0.4,0c-0.1,0-0.5,0-0.7,0c-0.3,0-0.6,0-0.7-0.1c0,0,0.6-0.1,1-0.1c0.3,0,0.5,0,0.8,0c0.4,0,0.7-0.1,1.1-0.1
		c0.2,0,0.5-0.1,0.7-0.1c0.2,0,0.3,0,0.5,0c-0.3-0.1-0.6,0-0.8,0c-0.3,0-0.6,0-0.9,0c-0.3,0-0.6,0.1-0.8,0.1
		c0.3-0.1,0.5-0.1,0.8-0.1c0.2,0,0.3-0.1,0.5-0.1c0.2,0,0.5,0,0.7,0c0.2,0,0.4,0,0.4,0c0,0,0,0,0,0c0,0-0.1,0-0.1,0c0,0,0.2,0,0.2,0
		c0.1,0,0,0-0.1,0c0,0,0,0-0.1,0c0,0,0,0,0,0c-0.2,0-0.4,0-0.6,0c0.3,0,0.7,0,1.1,0c0.1,0,0.1,0,0.2,0c0.1,0,0.1,0,0,0
		c0,0-0.1,0-0.2,0c0,0-0.1,0-0.1,0c0,0,0,0,0,0c0,0,0.3,0,0.3,0c0,0,0-0.1,0-0.1c0,0-0.1,0-0.2-0.1c-0.1,0-0.3,0-0.3-0.1
		c0.1,0,0.1,0,0.1,0c0,0-0.1,0-0.1-0.1c0-0.1,0.1,0,0.2,0c0,0,0-0.1,0-0.1c0,0,0.1,0,0.1,0c0.5-0.1,1-0.1,1.6-0.2
		c0.1,0,0.3-0.1,0.4,0c0.1,0,0.2-0.2,0.3-0.1c0,0,0,0,0,0c0.1-0.1,0.2-0.1,0.3-0.1c0.5,0,1-0.1,1.4,0c0,0,0.1,0,0.1-0.1h-0.2
		c-0.8,0-1.6,0-2.5,0.1c-0.8,0-1.6,0.1-2.3,0.2c-0.2,0-0.2,0-0.2-0.1c0.5-0.1,0.9-0.2,1.4-0.2c0.4,0,0.9-0.1,1.3-0.1
		c0.1,0,0.2,0,0.2-0.1c0,0,0-0.1,0.1-0.1c0.2,0,0.4,0,0.6,0c0,0,0,0,0,0c0,0,0,0,0,0c-0.1,0-0.2,0-0.3,0c0.2,0,0.3,0,0.5,0
		c0.1,0,0.2,0,0.2,0c0,0,0,0,0,0c0,0-0.1,0-0.2,0c0,0,0,0,0,0c0.1,0,0.2,0,0.2,0c0,0,0,0,0,0c0-0.1,0.1,0,0.1,0c0.5,0,1.1,0,1.6,0.1
		c0,0,0.1,0,0.1,0c0,0-0.1,0-0.1,0c-0.5,0-1-0.1-1.5-0.1c-0.1,0-0.1,0-0.2,0c0,0-0.1,0-0.1,0c0,0,0,0,0.1,0c0.1,0,0.1,0,0.2,0
		c0,0-0.1,0-0.1,0c-0.3,0-0.6-0.1-0.9,0c0,0,0,0-0.1,0c0,0-0.1,0-0.1,0c-0.1,0-0.2,0-0.2,0c-0.2,0-0.5,0-0.7,0c-0.4,0-0.8,0-1.2,0.1
		c0,0,0-0.1,0.1-0.1c0.3-0.1,0.6-0.1,1-0.1c0.4,0,0.8-0.1,1.1-0.1c0,0,0.1,0,0.1,0c0,0,0,0,0,0c0,0-0.1,0-0.1,0
		c0.2-0.1,0.4,0,0.5-0.1c0,0,0.1,0,0.1,0c0,0.1,0.1,0.1,0.2,0.1c0.2,0,0.4,0,0.7,0c0.2,0,0.4,0,0.6,0.1c0,0,0,0,0,0
		c0.1,0,0.2-0.1,0.2-0.1c0,0,0.1,0,0.1,0c0.1,0,0.2,0,0.2,0.1c0,0,0,0.1,0.1,0.1c0,0,0-0.1,0-0.1c0,0-0.2,0-0.3-0.1c0,0,0,0,0,0
		c-0.2-0.1-0.5-0.1-0.7-0.1c-0.1,0-0.1,0-0.2-0.1c-0.1,0-0.1,0-0.1-0.1c0.5,0,1,0.1,1.6,0.1C21.5,19.1,21.1,19.1,20.7,19 M16.3,18.9
		c-0.3,0-0.7,0.1-1,0.1c-0.2,0-0.4,0-0.6,0c-0.1,0-0.2,0-0.3,0c0.8,0,1.6-0.2,2.4-0.2C16.6,19,16.5,18.9,16.3,18.9 M18,18.9
		c-0.2,0-0.5,0-0.7,0c0.1,0,0.3,0,0.4,0c0.2,0,0.4,0,0.7,0c0,0,0.1,0,0.1,0C18.4,18.9,18.2,18.9,18,18.9 M20.2,18.9
		c-0.1,0-0.2,0-0.3,0c-0.1,0-0.2,0-0.3,0c-0.3,0-0.7,0-1,0c0.1,0,0.2,0,0.3,0c0.2,0,0.5,0,0.7,0C19.8,18.9,20,18.9,20.2,18.9
		C20.2,18.9,20.2,18.9,20.2,18.9"/>
	<path class="st4" d="M9.9,22.8C9.8,22.8,9.9,22.8,9.9,22.8c0,0.1,0.4-0.1,0.4-0.1C10.3,22.7,10,22.7,9.9,22.8"/>
	<path class="st4" d="M9.3,21.6C9.4,21.6,9.3,21.4,9.3,21.6C9.2,21.5,9.2,21.7,9.3,21.6"/>
	<path class="st4" d="M16.7,21.3C16.6,21.3,16.6,21.3,16.7,21.3C16.6,21.4,16.7,21.4,16.7,21.3C16.8,21.4,16.7,21.3,16.7,21.3"/>
	<path class="st4" d="M22,19.2c0,0,0.2,0,0.2,0C22.2,19.2,22.1,19.2,22,19.2"/>
	<path class="st4" d="M10.5,20.8C10.5,20.8,10.4,20.7,10.5,20.8C10.4,20.8,10.3,20.9,10.5,20.8C10.5,20.9,10.5,20.8,10.5,20.8"/>
	<path class="st4" d="M10.6,20c-0.2-0.1-0.3,0-0.2,0C10.3,20,10.6,20,10.6,20"/>
	<path class="st4" d="M15.9,21.5c-0.1,0-0.2,0.1-0.3,0.1c-0.1,0-0.3,0-0.4,0c-0.2,0-0.5,0.1-0.7,0.1c-0.4,0.1-0.9,0.1-1.3,0.2
		c-0.8,0.1-1.6,0.1-2.3,0.2c-0.1,0-0.2,0-0.3,0.1c-0.1,0.1-0.2,0.1-0.3,0.2c0,0-0.1,0-0.1,0.1c0,0,0.1-0.1,0.2,0
		c0.1,0.2,0.1,0.1,0.2,0.1c0,0,0.1,0,0.1,0c0,0,0.1,0,0.1,0c0,0,0,0,0,0c0,0-0.1,0-0.1,0c-0.1,0-0.1,0.1-0.1,0.1c0,0,0.1,0,0.1,0
		c0,0,0,0,0,0h0.1c0,0,0,0,0,0c-0.1,0-0.2,0.1-0.3,0.1c-0.1,0-0.2,0.1-0.1,0.1c0.1,0,0.1,0,0.1,0c0,0,0.1,0,0.1,0
		c0.1,0.1,0.2,0.1,0.3,0.1c0.1,0,0.2,0,0.3,0c0,0,0.1,0,0.1,0c0,0,0,0-0.1,0c0,0-0.1,0-0.1,0c0,0,0,0-0.1,0c0,0,0,0,0,0c0,0,0,0,0,0
		c0,0,0.1,0,0.1,0c0,0,0,0,0,0c0,0,0,0,0,0c-0.1,0-0.2,0-0.3,0.1c0,0-0.1,0-0.1,0c0,0,0,0.1,0,0.1c0.1,0,0.2,0,0.2-0.1c0,0,0,0,0,0
		c0.1,0,0.2,0.1,0.2,0.2c0,0,0,0.1,0,0.1c0,0,0,0.1,0,0.1c0,0.1,0,0.1-0.1,0.1c0,0,0-0.1,0-0.1c0,0,0,0,0-0.1c0-0.1,0-0.1-0.1-0.1
		c-0.1,0-0.1,0.1-0.1,0.1c0,0,0.1,0.3,0.2,0.3c0,0,0.1,0,0.1,0c0,0,0,0,0,0c0,0,0.1,0,0.1,0c0.1,0,0.3,0,0.4,0c0,0,0.1,0,0.1,0.1
		c0,0.1-0.1,0-0.1,0c-0.1,0-0.3,0-0.2,0c0.1,0.1,0.1,0.1,0.1,0.2c-0.1,0.1,0,0.1,0,0.1c0.1-0.1,0.1-0.1,0.1,0c0,0,0,0,0,0
		c0,0,0,0,0,0c0,0,0,0,0,0c0,0,0,0,0,0c0,0-0.1,0-0.1,0c0,0,0,0,0,0c0,0,0.1,0,0.1,0c0,0,0,0,0,0c0,0,0.1,0,0.1,0c0,0,0,0,0,0
		c0,0.1,0,0.1,0.1,0.1c0.1,0,0.3-0.1,0.4-0.1c0,0,0,0,0,0c0,0,0,0-0.1,0c-0.1,0-0.3,0-0.4,0.1c0.1-0.1,0.3-0.1,0.4-0.1
		c0,0,0.1,0,0.1,0c0.1,0,0.1,0,0.2,0c0.2,0,0.4,0,0.6,0c0.2,0,0.2-0.1,0.1-0.3c0,0,0-0.1-0.1-0.1c0.1,0,0.2,0,0.3,0c0,0,0.1,0,0,0
		c0,0.1,0,0.1,0.1,0.1c0.1,0,0.2,0,0.2-0.1c0.1-0.1,0.2-0.1,0.3-0.1c0.2,0,0.3,0,0.5,0c0.2,0,0.4,0,0.5-0.1c0,0,0,0,0.1,0
		c0,0,0.1,0,0.1,0c0,0,0.1,0,0.1,0c0-0.1-0.1,0-0.1,0c-0.2,0-0.3,0-0.5,0.1c0,0-0.1,0-0.2,0c0.1,0,0.2,0,0.3-0.1c0,0,0.1,0,0.1-0.1
		c0-0.1,0.1-0.1,0.2-0.1c0.2-0.1,0.4-0.1,0.6-0.2c0,0,0.1-0.1,0.1-0.1c0-0.1-0.1,0-0.1,0c-0.2,0-0.3,0.1-0.5,0c-0.1,0-0.1,0-0.2,0
		c-0.2,0-0.5,0.1-0.8,0c0.3-0.1,0.6-0.1,0.8-0.2c0,0,0.1,0,0.1,0c0-0.1,0.1-0.1,0.1-0.1c0,0,0.1,0,0.1-0.1c0,0,0.1,0,0.1,0
		c0,0,0,0-0.1,0c-0.1,0-0.2,0.1-0.3,0.1c-0.2,0-0.3,0.1-0.5,0.1c0.1,0,0.2-0.1,0.4-0.1c0,0,0.1,0,0.1-0.1c0-0.1,0.1-0.1,0.1-0.1
		c0.2-0.1,0.4-0.2,0.6-0.3C15.9,21.6,16,21.6,15.9,21.5C16,21.5,16,21.5,15.9,21.5C16,21.4,16,21.5,15.9,21.5"/>
	<polyline class="st5" points="20.3,13 20.3,13 20.3,13 20.3,13 20.3,13 	"/>
	<polyline class="st5" points="20.1,13 20.1,13 20.1,13 	"/>
	<polyline class="st5" points="19.5,12.9 19.5,12.9 19.5,12.9 19.5,12.9 	"/>
	<path class="st5" d="M23.8,10.7c0.3-0.1,0.5-0.2,0.8-0.3c0.1,0,0.2-0.1,0.3-0.1c0,0-0.3,0-0.4,0c-0.1,0-0.2,0-0.2,0
		c-0.2,0.1-0.5,0.2-0.7,0.3c0,0,0,0,0,0c0-0.1,0.1-0.2,0.1-0.4c0,0,0,0,0,0c0.1,0,0.1,0,0.2-0.1c0.3-0.1,0.7-0.3,1-0.4
		c0,0,0.1,0,0.1-0.1c-0.1,0-0.1,0-0.2,0c-0.1,0-0.2,0.1-0.3,0.1c-0.1,0-0.2,0.1-0.4,0.1c-0.1,0-0.2,0.1-0.4,0.1c0,0-0.1,0-0.1,0
		c0,0,0-0.1,0.1-0.1c0,0,0.1,0,0.1,0c0.3-0.1,0.1-0.1,0.1-0.1c0,0,0-0.1,0.1-0.1c0,0,0.1,0,0.1,0c0-0.1-0.1,0-0.1,0c0,0,0,0,0,0
		c0,0,0.1,0,0.1,0c0.1-0.1-0.1,0-0.1,0c0,0,0-0.1,0.1-0.1c0,0,0,0,0,0c0,0,0,0,0-0.1c0,0,0,0,0,0c0,0-0.1,0-0.1,0
		c-0.1,0-0.2,0-0.3,0.1c-0.1,0.1-0.2,0.1-0.3,0.1c0,0,0,0,0,0c0,0.1-0.1,0.1-0.2,0.1c-0.1-0.1-0.1-0.1-0.3,0c0,0-0.1,0.1-0.1,0
		c0,0-0.3,0-0.4,0c-0.2,0-0.4,0-0.6,0c-0.2,0-0.4,0.1-0.5,0.1c-0.2,0-0.4,0-0.6,0c0.2,0,0.6-0.1,0.9-0.2c-0.1,0-0.1,0-0.2,0
		c-0.3,0-0.5,0.1-0.7,0.1c0.1,0,0.3-0.1,0.4-0.1c-0.1,0-0.3,0-0.4,0c0,0,0,0,0,0c0,0,0,0,0,0c-0.1,0-0.1,0-0.2,0c0,0-0.1,0-0.1,0
		c-0.2,0-0.4,0-0.6,0h0c0,0-0.1,0,0,0.1c0.1,0,0.5,0,0.3,0.1c-0.2,0.1-0.3,0-0.5-0.1c0,0-0.1,0,0,0.1c0,0,0,0.1,0,0.1c0,0,0,0,0-0.1
		c0,0,0,0,0,0c-0.1,0-0.1,0-0.2,0c-0.2,0-0.2,0-0.1-0.1c0.1,0,0.1,0,0.1,0c0,0,0,0,0,0c0,0-0.1,0-0.1,0c-0.4,0.1-0.8,0.1-1.1,0.1
		c0.1,0.1,0,0.2-0.1,0.2c-0.1,0-0.2,0-0.2-0.1c0-0.1,0,0-0.1,0c-0.2-0.1-0.5,0-0.7,0.1c-0.1,0-0.2,0-0.3,0.1c0,0-0.1,0-0.1,0
		c-0.3-0.1-0.6,0-1,0c-0.2,0-0.4,0-0.6,0c0,0.1-0.7,0.1-0.7,0.1c0,0-0.1,0-0.1,0c-0.1,0-0.1,0-0.2,0C13.9,10,14,10,14.1,9.9
		c-0.1,0-0.2,0-0.2,0c0.1,0,0.2,0,0.3,0c0.2,0,0.5,0,0.7,0c0,0-0.1,0-0.1,0c-0.1,0-0.2,0-0.3,0c-0.3,0-0.5,0-0.8,0c-0.1,0,0,0,0,0.1
		c0,0,0,0,0,0c0,0-0.1,0-0.2,0.1c-0.1,0-0.2,0-0.3,0c-0.3,0-0.6,0-0.9,0c-0.1,0-0.3,0-0.5,0c0-0.1,0.1,0,0.1-0.1c-0.4,0-0.4,0-0.7,0
		c-0.1,0,0.2-0.1,0.1-0.1c-0.2,0-0.2,0-0.3,0c0,0,0,0,0,0.1c0,0,0,0,0,0c0,0-0.1,0.1-0.1,0c0,0-0.1-0.1-0.1-0.1c0,0,0,0,0,0.1
		c0,0-0.1,0-0.1,0c-0.1,0-0.3,0.1-0.4,0.2c-0.1,0.1-0.1,0.2-0.1,0.3c-0.1,0-0.2,0-0.2,0.1c0,0.1-0.1,0.2-0.2,0.2
		c0,0-0.1,0.1-0.1,0.1c0,0.1,0,0.2-0.1,0.2c-0.1,0-0.2,0.1-0.2,0.2c-0.1,0.1-0.1,0.1-0.2,0.2c0,0,0,0,0,0c-0.1,0.1-0.2,0.2-0.2,0.2
		C9,11.7,8.8,11.8,8.9,12c0,0,0,0,0,0c-0.1,0.1-0.2,0.2-0.4,0.3c-0.2,0.1-0.4,0.1-0.5,0.3c-0.1,0.1-0.3,0.1-0.4,0.1
		c0,0,0.1,0.1,0,0.1c0,0-0.1,0.1,0,0.1c0,0,0.1,0.1,0.1,0.1c0.1,0,0.1,0,0.1,0c0,0.1-0.1,0-0.2,0c0.3,0.1,0.5,0,0.8,0
		c0.1,0-0.1-0.2,0-0.1c0.1,0.1,0.2,0.1,0.4,0.1c0.2,0,0.3,0,0.5,0.1c0.1,0,0.3,0,0.4,0c0.4,0,0.9,0.1,1.3,0.1c0.1,0,0.1,0,0.2,0
		c0.1,0-0.1-0.1,0.3-0.1c0.4,0,0.7,0,1.1-0.1c0,0,0.1,0,0.1,0c0.1,0,0.2,0,0.3,0c0.4,0,0.9,0,1.3,0c0.2,0,0.5,0,0.7,0
		c0.1,0,0.1,0,0.2-0.1c0,0,0,0,0,0c0,0,0,0,0,0c0,0,0,0,0,0c0,0,0,0,0,0c0,0,0,0,0,0c0,0,0-0.1,0-0.1c0,0,0-0.1,0-0.1
		c0.1-0.3,0.1-0.5,0.2-0.8c0,0,0,0,0.1,0c0,0,0,0,0,0.1c0,0,0,0.1,0,0.1c0-0.1,0.1-0.2,0.1-0.2c0,0,0,0,0,0c-0.1-0.1,0-0.2,0-0.3
		c0,0,0,0,0,0c0.1,0,0.1-0.1,0.2-0.2c0,0,0-0.1,0.1-0.1c0-0.1,0.1-0.1,0.1-0.1c0.1,0,0,0.1,0,0.1c0,0,0,0.1,0,0.1
		c0.2,0.5,0.3,1,0.6,1.5c0,0,0,0.1,0,0.1c0,0,0,0,0,0.1c0,0,0,0,0,0.1c0,0,0,0,0,0c0,0,0,0,0,0c0,0,0,0,0,0c0,0,0,0,0,0c0,0,0,0,0,0
		c0,0,0,0,0,0c0,0,0,0,0,0c0,0,0,0,0,0c0,0,0,0,0,0c0,0,0,0,0,0c0.2,0,0.4,0,0.6,0c0.1,0,0.2,0,0.2,0h0c0.1,0,0.2,0,0.3,0
		c0,0,0,0,0.1,0c0.1,0,0.1,0,0.1,0c0.1,0,0.2,0,0.3-0.1c0,0,0.1,0,0.1,0.1c0,0,0,0,0.1,0c0,0,0,0,0.1-0.1l0,0c0,0,0.1,0,0.1,0
		c0,0,0,0.1,0,0.2c0.1,0,0.2,0,0.2,0c0,0,0.1-0.1,0.1-0.1c0-0.1,0.1-0.1,0.1-0.1c0.1,0,0.1,0,0.2,0.1c0,0.1-0.1,0.1-0.1,0.1
		c0,0,0,0,0,0c0.1,0,0.3,0,0.4,0c0,0,0,0,0.1,0c0,0,0,0,0,0c0,0,0,0,0,0c0.1,0,0.1-0.1,0.2,0c0,0,0,0,0,0c0,0,0.1,0,0.1,0
		c0,0,0,0,0,0c0-0.1,0.1-0.1,0.1-0.1c0,0,0,0,0,0c0,0,0.1,0,0.1,0c0.1-0.1,0.2-0.1,0.3-0.1c0.1,0,0.3,0.1,0.4,0c0,0,0.1,0,0.1,0
		c0.2,0,0.1-0.1,0.2-0.1c0,0,0,0,0,0c0,0,0,0,0,0c0,0,0,0,0,0c0.1,0,0.2,0,0.3,0c0.2,0,0.4,0,0.6-0.2c0,0,0.1-0.1,0.1,0v0
		c0,0,0,0,0,0c0.1,0,0.1,0,0.2,0c0.1-0.1,0.1-0.1,0.1-0.2c0,0,0.1-0.1,0.1-0.1c0.1,0,0.2-0.3,0.2-0.3c-0.1-0.1,0-0.1,0.1-0.1
		c0,0,0.1,0,0.1-0.1c0-0.1,0-0.2,0-0.4c0,0,0-0.1,0-0.1c0.2-0.1,0.4-0.2,0.6-0.2c0.1,0,0.1,0,0.1-0.1c0,0-0.1,0-0.1,0
		c-0.2,0.1-0.5,0.2-0.7,0.3c0,0,0-0.1,0.1-0.1c0,0,0,0,0,0c0,0,0-0.1,0-0.1c0.1,0.1,0.1,0.1,0.2,0c0,0,0.1,0,0.1,0
		c0.2,0,0.3-0.1,0.5-0.2c0.4-0.2,0.8-0.3,1.1-0.5c0,0,0.1,0,0.1-0.1c-0.6,0.2-1.1,0.5-1.7,0.7C23.6,10.7,23.7,10.7,23.8,10.7
		 M10.6,10.6C10.6,10.6,10.6,10.6,10.6,10.6c-0.1-0.1,0-0.1,0-0.1C10.7,10.5,10.7,10.6,10.6,10.6C10.7,10.6,10.7,10.6,10.6,10.6
		 M10.7,10.2c-0.1,0-0.1-0.1-0.1-0.2c0-0.1,0.1-0.1,0.2-0.1c0.1,0,0.1,0.1,0.1,0.1C10.9,10.2,10.8,10.2,10.7,10.2 M15.4,10.1
		C15.3,10.1,15.3,10.1,15.4,10.1c-0.1-0.1-0.1-0.1,0-0.1C15.4,10,15.4,10,15.4,10.1C15.4,10.1,15.4,10.1,15.4,10.1 M15.7,10.1
		C15.6,10.1,15.6,10.1,15.7,10.1c-0.1-0.1,0-0.1,0-0.1c0,0,0.1,0,0.1,0.1C15.8,10.1,15.7,10.1,15.7,10.1 M16.2,10
		C16.2,10,16.1,10,16.2,10C16.1,9.9,16.2,9.9,16.2,10C16.2,9.9,16.3,9.9,16.2,10C16.3,10,16.2,10,16.2,10 M21.7,9.8
		c-0.1,0-0.1,0-0.2,0C21.5,9.7,21.8,9.8,21.7,9.8 M18.7,10.2c0,0,0.7-0.1,0.7,0C19.3,10.2,18.8,10.2,18.7,10.2 M19.9,9.9
		c0,0-0.6,0-0.7,0c0.3,0,0.9-0.1,1.1-0.1c0.1,0,0.2,0,0.2,0c-0.1,0-0.3,0-0.4,0C20.1,9.8,20,9.8,19.9,9.9 M21.4,10.3
		c0.3-0.1,0.5-0.2,0.6-0.1C22.1,10.2,21.5,10.3,21.4,10.3 M21.5,10.1c0.1-0.1,0.1,0,0.2,0H21.5z M22.6,9.8c-0.3,0-0.5,0-0.8,0
		c0,0,0,0,0,0.1c0,0,0,0,0,0c0,0,0,0,0,0c0,0,0,0,0,0c0,0,0,0,0,0c0,0,0,0,0,0c0,0,0,0,0,0c0,0,0,0,0,0c0,0,0,0,0,0c0,0,0,0,0,0
		c0,0,0,0,0,0c-0.1,0-0.1,0-0.2,0c0,0-0.1,0-0.1,0c0,0-0.1,0-0.1,0c0,0-0.1,0-0.1,0c0,0,0,0,0,0c-0.3,0-0.6,0.1-0.8,0.1
		c-0.2,0-0.5,0.1-0.4,0c0,0,0.2,0,0.3-0.1c0,0,0,0,0,0c0-0.1,0-0.1,0.1-0.1c0.1,0,0.1,0,0.2,0c0,0,0.1,0,0.1,0c0,0,0,0,0.1,0
		c0,0,0,0,0,0c0,0,0.1,0,0.1,0h0c0,0,0.1,0,0.1,0c0,0,0,0,0,0c0,0,0,0,0.1,0c0,0,0,0,0,0c0,0,0.1,0,0.1,0c0,0,0,0,0.1,0c0,0,0,0,0,0
		c0,0,0,0,0.1,0c0,0,0,0,0,0c0,0,0,0,0,0c0,0,0,0,0,0c0,0,0,0,0.1,0h0c0.1,0,0.2,0,0.3,0c0,0,0,0,0,0c0.2,0,0.3,0,0.5,0
		c0.2,0,0.3-0.1,0.5,0C22.7,9.8,22.7,9.8,22.6,9.8 M23.2,9.8c0.1,0,0.3-0.1,0.3,0C23.4,10,23.3,9.9,23.2,9.8"/>
	<path class="st5" d="M15.4,12.4c0.1-0.1,0.1-0.3,0.1-0.5C15.5,12.1,15.4,12.5,15.4,12.4"/>
	<path class="st5" d="M14.8,9.6C14.8,9.6,14.9,9.6,14.8,9.6C14.8,9.6,14.8,9.6,14.8,9.6c-0.2,0.1-0.5,0-0.7,0.1
		c-0.1,0-0.2,0-0.3,0.1c0.3,0,0.6,0,0.9-0.1C14.7,9.6,14.8,9.7,14.8,9.6"/>
	<path class="st5" d="M15,9.6C15,9.6,14.9,9.6,15,9.6C14.9,9.7,15,9.7,15,9.6c0.1,0,0.3,0,0.4,0c0.1,0,0.2,0,0.2-0.1c0,0,0,0,0.1,0
		c0,0,0.1,0,0.1,0c0,0,0.1,0,0.1,0c0,0,0,0.1-0.1,0.1c0,0,0,0-0.1,0c0.3,0.1,0.6-0.1,0.8,0c0,0-0.1,0,0,0.1c0.1,0,0.1,0,0.2,0
		c0,0,0,0,0,0c0.2,0.1,0.4,0,0.5,0c0.1,0,0.2,0,0.2-0.1c0,0,0-0.1-0.1-0.1c0,0,0,0,0,0c0,0,0,0,0,0c0,0,0,0,0,0
		c-0.4,0-0.9,0-1.3,0.1c0,0,0,0,0,0c0,0,0,0-0.1,0c0,0,0,0,0,0c0,0,0,0,0,0c0,0,0,0,0,0c0,0,0-0.1,0-0.1c-0.1,0-0.2,0-0.4,0
		C15.3,9.6,15.1,9.6,15,9.6C14.9,9.6,15,9.6,15,9.6"/>
	<path class="st5" d="M7.3,13.1c0.1,0,0.1,0,0.2,0C7.5,13,7.4,13,7.3,13.1"/>
	<path class="st5" d="M25.3,9.4C25.2,9.4,25.2,9.4,25.3,9.4C25.2,9.4,25.2,9.4,25.3,9.4c-0.1,0-0.2,0-0.2,0c0,0.1,0,0.1,0,0.1
		c0,0,0,0-0.1,0C25.1,9.6,25.2,9.6,25.3,9.4"/>
	<path class="st5" d="M24,10C23.9,10.1,23.9,10.1,24,10c0.3-0.1,0.5-0.1,0.8-0.3C24.8,9.7,24.3,9.9,24,10"/>
	<path class="st5" d="M25.6,9c-0.1,0-0.1,0-0.2,0.1C25.4,9.2,25.6,9.1,25.6,9"/>
	<path class="st5" d="M25.1,9.8c0.1,0,0.1,0,0.1-0.1C25.3,9.7,25.2,9.8,25.1,9.8"/>
	<path class="st5" d="M23.8,10.1C23.8,10.1,23.9,10.1,23.8,10.1C23.9,10.1,23.8,10.1,23.8,10.1"/>
	<path class="st5" d="M25.5,10c0,0-0.1,0-0.1,0.1C25.4,10.2,25.6,10.1,25.5,10"/>
	<path class="st5" d="M25.1,9.8C25.1,9.8,25,9.8,25.1,9.8C25,10,25.1,9.9,25.1,9.8"/>
	<path class="st6" d="M26.4,7.1c-0.1-0.1-0.2,0-0.2,0.1c0,0.2,0.2,0.2,0.2,0.2C26.5,7.2,26.5,7.1,26.4,7.1"/>
	<path class="st6" d="M25.8,6.9c0-0.1-0.1-0.1-0.1-0.1c-0.1,0,0,0.1,0,0.1C25.7,6.9,25.8,6.9,25.8,6.9"/>
	<path class="st6" d="M17.3,3.2C17.3,3.2,17.4,3.2,17.3,3.2c0.1,0,0.2,0,0.2,0C17.5,3,17.4,3,17.3,3c0,0,0,0-0.1,0
		C17.2,3,17.3,3.1,17.3,3.2C17.3,3.2,17.3,3.2,17.3,3.2"/>
	<path class="st6" d="M17.5,2.4C17.6,2.4,17.6,2.4,17.5,2.4c0.1-0.1,0-0.1,0-0.2C17.5,2.3,17.4,2.3,17.5,2.4
		C17.4,2.4,17.5,2.4,17.5,2.4"/>
	<path class="st6" d="M16.7,2.3C16.7,2.3,16.7,2.3,16.7,2.3c0.1-0.1,0-0.1,0-0.1C16.6,2.1,16.6,2.2,16.7,2.3
		C16.6,2.2,16.6,2.3,16.7,2.3"/>
	<path class="st6" d="M14.5,2C14.6,2,14.6,2,14.5,2C14.6,1.9,14.5,1.9,14.5,2C14.5,1.9,14.4,1.9,14.5,2C14.4,2,14.5,2,14.5,2"/>
	<path class="st6" d="M24.5,6.2c0.1,0,0.2,0,0.3,0C24.8,6,24.5,6.1,24.5,6.2"/>
	<path class="st6" d="M16.7,2.7C16.7,2.7,16.7,2.8,16.7,2.7C16.8,2.8,16.8,2.7,16.7,2.7C16.8,2.7,16.7,2.6,16.7,2.7
		C16.7,2.6,16.7,2.7,16.7,2.7"/>
	<path class="st6" d="M16.9,2.3C16.9,2.3,16.9,2.3,16.9,2.3c0-0.1,0-0.1,0-0.1C16.8,2.2,16.8,2.2,16.9,2.3
		C16.8,2.3,16.8,2.3,16.9,2.3"/>
	<path class="st6" d="M16.5,8.2L16.5,8.2c0.1,0,0.2,0,0.2,0C16.7,8.2,16.6,8.2,16.5,8.2"/>
	<path class="st6" d="M26,7.2c-0.1,0-0.2,0-0.3,0c-0.5,0.1-0.2-0.1-0.1-0.2c0-0.1,0-0.1,0-0.2c0,0,0-0.1-0.1-0.1
		c-0.1,0.1-0.3,0.1-0.4,0.2c-0.2,0.1-0.3,0.2-0.5,0.2C24.8,7,25,6.8,25.2,6.7c0.1,0,0-0.1,0,0c-0.3,0.1-0.6,0.2-0.8,0.4
		c0.2-0.2,0.7-0.5,0.6-0.5c-0.5,0.3-0.9,0.6-1.5,0.8C23.8,7.2,24,7.1,24.2,7c0.3-0.2,0.7-0.5,0.6-0.5c-0.2,0.1-0.3,0.2-0.5,0.3
		c0.1,0,0.1-0.1,0.2-0.1c0.1,0,0.1,0,0.1,0c0,0,0,0,0.1-0.1c0,0,0.1,0,0.1,0c-0.2-0.1-0.3,0-0.5,0.1c0.3-0.3,0.1-0.4,0.1-0.4
		c-0.4,0-1.2,0-1.2,0.1c0,0,0,0,0,0c0,0,0,0,0,0c0,0,0.1,0,0.1,0c0,0.1-0.1,0-0.1,0c0,0-0.1,0-0.1,0c0,0,0,0,0,0c0,0,0,0,0,0
		c0,0,0.1-0.1,0.1-0.1c0,0,0,0,0,0h0c0,0,0,0-0.1,0c-0.1,0-0.1,0-0.2,0c0,0-0.1,0-0.2-0.1c0.2-0.1,0.4-0.1,0.6-0.1
		c0.2,0,0.3,0,0.5-0.1c0,0,0.1-0.1,0.1-0.1c0-0.1-0.1-0.1-0.2-0.1c-0.2,0-0.4,0.1-0.5,0.1c0,0-0.1,0-0.1,0c-0.2-0.1-0.5,0-0.7,0.1
		c-0.1,0-0.2,0.1-0.4,0c-0.1-0.1-0.2-0.1-0.3,0c0,0-0.1,0.1-0.1,0.1c0,0.1-0.1,0.1-0.2,0.1c-0.1,0-0.2,0-0.3,0.1c-0.1,0-0.1,0-0.2,0
		c0,0,0.1,0,0,0c-0.1,0-0.2,0-0.2,0.1c-0.1,0.1-0.3,0.2-0.4,0c0,0-0.1,0-0.1,0c0,0,0-0.1,0.1-0.1c0.1-0.1,0.1-0.2,0.1-0.3
		c0-0.1-0.1-0.2-0.2-0.1c-0.1,0.1-0.1,0.1-0.2,0.2c-0.1,0.2-0.2,0.3-0.5,0.2c-0.1,0-0.1,0-0.1-0.1c0-0.1,0-0.1-0.1-0.2
		c-0.1,0-0.2,0-0.2,0.1c-0.1,0.1-0.2,0.2-0.3,0.2c-0.2,0-0.3,0.1-0.4,0.3c0,0.1-0.1,0.3-0.2,0.4c-0.1,0.1-0.2,0.1-0.2,0
		c-0.1-0.1,0-0.1,0-0.2c0,0,0,0,0,0c-0.1-0.1-0.2-0.1-0.3-0.1c0.1-0.1,0.1-0.1,0.2-0.1c0.2-0.1,0.2-0.2,0.1-0.4
		c-0.1-0.1,0-0.3-0.2-0.4c0.1-0.1,0-0.1-0.1-0.1c-0.1,0-0.1,0-0.1-0.1c0-0.3-0.1-0.5-0.1-0.8c0-0.1,0-0.2,0-0.2
		c-0.1-0.1,0.2-0.3,0.2-0.3c0,0-0.1,0-0.1-0.1c0-0.1,0-0.1,0-0.1c0-0.1,0-0.2-0.1-0.2c-0.2-0.1-0.2-0.1-0.1-0.3c0,0,0,0,0,0
		c0-0.1,0-0.1-0.1-0.1c-0.1,0-0.1,0-0.1-0.1c0-0.1,0-0.1-0.1-0.2c-0.1,0-0.1-0.1-0.1-0.1c0-0.1-0.2-0.2-0.3-0.2
		c-0.1,0-0.2,0-0.3-0.1c-0.1,0-0.2-0.1-0.3-0.1c0-0.1,0.1-0.1,0-0.2c-0.1,0-0.1-0.1,0-0.1c0.1,0,0.1,0.1,0.2,0.1
		c0.1,0.1,0.2,0.1,0.2,0c0.1,0,0.1-0.1,0-0.2c0-0.1-0.1-0.1-0.2-0.1c-0.1,0-0.1,0-0.2,0c-0.1,0-0.2,0-0.3-0.1c0,0-0.1-0.1-0.1,0
		c-0.1,0-0.1,0-0.2,0.1c0-0.1-0.1-0.1-0.2,0c0-0.1-0.1-0.1-0.2-0.1c-0.1,0-0.3,0-0.4-0.1c0,0-0.1-0.1-0.1,0c0,0.1,0,0.1,0.1,0.2
		c0,0,0.1,0,0.2,0.1c-0.2-0.1-0.4-0.1-0.5,0c0,0,0,0-0.1,0c-0.1,0-0.3-0.1-0.4,0.1c0,0-0.1,0-0.1,0c0-0.1-0.2-0.1-0.2-0.2
		c0,0,0,0,0,0c-0.1,0-0.2,0.2-0.2,0.2c0,0.1,0,0.1,0,0.2c0,0,0.1-0.1,0.1,0c0,0,0.1,0.1,0,0.2c-0.1,0.1-0.1,0.2-0.2,0.2
		c0,0,0,0-0.1,0.1c0,0-0.1,0.1-0.1,0.1c0-0.1-0.1-0.2-0.1-0.2c0,0-0.1,0-0.1,0c-0.1,0-0.1,0.1-0.2,0.2c-0.1,0.2-0.2,0.5-0.3,0.7
		c0,0.1-0.1,0.1,0,0.2c0,0,0,0,0,0.1c0,0,0.1-0.1,0.1-0.1c0,0.1-0.1,0.1-0.1,0.2c0.1-0.1,0.2-0.2,0.3-0.3c-0.1,0.2-0.3,0.3-0.3,0.6
		c0.1,0,0.2,0.1,0.2,0.2c0,0,0,0.1,0,0.1c0,0,0,0.1,0,0.1c0,0.1,0,0.1-0.1,0.2c-0.1,0.1-0.2,0.3-0.3,0.4c0,0-0.1,0.1,0,0.1
		c0.1,0.1,0,0.3-0.1,0.3c-0.1,0.1-0.1,0.1-0.2,0.2c0,0.1-0.1,0.1-0.2,0.1c-0.2,0-0.2,0-0.2,0.2c0,0.1,0,0.2,0,0.3
		c0,0.1,0,0.1-0.1,0.1c0,0-0.1,0.1-0.1,0.1C11.5,7,11.4,7,11.6,7.2c0.1,0.1,0.1,0.2,0.1,0.3c0,0,0,0,0,0c0,0,0,0.1-0.1,0.1
		c0,0.1-0.1,0.1,0,0.2c0,0,0,0,0,0.1c0,0,0,0.1,0.1,0.1c0,0,0,0.1,0,0.1c-0.1,0.1-0.2,0.1-0.3,0.2c-0.1,0.1-0.2,0.1-0.2,0.2
		C11,8.7,10.9,8.9,10.6,9C10.4,9,10.2,9,10,9.1c-0.1,0-0.1,0.1-0.1,0.2C10,9.4,10,9.4,10,9.5c0,0.1,0.1,0.2,0.3,0.2
		c0.1,0,0.2-0.1,0.4-0.1c0.1,0,0.1,0,0.2,0c0,0,0,0,0,0.1c0,0,0,0,0,0c-0.1,0,0,0.1,0,0.1c0.2,0,0.2,0.1,0.5,0c0.1,0-0.2,0-0.1,0.1
		c0.3,0,0.3,0,0.7,0c0,0-0.1,0-0.1,0.1c0.2,0,0.3,0,0.5,0c0.3,0,0.6,0,0.9,0c0.1,0,0.3,0,0.3,0c0.1,0,0.2,0,0.2-0.1c0,0,0,0,0,0
		c0,0-0.1-0.1,0-0.1c0.3,0,0.5-0.1,0.8,0c0.1,0,0.2,0,0.3,0c0,0,0.1,0,0.1,0c-0.2,0-0.5,0-0.7,0c-0.1,0-0.2,0-0.3,0
		c0.1,0,0.2,0,0.2,0c-0.1,0-0.2,0-0.3,0.1c0.5,0,1.1-0.1,1.6-0.1c0.3,0,0.6-0.1,1,0c0,0,0.1,0,0.1,0c0.1-0.1,0.2-0.1,0.3-0.1
		c0.2,0,0.5-0.1,0.7-0.1c0,0,0.1,0,0.1,0c0,0.1,0.1,0.2,0.2,0.1c0.1,0,0.1-0.1,0.1-0.2c0.4,0,0.8,0,1.1-0.1c0,0,0.1,0,0.1,0
		c0,0,0,0,0,0c0,0,0,0-0.1,0c-0.1,0-0.1,0.1,0.1,0.1c0.1,0,0.1,0,0.2,0c0,0,0,0,0,0c0,0,0,0.1,0,0.1c0,0,0.1,0,0-0.1
		c0,0,0-0.1,0-0.1c0.2,0.1,0.3,0.1,0.5,0.1c0.2-0.1-0.2-0.1-0.3-0.1c0,0,0-0.1,0-0.1h0c0.2,0,0.4,0,0.6,0c0,0,0,0,0.1,0
		c0.1,0,0.1,0,0.2,0c0,0,0,0,0,0c0,0,0,0,0,0c0.9,0,1.5,0,2.5,0c0.2,0,0.4,0,0.5-0.1c0.1-0.1,0.2-0.1,0.3-0.1c0,0,0.1,0,0.1,0
		c0.1-0.1,0.2-0.1,0.2,0c0.1,0,0.1,0,0.1,0c-0.1,0-0.2,0-0.3-0.1c0.1,0,0.2,0,0.3,0c0.1,0,0.1,0.1,0.2,0c0.1-0.1,0-0.1-0.1-0.2
		c0.1,0,0.1-0.1,0.2-0.1c0.1,0,0.2,0,0.3,0c0.1,0,0.2-0.1,0.2-0.2c0,0,0-0.1,0-0.1c0.1-0.1,0.2-0.2,0.3-0.2c0.2-0.2,0.5-0.5,0.5-0.8
		c0,0,0-0.1,0-0.1c-0.1-0.1,0-0.2,0-0.3c0.1-0.1,0-0.1,0-0.2C26.1,7.2,26.1,7.2,26,7.2 M15.1,2.6C15.2,2.6,15.2,2.6,15.1,2.6
		c0.1,0,0.1,0.1,0.2,0c0.1,0,0.2,0,0.2-0.2c0,0,0,0,0-0.1c0.1-0.1,0.2-0.1,0.2,0c0,0,0,0.1,0.1,0.1c0.1,0.1,0.1,0.1,0.2,0
		c0,0,0.1,0.1,0.1,0.1c0,0-0.1,0-0.1,0c-0.1,0-0.2,0.1-0.3,0.1c0,0,0,0,0,0c-0.1,0.2-0.2,0.1-0.3,0.2C15.2,2.8,15.1,2.7,15.1,2.6
		C15.1,2.6,15.1,2.6,15.1,2.6 M14.7,2.3c0.1,0.1,0.2,0,0.2,0.1c0,0,0,0.1-0.1,0.1C14.7,2.5,14.6,2.5,14.7,2.3
		C14.6,2.3,14.6,2.3,14.7,2.3 M13.7,2.8C13.7,2.8,13.7,2.8,13.7,2.8C13.7,2.8,13.7,2.7,13.7,2.8C13.8,2.7,13.8,2.7,13.7,2.8
		C13.8,2.8,13.8,2.8,13.7,2.8 M14.8,9.6c0,0.1-0.1,0.1-0.2,0.1c-0.3,0-0.6,0-0.9,0.1c0.1,0,0.2-0.1,0.3-0.1
		C14.4,9.6,14.6,9.6,14.8,9.6C14.8,9.6,14.8,9.6,14.8,9.6C14.9,9.6,14.8,9.6,14.8,9.6 M17.3,9.7c-0.2,0-0.4,0.1-0.5,0c0,0,0,0,0,0
		c-0.1,0.1-0.1,0-0.2,0c-0.1,0,0,0,0-0.1c-0.3,0-0.5,0.1-0.8,0c0,0,0.1,0,0.1,0c0,0,0.1,0,0.1-0.1c0,0-0.1,0-0.1,0c0,0-0.1,0-0.1,0
		c0,0,0,0-0.1,0c-0.1,0.1-0.2,0.1-0.2,0.1c-0.1,0-0.3,0-0.4,0c0,0,0,0,0,0c0,0,0,0,0,0c0,0,0,0-0.1-0.1c0.2,0,0.4,0,0.6,0
		c0.1,0,0.2,0,0.4,0c0,0,0,0.1,0,0.1c0,0,0,0,0,0c0,0,0,0,0,0c0,0,0,0,0,0c0,0,0,0,0.1,0c0,0,0,0,0,0c0.4,0,0.9,0,1.3-0.1
		c0,0,0,0,0,0c0,0,0,0,0,0c0,0,0,0,0,0c0.1,0,0.1,0,0.1,0.1C17.5,9.7,17.4,9.7,17.3,9.7 M16.4,8.5c0.3,0,0.5-0.1,0.7-0.1
		C17,8.5,16.5,8.5,16.4,8.5 M18.1,7.8c0,0-0.1,0.1-0.2,0c-0.1,0-0.1,0-0.1,0c0,0,0,0,0,0c-0.2,0.1-0.3,0.3-0.6,0.3
		c-0.1,0-0.3,0-0.5,0.1c0.1,0.1,0.1,0,0.2,0c0.1,0,0.1,0,0.2,0c0.1,0,0.1-0.1,0.2,0c0,0.1-0.1,0.1-0.2,0.1c-0.3,0-0.6,0.1-0.8,0.1
		c0-0.1,0.1,0,0.1-0.1c-0.1,0-0.1,0-0.2,0c0-0.1,0.2-0.2,0.3-0.2c0.1,0.1,0.2-0.1,0.3-0.1C16.9,8,17,8,17,7.9
		c0.1-0.1,0.2-0.2,0.4-0.2c0.1,0,0.1,0,0.2-0.1c0,0-0.1,0-0.1,0c0,0-0.1,0-0.1-0.1c0,0,0-0.1,0.1-0.1c0,0,0.1,0,0,0.1
		c0,0,0,0,0.1,0.1c0.2,0,0.2,0,0.2,0.1c0.1,0.1,0.2,0,0.3,0c0.1,0,0.1,0,0.1,0.1C18.2,7.7,18.1,7.8,18.1,7.8 M18.5,7.5
		c0,0.1-0.1,0.1-0.2,0.1c0,0-0.1,0-0.1,0c0,0,0,0-0.1,0c0,0,0,0,0,0c0,0-0.1,0-0.1,0c0.2,0,0.2-0.2,0.3-0.4c0.1,0,0,0.1,0.1,0.2
		C18.3,7.4,18.4,7.3,18.5,7.5C18.4,7.4,18.5,7.4,18.5,7.5 M18.8,7.5c0,0-0.1,0.1-0.1,0c0-0.1,0-0.1,0-0.1c0,0,0,0,0,0
		c0.1-0.1,0.1-0.1,0.2-0.1c0,0,0.1,0,0.1,0c0,0,0.1,0,0.1,0C19,7.3,18.9,7.4,18.8,7.5 M19.9,6.7C19.9,6.7,19.9,6.7,19.9,6.7
		c-0.2,0-0.3,0.1-0.4,0.1c0,0,0.1-0.1,0.1-0.1c0.1,0,0.2-0.1,0.1-0.2c0,0,0-0.1,0-0.1c0,0,0,0,0,0c0.1,0,0.2,0,0.2,0
		C19.9,6.5,19.9,6.6,19.9,6.7 M22.3,6.4c-0.1,0-0.1,0-0.1-0.1c0,0,0,0,0.1,0C22.2,6.3,22.3,6.3,22.3,6.4C22.3,6.3,22.3,6.4,22.3,6.4
		"/>
	<path class="st6" d="M21.1,6.3C21.1,6.3,21.2,6.3,21.1,6.3c0.1,0,0.1-0.1,0.1-0.2C21.1,6.1,21.1,6.3,21.1,6.3
		C21,6.3,21.1,6.3,21.1,6.3"/>
	<path class="st6" d="M10.8,9.9c-0.1,0-0.1,0.1-0.2,0.1c0,0.1,0.1,0.2,0.1,0.2c0.1,0,0.1-0.1,0.1-0.1C10.9,10,10.8,9.9,10.8,9.9"/>
	<path class="st6" d="M22.2,9.8c-0.2,0-0.3,0-0.5,0c0,0,0,0,0,0c-0.2,0-0.4,0.1-0.6,0.1c-0.3,0-0.5,0.1-0.8,0.1
		c-0.1,0-0.1,0-0.1,0.1c0,0,0,0,0,0c-0.1,0-0.3,0-0.3,0.1c0,0,0.3,0,0.4,0c0.4,0,0.9-0.1,1.3-0.1c0.1,0,0.1,0,0.2-0.1
		c0.3,0,0.5,0,0.8,0c0.1,0,0.1,0,0.1-0.1C22.6,9.7,22.4,9.8,22.2,9.8"/>
	<path class="st6" d="M20.6,9.8c0,0-0.2,0-0.2,0c-0.2,0-0.9,0.1-1.1,0.1c0.1,0,0.7,0.1,0.7,0c0.1-0.1,0.2-0.1,0.3-0.1
		C20.3,9.8,20.5,9.8,20.6,9.8"/>
	<path class="st6" d="M15.7,10c0,0-0.1,0-0.1,0.1c0,0.1,0,0.1,0.1,0.1C15.7,10.1,15.8,10.1,15.7,10C15.8,10,15.7,10,15.7,10"/>
	<path class="st6" d="M15.3,10C15.3,10,15.2,10,15.3,10c-0.1,0.1,0,0.1,0,0.1C15.4,10.1,15.4,10.1,15.3,10C15.4,10,15.4,10,15.3,10"
		/>
	<path class="st6" d="M18.7,10.2c0.1,0,0.6,0,0.7,0C19.4,10.1,18.8,10.2,18.7,10.2"/>
	<path class="st6" d="M21.9,10.1c-0.1,0-0.2,0.1-0.6,0.1C21.5,10.3,22.1,10.2,21.9,10.1"/>
	<path class="st6" d="M23.2,9.8c0.1,0,0.2,0.1,0.3,0C23.6,9.8,23.3,9.8,23.2,9.8"/>
	<path class="st6" d="M16.2,9.9C16.2,9.9,16.1,9.9,16.2,9.9C16.1,10,16.2,10,16.2,9.9C16.2,10,16.3,10,16.2,9.9
		C16.3,9.9,16.2,9.9,16.2,9.9"/>
	<path class="st6" d="M10.6,10.5C10.6,10.5,10.6,10.6,10.6,10.5c0,0.1,0,0.1,0,0.1C10.7,10.6,10.7,10.6,10.6,10.5
		C10.7,10.6,10.7,10.5,10.6,10.5"/>
	<path class="st6" d="M21.5,10.1h0.2C21.7,10.1,21.6,10,21.5,10.1"/>
	<path class="st6" d="M21.5,9.8c0.1,0,0.1,0,0.2,0C21.8,9.8,21.5,9.7,21.5,9.8"/>
	<path class="st7" d="M16.6,9.3C16.7,9.3,16.7,9.3,16.6,9.3c0-0.1-0.1-0.1-0.2-0.1c-0.1,0.1-0.3,0.1-0.4,0.1
		c-0.1-0.1-0.2,0.1-0.3,0.1c0.4,0,1,0,1.3,0.1C17,9.4,16.7,9.3,16.6,9.3"/>
	<path class="st7" d="M17,9.5c-0.3,0-0.8,0-1.1,0.1C16.1,9.7,17.5,9.5,17,9.5"/>
	<path class="st7" d="M17.7,8.1C17.7,8.1,17.7,8.2,17.7,8.1C17.7,8.2,17.7,8.2,17.7,8.1c0.1,0.1,0.2,0.1,0.2,0
		C17.9,8.1,17.8,8.1,17.7,8.1"/>
	<path class="st7" d="M17.8,6.1c0.1,0,0.1-0.1,0.2-0.1C17.9,6,17.8,6,17.8,6.1C17.7,6,17.7,6,17.8,6.1C17.7,6.1,17.8,6.1,17.8,6.1"
		/>
	<path class="st7" d="M19.1,7.9c0.1,0,0.1,0,0.2,0C19.3,7.8,19.2,7.8,19.1,7.9"/>
	<path class="st7" d="M16.1,9.5c0.1-0.1-0.3-0.1-0.4,0C15.8,9.5,16,9.5,16.1,9.5"/>
	<path class="st7" d="M15,9.1c-0.1,0.1,0.3,0,0.3,0C15.2,9.1,15.1,9,15,9.1"/>
	<path class="st7" d="M15.3,8c0.1,0,0.1,0,0.2,0C15.5,7.9,15.4,7.9,15.3,8"/>
	<polyline class="st7" points="15.3,8 15.3,8 15.2,8 15.3,8 15.3,8 	"/>
	<path class="st7" d="M15.4,9.5C15.4,9.5,15.4,9.5,15.4,9.5c0.1,0.1,0.1,0,0.1,0c0,0,0,0,0,0c0,0,0,0,0,0
		C15.5,9.5,15.5,9.4,15.4,9.5"/>
	<path class="st7" d="M20.6,9.6c0,0,0.1,0,0.1,0c0,0,0,0,0-0.1C20.7,9.6,20.6,9.6,20.6,9.6"/>
	<path class="st7" d="M17.3,8.4c0.1,0,0.1,0,0.2,0C17.4,8.4,17.4,8.4,17.3,8.4"/>
	<polyline class="st7" points="17.5,8.4 17.5,8.4 17.5,8.4 17.5,8.4 	"/>
	<polygon class="st7" points="17.5,8.4 17.5,8.4 17.5,8.4 	"/>
	<path class="st7" d="M25.3,7.3c0,0,0.1-0.1,0.1-0.2c0,0,0.1,0,0.1-0.1c0.1-0.1,0.2-0.2,0.1-0.3c0,0,0-0.1-0.1-0.1
		c-0.1,0.1-0.3,0.1-0.4,0.2c-0.2,0.1-0.3,0.2-0.5,0.2C24.8,7,25,6.8,25.2,6.7c0.1,0,0-0.1,0,0c-0.3,0.1-0.6,0.2-0.8,0.4
		c0.2-0.2,0.7-0.5,0.6-0.5c-0.5,0.3-0.9,0.6-1.5,0.8C23.8,7.2,24,7.1,24.2,7c0.3-0.2,0.7-0.5,0.6-0.5c-0.2,0.1-0.3,0.2-0.5,0.3
		c0.1-0.1,0.2-0.1,0.2-0.2c-0.1,0-0.2,0.1-0.3,0.1c0.1-0.1,0-0.2-0.1-0.1c-0.2,0.1-0.3,0.2-0.6,0.2C23,6.9,22.5,7,22,7.2
		c-0.1,0-0.2,0-0.2,0.1c0,0-0.1,0-0.1,0c-0.1-0.1-0.2,0-0.2,0c-0.1,0-0.2,0-0.2,0.1c-0.1,0.1-0.2,0-0.3,0.1c-0.1,0-0.2,0-0.2,0.1
		c-0.3,0.1-0.6,0.1-0.9,0.2c-0.1,0-0.2,0-0.3,0.1c0.1,0,0.2,0,0.3,0c-0.5,0.1-1,0.1-1.4,0.3c0.5-0.1,1-0.1,1.5-0.3
		c0.2,0,0.3-0.1,0.4-0.1c0.7-0.1,1.3-0.3,2-0.6c-0.1,0.1-0.2,0.1-0.3,0.1c-0.6,0.2-1.2,0.4-1.9,0.5C19.9,8,19.7,8,19.4,8.1
		c-0.4,0.1-0.8,0.1-1.3,0.2c-0.2,0-0.4,0-0.6,0.1c0,0-0.1,0-0.1,0.1c0.6,0,1.1-0.1,1.7-0.2c0.2,0,0.3-0.1,0.5-0.1
		c0.2,0,0.4-0.1,0.7-0.2c0,0,0,0,0,0c0,0,0,0,0,0c0-0.1,0,0,0.1-0.1c0.1,0,0.1,0,0.2-0.1c0.1,0,0.1,0,0.2,0C20.6,7.9,20.5,8,20.3,8
		c0,0,0,0,0,0c0,0,0,0,0,0c0,0.1-0.1,0-0.2,0.1c0.2,0,0.3-0.1,0.5-0.1c0.4-0.1,0.8-0.3,1.2-0.4c0,0,0.1,0,0.1,0c0,0,0,0.1-0.1,0.1
		c-0.2,0.1-0.4,0.1-0.6,0.2c-1.3,0.5-2.7,0.7-4,0.8c-0.1,0-0.2,0-0.4,0.1c0.3,0,0.7-0.1,1-0.1c0.9-0.1,1.8-0.2,2.7-0.5
		c0.1,0,0.3,0,0.4-0.1c0.1,0,0.1,0,0.2-0.1c-0.9,0.3-1.8,0.6-2.7,0.7c-0.6,0.1-1.1,0.1-1.5,0.2c-0.1,0-0.2,0-0.2,0c0,0,0,0,0,0
		c-0.1,0-0.1,0-0.2,0c-0.3,0-0.6,0-0.9,0c0,0,0,0,0,0c0-0.1-0.1,0-0.2-0.1c0,0-0.1,0-0.1,0c-0.1-0.1-0.1,0-0.2,0c0,0,0,0,0,0
		c-0.1,0-0.3,0-0.4,0c0,0-0.1,0-0.1,0h0c0,0-0.1,0-0.1,0c-0.1,0-0.3,0-0.4-0.1c-0.1,0-0.1-0.1-0.1,0c0-0.1,0-0.2,0-0.2
		c-0.1,0-0.1-0.1-0.1-0.1c-0.1,0-0.1-0.1,0-0.1c0,0,0.1-0.1,0.1-0.1c0.1,0,0.2,0,0.4,0c0.4,0,0.4,0.1,1.3-0.1c0.8-0.2,1-0.4,0.8-0.3
		c-0.1,0-0.7,0.2-1.1,0.3c0,0,0,0-0.3,0C15.1,8.1,15.2,8,15.2,8c0-0.1-0.1,0-0.1,0c0,0-0.1,0-0.1,0c-0.1-0.1-0.1-0.1-0.2-0.1
		c0,0-0.1,0-0.1,0c0,0,0.1-0.1,0.1-0.1c0.1,0,0.1,0,0.2-0.1c0,0,0.1-0.1,0.1,0c0,0.1,0.1,0.1,0.2,0c0.2-0.1,0.4-0.1,0.6,0
		c-0.1,0-0.1,0-0.1,0.1c0,0,0.1,0,0.1,0c0.1-0.1,0.3-0.1,0.4-0.1c0,0,0.1,0,0.1,0c0.2-0.1,0.3-0.2,0.5-0.3c0,0,0.1,0,0.1,0
		c0,0.1,0.1,0,0.1,0c0-0.1,0.1-0.1,0.2-0.1c0.2-0.1,0.3-0.1,0.5-0.2c0,0,0.1,0,0.1-0.1c0,0-0.1,0-0.1,0c-0.1,0.1-0.3,0.1-0.4,0.1
		c0,0,0,0-0.1,0c0,0,0,0,0-0.1c0,0,0.1-0.1,0.1-0.1c0.1,0,0.1,0,0.1,0c0.2-0.1,0.2-0.3,0.4-0.3c0,0,0.1,0,0.1-0.1c0,0,0,0,0,0
		c-0.1,0-0.2,0.1-0.3,0c0,0-0.2,0-0.1-0.1c0-0.1,0.1-0.1,0.2-0.1c0.1,0,0.1,0,0.2-0.1c-0.1,0-0.2,0-0.3,0c-0.1,0.1-0.1-0.1-0.2-0.1
		c0.1-0.1,0.3-0.1,0.4-0.2c-0.1,0-0.2,0-0.3,0c-0.1,0,0.1-0.1,0-0.1c-0.1,0-0.2-0.1-0.2,0C17,6,16.8,6,16.6,6.1
		c-0.1,0-0.2,0.1-0.3,0c0.1,0,0.2-0.1,0.3-0.1c-0.2,0-0.3,0-0.5,0c0.1,0,0.1-0.1,0.2-0.1c0,0,0,0,0-0.1c0,0,0,0,0,0
		c0,0-0.1,0.1-0.1,0c0.1-0.1,0.2-0.1,0.3-0.2c0,0,0,0,0,0c-0.2,0.1-0.3,0.1-0.5,0.2c0,0,0,0,0,0c0.2-0.1,0.4-0.2,0.6-0.3
		c-0.1,0-0.2,0.1-0.3,0.1c0-0.1,0.2-0.1,0.2-0.2c0.1-0.1,0.2,0,0.3-0.1c0-0.1,0.1-0.1,0.2-0.1c0.1,0,0.1-0.1,0.1-0.2c0,0,0,0,0,0
		c0,0,0,0.1,0,0.1c0.1,0,0.1,0,0.1-0.1c0-0.1,0-0.1,0.1-0.1c0,0,0.1,0,0.1,0c0,0,0-0.1,0-0.1c-0.1,0-0.1,0.1-0.2,0.1
		c0-0.1,0.2-0.2,0.1-0.2c0,0-0.2,0.1-0.1,0c0.1-0.2,0.4-0.3,0.6-0.4c-0.2-0.1-0.3,0.1-0.4,0.1c0,0,0.1-0.1,0.1-0.1
		c0.1,0,0-0.1,0-0.1c-0.2,0.1-0.4,0-0.6,0.2c0.2-0.1,0.5-0.2,0.7-0.4c-0.1,0-0.1,0-0.2,0c-0.1,0-0.1,0-0.1,0c0,0,0-0.1,0-0.1
		c0,0,0.1,0,0.1-0.1c0,0,0,0,0,0c0-0.1,0-0.1,0,0c0,0,0.1,0,0.1,0c0,0,0-0.1,0-0.1c0,0,0,0-0.1,0c0,0,0.1,0,0.1-0.1
		c-0.1,0-0.2,0.1-0.3,0.1c0,0,0.1,0,0.1-0.1c-0.1,0-0.2,0.1-0.3,0.1c0.1,0,0.1-0.1,0.2-0.1c0.1,0,0.1-0.1,0,0
		c-0.3,0.1-0.6,0.2-0.8,0.3c0,0,0,0,0,0c0.4-0.2,1.1-0.5,1-0.5c-0.5,0.2-0.8,0.3-1.3,0.5c-0.1,0,0.4-0.2,0.6-0.3c-0.1,0-0.3,0-0.4,0
		c-0.1,0-0.2,0-0.2,0.1c-0.1,0-0.1,0.1-0.2,0.1c0.1-0.1,0.2-0.1,0.3-0.2c0.1,0,0.3-0.2,0.4-0.2c0,0,0.1,0,0,0c0,0,0,0,0,0
		c-0.3,0.1-0.5,0.2-0.8,0.3c-0.1,0.1-0.3,0.1-0.4,0.2c-0.1,0-0.1,0.1-0.2,0c0.1-0.1,0.2-0.1,0.3-0.1c-0.1,0-0.1,0-0.2,0
		c0.1,0,0.3-0.2,0.4-0.2c-0.3,0.2-0.9,0.3-1.2,0.4c-0.2,0.1-0.5,0.1-0.7,0.2c0,0-0.1,0-0.1,0.1c0,0.1,0,0.1,0,0.1c0,0,0,0.1,0,0.1
		c0,0.1,0.1,0,0.1,0c0.1,0,0.1,0,0.2,0c-0.1,0.1-0.3,0.1-0.4,0.1c0,0-0.1,0-0.1,0c0,0,0,0.1,0,0.1c0,0,0,0,0,0.1
		c0,0.2,0,0.2,0.2,0.2c0,0,0,0,0,0c0.1,0,0.3,0,0.4,0c-0.2,0.1-0.5,0.1-0.6,0.3c0.1,0,0.1,0.1,0.1,0.1c0.1,0.2,0,0.2-0.2,0.2
		c0,0-0.1,0-0.1,0c-0.1,0-0.2,0-0.3-0.1c-0.1-0.1-0.3,0-0.3,0c-0.1,0.1-0.2,0.3-0.2,0.5c0,0.1,0.1,0.2,0.1,0.2c0,0,0,0,0,0.1
		c0,0,0,0.1,0,0.1c-0.1,0.1-0.2,0.2-0.1,0.3c0,0,0,0,0,0c-0.1,0.1,0,0.3-0.2,0.3c0,0-0.1,0-0.1,0.1c0,0.1,0.1,0.1,0.1,0.1
		c0,0,0.1,0,0.1,0c0,0,0.1,0,0.1,0.1c0,0.1,0.1,0.1,0.2,0.2c0.1,0.1,0.3,0.1,0.4,0.1c0.2,0,0.3,0.1,0.5,0.1c0.1,0,0.1,0.1,0.1,0.2
		c0,0.1-0.1,0.1-0.2,0.1c0,0-0.1,0-0.2,0c-0.2,0-0.4,0-0.6-0.1c-0.1,0-0.1,0-0.2,0c-0.1,0-0.2,0-0.2,0c-0.1-0.1-0.2-0.1-0.3-0.1
		c-0.1,0-0.2,0-0.2-0.1c-0.1-0.1-0.2,0-0.2,0c-0.1,0.2-0.2,0.3-0.1,0.5c0,0.1,0,0.1,0,0.2c0,0-0.1,0.1,0,0.1c0,0.1,0,0.2-0.1,0.3
		c0,0-0.1,0-0.1,0.1c0,0.1,0.1,0.1,0.1,0.1c0,0,0.1,0,0.1,0.1c0,0.1,0.1,0.1,0.1,0.1C12,8.9,12.1,9,12.3,9c0.1,0,0.1,0.1,0.1,0.2
		c-0.1,0-0.2,0.1-0.3-0.1c0,0,0,0.1-0.1,0.1c-0.2,0-0.3,0.1-0.5,0.1c-0.2,0-0.4,0-0.6,0c0,0,0.1,0,0.1,0.1c-0.1,0-0.2,0-0.3,0.1
		c0,0,0.1,0,0,0.1c0.1,0,0.1,0.1,0.1,0.2c0,0,0,0,0,0c-0.1,0,0,0.1,0,0.1c0.2,0,0.2,0.1,0.5,0c0.1,0-0.2,0-0.1,0.1
		c0.3,0,0.3,0,0.7,0c0,0-0.1,0-0.1,0.1c0.2,0,0.3,0,0.5,0c0.3,0,0.6,0,0.9,0c0.1,0,0.3,0,0.3,0c0.1,0,0.2,0,0.2-0.1c0,0,0,0,0,0
		c0,0-0.1-0.1,0-0.1c0.3,0,0.5-0.1,0.8,0c0.1,0,0.2,0,0.3,0c0,0,0.1,0,0.1,0c-0.2,0-0.5,0-0.7,0c-0.1,0-0.2,0-0.3,0
		c0.1,0,0.2,0,0.2,0c-0.1,0-0.2,0-0.3,0.1c0.5,0,1.1-0.1,1.6-0.1c0.3,0,0.6-0.1,1,0c0,0,0.1,0,0.1,0c0.1-0.1,0.2-0.1,0.3-0.1
		c0.2,0,0.5-0.1,0.7-0.1c0,0,0.1,0,0.1,0c0,0.1,0.1,0.2,0.2,0.1c0.1,0,0.1-0.1,0.1-0.2c0.4,0,0.8,0,1.1-0.1c0,0,0.3,0,0.1,0
		c-0.1,0-0.1,0.1,0.1,0.1c0.1,0,0.1,0,0.2,0c0,0,0,0,0,0c0,0,0,0.1,0,0.1c0,0,0.1,0,0-0.1c0,0,0-0.1,0-0.1c0.2,0.1,0.3,0.1,0.5,0.1
		c0.2-0.1-0.2-0.1-0.3-0.1c0-0.1,0.4-0.1,0.7-0.1c0,0,0.1,0,0,0c-0.1,0.1,0,0,0,0c0,0,0.1,0,0.1,0c0-0.1-0.1,0-0.1-0.1
		c0.1,0,0.3,0,0.4,0c0,0,0.1,0,0.1,0c0,0,0.1,0,0.1,0c-0.3-0.2-0.6-0.1-1,0c0.1,0,0.3-0.1,0.4-0.1c0.1,0,0.3,0,0.4,0v0
		c0.9-0.1,2.8-0.2,2.8-0.3c0,0-0.3,0-0.7,0c-0.3,0-1.3,0.1-2,0.2c0.6-0.1,1.2-0.2,1.8-0.3c0.7-0.1,1.3-0.1,2-0.2
		c-0.1-0.1,0-0.2,0-0.2c0.1,0,0.1-0.1,0.2-0.1c0.2,0,0.4,0,0.5-0.2c0.1-0.1-0.2,0-0.3,0c-0.1,0-0.3,0-0.4,0.1c-0.1,0-0.1,0-0.1-0.1
		c0-0.1-0.1-0.1-0.2-0.1c-0.3,0.1-0.5,0.1-0.8,0c0.2-0.1,0.4-0.1,0.5-0.1c0.2,0,0.4,0,0.5-0.1c0.6-0.2,0.7-0.2,0.4-0.2
		c-0.2,0-0.3-0.1-0.4-0.2c0.1,0,0.4-0.2,0.4-0.2c0,0,0,0,0,0.1c0.1,0,0.1-0.1,0.1-0.1c0-0.1,0-0.2,0-0.3c0,0,0,0,0,0
		C25.3,7.2,25.2,7.3,25.3,7.3 M19.9,7.8c0.1,0,0.2,0,0.2,0C20,7.8,20,7.8,19.9,7.8 M20.8,7.8c0.1,0,0.1-0.1,0.2-0.1
		C21,7.8,20.9,7.8,20.8,7.8 M16.5,6.2c0.1,0,0.1,0,0.2,0c-0.1,0.1-0.2,0.1-0.3,0.1C16.4,6.3,16.6,6.4,16.5,6.2 M16.1,7.3
		C16.1,7.3,16.1,7.4,16.1,7.3C16,7.3,16.1,7.3,16.1,7.3C16.1,7.3,16.2,7.3,16.1,7.3C16.2,7.4,16.1,7.3,16.1,7.3 M16.2,6.9
		C16.2,7,16.2,7,16.2,6.9c0,0.1-0.1,0.1-0.1,0.1C16.1,7,16.1,6.9,16.2,6.9 M15.9,7.4c0-0.1,0-0.1,0.1-0.1c0,0,0,0,0,0
		C16,7.4,16,7.4,15.9,7.4C15.9,7.4,15.9,7.4,15.9,7.4 M15.7,5.9c0.1,0,0.1-0.1,0.2-0.1c0,0,0,0,0,0C15.8,5.9,15.7,5.9,15.7,5.9
		C15.7,5.9,15.7,5.9,15.7,5.9 M15.6,7.2c0,0,0.1,0,0.1,0c0,0,0.1,0.1,0.1,0.1c0,0,0,0,0,0c-0.1,0-0.1,0.2-0.2,0.2
		C15.6,7.4,15.6,7.3,15.6,7.2 M15.5,7.3C15.5,7.3,15.5,7.3,15.5,7.3c0,0.1,0,0.1-0.1,0.2c0,0-0.1,0.1-0.1,0c0,0,0,0,0,0
		c0,0,0,0.1,0,0.1c-0.2,0-0.4,0-0.6,0C14.8,7.4,15.4,7.3,15.5,7.3 M14.2,8.9C14.4,9,14,9.1,14,9C14,8.9,14,8.9,14.2,8.9 M14.2,9.3
		c0,0-0.1,0-0.2,0C14,9.3,14.1,9.3,14.2,9.3C14.1,9.3,14.1,9.3,14.2,9.3 M14.3,8.2c-0.1,0,0.1-0.1,0.2,0C14.5,8.3,14.5,8.2,14.3,8.2
		 M14.2,8.1C14.3,8,14.6,8,14.7,8C14.6,8,14.3,8.1,14.2,8.1C14.2,8.1,14.2,8.1,14.2,8.1 M14.1,8.1c-0.1,0.1-0.5,0.1-0.6,0.1
		C13.4,8.2,14,8.1,14.1,8.1 M13.6,8.5C13.6,8.5,13.6,8.5,13.6,8.5c0,0.1-0.1,0-0.2,0C13.5,8.4,13.7,8.4,13.6,8.5 M13.7,9
		c0,0-0.1,0-0.1,0c0,0,0,0,0,0c0,0,0,0,0,0c0,0.1-0.1,0-0.1,0c-0.1,0-0.2,0-0.3,0C13.2,9,13.5,9,13.5,9c0,0,0,0,0,0l0,0l0,0
		c0,0,0,0,0,0c0-0.1-0.1-0.1-0.1-0.1C13.5,8.9,13.6,8.9,13.7,9C13.6,8.9,13.7,8.9,13.7,9C13.7,8.9,13.7,9,13.7,9 M13.8,9
		c0,0,0-0.1,0-0.1c0,0,0-0.1,0.1-0.1c0,0,0,0,0.1,0.1c0,0.1,0,0-0.1,0C13.9,9,13.9,9,13.8,9C13.8,9,13.8,9.1,13.8,9 M17.3,9.7
		c-0.2,0-0.4,0.1-0.5,0c0,0,0,0,0,0c-0.1,0.1-0.1,0-0.2,0c-0.1,0,0,0,0-0.1c-0.3,0-0.5,0.1-0.8,0c0,0,0.1,0,0.1,0c0,0,0.1,0,0.1-0.1
		c0,0-0.1,0-0.1,0c0,0-0.1,0-0.1,0c0,0,0,0-0.1,0c-0.1,0.1-0.2,0.1-0.2,0.1c-0.1,0-0.3,0-0.4,0c0,0,0,0,0,0c0,0,0,0,0,0
		c0-0.1-0.1-0.1-0.1,0c0,0.1-0.1,0.1-0.2,0.1c-0.3,0-0.6,0-0.9,0.1c0.1,0,0.2-0.1,0.3-0.1c0.3,0,0.5,0,0.7-0.1c0,0,0,0,0,0
		c0.1,0.1,0.2,0,0.2-0.1c0,0.1,0,0.1,0.1,0.1c0.1,0,0.1-0.1,0.3-0.1c0.1,0,0.3,0,0.2,0c-0.1,0-0.2,0-0.5,0c0,0-0.4,0-0.5,0
		c0.1,0,0.2,0,0.2,0c0,0,0-0.1,0-0.1c-0.2,0-0.4,0-0.6,0c0,0,0-0.1,0-0.1c0.3,0,1,0,0.9-0.1c0,0-0.4,0-0.7,0c0,0,0,0,0,0
		c0,0,0.1-0.1,0.1-0.1H15c0,0,0,0,0,0c0,0,0,0,0,0c0.1,0,0.2,0,0.4,0c0.1,0,0.1,0.1,0.2,0c0,0,0.1,0,0.1,0c0,0,0,0.1-0.1,0.1
		c0,0-0.1,0-0.1,0c0.2,0,0.2,0,0.3-0.1c0,0,0,0,0,0c0.1,0,0.1,0,0.2,0c0,0-0.1,0-0.1,0c0,0.1,0.1,0,0.1,0c0.1,0,0.1,0,0.2,0
		c0.1,0,0.1,0,0.2,0c0,0,0,0,0,0c0.2,0,0.4,0,0.5,0c0,0,0.1,0,0.1,0.1c-0.1,0-0.4,0-0.5,0c-0.1,0-0.2,0,0,0.1c0.2,0,0.4,0,0.5,0
		c0.1,0,0.1,0.1,0.1,0.1c0,0-0.1,0.1,0,0.1c0.1,0,0.2,0.2,0.3,0.2c0.1,0,0.2,0,0.2,0C17.5,9.7,17.4,9.7,17.3,9.7 M20.9,8.1
		C21.1,8,21.3,8,21.4,7.9c0,0,0,0,0,0C21.3,8,21.1,8,20.9,8.1 M21.4,8C21.5,8,21.5,8,21.6,8C21.6,8.1,21.5,8,21.4,8"/>
	<path class="st8" d="M22.5,9.9C22.5,9.9,22.5,9.9,22.5,9.9C22.5,9.9,22.5,9.9,22.5,9.9c-0.1,0-0.1,0-0.2,0
		C22.4,9.9,22.4,9.9,22.5,9.9C22.5,10,22.5,9.9,22.5,9.9"/>
	<path class="st8" d="M20.1,11.8c0.1,0,0.2,0,0.4,0C20.4,11.8,20.3,11.8,20.1,11.8"/>
	<path class="st8" d="M16.1,10.7c-0.1,0-0.2,0-0.3,0C15.8,10.7,16,10.7,16.1,10.7C16.1,10.7,16.1,10.7,16.1,10.7
		C16.1,10.7,16.1,10.7,16.1,10.7"/>
	<path class="st8" d="M22.2,10.6C22.2,10.6,22.2,10.6,22.2,10.6c-0.2,0.1-0.4,0.1-0.6,0.2c-0.3,0.2-0.7,0.2-1.1,0.3
		c-0.4,0.1-0.8,0.2-1.3,0.2c-0.1,0-0.1,0-0.2,0.1c0.2,0,0.4-0.1,0.5-0.1c0.8-0.1,1.6-0.3,2.4-0.5c0,0,0,0,0.1,0c0,0,0,0,0,0.1
		c0,0-0.2,0.1-0.2,0.1c0,0.1,0.2,0,0.2,0c0.2,0,0.4-0.1,0.6-0.1c0,0,0,0,0,0c0.1-0.1,0.1-0.1,0.2-0.2c0,0,0,0,0,0c0,0,0-0.1,0-0.1
		c0,0,0,0,0-0.1c-0.1,0-0.2,0.1-0.3,0.1C22.5,10.6,22.4,10.6,22.2,10.6"/>
	<path class="st8" d="M22.6,11.3C22.6,11.3,22.6,11.2,22.6,11.3c-0.4,0-0.7,0.1-1,0.2c-0.1,0-0.2,0.1-0.3,0.1
		c-0.1,0.1-0.2,0-0.3,0.1c-0.1,0.1-0.3,0.1-0.4,0.1c0.1,0,0.2,0,0.3,0C21.5,11.6,22.1,11.5,22.6,11.3"/>
	<path class="st8" d="M23,9.9C22.9,9.9,22.9,10,23,9.9c-0.1,0.1-0.1,0.1-0.1,0.1c0,0-0.1-0.1-0.1-0.1c-2.2,0.6-4.3,1.1-6.6,1.2
		c0.1,0.1,0.1,0.1,0.2,0.1c0.3,0,0.6,0,0.9-0.1c0.4,0,0.7,0,1.1-0.1c0.7-0.1,1.3-0.2,1.9-0.4c0.4-0.1,0.7-0.2,1.1-0.2
		c0.1,0,0.1,0,0.2,0c0,0,0.1,0,0.2,0c0.2-0.1,0.3-0.1,0.5-0.1c0.1,0,0.3-0.1,0.2-0.1c-0.2,0-0.3,0.1-0.5,0.1
		c0.2-0.1,0.4-0.1,0.6-0.2c0,0,0,0.1-0.1,0.1c0,0,0,0-0.1,0c0,0,0.1,0,0.1,0c0.1-0.1,0.2-0.1,0.3-0.1c0,0,0.1,0,0.1,0c0,0,0,0,0.1,0
		c0,0,0,0,0,0c0,0,0.1,0,0.1,0C23.1,10.1,23,10.1,23,9.9 M22,10.3c0.1-0.1,0.3-0.1,0.4-0.1C22.3,10.2,22.1,10.3,22,10.3"/>
	<path class="st8" d="M11.9,11.9c0.1,0,0.1,0,0.2,0C12.1,11.8,12,11.9,11.9,11.9"/>
	<path class="st8" d="M10.5,12.9c0.1,0,0.1,0,0.2,0c0,0,0,0,0-0.1C10.7,12.8,10.6,12.8,10.5,12.9C10.5,12.9,10.5,12.9,10.5,12.9"/>
	<path class="st8" d="M13.5,10.2c0,0-0.1,0-0.1,0c0,0.1,0.3,0,0.3,0c0,0-0.2-0.1,0-0.1c0.2,0,0.5,0,0.5-0.1c-0.1,0-0.2,0-0.3,0
		c0,0,0,0,0,0c-0.1,0-0.1,0-0.2,0C13.6,10.1,13.5,10.1,13.5,10.2c-0.2-0.1-0.5-0.1-0.6,0C13.1,10.2,13.4,10.2,13.5,10.2"/>
	<path class="st8" d="M11.5,11.9c-0.2,0-0.7,0-0.9,0c0,0-0.1,0-0.1,0c0,0,0-0.1,0-0.1c0,0,0,0,0,0c-0.1,0-0.2,0-0.2-0.1
		c0,0-0.1,0-0.1,0c-0.1,0-0.3,0-0.4,0c0,0,0,0-0.1,0c0,0,0,0,0,0c0,0,0.1-0.1,0.1,0c0,0,0.1,0,0.1,0c0.2,0,0.3-0.2,0.4-0.3
		c0.1-0.1,0.1-0.3,0.1-0.4c0,0,0.1,0,0.1-0.1c0.1-0.2-0.3-0.2,0.5-0.3c0.1,0,0.3,0,0.4,0c0.3,0,0.5-0.1,0.7-0.2c0,0,0.1-0.1,0.1-0.1
		c0,0,0.7,0,0.6,0c-0.1,0-0.6,0-0.7,0c-0.1,0-0.1,0-0.1,0c0,0-0.5,0-0.5,0c0,0,0.6,0,0.6,0c0.1,0,0.1,0,0,0c-0.2,0-0.8,0-1,0
		c0,0,0,0,0,0c0,0,0,0,0,0c0,0,0.1,0,0-0.1c0,0-0.1-0.1-0.1-0.1c0,0,0.1,0,0.1,0c0,0-0.1,0.1-0.1,0c0,0-0.1-0.1-0.1-0.1
		c0,0,0,0.1,0.1,0.1c0,0,0,0.1,0,0.1c0,0-0.1,0.1-0.1,0.2c-0.1,0.1-0.3-0.1-0.4,0c0,0,0,0,0,0c0,0,0-0.1,0,0c0,0-0.1,0-0.1,0.1
		c0,0,0,0.1,0,0.1c0,0.2-0.1,0.3-0.3,0.3c0,0,0,0-0.1,0c0,0-0.1,0.1,0,0.1c0.1,0.1,0,0.1,0,0.1c0,0-0.1,0.1-0.1,0.1
		c0,0-0.1,0-0.1,0.1c0,0.1,0,0.1-0.1,0.1c-0.1,0-0.1,0.1,0,0.1c0.1,0.1,0,0.1,0,0.1c-0.1,0-0.2,0.1-0.3,0.2
		c-0.1,0.1-0.1,0.2-0.1,0.3c0,0,0,0,0,0c0,0.1,0,0.2-0.1,0.2c0,0,0,0,0,0c0,0,0.1,0,0.1,0c0,0.1-0.1,0-0.1,0.1c0,0,0.1,0,0.1,0.1
		c-0.1,0.1-0.2,0.1-0.3,0.1c0.1,0,0.1,0,0.1,0.1c0,0,0,0,0,0c0.1,0,0.1,0,0,0.1c0,0,0,0,0,0.1c0.1,0,0.1-0.1,0.2,0
		c0.1,0,0.1,0.1,0.2,0.1c0.1,0,0.2,0,0.4,0c0,0,0-0.1,0.1-0.1c0.1-0.2,0.1-0.4,0.3-0.4c0,0,0.1,0,0-0.1c0,0,0-0.1,0.1-0.1
		c0.3-0.1,0.5-0.1,0.8-0.1C11.2,11.9,11.5,11.9,11.5,11.9 M10.1,10.7c0-0.1,0.2,0,0.2,0C10.2,10.7,10.1,10.7,10.1,10.7 M9.7,11.4
		c0-0.1,0.2-0.3,0.4-0.3c0.1,0,0.1,0,0.1,0.1C10.1,11.3,9.9,11.5,9.7,11.4C9.7,11.5,9.7,11.4,9.7,11.4"/>
	<path class="st8" d="M10.7,12.9C10.7,13,10.7,13,10.7,12.9C10.7,12.9,10.7,12.9,10.7,12.9C10.7,12.9,10.7,12.9,10.7,12.9
		C10.6,12.9,10.6,12.9,10.7,12.9"/>
	<path class="st8" d="M12.2,10.2c0.2,0.1,0.4,0,0.5,0H12.2z"/>
	<path class="st8" d="M12.7,10.4c-0.1,0-0.5,0-0.6,0C12.2,10.5,12.7,10.5,12.7,10.4"/>
	<path class="st8" d="M12.2,11.9c0.1,0,0.5,0,0.4,0C12.5,11.9,12.3,11.9,12.2,11.9"/>
	<path class="st8" d="M13.9,10.2c0.4,0,0.8,0,1.2,0c0.3,0,0.5-0.1,0.8-0.1c0.5,0,1.1,0,1.6,0c0.1,0,0.1,0,0.2,0c0.4,0,0.9,0,1.3,0
		c0.5,0,1-0.1,1.4-0.1c0,0,0,0,0.1,0c0.2,0,0.4-0.1,0.6-0.1c0.1,0,0.2,0,0.3,0c-0.2,0-0.4,0-0.6,0c-0.2,0-0.5,0-0.7,0
		c-0.1,0-0.2,0-0.3,0c-0.8,0.1-1.5,0.2-2.3,0.2C16.3,10.2,15.1,10.1,13.9,10.2C13.8,10.2,13.9,10.2,13.9,10.2"/>
	<path class="st8" d="M21.1,10.1c-0.1,0.1-0.3,0.1-0.4,0.1c-0.4,0.1-1,0.2-1.4,0.2c-0.4,0-0.6-0.2-0.9-0.1c0,0-0.1,0-0.1,0l-1.5,0
		c0,0-0.1,0-0.3,0c-0.1,0-0.2,0-0.3,0c-0.3,0-0.5,0-0.6,0c-0.1,0-0.1,0.1-0.1,0.1h0c0,0-0.1,0-0.1,0c-0.1,0-0.2,0-0.3,0
		c-0.3,0-0.5,0-0.8,0c0.2,0.1,0.4,0.1,0.6,0.1c0.1,0,0.2-0.1,0.3-0.1c0.2,0,0.5,0,0.7,0c0,0,0.1,0,0.1-0.1c0,0,0,0,0,0
		c0,0,0.1,0,0.1,0c0,0,0,0,0,0c0,0,0,0,0,0c0,0,0,0,0,0c0,0,0,0,0,0c0.1,0,0.2,0,0.3,0c0.1-0.1,0.2-0.1,0.3-0.1
		c0.1,0.2-0.6,0.1-0.6,0.2c0.1,0,0.5,0,0.7,0c-0.1,0.1-0.3,0-0.4,0.1c0,0.1,0.1,0.1,0.1,0.1c0.2,0,0.3,0,0.5,0c0.1,0,0,0,0,0
		c0.3,0.1,0.6,0,0.8,0c0.2,0,0.4,0,0.5,0c0.3,0,0.6-0.1,0.9-0.1c0.8-0.1,1.7-0.3,2.5-0.4c0.1,0,0.1,0,0.1,0.1c0,0,0,0,0.1,0
		c0-0.1,0.1-0.1,0.2,0c0.1,0,0.2,0,0.3,0c0.1,0,0.3-0.1,0.4-0.1c0,0,0,0-0.1,0C22.4,10,22.2,10,22.1,10c0,0,0.1,0,0.1,0c0,0,0,0,0,0
		c0,0,0-0.1,0-0.1c-0.2,0-0.3,0-0.4,0c0,0,0,0-0.1,0c0,0.1-0.1,0.1-0.1,0.1C21.5,10,21.3,10,21.1,10.1
		C21.1,10.1,21.1,10.1,21.1,10.1 M22.1,10C22,10,21.9,10,21.8,10C21.9,10,22,9.9,22.1,10"/>
	<path class="st8" d="M15.3,12.7c-0.2,0-0.4,0-0.6,0c-0.3,0-0.6,0.1-0.9,0c-0.3,0-0.5,0-0.8,0c0,0-0.1,0-0.1,0c-0.1,0-0.2,0-0.4,0
		c0.2,0,0.4,0,0.6,0h-0.7c-0.2,0-0.4,0-0.7,0c0,0,0,0.1-0.1,0c-0.1-0.1-0.2,0-0.2,0c-0.2,0-0.5,0-0.7,0.1c0.1,0,0.2,0,0.2,0
		c0.4-0.1,0.8-0.1,1.1-0.1c0,0,0,0,0.1,0c-0.3,0.1-0.6,0.1-0.9,0.1c0.3,0,0.6,0,0.9,0c0.7,0,1.4,0.1,2.1,0.1c0.4,0,0.7,0,1.1,0
		C15.3,12.9,15.3,12.8,15.3,12.7C15.3,12.7,15.3,12.7,15.3,12.7"/>
	<path class="st8" d="M22.6,11.8c0.1-0.1,0.1-0.1,0.1-0.2c0-0.1-0.1-0.2,0-0.2c0,0,0,0,0,0c-0.6,0.2-1.2,0.4-1.8,0.5c0,0,0,0,0,0
		c0.3,0,0.6,0,0.9-0.1c0,0-0.1,0.1-0.1,0.1c0.1,0,0.4,0,0.5,0c0.2-0.2-0.2,0-0.2-0.1c0-0.1,0-0.1,0-0.1c0,0,0.1,0,0.1,0
		c0.1,0,0.3-0.1,0.4-0.1c0.1,0-0.1,0.1-0.2,0.1c0,0-0.1,0.1-0.1,0.1c0,0,0.4,0,0.4,0c0,0.1-0.4,0.1-0.4,0.1c-0.2,0-0.3,0.1-0.5,0.1
		c0,0-0.7,0.1-0.7,0.1c0.1,0,0.7-0.1,0.8,0c0,0-0.1,0-0.1,0.1c0.1,0,0.2,0,0.3,0c0,0,0-0.1,0.1-0.1c0,0,0,0,0.1,0c0,0,0,0,0,0.1
		c0,0.1,0,0.1-0.1,0.2c0,0,0,0,0,0c0,0,0,0,0,0c0,0-0.1,0-0.1,0c-0.1,0-0.3,0.1-0.4,0.1c-0.1,0.1-0.3,0.1-0.4,0.1
		c-0.3,0-0.6,0.1-0.9,0.1c-0.3,0.1-0.7,0-1,0.1c-0.2,0-0.3,0-0.5,0c-0.1,0-0.1,0-0.2,0c-0.1,0-0.1,0-0.2,0c-0.3,0.1-0.5,0-0.8,0
		c-0.1,0-0.2,0-0.3,0c-0.1,0-0.2,0-0.3,0c0,0,0,0.1,0.1,0.1c0,0.1,0,0.1,0.1,0.1c0,0,0,0,0,0c0.1,0,0.3-0.1,0.4-0.1
		c0.1,0,0.3,0,0.4,0c0,0,0,0,0.1,0c0.1,0,0.2,0,0.3,0c0,0,0.1,0,0.1,0c0,0,0.1-0.1,0.2-0.1c0.1,0.1,0.2,0,0.3,0c0.1,0,0.1,0,0.2,0
		l0,0c0,0,0.1,0,0.1,0c0,0,0,0,0,0c0.2,0,0.4,0,0.6-0.1c0.1-0.1-0.2,0-0.2,0c0,0,0,0,0,0c0.2-0.1,0.3,0,0.5,0c0.3,0,0.6,0,0.9,0.1
		c0.2,0,0.3,0.1,0.5,0c0,0,0.1,0,0.1,0c0.2,0,0.1-0.1,0.2-0.1c0.1,0,0.2-0.1,0.1-0.2c0-0.1,0-0.1,0.1-0.1c0.1,0,0.2,0,0.1,0.1
		c0,0.1-0.1,0.1,0,0.1c0.1,0.1,0.3-0.1,0.4-0.1c0.2-0.2,0.2,0,0.3-0.1c0.1-0.1-0.1-0.1-0.2-0.2c0.1-0.1,0.1-0.1,0.2-0.1
		c0,0,0.1,0,0.1-0.1C22.7,11.9,22.7,11.9,22.6,11.8C22.6,11.9,22.6,11.9,22.6,11.8"/>
	<path class="st9" d="M10.6,18.5C10.6,18.5,10.5,18.5,10.6,18.5c-0.1,0.1,0,0.1,0,0.1c0.1,0,0.2,0,0.3,0
		C10.8,18.5,10.7,18.5,10.6,18.5"/>
	<path class="st10" d="M22.4,13.4C22.4,13.5,22.4,13.5,22.4,13.4c0.2-0.1,0.4-0.1,0.6-0.2c0,0,0-0.1-0.1,0
		C22.8,13.2,22.6,13.3,22.4,13.4"/>
	<path class="st10" d="M21.5,15.7C21.5,15.7,21.5,15.8,21.5,15.7c0.1,0.1,0.1,0.1,0.2,0.1C21.6,15.7,21.6,15.7,21.5,15.7"/>
	<path class="st10" d="M22.4,13.5c-0.1,0-0.2,0.1-0.4,0.1C22.2,13.6,22.5,13.5,22.4,13.5"/>
	<path class="st10" d="M21.8,15.8C21.9,15.8,21.9,15.8,21.8,15.8C21.9,15.7,21.8,15.7,21.8,15.8c-0.1-0.1-0.2-0.1-0.1,0
		C21.7,15.8,21.8,15.8,21.8,15.8"/>
	<polyline class="st10" points="21.7,15.8 21.7,15.8 21.7,15.8 21.7,15.8 21.7,15.8 	"/>
	<path class="st10" d="M22.9,13.7c0,0-0.1,0-0.2,0.1C22.8,13.8,22.9,13.8,22.9,13.7C22.9,13.8,22.9,13.7,22.9,13.7
		C22.9,13.7,22.9,13.7,22.9,13.7"/>
	<path class="st10" d="M21,14.7c0.1,0,0.2,0,0.2,0C21.1,14.7,21.1,14.7,21,14.7"/>
	<path class="st10" d="M23.4,15.5C23.3,15.5,23.3,15.5,23.4,15.5C23.4,15.6,23.4,15.6,23.4,15.5C23.4,15.5,23.5,15.5,23.4,15.5
		C23.4,15.5,23.4,15.5,23.4,15.5"/>
	<path class="st10" d="M22.2,13.4c-0.1,0-0.2,0-0.2,0.1C22,13.5,22.2,13.5,22.2,13.4"/>
	<path class="st10" d="M22.1,15.6C22.1,15.6,22.1,15.6,22.1,15.6c-0.1,0-0.1,0-0.1,0C21.9,15.6,22.1,15.7,22.1,15.6
		C22.2,15.6,22.1,15.6,22.1,15.6C22.1,15.6,22.1,15.6,22.1,15.6"/>
	<path class="st10" d="M22.2,15.7C22.2,15.7,22.2,15.7,22.2,15.7C22.3,15.6,22.2,15.6,22.2,15.7C22.2,15.6,22.2,15.7,22.2,15.7"/>
	<path class="st10" d="M14.2,16.6c0.1-0.1,0.2-0.4,0.2-0.4C14.3,16.3,14.1,16.6,14.2,16.6"/>
	<path class="st10" d="M22.6,14.3c0.1,0,0.3,0,0.4-0.1c0.1,0,0.2,0,0.2,0c0.1,0,0.1-0.1,0,0c-0.1,0-0.2,0-0.2,0
		c-0.3,0-0.7,0.1-1,0.1c0,0-0.1,0,0,0c0,0,0.2-0.1,0.3-0.1c0,0,0.1,0,0.1,0c0,0,0,0,0,0c0,0,0,0,0,0c0.1,0,0.1,0,0.1,0
		c0.1,0,0.2,0,0.2,0c0,0-0.1,0-0.2,0c-0.1,0-0.3,0-0.4,0c-0.5,0-1,0.1-1.5,0.1c0.1-0.1,0.2-0.1,0.3-0.1c0.1,0,0.1,0,0.1-0.1
		c0,0,0,0,0,0c0.1,0,0.1,0,0.2,0c0.2,0.1,0.6-0.2,0.4-0.2c-0.2,0-0.4,0.1-0.5,0c-0.1-0.1,0.4-0.1,0.6-0.2c-0.1,0-0.3,0.1-0.4,0
		c-0.1-0.1-0.2-0.1-0.3-0.1c-0.1,0-0.1,0-0.2,0c0,0-0.1,0-0.1,0c0,0,0-0.1,0.1-0.1c0.3-0.1,0.7-0.1,1-0.2c0.3-0.1,0.6-0.2,0.8-0.3
		c0,0,0.2-0.1,0.2-0.1c0,0,0.1,0,0.1,0c0,0,0-0.1,0-0.1c0,0-0.1,0.1-0.1,0.1c0,0,0,0-0.1,0c0,0,0,0-0.1,0c-0.1,0.1-0.2,0.1-0.4,0.1
		c0,0,0.1-0.1,0-0.1c0,0-0.4,0.1-0.6,0.2c-0.3,0.1-0.7,0.2-1,0.2c-0.1,0-0.2,0-0.2-0.1c0,0,0,0,0,0c-0.2,0-0.4,0-0.7,0
		c-0.1,0-0.2,0-0.2,0c-0.1,0-0.1,0-0.2-0.1c-0.1,0.1-0.1,0.2-0.2,0.2c0,0,0,0,0,0c0,0,0,0,0,0c-0.2,0.2-0.5,0.5-0.8,0.7c0,0,0,0,0,0
		c0.3,0,0.2-0.2,0.4,0c0,0-0.4,0.1-1,0.5c0,0,0,0,0,0.1c0.7,0,1.4-0.1,2.2-0.1C20.8,14.5,21.7,14.5,22.6,14.3 M19.5,13.5
		C19.5,13.5,19.5,13.5,19.5,13.5c0.1,0.1-0.2,0.1-0.3,0C19.3,13.5,19.4,13.6,19.5,13.5 M19.2,13.7c-0.1,0-0.1,0.1-0.2,0
		C19.1,13.6,19.1,13.6,19.2,13.7 M19.5,14.5c-0.2,0-0.3,0-0.5,0C19.2,14.5,19.6,14.4,19.5,14.5 M19.4,14.2c-0.1,0.1-0.4,0-0.4,0
		c-0.1-0.2,1.2-0.1,1.5,0c0.1,0-0.5,0-0.7,0C19.6,14.2,19.5,14.1,19.4,14.2"/>
	<path class="st10" d="M19.5,13.1c0,0,0.1,0,0.1,0c0.4,0,0.6,0.1,1,0c0.1-0.1-0.3,0-0.2-0.1c0.2,0,0.4,0,0.7,0
		c0.1,0,0.4-0.1,0.5-0.2c0.2-0.1,0.5-0.1,0.7-0.2c0.1,0,0.2-0.1,0.3-0.2c0,0-0.1,0-0.1,0c-0.2,0.2-0.4,0.2-0.6,0.2
		c-0.1,0-0.2,0-0.3,0c0,0,0,0,0,0c0,0.1-0.1,0.1-0.2,0.1c0,0-0.1,0-0.1,0c-0.1,0-0.2-0.1-0.3,0.1C20.8,13,20.7,13,20.6,13
		c0,0-0.2,0-0.2,0c0,0-0.1,0-0.1,0c0,0,0,0,0,0c0,0-0.1,0-0.1,0c0,0,0,0,0,0c-0.1,0-0.1,0-0.1,0c0,0,0,0-0.1,0c-0.1,0-0.3,0-0.4,0
		C19.5,13,19.4,13,19.5,13.1C19.5,13.1,19.5,13.1,19.5,13.1 M19.7,13c0.1,0-0.1,0.1-0.2,0.1C19.5,13,19.6,13,19.7,13"/>
	<path class="st10" d="M23.8,14.9C23.7,14.9,23.7,14.9,23.8,14.9c-0.1,0-0.1,0-0.2,0c0,0-0.1,0-0.1,0c-0.1,0-0.1,0-0.2,0
		c0,0-0.1,0-0.1,0c0,0,0,0.1,0,0.1c0.1,0.1,0.1,0.1,0.2,0c0,0,0,0.1,0,0.1c0,0.1,0,0.1-0.2,0.1c-0.1,0-0.1,0-0.2,0
		c-0.1,0-0.1,0-0.1,0C23,15,22.9,15,22.7,15c-0.1,0-0.2,0.1-0.4,0c0,0,0,0,0,0c0,0.1-0.1,0.1-0.1,0c0,0-0.1,0-0.1,0
		c-0.1,0.1-0.2,0-0.2,0c0-0.1,0.2,0,0.2-0.1c0,0-0.1,0-0.1-0.1c0,0,0.1,0,0.1-0.1c-0.1-0.1-0.2,0-0.3,0c-0.2,0-0.4,0-0.7,0
		c-0.2,0-0.4,0-0.7,0c0,0-0.1,0-0.1,0c0,0,0-0.1,0-0.1c0,0-0.1,0-0.1,0c0,0,0,0-0.1,0c0,0,0,0,0-0.1c0,0,0-0.1,0-0.1
		c-0.1,0-0.3,0-0.4,0c0,0,0,0.1,0,0.1c-0.1,0-0.2,0-0.3-0.1c0,0,0,0-0.1,0c-0.1,0-0.3,0-0.4,0c-0.3,0-0.6,0-0.9,0
		c-0.1,0-0.1,0.1-0.1,0c0,0-0.1,0-0.1,0c0,0,0,0,0,0c0,0.1,0,0.1-0.1,0.1c-0.1,0-0.1,0.1-0.1,0.1c0.1,0.2,0.2,0.5,0.3,0.7
		c0.1,0.2,0.1,0.3,0.2,0.5c0.1,0.1,0.1,0.2,0.2,0.3c0.1,0.2,0.2,0.5,0.5,0.6c0,0,0.1,0.1,0,0.1c0,0-0.1,0-0.1,0c-0.1,0-0.1,0-0.2,0
		c-0.1,0-0.2,0-0.3,0c-0.1-0.1-0.2-0.2-0.4-0.3c-0.1-0.1-0.3-0.3-0.5-0.3c-0.1-0.1-0.2-0.2-0.3-0.2c-0.2-0.1-0.4-0.2-0.6-0.3
		c-0.1-0.1-0.2,0-0.3,0c-0.3,0.2-0.6,0.5-1,0.6c-0.1,0-0.1,0.1-0.1,0.1c-0.1,0.2-0.3,0.3-0.6,0.4c0,0,0,0,0,0
		c-0.1,0.1-0.1,0.1-0.2,0.2c-0.1,0.1-0.2,0.1-0.2,0.1c0,0,0-0.1,0-0.1c0.1-0.1,0.1-0.3-0.1-0.4c0,0,0,0,0,0c0.1-0.1,0.1-0.2,0.1-0.2
		c0.1-0.1,0.2-0.3,0.2-0.4c0.2-0.3,0.3-0.6,0.4-1c0,0,0,0,0-0.1c0-0.2,0-0.2-0.1-0.3c0,0-0.1-0.1-0.1-0.1c-0.2,0-0.5,0-0.7,0
		c0,0,0,0-0.1,0c0.1-0.1,0.3,0,0.4,0c-0.1,0-0.1,0-0.2,0c0.1,0,0.2,0,0.3,0c0,0-0.1,0-0.1,0c-0.1,0-0.3,0-0.3,0c-0.4,0-0.8,0-1.2,0
		c-0.2,0,0-0.1-0.2-0.1c-0.2,0-0.2-0.1-0.2-0.1c0.2,0,0.8,0,1,0c0.1-0.1-0.4,0-0.4-0.1c0.1,0,0.4,0,0.5,0c0.1,0,0.1,0,0.2,0
		c0.2,0,0.2,0,0.4,0c-0.2-0.1-0.4-0.3-0.6-0.5c-0.2,0-0.4-0.1-0.6-0.1c0,0,0.1,0,0.1,0c0.1,0,0,0,0-0.1c0,0,0.1,0,0.1,0
		c-0.1,0-0.3,0-0.4,0c0,0-0.1,0,0.1-0.1c0,0,0.1,0.1,0.2,0c0,0-0.3-0.1-0.5-0.1c-0.1,0,0,0-0.5,0c0.1-0.1,0.2,0,0.3-0.1
		c-0.1,0-0.3,0-0.4,0c-0.2,0-0.5,0-0.7,0c-0.3,0-0.5,0-0.8,0c-0.2-0.1-0.5,0-0.7-0.1c-0.3,0-0.5,0-0.8,0c-0.4,0-0.8,0-1.2,0.2
		c-0.2,0.1-0.3,0.2-0.5,0.2c0,0,0,0,0,0.1c0,0,0,0,0.1,0c0.1,0,0.2,0.1,0.3,0.1c0,0,0.1,0,0.1,0.1c0.1,0.1,0.2,0,0.3,0
		c0,0.1-0.1,0-0.1,0.1c-0.1,0.1,0.1,0,0.2,0.1c0.1,0.1,0.2,0.1,0.3,0.1c0,0,0,0,0.1,0c-0.1,0.1-0.1,0.2,0,0.3c-0.1,0-0.2,0-0.3,0.1
		c0,0,0,0,0,0c0,0,0,0,0,0.1c0,0,0.1,0,0.1,0c0,0-0.1,0-0.1,0c-0.1,0-0.1,0.1,0,0.1c0,0.1,0.1,0.2,0.2,0.2c-0.1,0.1-0.1,0.1,0,0.2
		c0.1,0.1,0.2,0.1,0.3,0.1c0.1,0.1,0.2,0,0.3,0c0.1,0,0.1,0,0.2-0.1c0,0,0.1-0.1,0.2-0.1c0.1,0,0.1,0,0.2,0c-0.1,0-0.2,0-0.3,0
		c0,0,0,0,0,0C9.2,15,9.7,15,10.1,15c0.1,0,0.2,0,0.1,0.1c0,0,0,0.1,0,0.1c0,0,0,0.1,0,0.1c0.1,0.1,0,0-0.1,0c-0.2,0-0.5,0.1-0.7,0
		c-0.1,0-0.4,0-0.3,0c0.2,0.1,0.8,0,0.8,0.1c-0.1,0-0.4,0-0.3,0c0,0,0,0,0.1,0c0.1,0,0.1,0,0.2,0c0.1,0,0.4,0,0.4,0.1
		c-0.1,0-0.3,0-0.4,0h0c0,0-0.1,0-0.1,0c0,0,0.1,0,0.1,0.1c0,0-0.1,0-0.1,0c0,0,0.1,0,0.1,0c-0.1,0-0.2,0-0.3,0c-0.2,0-0.3,0-0.6,0
		c0,0.1,1.1,0,1.1,0.2H9.2c-0.1,0-0.2,0-0.3,0c0,0-0.1,0-0.1,0c0,0,0.1,0,0.1,0c0.1,0,0.2,0,0.3,0c0.1,0,0.2,0,0.2,0
		c-0.1,0-0.3,0-0.4,0c0,0,0,0,0,0c0.4,0,0.8,0,1.1,0c0,0,0,0,0,0c-0.4,0-0.8,0-1.2,0.1c0,0-0.1,0-0.1,0c0,0-0.1,0-0.1,0.1
		c-0.1,0.1-0.1,0.1,0,0.2c0,0-0.1,0-0.1,0.1c0.1,0,0.1,0,0.2,0c0,0.1-0.3,0.1-0.4,0.1c0,0,0,0.1,0,0.2c0,0.1,0.1,0.1,0.2,0.1
		c0.1,0.1,0.1,0.1,0,0.2c0.3,0,0.4,0,0.6,0c0,0-0.2,0.1-0.4,0.1c-0.1,0-0.1,0-0.1,0.2c0,0,0,0,0,0c0,0.1,0,0.1,0.1,0.1
		c0.1,0,0.1,0,0.3,0c-0.1,0-0.1,0-0.1,0c0,0-0.1,0-0.1,0c0,0,0,0,0,0c0.1,0.1,0.2,0.2,0.4,0.1c0.1,0,0.2,0,0.3,0c0.3,0,0.7,0,1.1,0
		c0.1,0.1-0.4,0-0.3,0.1c0.1,0,0.3,0,0.2,0.1c-0.1,0-0.3,0-0.4,0c0,0,0,0,0.1,0.1c0.2,0,0.4,0,0.6,0.1c0.1,0,0,0,0,0
		c-0.2,0-0.4,0-0.5,0c0,0.1,0.4,0,0.5,0.1c0,0,0.1,0,0.1,0c0,0,0,0,0,0c0,0.1,0,0-0.1,0c0,0,0,0,0,0c0,0,0,0,0,0c0,0-0.1,0-0.2,0
		c-0.2-0.1-0.3,0-0.5,0c0,0-0.1,0-0.1,0c-0.1,0,0.2,0.1,0.3,0.1c0.1,0,0.3-0.1,0.4-0.1c0.2,0,0.5,0.1,0.7,0.1c0.5,0,1,0,1.5,0.1
		c0.4,0,0.8,0,1.2,0c0.2,0,0.4,0,0.6,0c0.4,0,0.7,0,1.1,0c0.2,0,0.5,0,0.7,0c0,0,0.1,0,0.1,0c0.4,0,0.8,0,1.2-0.1
		c0.1,0,0.2,0,0.3,0.1c0.6-0.1,1.3-0.1,1.9-0.1c0.3,0,0.9,0,1.1,0c0-0.1-0.6,0-0.6-0.1c0.1,0,0.2,0,0.2,0c-0.1,0-0.2,0-0.3,0h-0.2
		c0-0.2,0.7,0,1.1,0c0-0.1-0.1,0-0.1-0.1h1c0.2,0,0.2,0,0,0c-0.4,0-0.7,0-1.1-0.1c-0.1-0.2,1.1,0,1.1-0.1c-0.3,0-1,0-1-0.1
		c0.5,0,0.9,0,1.4,0c0.2,0,0.5,0,0.5-0.1c-0.5,0-0.9,0-1.4-0.1c-0.1,0-0.1,0-0.1,0c0.4,0,0.7,0,1,0c0.1,0,0,0,0,0
		c-0.1,0-0.2,0-0.2,0h0.3c0.1,0,0.1,0,0,0c-0.1,0-0.1,0-0.1,0h0.4c0,0-0.1,0-0.1-0.1c0,0,0.1,0,0.1-0.1c0,0-0.1,0-0.1,0
		c0,0,0,0-0.1,0c-0.1-0.1-0.1-0.1-0.2-0.1c-0.1,0-0.2,0-0.2-0.1c0.1,0,0.2,0.1,0.3,0c0.1,0,0,0,0,0c-0.3,0-0.5,0-0.8,0
		c-0.2,0-0.2-0.1-0.2-0.1c0.2,0,0.5,0,0.7,0c0,0-0.1,0-0.1-0.1c0.1,0,0.3,0,0.4,0c0-0.1-0.2,0-0.2,0c0,0-0.1,0-0.1,0c0,0,0,0,0.1,0
		c0.1,0,0.1,0,0.2,0c0.1,0,0.2,0,0.2,0c0,0,0,0,0,0c0,0,0,0,0,0c0,0-0.1,0-0.1,0c-0.2,0-0.8,0-0.8-0.1c0,0,0,0,0,0c0,0,0.1,0,0.1,0
		c0,0,0.2,0,0.2,0c0-0.1,0-0.1-0.2,0c0,0,0,0-0.1,0c0,0,0,0,0,0c-0.1,0-0.1,0-0.2,0c0,0,0,0,0,0c0,0,0.1,0,0.2-0.1c0,0,0,0,0,0
		c0,0,0,0,0,0c0,0,0-0.1,0-0.1c0,0,0,0-0.1,0c0,0,0,0,0,0c-0.1,0-0.2,0-0.3-0.1c0,0-0.1,0-0.1,0c0,0,0,0.1,0,0
		c-0.1-0.1-0.2-0.1-0.3-0.1c-0.2,0-0.5-0.1-0.7-0.1c-0.1,0-0.2,0-0.3,0c0,0,0.1,0,0.1,0c0.1,0,0.2,0,0.3,0c0.1,0,0.2,0,0.3,0
		c0.1,0,0.4,0,0.4,0c0,0,0-0.1,0-0.1c0,0-0.4,0-0.5,0c0,0-0.5,0-0.6,0c0,0,0,0,0,0c0,0,0.7,0,0.8,0c0,0-0.5,0-0.5,0
		c-0.1,0-0.3,0-0.4,0c0.1-0.1,0.2,0,0.2,0c-0.1,0-0.1,0-0.2,0c0.1-0.1,0.1,0,0.2,0c0,0-0.1,0-0.2-0.1c0,0,0.1,0,0.2,0
		c0,0,0.1,0,0.1,0c0-0.1,0,0-0.1,0c0,0,0,0,0,0c0,0,0.1,0,0.1,0c-0.3,0-0.5,0-0.7,0c0,0-0.1,0-0.1,0c0,0,0-0.1,0.1-0.1
		c0.2,0,0.5,0,0.7,0c0.1,0,0.1,0,0.1-0.1c0,0,0.1,0,0.1,0c0.1,0,0.4,0.1,0.3,0c-0.1-0.1-0.3-0.1-0.4-0.1c-0.1,0-0.1-0.1,0.3-0.1
		c0,0,0.1,0,0.1,0c0,0.1,0.1,0.1,0.1,0c0,0,0,0,0,0c0.1,0,0.3-0.1,0.4-0.1c0.1,0,0.2,0,0.4,0c0,0-0.1-0.1-0.1-0.1
		c0.2,0,0.5,0.1,0.7,0c0-0.1-0.1,0-0.1-0.1c0,0,0.1,0,0.1,0c0,0,0.1,0,0.1,0c0,0,0.1-0.1,0-0.2c-0.1,0,0-0.1,0-0.1c0,0,0,0,0,0
		c0.1,0,0.2,0.1,0.3,0.1c0,0,0,0,0,0.1c0,0.1-0.1,0.1,0,0.1c0.1,0,0.1,0.1,0.2,0.1c0,0,0-0.1,0-0.1c0,0,0,0,0,0
		c0.1-0.1,0.2-0.1,0.3-0.1c0.1,0,0.1,0,0.1-0.1c0-0.1-0.1-0.3,0-0.3C23.6,15,23.7,15,23.8,14.9C23.7,15,23.8,15,23.8,14.9
		C23.8,15,23.8,14.9,23.8,14.9 M13.4,14.1c0.1,0.1-0.2,0-0.3,0C13.2,14.1,13.3,14.1,13.4,14.1 M9.7,14.9c-0.3,0-0.5,0-0.8,0.1
		c0,0,0,0,0,0c0,0,0,0,0,0C9.1,14.9,9.5,14.9,9.7,14.9C9.8,14.9,9.8,14.9,9.7,14.9 M9.8,14.9c0.1,0,0.4,0,0.4,0
		C10.2,14.9,9.9,14.9,9.8,14.9 M12.5,18c-0.3,0-0.5-0.1-0.8-0.1C11.6,17.9,12.5,18,12.5,18 M12.2,17.5c-0.1,0-0.1,0-0.1,0
		C12.1,17.6,12.2,17.5,12.2,17.5c-0.2,0-0.8,0.1-0.6,0C11.8,17.5,12.3,17.4,12.2,17.5 M11.7,17.4c0,0.1-0.3,0-0.3,0
		C11.4,17.3,11.8,17.3,11.7,17.4 M11.6,17.2c0,0-0.1,0-0.2,0C11.3,17.2,11.5,17.2,11.6,17.2 M10.7,17.6c-0.1,0,0,0-0.2,0
		C10.4,17.6,10.7,17.6,10.7,17.6 M10.7,17.6c0,0,0.3,0,0.4,0C10.9,17.7,10.7,17.7,10.7,17.6 M10.9,14.8c0.1-0.1,0.2-0.1,0.4,0
		C11.3,14.8,11.1,14.8,10.9,14.8 M11.4,18.1c-0.1,0-0.2,0-0.2,0C11.3,18,11.5,18.1,11.4,18.1 M11.5,17.7c-0.1,0-0.2,0-0.3,0
		C11.3,17.6,11.6,17.7,11.5,17.7 M11.6,18.1C11.6,18.1,11.6,18.1,11.6,18.1c-0.2-0.2,0.7,0,0.9,0.1C12.3,18.2,11.7,18.2,11.6,18.1
		 M12.7,16.6c0.7,0,1.5-0.2,1.3,0C13.8,16.7,12.9,16.6,12.7,16.6 M15.6,16.5c0,0.1-0.2,0-0.3,0C15.4,16.5,15.6,16.5,15.6,16.5
		 M15.6,18.2c0,0-0.1,0-0.2,0c-0.2,0-0.4,0-0.6,0C15,18.2,15.2,18.2,15.6,18.2C15.6,18.1,15.6,18.2,15.6,18.2 M15.7,18.2
		C15.7,18.2,15.7,18.2,15.7,18.2c-0.1,0-0.1,0-0.1,0h0.6C16.2,18.2,16.3,18.2,15.7,18.2 M15.9,18.1c-0.2-0.1,1,0,1.4-0.1
		C16.9,18.1,16.3,18.1,15.9,18.1 M17.3,16.6c-0.3,0-0.6,0-0.9,0c-0.2,0-0.4,0-0.6,0c0,0,0,0-0.1-0.1c0.1,0,0.1,0,0.2,0
		c0-0.1-0.1,0-0.1-0.1c0-0.1,0.2,0,0.2,0c0.1,0,0.2,0,0.4,0C16.7,16.5,16.9,16.5,17.3,16.6c-0.1-0.1,0-0.1,0.1,0
		C17.4,16.6,17.3,16.6,17.3,16.6 M20.1,16.2c0,0.1-0.2,0-0.2,0C19.9,16.2,20,16.2,20.1,16.2 M19.4,16.4c0.1,0,0.2,0,0.3,0
		C19.6,16.5,19.3,16.4,19.4,16.4 M19.2,15.7c0.1,0,0.5-0.1,0.6,0C19.9,15.8,19.3,15.7,19.2,15.7 M20.6,15.6c-0.1,0,0.2-0.1,0.4,0
		c0,0,0.1,0,0.1,0c0.1-0.1,0.1,0,0.1,0.1C21,15.6,20.8,15.7,20.6,15.6 M21.5,15.6c-0.1,0-0.2,0-0.2,0c0,0,0,0,0,0
		C21.3,15.6,21.4,15.5,21.5,15.6C21.5,15.5,21.6,15.5,21.5,15.6C21.6,15.6,21.5,15.6,21.5,15.6 M21.7,15.3c0,0-0.1,0-0.1,0
		C21.6,15.3,21.7,15.2,21.7,15.3C21.7,15.3,21.7,15.3,21.7,15.3 M22,15.4c0,0-0.1,0-0.1,0c0,0-0.1-0.1,0-0.1c0.1,0,0.1,0,0.2-0.1
		C22.1,15.3,22,15.3,22,15.4"/>
	<path class="st11" d="M19.7,13C19.7,13,19.7,13,19.7,13C19.7,13,19.7,13,19.7,13C19.7,13,19.6,13,19.7,13C19.6,13,19.6,13,19.7,13
		C19.6,13,19.6,13,19.7,13C19.6,13,19.6,13,19.7,13c-0.1,0-0.1,0-0.1,0c0,0,0,0,0,0c0,0,0,0,0,0c0,0,0,0,0,0c0,0,0,0,0,0
		c0,0,0,0,0,0c0,0,0,0,0,0c0,0,0,0,0,0c0,0,0,0,0,0c0,0,0,0,0,0c0,0,0,0,0,0c0,0,0,0,0,0c0,0,0,0,0,0c0,0,0,0,0,0c0,0,0,0,0,0
		c0,0,0,0,0,0c0,0,0,0,0,0c0,0,0,0,0,0c0,0,0,0,0,0C19.6,13.1,19.6,13.1,19.7,13C19.6,13.1,19.6,13.1,19.7,13
		C19.6,13,19.6,13,19.7,13L19.7,13C19.7,13,19.7,13,19.7,13C19.7,13,19.7,13,19.7,13C19.7,13,19.7,13,19.7,13
		C19.7,13,19.7,13,19.7,13C19.7,13,19.7,13,19.7,13C19.7,13,19.7,13,19.7,13C19.7,13,19.7,13,19.7,13C19.7,13,19.7,13,19.7,13
		C19.7,13,19.7,13,19.7,13C19.7,13,19.7,13,19.7,13C19.7,13,19.7,13,19.7,13C19.7,13,19.7,13,19.7,13"/>
	<polyline class="st11" points="20.3,13 20.3,13 20.3,13 20.3,13 20.3,13 	"/>
	<path class="st11" d="M20.4,12.9c-0.1,0-0.1,0-0.1,0.1c0,0,0,0,0,0c0,0,0,0,0,0c0,0,0,0,0,0c0,0,0,0,0,0c0,0,0,0,0,0c0,0,0,0,0,0
		c0,0,0,0,0,0c0,0,0,0,0,0c0,0,0,0,0,0h0h0c0,0,0,0,0,0c0,0,0,0,0,0c0,0,0,0,0,0c0,0,0,0,0,0c0,0,0,0,0,0c0,0,0,0,0,0c0,0,0,0,0,0
		c0,0,0,0,0,0c0,0,0,0,0,0c0,0,0,0,0,0c0,0,0,0,0,0h0c0,0,0,0,0,0c0,0,0,0,0,0c0,0,0,0,0,0c0,0,0,0,0,0c0.1,0.1,0.2,0.1,0.3-0.1
		c0,0,0,0,0,0c0,0,0,0,0,0v0c0,0,0,0,0,0c0.1,0,0.1,0,0.2,0c0,0,0,0,0,0c0,0,0,0,0,0c0,0,0,0,0,0c0,0,0.1,0,0.1,0
		c0.1,0,0.1,0,0.2-0.1c0,0,0,0,0,0c0,0,0,0,0,0c0,0,0,0,0,0c0,0,0,0,0,0c-0.1,0,0,0-0.2,0.1c0,0-0.1,0-0.1,0c0,0,0,0-0.1,0
		c0,0,0,0,0,0c0,0,0,0,0,0h0c0,0,0,0,0,0c0,0,0,0,0,0c0,0,0,0,0,0c0,0,0,0,0,0c0,0,0,0,0,0c0,0,0,0,0,0c0,0-0.1,0-0.1,0
		C20.7,12.8,20.6,12.8,20.4,12.9C20.5,12.9,20.4,12.9,20.4,12.9C20.4,12.9,20.4,12.9,20.4,12.9"/>
	<path class="st11" d="M20,13C20,13,20,13,20,13C20,13,20,13,20,13C20,13,20,13,20,13C20.1,13,20.1,13,20,13C20.1,13,20.1,13,20,13
		C20.1,13,20.1,13,20,13C20.1,13,20.1,13,20,13c0.1,0,0.1,0,0.1,0c0,0,0,0,0,0c0,0,0,0,0,0c0,0,0,0,0,0C20.1,12.9,20.1,12.9,20,13
		C20,13,20,13,20,13C20,13,20,13,20,13"/>
	<path class="st11" d="M11.1,13.2C11.1,13.2,11,13.2,11.1,13.2c0.3,0.1,0.6,0,1,0c-0.1,0-0.4,0-0.3,0c0.1,0,0.2,0,0.2,0
		c0.1,0,0.1,0,0.2,0c0,0,0.2,0.1,0.2,0.1c0,0,0.1,0,0-0.1c-0.1,0-0.2,0-0.1,0c0,0,0,0,0,0c0.1,0,0.2,0,0.3,0c0,0,0,0,0,0
		c0,0.1-0.1,0.1-0.1,0.1c0,0.1,0.1,0,0,0.1c0.2,0.1,0.4,0.3,0.6,0.4c0,0,0.1,0,0.1,0.1c0.2,0.2,0.4,0.3,0.6,0.5
		c0.2,0.2,0.5,0.3,0.7,0.5c0,0,0.1,0.1,0.1,0.1c0.2,0.1,0.2,0.1,0.1,0.3c0,0,0,0,0,0.1c-0.1,0.3-0.3,0.7-0.4,1
		c-0.1,0.1-0.1,0.3-0.2,0.4c-0.1,0.1,0,0.2-0.1,0.2c0,0,0,0,0,0c0.2,0.1,0.1,0.3,0.1,0.4c0,0,0,0.1,0,0.1c0,0.1,0.2,0,0.2-0.1
		c0.1-0.1,0.1-0.1,0.2-0.2c0,0,0,0,0,0c0.2-0.1,0.4-0.2,0.6-0.4c0,0,0.1-0.1,0.1-0.1c0.4-0.2,0.6-0.4,1-0.6c0.1-0.1,0.2-0.1,0.3,0
		c0.2,0.1,0.4,0.2,0.6,0.3c0.1,0.1,0.2,0.2,0.3,0.2c0.2,0.1,0.3,0.2,0.5,0.3c0.1,0.1,0.2,0.2,0.4,0.3c0.1,0.1,0.2,0.1,0.3,0
		c0.1,0,0.1,0,0.2,0c0,0,0.1,0.1,0.1,0c0,0,0-0.1,0-0.1c-0.2-0.1-0.3-0.4-0.5-0.6c-0.1-0.1-0.1-0.2-0.2-0.3
		c-0.1-0.1-0.2-0.3-0.2-0.5c-0.1-0.2-0.2-0.5-0.3-0.7c0-0.1,0-0.1,0.1-0.1c0.1,0,0.1-0.1,0.1-0.1c0,0,0,0,0,0c0,0,0,0,0,0
		c0,0,0,0,0,0c0,0,0,0,0,0h0c0,0,0,0,0,0c0,0,0,0,0,0c0,0,0,0,0,0c0,0,0,0,0,0c0,0,0,0,0,0c0,0,0,0,0,0c0,0,0-0.1,0.1-0.1
		c0.1,0,0.1-0.1,0.2-0.1c0.1-0.1,0.2-0.2,0.3-0.2c0,0,0,0,0,0c0.1,0,0.1-0.1,0.2-0.1c0.1,0,0.1-0.1,0.2-0.1c0,0,0,0,0,0
		c0.1-0.1,0.3-0.2,0.4-0.4c0,0,0,0,0,0c0,0,0,0,0.1-0.1c0,0,0,0,0,0c0,0,0.1-0.1,0.1-0.1c0,0,0-0.1,0.1-0.1c0,0,0,0,0,0c0,0,0,0,0,0
		c0,0,0,0,0,0c0,0,0,0,0,0c0,0,0,0,0,0c0,0,0,0,0,0c0,0,0,0,0-0.1v0c0,0,0,0,0,0c0,0,0,0,0,0c0,0,0,0,0,0c0,0,0,0,0,0c0,0,0,0,0,0
		c0,0,0,0,0,0c0,0,0,0,0,0c0,0,0,0,0,0c0,0,0,0,0,0c0,0,0,0,0,0c0.1,0,0.1,0,0.1-0.1c0-0.1-0.1-0.1-0.2-0.1c-0.1,0-0.1,0-0.1,0.1
		c0,0.1-0.1,0.1-0.1,0.1c-0.1,0-0.2,0-0.2,0c0,0,0-0.1,0-0.2c0,0-0.1,0-0.1,0l0,0c0,0.1,0,0.1-0.1,0.1c0,0-0.1,0-0.1,0
		c0-0.1-0.1,0-0.1-0.1c-0.1,0.1-0.2,0-0.3,0.1c0,0-0.1,0.1-0.1,0c0,0,0,0-0.1,0c-0.1,0-0.2,0-0.3,0h0c-0.1,0-0.2,0-0.2,0
		c-0.2,0-0.4,0-0.6,0c0,0,0,0,0,0c0,0,0,0,0,0c0,0,0,0,0,0c0,0,0,0,0,0c0,0,0,0,0,0c0,0,0,0,0,0l0,0c0,0,0,0,0,0c0,0,0,0,0,0
		c0,0,0,0,0,0c0,0,0,0,0-0.1c0,0,0,0,0-0.1c0,0,0,0,0,0c0,0,0,0,0-0.1c0,0,0,0,0,0c0,0,0-0.1,0-0.1c-0.3-0.4-0.5-1-0.6-1.5
		c0,0,0-0.1,0-0.1c0,0,0-0.1,0-0.1c0,0-0.1,0-0.1,0.1c0,0,0,0.1-0.1,0.1c0,0.1,0,0.2-0.2,0.2c0,0,0,0,0,0c0,0.1-0.1,0.2,0,0.3
		c0,0,0,0,0,0c0,0.1-0.1,0.1-0.1,0.2c0,0,0-0.1,0-0.1c0,0,0-0.1,0-0.1c0,0-0.1,0-0.1,0c-0.1,0.3-0.2,0.5-0.2,0.8c0,0,0,0.1,0,0.1
		c0,0,0,0.1,0,0.1c0,0,0,0,0,0v0c0,0,0,0,0,0c0,0,0,0.1,0,0.1c0,0.1-0.1,0.1-0.2,0.1c-0.2,0-0.5,0-0.7,0c-0.4,0-0.9,0-1.3,0
		c-0.1,0-0.2,0-0.3,0c0,0-0.1,0-0.1,0c-0.4,0-0.7,0.1-1.1,0.1c-0.4,0-0.2,0.1-0.3,0.1C11.2,13.2,11.1,13.2,11.1,13.2
		c-0.3,0-0.7,0-1,0v0C10.4,13.2,10.7,13.3,11.1,13.2 M14.2,16.6c-0.1,0,0.1-0.3,0.2-0.4C14.5,16.2,14.3,16.5,14.2,16.6 M15.5,12
		c0,0.1,0,0.3-0.1,0.5C15.4,12.5,15.5,12.1,15.5,12"/>
	<path class="st11" d="M20,13C20,13,20,13,20,13C20,13,20,13,20,13C20,13,20,13,20,13"/>
</g>
</svg>
