<?xml version="1.0" standalone="no"?>
<!DOCTYPE svg PUBLIC "-//W3C//DTD SVG 20010904//EN"
 "http://www.w3.org/TR/2001/REC-SVG-20010904/DTD/svg10.dtd">
<svg version="1.0" xmlns="http://www.w3.org/2000/svg"
 width="700.000000pt" height="700.000000pt" viewBox="0 0 700.000000 700.000000"
 preserveAspectRatio="xMidYMid meet">
<metadata>
Created by potrace 1.14, written by Peter Selinger 2001-2017
</metadata>
<g transform="translate(0.000000,700.000000) scale(0.100000,-0.100000)"
fill="#000000" stroke="none">
<path d="M3190 6560 c0 -5 9 -19 20 -30 l20 -20 -33 0 c-19 0 -37 -3 -41 -7
-4 -4 -25 -6 -46 -4 -23 1 -48 -4 -61 -13 -22 -15 -23 -14 -63 21 -11 9 -18 8
-35 -8 -21 -20 -31 -76 -11 -64 16 10 24 -24 11 -49 -7 -12 -28 -34 -46 -49
l-35 -27 -20 20 c-34 34 -55 12 -112 -123 -31 -73 -36 -113 -17 -132 6 -6 9
-6 7 0 -2 6 0 10 3 10 3 0 14 7 25 15 12 10 9 3 -7 -20 -40 -54 -43 -69 -15
-95 39 -36 30 -87 -27 -162 -42 -54 -46 -65 -35 -82 10 -17 6 -25 -39 -70 -40
-39 -58 -51 -82 -51 -17 0 -32 -4 -32 -10 -1 -5 -2 -33 -3 -61 -1 -36 -6 -53
-18 -60 -14 -8 -12 -13 17 -42 41 -41 53 -81 33 -105 -18 -22 -41 -92 -37
-118 1 -12 -24 -46 -72 -95 -84 -88 -102 -99 -157 -99 -83 0 -134 -36 -106
-75 8 -10 14 -27 14 -37 0 -31 43 -43 101 -29 35 9 54 10 61 3 12 -12 2 -62
-12 -62 -24 0 -110 -86 -110 -109 0 -14 -6 -21 -19 -21 -11 0 -21 -9 -25 -22
-3 -13 -19 -31 -36 -40 -18 -10 -30 -25 -30 -38 0 -12 -9 -24 -23 -29 -13 -5
-31 -20 -40 -34 -9 -13 -37 -45 -64 -71 -29 -29 -48 -56 -48 -71 -2 -30 -56
-75 -121 -100 -26 -10 -57 -28 -68 -41 -12 -13 -34 -26 -50 -28 -16 -3 -32
-10 -35 -15 -3 -5 -24 -12 -46 -16 -51 -10 -65 -17 -152 -82 -40 -29 -73 -60
-73 -69 0 -30 -60 -93 -114 -118 -50 -24 -74 -55 -60 -77 6 -10 94 38 143 77
20 16 57 39 83 51 45 21 50 21 84 7 20 -8 42 -13 49 -11 6 3 18 -4 26 -15 33
-48 63 -80 90 -94 29 -15 38 -41 19 -60 -8 -8 -2 -20 17 -41 15 -16 27 -37 25
-45 -7 -38 118 -64 165 -35 12 8 63 -11 63 -23 0 -4 -25 -7 -55 -6 -35 1 -55
-3 -55 -10 0 -16 56 -38 77 -30 15 6 15 5 -1 -13 -10 -11 -19 -31 -20 -46 -3
-23 -30 -54 -48 -55 -5 0 -8 -14 -8 -30 0 -22 6 -33 23 -40 19 -8 10 -15 -15
-11 -4 0 -18 -3 -31 -8 -19 -8 -23 -15 -20 -35 3 -16 12 -26 22 -26 22 0 41
-19 35 -35 -3 -8 5 -12 23 -13 72 0 84 -8 27 -18 -39 -7 -44 -12 -40 -37 3
-12 5 -24 5 -27 1 -3 11 -6 24 -7 12 -1 28 -11 36 -23 7 -11 24 -20 37 -20 15
0 24 -6 24 -16 0 -14 -8 -15 -56 -9 -54 6 -55 6 -44 -14 13 -25 -2 -23 192
-25 86 -1 160 -5 164 -9 7 -6 -19 -11 -53 -10 -7 1 -13 -3 -13 -8 0 -13 74
-16 110 -3 13 4 13 6 0 15 -11 7 -8 8 11 4 14 -4 32 -7 40 -9 8 -2 30 -6 49
-10 56 -12 74 -14 93 -15 10 -1 16 -5 12 -11 -9 -14 70 -31 133 -28 l57 3 -65
17 -65 18 100 -7 c158 -12 974 -10 967 2 -3 6 2 4 11 -4 14 -11 36 -12 105 -5
80 8 159 9 215 3 12 -2 66 1 120 5 54 4 194 8 310 9 199 1 211 5 55 20 -15 1
-30 6 -35 11 -7 8 129 3 210 -8 21 -2 25 0 17 10 -9 9 -5 12 15 10 14 -2 27 0
30 3 3 6 -20 11 -62 14 -7 0 -13 4 -13 8 0 13 43 21 89 15 36 -4 40 -2 30 10
-10 12 -3 14 40 14 36 0 53 -4 57 -14 3 -8 12 -12 20 -9 8 3 21 0 29 -7 12
-10 15 -9 15 9 0 19 6 21 53 22 28 1 57 2 62 4 6 1 16 3 23 3 6 1 12 5 12 10
0 4 -32 7 -72 7 -45 0 -73 4 -75 11 -3 8 14 11 54 10 42 -1 57 3 56 12 -2 6 2
12 7 12 6 0 10 5 10 10 0 6 -11 10 -24 10 -14 0 -28 4 -31 10 -3 5 -15 10 -26
10 -11 0 -34 7 -51 16 -36 19 -23 34 28 32 16 -1 39 4 50 10 19 11 19 11 -1
12 -11 1 -48 1 -82 1 -35 1 -65 5 -68 10 -4 5 21 9 57 9 52 0 65 3 76 20 11
18 10 20 -11 20 -13 0 -27 4 -32 9 -6 6 -22 12 -37 15 -15 2 -33 8 -40 13 -7
4 -33 9 -58 9 -79 2 -90 4 -90 13 0 5 15 9 33 9 63 -1 112 4 99 9 -6 2 -10 9
-6 14 3 5 2 9 -3 7 -4 -1 -27 2 -51 6 l-42 8 22 19 c25 20 23 21 -41 24 -45 1
-55 25 -11 25 23 0 33 5 37 20 4 15 14 20 39 20 24 0 32 4 28 14 -3 8 0 17 7
22 8 4 10 3 5 -4 -8 -13 -2 -14 39 -14 50 0 55 2 48 20 -3 9 -3 14 2 10 13
-12 45 11 39 27 -4 11 1 15 17 16 l24 0 -23 10 c-26 10 -46 3 -36 -13 4 -6 -5
-9 -22 -7 -16 2 -35 0 -42 -4 -7 -5 -12 -3 -12 3 0 8 -9 10 -25 6 -14 -4 -25
-2 -25 4 0 5 4 10 10 10 5 0 7 7 4 15 -4 10 0 15 12 16 11 1 37 2 59 3 22 1
50 3 61 4 46 4 112 102 68 102 -8 0 -13 4 -10 9 3 5 -1 14 -9 21 -13 11 -18
90 -5 90 8 0 30 77 30 106 0 22 -3 24 -22 18 -45 -14 -68 -24 -68 -29 0 -4 5
-3 12 1 7 5 8 3 4 -5 -6 -9 -13 -8 -27 5 -26 24 -24 31 17 50 23 11 31 20 24
24 -7 4 -8 10 -4 12 5 3 4 4 -2 2 -6 -1 -17 3 -24 9 -10 9 -11 9 -6 0 4 -7 2
-13 -3 -13 -19 0 -26 -2 -43 -11 -12 -6 -18 -6 -18 0 0 5 -7 16 -15 24 -12 13
-11 15 15 20 16 4 31 15 35 26 8 25 51 54 82 54 28 0 31 23 2 32 -26 8 -20 28
11 35 24 6 41 30 21 30 -7 0 -11 22 -11 54 0 51 2 55 30 65 17 5 30 13 30 16
0 3 -16 -2 -36 -10 -44 -18 -52 -19 -36 -3 14 14 33 19 87 23 22 1 48 3 59 4
11 0 16 6 13 15 -4 11 24 27 106 62 135 57 191 84 184 90 -5 6 -112 -35 -207
-79 -31 -14 -79 -35 -109 -46 l-53 -22 31 39 c41 53 42 53 161 96 58 20 119
43 135 51 28 12 26 13 -41 10 -39 -2 -80 -8 -90 -14 -10 -5 -40 -19 -65 -29
l-46 -20 11 38 c10 36 52 80 74 80 14 0 205 80 217 91 16 16 -39 10 -98 -10
-31 -11 -71 -22 -90 -25 -19 -3 -40 -8 -48 -10 -31 -11 -69 -14 -69 -5 0 5 3
9 8 10 46 5 74 17 67 30 -4 6 2 13 12 15 22 6 28 40 7 48 -14 5 -43 -4 -74
-23 -45 -28 -86 -41 -116 -35 -18 3 -39 2 -46 -2 -7 -5 -67 -7 -133 -6 -130 2
-187 -4 -164 -19 8 -5 9 -9 4 -9 -6 0 -16 5 -22 11 -8 8 -13 7 -18 -2 -6 -8
-4 -10 5 -4 8 5 11 4 7 -1 -10 -18 -222 -26 -222 -9 0 6 14 10 30 11 51 1 131
15 171 30 l39 14 -65 -1 c-36 0 -116 0 -177 0 -104 1 -113 2 -113 20 0 21 24
30 69 25 19 -2 30 1 28 8 -1 8 87 12 324 13 316 2 327 2 361 23 20 12 50 22
67 22 22 0 30 4 25 11 -5 9 8 10 45 7 57 -6 83 9 55 32 -14 12 -14 15 3 24 10
6 38 12 63 13 46 2 70 20 70 55 0 10 17 29 39 42 44 28 108 99 122 136 6 13
11 40 12 60 2 27 6 35 22 36 11 1 24 2 28 3 9 1 -24 61 -34 61 -9 0 -29 -57
-23 -63 3 -3 -13 -5 -35 -5 -37 -1 -40 1 -28 19 6 10 15 19 19 19 5 0 8 9 8
21 0 16 4 19 20 14 11 -4 20 -2 20 4 0 6 -7 11 -15 11 -8 0 -15 4 -15 9 0 5
-7 17 -16 25 -14 14 -17 14 -39 0 -13 -9 -29 -13 -35 -9 -5 3 -10 2 -10 -4 0
-6 -6 -8 -13 -5 -7 2 -30 -2 -50 -11 -46 -19 -47 -14 -4 14 17 11 27 21 22 21
-6 0 -43 -20 -82 -45 -80 -49 -229 -125 -198 -100 11 9 49 32 85 51 36 19 88
55 115 80 28 25 44 43 38 39 -7 -3 -22 -8 -34 -10 -11 -2 -30 -7 -42 -11 -18
-5 -20 -4 -9 7 6 7 12 24 12 36 0 24 0 24 -117 22 -65 -1 -127 -5 -138 -10
-11 -4 -14 -8 -6 -8 8 -1 12 -3 9 -6 -8 -9 -38 6 -32 16 3 5 -9 10 -25 10 -46
2 -49 3 -62 16 -15 15 7 21 106 28 86 5 130 18 139 41 8 21 -18 28 -72 19 -26
-5 -81 -9 -122 -10 -43 -1 -91 -9 -112 -19 -46 -20 -88 -21 -113 -2 -23 16
-50 7 -77 -27 -17 -22 -88 -34 -88 -16 0 17 -18 9 -23 -11 -4 -15 -14 -20 -40
-20 -20 0 -40 -7 -48 -16 -23 -28 -52 -33 -81 -16 -33 19 -34 23 -7 40 15 10
19 21 17 49 -5 61 -21 55 -106 -40 -18 -21 -29 -25 -59 -21 -42 5 -44 6 -47
27 -3 20 -26 47 -40 47 -7 0 -22 -13 -33 -29 -14 -18 -37 -32 -65 -39 -51 -13
-71 -32 -87 -84 -7 -20 -23 -48 -37 -63 -20 -22 -27 -25 -40 -14 -8 6 -14 19
-12 28 4 24 -10 41 -34 41 -17 0 -18 2 -8 15 7 9 15 13 18 10 9 -9 42 27 42
47 0 10 -7 32 -15 48 -9 17 -15 32 -14 35 4 19 -26 65 -43 65 -25 0 -31 24
-47 189 -7 79 -8 76 44 116 11 8 16 15 10 14 -28 -4 -35 3 -35 37 0 27 -5 37
-20 41 -20 5 -28 23 -11 23 6 0 9 9 8 20 -1 11 -7 20 -14 20 -7 0 -12 3 -12 8
3 18 -2 32 -12 32 -5 0 -7 -4 -4 -10 3 -6 -1 -7 -9 -4 -9 3 -16 14 -16 23 0
10 -17 37 -38 60 -28 32 -48 44 -75 48 -52 7 -122 44 -122 66 0 9 -3 17 -7 17
-5 0 -16 0 -27 0 -10 0 -35 -12 -56 -26 -53 -36 -95 -41 -119 -16 -18 20 -17
21 13 20 38 -1 61 17 61 49 0 29 29 43 42 20 14 -26 44 -38 69 -28 17 6 32 3
54 -10 38 -24 52 -24 64 0 8 14 5 23 -10 40 -15 16 -31 21 -72 21 -29 0 -62 6
-72 14 -14 10 -26 11 -48 3 -33 -11 -184 6 -201 23 -13 13 -26 13 -26 0z m66
-81 c7 -12 -15 -31 -31 -26 -5 2 -11 11 -13 20 -4 19 32 24 44 6z m1619 -869
c3 -5 1 -10 -4 -10 -6 0 -11 5 -11 10 0 6 2 10 4 10 3 0 8 -4 11 -10z m-522
-22 c-2 -5 -3 -18 -3 -31 0 -18 -8 -25 -42 -34 l-43 -11 27 20 c22 15 27 25
22 45 -6 22 -4 24 17 21 13 -1 23 -6 22 -10z m1137 -72 c0 -2 -8 -10 -17 -17
-16 -13 -17 -12 -4 4 13 16 21 21 21 13z m-1475 -116 c-3 -5 4 -14 15 -20 32
-17 18 -34 -33 -40 -41 -5 -45 -4 -32 10 7 8 18 28 24 43 6 16 16 25 21 22 6
-4 8 -10 5 -15z m114 -26 c-27 -29 -39 -30 -39 -6 0 19 38 44 53 35 5 -3 -2
-16 -14 -29z m-295 -8 c-6 -16 24 -36 44 -29 6 3 12 -2 12 -10 0 -20 19 -26
46 -16 11 4 27 4 34 -1 16 -10 -25 -25 -58 -21 -13 1 -42 -10 -64 -25 -28 -20
-59 -30 -106 -36 -36 -4 -70 -12 -76 -18 -7 -7 4 -9 38 -5 27 4 52 6 55 7 3 0
13 0 21 -1 29 -2 -9 -25 -47 -27 -40 -3 -103 -11 -140 -19 -17 -4 -21 -2 -17
10 5 11 2 13 -10 9 -9 -3 -16 -1 -16 5 0 15 47 44 60 36 6 -4 22 0 35 9 13 9
32 16 41 16 9 0 30 14 46 30 15 17 36 31 46 32 9 0 22 2 27 3 6 2 16 3 23 4
17 1 15 21 -3 21 -8 0 -15 9 -15 20 0 11 7 20 15 20 8 0 12 -6 9 -14z m-144
-216 c0 -5 -8 -10 -17 -10 -15 0 -16 2 -3 10 19 12 20 12 20 0z m-313 -236
c-3 -3 -12 -4 -19 -1 -8 3 -5 6 6 6 11 1 17 -2 13 -5z m793 -4 c0 -5 18 -10
40 -10 22 0 40 4 40 9 0 11 54 -5 86 -26 11 -7 23 -10 27 -7 3 3 15 3 27 -1
12 -4 19 -9 17 -12 -10 -9 -77 -21 -77 -14 0 4 -12 13 -26 20 -22 10 -25 9
-21 -2 4 -11 -2 -14 -26 -11 -18 1 -36 3 -40 3 -5 1 -6 5 -3 10 3 5 -14 5 -39
0 -25 -5 -76 -10 -115 -11 -63 -2 -69 -4 -75 -25 -6 -24 -48 -33 -60 -12 -4 6
-16 14 -26 17 -17 7 -15 10 14 33 27 22 46 27 121 32 49 4 92 9 94 12 9 9 42
5 42 -5z m-313 -49 c11 -17 7 -19 -39 -24 -29 -4 -56 -11 -62 -17 -5 -5 -22
-10 -37 -10 -15 0 -30 -3 -33 -8 -6 -9 -215 -7 -239 3 -11 4 -23 3 -30 -4 -14
-14 -47 -15 -47 -1 0 6 -7 10 -15 10 -8 0 -15 -4 -15 -9 0 -12 -53 -20 -167
-26 -76 -4 -93 -2 -105 12 -10 13 -10 15 0 9 8 -5 20 -2 30 7 12 11 47 18 107
21 100 7 244 16 290 20 17 1 45 -1 64 -5 19 -4 43 -3 53 2 10 5 37 12 60 15
24 3 58 9 76 12 69 14 97 12 109 -7z m1133 0 c0 -5 -9 -7 -20 -4 -11 3 -20 7
-20 9 0 2 9 4 20 4 11 0 20 -4 20 -9z m137 -18 c-15 -15 -37 -10 -37 8 0 6 9
7 21 4 16 -5 19 -4 14 5 -6 9 -4 11 4 5 10 -6 10 -11 -2 -22z m-2722 -34 c-4
-5 -10 -7 -15 -4 -4 3 -10 -4 -13 -15 -3 -11 -10 -20 -15 -20 -7 0 -5 11 3 27
8 15 11 31 8 36 -3 5 4 4 16 -3 12 -6 19 -15 16 -21z m1102 -291 c1 -18 3 -56
7 -85 3 -29 1 -55 -4 -58 -6 -3 -10 1 -10 9 0 9 -6 13 -13 10 -20 -7 -48 -107
-52 -182 -2 -35 -6 -67 -10 -70 -3 -3 -151 -7 -329 -7 -178 -1 -328 -5 -334
-9 -6 -3 -13 -2 -16 3 -14 22 31 26 279 26 276 1 325 8 322 47 -1 10 -5 18
-10 18 -9 0 -3 45 12 98 5 18 9 33 9 35 -1 1 2 12 6 25 9 28 30 29 23 1 -4
-16 -3 -19 5 -11 6 6 12 27 14 46 1 25 15 52 44 86 23 28 45 50 49 50 4 0 8
-15 8 -32z m563 -404 c0 -8 -8 -14 -18 -14 -10 0 -21 -3 -25 -6 -7 -7 -279 -5
-286 2 -10 10 10 13 104 15 55 1 110 7 123 13 15 6 26 6 30 0 9 -13 28 -12 43
3 14 14 29 8 29 -13z m125 5 c11 -16 -3 -23 -19 -10 -11 9 -15 8 -20 -4 -3 -8
-12 -15 -21 -15 -13 0 -14 4 -5 20 11 21 54 27 65 9z m703 -16 c-4 -23 -58
-31 -58 -9 0 13 11 18 53 25 5 0 7 -7 5 -16z m107 -23 c-3 -5 -12 -10 -18 -10
-7 0 -6 4 3 10 19 12 23 12 15 0z m5 -34 c0 -11 -19 -15 -25 -6 -3 5 1 10 9
10 9 0 16 -2 16 -4z m-1085 -416 c45 -109 110 -223 150 -261 39 -38 42 -46 20
-46 -26 0 -140 157 -151 207 -3 14 -21 63 -40 110 -34 86 -44 123 -22 85 6
-11 26 -53 43 -95z m-699 48 c-4 -13 -9 -33 -11 -45 -9 -39 -76 -192 -91 -204
-8 -6 -17 -29 -20 -51 -7 -40 -18 -55 -29 -38 -3 5 21 65 54 132 32 68 65 143
71 168 13 48 18 60 27 60 3 0 2 -10 -1 -22z m1477 -515 c-7 -2 -19 -2 -25 0
-7 3 -2 5 12 5 14 0 19 -2 13 -5z"/>
<path d="M3382 4325 c0 -16 2 -22 5 -12 2 9 2 23 0 30 -3 6 -5 -1 -5 -18z"/>
<path d="M3640 6516 c0 -9 5 -16 10 -16 6 0 10 4 10 9 0 6 -4 13 -10 16 -5 3
-10 -1 -10 -9z"/>
<path d="M3820 6496 c0 -9 5 -16 10 -16 6 0 10 4 10 9 0 6 -4 13 -10 16 -5 3
-10 -1 -10 -9z"/>
<path d="M3777 6344 c-13 -13 7 -44 29 -44 25 0 29 7 16 26 -9 13 -38 25 -45
18z"/>
<path d="M5372 5657 c-9 -10 -3 -13 24 -14 28 0 32 2 23 13 -14 18 -33 18 -47
1z"/>
<path d="M5742 5448 c-16 -16 -15 -34 4 -53 19 -19 44 -4 44 26 0 24 -33 42
-48 27z"/>
<path d="M5565 5019 c-12 -19 5 -23 22 -6 16 16 16 17 1 17 -9 0 -20 -5 -23
-11z"/>
<path d="M5490 4930 c-8 -16 -8 -20 3 -20 8 0 20 6 26 14 9 10 8 15 -4 19 -9
4 -19 -2 -25 -13z"/>
<path d="M5555 4801 c-6 -11 9 -23 19 -14 9 9 7 23 -3 23 -6 0 -12 -4 -16 -9z"/>
<path d="M4998 4252 c-16 -9 -28 -22 -28 -28 0 -7 -6 -15 -12 -17 -7 -3 1 -6
17 -6 41 -1 57 12 53 42 -3 26 -3 26 -30 9z"/>
<path d="M4997 4170 c3 -11 7 -20 9 -20 2 0 4 9 4 20 0 11 -4 20 -9 20 -5 0
-7 -9 -4 -20z"/>
<path d="M5092 3874 c2 -32 0 -39 -17 -42 -46 -7 -48 -11 -31 -37 17 -26 13
-95 -5 -95 -5 0 -9 -9 -9 -21 0 -15 4 -19 16 -15 9 3 24 6 33 6 24 0 61 33 61
54 0 14 7 16 38 12 20 -3 28 -3 18 0 -11 4 -25 11 -31 18 -13 13 -55 114 -55
132 0 7 -5 16 -11 20 -7 4 -10 -6 -7 -32z"/>
<path d="M5006 3695 c-9 -26 -7 -32 5 -12 6 10 9 21 6 23 -2 3 -7 -2 -11 -11z"/>
<path d="M4810 3530 c-13 -8 -12 -10 3 -10 9 0 17 5 17 10 0 12 -1 12 -20 0z"/>
<path d="M4898 3503 c7 -3 16 -2 19 1 4 3 -2 6 -13 5 -11 0 -14 -3 -6 -6z"/>
<path d="M4946 3299 c3 -5 12 -9 21 -9 19 0 9 13 -12 16 -8 1 -13 -2 -9 -7z"/>
<path d="M4818 3143 c6 -2 18 -2 25 0 6 3 1 5 -13 5 -14 0 -19 -2 -12 -5z"/>
<path d="M2468 3043 c7 -3 16 -2 19 1 4 3 -2 6 -13 5 -11 0 -14 -3 -6 -6z"/>
<path d="M4625 3000 c-3 -5 3 -10 15 -10 12 0 19 -4 16 -9 -3 -5 -74 -6 -158
-4 -243 8 -540 2 -618 -11 -14 -3 -54 -7 -88 -10 -35 -3 -68 -8 -72 -11 -5 -3
-11 -1 -15 5 -3 5 1 10 10 10 9 0 14 4 11 9 -6 9 -56 6 -106 -6 -23 -5 -24 -6
-5 -14 12 -4 0 -5 -30 -2 -57 7 -72 13 -30 13 16 0 25 3 22 7 -8 7 -81 6 -197
-4 -41 -3 -112 -6 -157 -7 -46 -1 -83 -2 -83 -4 0 -1 10 -7 23 -12 18 -7 12
-9 -27 -9 -42 -1 -47 1 -33 12 15 10 10 12 -30 10 -27 -1 -58 -2 -70 -2 -33
-1 -29 -21 4 -21 25 0 26 -12 0 -16 -91 -12 -147 -14 -172 -3 -34 13 -125 20
-125 9 0 -11 32 -18 70 -15 28 3 31 1 15 -8 -28 -15 -125 -15 -125 1 0 11 -54
29 -71 24 -4 -1 -5 9 -2 21 4 19 3 20 -7 5 -11 -18 -27 -18 -140 -3 -26 3 -30
2 -15 -5 17 -7 15 -9 -13 -9 -18 -1 -46 6 -62 14 -24 12 -31 13 -42 1 -10 -9
-60 -15 -168 -20 -84 -3 -155 -8 -158 -10 -11 -11 101 -18 158 -10 36 6 126 7
200 4 74 -3 121 -7 103 -8 -53 -3 -45 -17 10 -16 29 0 66 -3 82 -7 38 -9 -304
-15 -490 -9 -38 1 -86 1 -105 0 -19 -1 -39 -1 -45 0 -5 1 -19 2 -30 1 -18 -1
-20 -7 -17 -62 3 -41 -2 -76 -13 -105 -9 -24 -15 -61 -13 -81 l3 -38 -55 -3
c-61 -3 -85 -17 -57 -33 9 -6 29 -33 43 -62 31 -62 57 -85 126 -113 42 -18 52
-27 55 -49 2 -15 11 -34 19 -42 19 -20 44 -80 44 -108 0 -16 8 -26 29 -33 25
-9 31 -17 36 -56 7 -46 12 -50 50 -46 16 2 17 -1 7 -13 -31 -37 40 -85 123
-82 38 1 58 -2 62 -11 2 -7 10 -11 16 -8 7 2 13 -6 13 -21 2 -33 30 -74 57
-85 12 -5 16 -9 8 -9 -10 -1 -11 -4 -2 -15 9 -11 9 -14 -1 -13 -24 2 -98 -24
-98 -34 0 -6 8 -8 17 -5 28 11 105 27 110 23 3 -4 -40 -18 -57 -19 -3 0 -16
-8 -30 -18 -14 -10 -43 -22 -64 -25 -48 -9 -30 -22 29 -20 26 0 45 -4 45 -9 0
-6 -14 -27 -30 -46 -16 -19 -30 -40 -30 -46 0 -5 -18 -10 -40 -9 -22 1 -40 -3
-40 -8 0 -14 32 -36 51 -37 18 0 29 -20 29 -49 0 -14 -7 -18 -25 -16 -24 3
-30 -7 -26 -42 1 -6 -3 -14 -9 -18 -5 -3 -10 -23 -10 -44 0 -28 -6 -42 -21
-53 -19 -12 -20 -16 -8 -36 7 -12 26 -26 41 -33 14 -6 46 -31 70 -55 24 -24
51 -47 61 -50 13 -4 17 -12 14 -25 -3 -11 0 -19 7 -19 19 0 64 -52 71 -83 4
-15 3 -27 -1 -26 -23 4 -32 -4 -38 -33 -4 -19 -1 -39 8 -52 7 -12 14 -24 15
-29 0 -4 13 -21 28 -38 38 -41 91 -164 85 -194 -4 -21 -7 -23 -24 -14 -11 6
-28 28 -37 50 -24 59 -31 47 -11 -20 23 -78 26 -81 62 -81 19 0 42 -9 56 -22
l24 -23 -7 25 c-8 25 -7 25 13 6 16 -14 30 -17 58 -13 21 4 40 10 43 15 3 5
22 9 42 9 42 1 114 35 123 58 3 9 6 25 6 35 0 19 20 40 42 44 7 1 28 10 46 20
27 14 32 21 26 39 -11 37 -10 41 14 45 29 5 28 22 -2 22 -13 0 -30 8 -37 17
-8 10 -9 14 -2 10 6 -4 14 -3 18 3 3 5 3 10 -2 11 -45 4 -70 20 -59 38 4 6 17
11 29 11 l22 0 -24 19 c-20 15 -22 21 -12 39 6 11 24 23 41 27 16 4 30 13 30
20 0 8 -7 11 -20 8 -16 -4 -19 -2 -14 11 6 17 -31 54 -48 48 -5 -1 -8 9 -8 23
0 25 -25 73 -44 87 -25 17 76 88 126 89 30 0 31 1 11 9 -13 5 -23 16 -23 24 0
9 -7 13 -20 11 -25 -5 -27 17 -3 36 13 11 17 11 20 2 3 -8 22 -13 51 -12 l47
0 -45 17 c-25 10 -46 25 -48 35 -4 21 14 23 22 2 3 -8 15 -15 27 -15 28 0 100
-21 118 -34 17 -13 41 -17 41 -6 0 5 10 12 21 15 l21 7 -21 22 c-12 11 -35 26
-51 31 -39 13 -42 29 -7 33 15 2 32 12 37 23 12 22 40 25 59 7 11 -11 12 -10
6 0 -4 8 -26 22 -49 31 -43 19 -73 46 -59 54 4 2 20 7 36 11 30 7 35 27 11 47
-14 11 -12 14 13 28 15 8 55 16 88 17 77 2 75 2 75 17 0 9 -10 12 -30 9 -32
-5 -90 14 -90 29 0 5 15 9 33 10 29 0 30 1 10 9 -14 6 -34 5 -53 -1 -35 -13
-60 -6 -60 16 0 18 25 19 86 4 48 -12 69 -4 59 23 -5 11 -21 15 -65 13 -74 -1
-64 16 11 20 43 2 56 -1 75 -20 14 -14 27 -19 35 -14 7 4 17 5 21 3 4 -3 8 2
8 10 0 21 -39 46 -71 46 -43 0 -89 12 -89 22 0 6 26 8 68 4 60 -5 69 -3 80 14
8 13 10 35 6 60 l-7 40 30 -6 c25 -5 31 -2 35 14 6 21 -18 52 -39 52 -14 0 -5
40 15 63 16 18 15 19 -36 19 -31 1 -32 2 -18 16 24 25 102 19 132 -9 24 -22
24 -22 39 -3 17 23 19 34 5 34 -5 0 -10 -4 -10 -10 0 -5 -6 -7 -14 -4 -12 5
-12 10 2 36 26 49 53 71 82 70 23 0 30 6 45 41 16 40 21 44 109 76 50 19 101
40 113 47 12 7 58 15 102 18 45 2 88 10 97 16 8 7 17 10 21 7 3 -4 11 -2 18 3
19 16 321 30 344 16 11 -7 41 3 41 13 0 3 -105 6 -234 6 -215 0 -233 1 -225
16 9 17 54 26 149 31 25 1 59 7 75 14 49 20 100 22 136 7 27 -11 31 -16 19
-24 -11 -8 -5 -9 23 -4 23 4 37 2 37 -5 0 -5 17 -9 38 -9 l37 2 -35 7 c-30 6
-26 8 28 9 60 1 67 4 130 51 48 36 72 48 88 44 12 -3 25 -1 28 5 10 15 60 14
101 -3 33 -14 35 -14 53 12 66 97 108 202 79 202 -8 0 -34 9 -58 20 l-44 20
45 -4 45 -5 -54 18 c-30 10 -64 27 -76 37 -12 10 -36 20 -54 20 -29 2 -30 1
-14 -11 17 -13 17 -14 -2 -10 -11 2 -24 4 -28 4 -5 1 -6 5 -3 9 3 5 -1 9 -9 9
-8 0 -12 -4 -9 -8 10 -17 -17 -19 -46 -4 -17 9 -35 13 -40 10 -5 -3 -28 3 -52
15 -49 23 -45 23 -53 10z m-220 -80 c-4 -7 -47 -10 -111 -9 -57 1 -101 5 -98
10 3 5 52 9 110 9 71 0 103 -3 99 -10z m-1875 -8 c0 -4 -10 -9 -22 -9 -18 -2
-20 0 -8 7 18 12 30 13 30 2z m550 -21 c-14 -4 -63 -8 -110 -8 -68 0 -75 1
-35 6 77 9 175 11 145 2z m-674 -962 c3 -6 1 -16 -5 -22 -9 -9 -14 -8 -21 3
-9 15 -4 30 10 30 5 0 12 -5 16 -11z m754 -99 c0 -5 -4 -10 -10 -10 -5 0 -10
5 -10 10 0 6 5 10 10 10 6 0 10 -4 10 -10z m-10 -184 c0 -22 -38 -26 -63 -5
l-22 18 43 1 c29 0 42 -4 42 -14z"/>
<path d="M2253 2993 c-13 -2 -23 -9 -23 -14 0 -13 43 -5 48 9 2 7 2 11 0 11
-1 -1 -13 -4 -25 -6z"/>
<path d="M2996 2984 c-3 -9 3 -11 22 -8 39 7 47 20 13 20 -17 0 -32 -5 -35
-12z"/>
<path d="M2210 2900 c0 -6 -6 -8 -12 -4 -8 4 -9 3 -5 -2 4 -4 24 -9 43 -9 36
-1 35 8 -3 20 -15 4 -23 2 -23 -5z"/>
<path d="M5120 2895 c7 -8 16 -12 21 -9 13 8 1 24 -18 24 -13 0 -13 -3 -3 -15z"/>
<path d="M3763 2340 c-1 -15 4 -20 22 -20 16 0 22 5 21 18 -4 25 -41 28 -43 2z"/>
<path d="M3527 1854 c-7 -8 3 -34 13 -34 9 0 8 26 -1 35 -3 3 -8 2 -12 -1z"/>
<path d="M3531 1781 c-8 -5 -9 -11 -3 -15 5 -3 12 1 16 9 6 17 6 18 -13 6z"/>
<path d="M3433 1754 c27 -9 51 -13 55 -10 11 11 -7 18 -55 22 l-48 4 48 -16z"/>
<path d="M3550 1731 c0 -6 5 -13 10 -16 6 -3 10 1 10 9 0 9 -4 16 -10 16 -5 0
-10 -4 -10 -9z"/>
<path d="M3128 1353 c7 -3 16 -2 19 1 4 3 -2 6 -13 5 -11 0 -14 -3 -6 -6z"/>
<path d="M2280 1121 c0 -5 5 -13 10 -16 6 -3 10 -2 10 4 0 5 -4 13 -10 16 -5
3 -10 2 -10 -4z"/>
<path d="M2380 1000 c0 -5 5 -10 11 -10 5 0 7 5 4 10 -3 6 -8 10 -11 10 -2 0
-4 -4 -4 -10z"/>
</g>
</svg>
